<svg width="484" height="160" viewBox="0 0 484 160" fill="none" xmlns="http://www.w3.org/2000/svg">
<rect x="10.9106" y="16.7667" width="133.045" height="133.045" rx="23.5547" fill="#151AAF"/>
<path d="M57.4461 88.4043C59.0904 85.6303 60.643 83.0103 60.8189 80.2306C60.9639 77.9412 60.1559 75.5016 59.3741 73.1423L58.5648 70.7001C57.1598 67.4351 55.7395 64.1779 54.3031 60.9302C54.1657 60.6536 54.0296 60.3744 53.907 60.0805C53.8422 59.9251 53.7838 59.7692 53.7254 59.6132C53.6471 59.4374 53.5669 59.2628 53.4886 59.0869C52.4771 60.2647 51.5297 61.5194 50.6671 62.8628C42.5166 75.553 43.9562 91.6493 53.1285 102.65C52.9655 99.8211 53.3589 96.9662 54.3826 94.3116C55.201 92.193 56.3421 90.2668 57.4461 88.4043Z" fill="url(#paint0_linear_872_3492)"/>
<path d="M112.616 83.7645C111.788 83.9576 110.939 84.1431 110.041 84.3106C109.907 84.3357 109.772 84.3594 109.637 84.3838C108.231 84.4705 106.759 84.4153 105.235 84.3549L104.98 84.3447C101.879 84.2221 98.853 84.1906 95.9192 85.1373C92.0085 86.3985 88.6717 89.3901 86.992 93.1409C85.5421 96.3802 85.3817 99.7799 85.227 103.068C85.2071 103.499 85.1872 103.929 85.1634 104.356C84.9959 107.452 84.598 110.615 82.842 112.79C82.2457 113.527 81.473 114.17 80.5032 114.733C78.4981 114.823 76.4808 114.736 74.4732 114.464C73.651 113.874 72.8629 113.245 72.1177 112.565C68.5793 109.33 66.5775 105.302 66.6262 101.513C66.6667 98.3474 68.0556 95.2076 69.5266 91.8836L69.528 91.8806C71.4254 87.5935 73.3877 83.16 72.6414 78.1639C71.9181 73.3219 68.7751 69.4999 66.0017 66.1277L65.9289 66.0392C65.6504 65.7005 65.3727 65.3628 65.0993 65.0257C62.9004 62.3159 60.0578 58.2743 60.7432 54.4676C60.8684 53.77 61.1168 53.0524 61.4942 52.2861C65.2168 50.0236 69.3277 48.5166 73.5811 47.819C74.8127 49.068 75.9154 50.7194 76.9288 52.8464C77.9487 54.9895 78.6027 56.9721 78.9268 58.9078C79.1117 60.0102 79.1985 61.157 79.2902 62.3702L79.292 62.3942L79.2922 62.3967C79.4719 64.7752 79.6576 67.2338 80.6001 69.6622C81.6649 72.408 83.6295 74.7461 86.087 76.3244C87.3957 77.1652 88.8443 77.7903 90.3719 78.1459C94.5803 79.1285 98.7682 78.0118 101.552 77.0856C102.619 76.7308 103.671 76.3392 104.69 75.96L104.73 75.9451L104.745 75.9392C106.797 75.175 108.736 74.453 110.723 74.0344C111.122 73.9503 111.526 73.8848 111.93 73.8245C112.645 77.0708 112.88 80.4225 112.616 83.7645Z" fill="url(#paint1_linear_872_3492)"/>
<path d="M103.773 64.1549C99.8491 64.2659 96.2382 63.1568 93.5984 61.0183C91.3438 59.1943 89.6662 56.5259 88.0438 53.9453L88.0434 53.9447L84.1616 47.769C88.6826 48.4641 93.1356 50.0867 97.2324 52.7182C101.713 55.5955 105.279 59.3591 107.858 63.6292C106.461 63.9399 105.096 64.1176 103.773 64.1549Z" fill="url(#paint2_linear_872_3492)"/>
<path d="M111.405 89.4395C111.492 89.4356 111.581 89.4311 111.669 89.4266C110.797 92.8335 109.382 96.162 107.378 99.2838C104.836 103.242 101.603 106.487 97.9398 108.968C97.936 107.312 97.6304 105.776 97.3243 104.293C97.0971 103.194 96.8827 102.156 96.8192 101.162C96.592 97.5907 98.4854 93.9297 101.532 92.0517C103.811 90.6467 106.644 90.1391 109.643 89.6019L110.181 89.5037C110.588 89.4825 110.988 89.4594 111.405 89.4395Z" fill="url(#paint3_linear_872_3492)"/>
<rect x="34.884" y="82.4363" width="88.2736" height="32.3312" fill="url(#paint4_linear_872_3492)"/>
<path d="M34.84 82.4363H123.202" stroke="white" stroke-width="3.73592" stroke-linecap="round"/>
<path d="M34.8846 56.4288V50.9394C34.8846 44.4057 40.1813 39.109 46.715 39.109H52.7399" stroke="white" stroke-width="3.73592" stroke-linecap="round"/>
<path d="M34.884 105.836V111.325C34.884 117.859 40.1807 123.156 46.7144 123.156H52.7393" stroke="white" stroke-width="3.73592" stroke-linecap="round"/>
<path d="M123.157 56.4288V50.9394C123.157 44.4057 117.861 39.109 111.327 39.109H105.302" stroke="white" stroke-width="3.73592" stroke-linecap="round"/>
<path d="M123.157 105.836V111.325C123.157 117.859 117.861 123.156 111.327 123.156H105.302" stroke="white" stroke-width="3.73592" stroke-linecap="round"/>
<path d="M180.71 46.5068V69.6899H197.406C203.893 69.6899 208.891 65.2234 208.891 57.992C208.891 50.7606 203.893 46.5068 197.3 46.5068H180.71ZM221.653 57.992C221.653 69.4772 215.059 77.4531 205.807 80.4307L222.503 108.612H208.147L193.259 81.8132H180.71V108.612H167.736V34.1708H197.193C210.805 34.1708 221.653 43.2101 221.653 57.992ZM234.864 34.1708H247.838V108.612H234.864V34.1708ZM292.164 91.916L313.327 34.1708H327.258L298.332 108.612H285.996L257.07 34.1708H271.001L292.164 91.916ZM367.735 44.8053C352.103 44.8053 343.063 56.1841 343.063 71.3914C343.063 86.5987 352.103 97.9776 367.735 97.9776C383.368 97.9776 392.513 86.5987 392.513 71.3914C392.513 56.1841 383.368 44.8053 367.735 44.8053ZM367.735 110.101C346.36 110.101 330.089 94.7873 330.089 71.3914C330.089 47.9956 346.36 32.682 367.735 32.682C389.11 32.682 405.488 47.9956 405.488 71.3914C405.488 94.7873 389.11 110.101 367.735 110.101Z" fill="black"/>
<path d="M441.874 72.0295C449.637 72.0295 455.592 66.2869 455.592 58.4174C455.592 50.2288 449.637 44.6989 441.874 44.6989C434.324 44.6989 427.73 49.9098 427.73 58.4174C427.73 66.4996 434.217 72.0295 441.874 72.0295ZM425.603 108.612L443.682 82.7703C425.922 85.0035 414.756 72.6676 414.756 58.4174C414.756 43.6355 426.241 32.682 441.874 32.682C457.507 32.682 468.567 42.9974 468.567 58.4174C468.46 64.5854 466.546 69.6899 461.016 77.8785L440.492 108.612H425.603Z" fill="#151AAF"/>
<path d="M167.593 137.004V123.318H172.605C173.576 123.318 174.38 123.479 175.017 123.799C175.654 124.116 176.131 124.545 176.447 125.089C176.764 125.628 176.922 126.236 176.922 126.913C176.922 127.484 176.817 127.965 176.608 128.357C176.398 128.744 176.118 129.056 175.766 129.292C175.418 129.524 175.035 129.693 174.616 129.8V129.934C175.071 129.956 175.514 130.103 175.946 130.375C176.383 130.642 176.743 131.023 177.029 131.518C177.314 132.012 177.456 132.614 177.456 133.322C177.456 134.021 177.291 134.65 176.962 135.206C176.637 135.759 176.133 136.198 175.452 136.523C174.77 136.844 173.899 137.004 172.839 137.004H167.593ZM169.658 135.233H172.638C173.627 135.233 174.336 135.042 174.763 134.658C175.191 134.275 175.405 133.796 175.405 133.222C175.405 132.79 175.296 132.393 175.077 132.032C174.859 131.671 174.547 131.384 174.142 131.17C173.741 130.956 173.264 130.849 172.712 130.849H169.658V135.233ZM169.658 129.239H172.424C172.888 129.239 173.304 129.15 173.674 128.972C174.048 128.793 174.344 128.544 174.563 128.223C174.785 127.898 174.897 127.515 174.897 127.074C174.897 126.508 174.699 126.033 174.302 125.65C173.906 125.267 173.297 125.076 172.478 125.076H169.658V129.239ZM180.046 137.004V126.74H181.977V128.37H182.084C182.271 127.818 182.601 127.383 183.073 127.067C183.55 126.746 184.089 126.586 184.691 126.586C184.815 126.586 184.962 126.59 185.132 126.599C185.305 126.608 185.441 126.619 185.539 126.633V128.544C185.459 128.522 185.316 128.497 185.112 128.47C184.907 128.439 184.702 128.424 184.497 128.424C184.024 128.424 183.603 128.524 183.234 128.724C182.868 128.92 182.579 129.194 182.365 129.546C182.151 129.894 182.044 130.29 182.044 130.736V137.004H180.046ZM190.465 137.231C189.814 137.231 189.226 137.111 188.7 136.87C188.175 136.625 187.758 136.271 187.451 135.808C187.148 135.345 186.996 134.777 186.996 134.104C186.996 133.525 187.108 133.048 187.331 132.674C187.553 132.3 187.854 132.003 188.233 131.785C188.611 131.567 189.035 131.402 189.502 131.29C189.97 131.179 190.447 131.094 190.932 131.036C191.547 130.965 192.046 130.907 192.429 130.863C192.812 130.814 193.091 130.736 193.265 130.629C193.438 130.522 193.525 130.348 193.525 130.108V130.061C193.525 129.477 193.36 129.025 193.031 128.704C192.706 128.384 192.22 128.223 191.574 128.223C190.901 128.223 190.371 128.372 189.983 128.671C189.6 128.965 189.335 129.292 189.188 129.653L187.31 129.226C187.533 128.602 187.858 128.098 188.286 127.715C188.718 127.328 189.215 127.047 189.776 126.873C190.338 126.695 190.928 126.606 191.547 126.606C191.957 126.606 192.391 126.655 192.85 126.753C193.314 126.847 193.746 127.02 194.147 127.274C194.552 127.528 194.884 127.891 195.142 128.363C195.401 128.831 195.53 129.439 195.53 130.188V137.004H193.579V135.601H193.499C193.369 135.859 193.176 136.113 192.917 136.363C192.659 136.612 192.327 136.819 191.921 136.984C191.516 137.149 191.03 137.231 190.465 137.231ZM190.899 135.627C191.451 135.627 191.924 135.518 192.316 135.3C192.712 135.082 193.013 134.797 193.218 134.445C193.427 134.088 193.532 133.707 193.532 133.302V131.979C193.461 132.05 193.323 132.117 193.118 132.179C192.917 132.237 192.688 132.288 192.429 132.333C192.171 132.373 191.919 132.411 191.674 132.447C191.429 132.478 191.224 132.504 191.059 132.527C190.672 132.576 190.318 132.658 189.997 132.774C189.681 132.89 189.427 133.057 189.235 133.275C189.048 133.489 188.954 133.774 188.954 134.131C188.954 134.625 189.137 134.999 189.502 135.253C189.868 135.503 190.333 135.627 190.899 135.627ZM200.491 130.91V137.004H198.492V126.74H200.41V128.41H200.537C200.773 127.867 201.143 127.43 201.647 127.1C202.154 126.771 202.794 126.606 203.565 126.606C204.264 126.606 204.877 126.753 205.402 127.047C205.928 127.337 206.336 127.769 206.625 128.343C206.915 128.918 207.059 129.629 207.059 130.475V137.004H205.061V130.716C205.061 129.972 204.868 129.39 204.48 128.972C204.092 128.548 203.56 128.337 202.883 128.337C202.42 128.337 202.007 128.437 201.647 128.637C201.29 128.838 201.007 129.132 200.798 129.52C200.593 129.903 200.491 130.366 200.491 130.91ZM213.883 137.205C213.054 137.205 212.315 136.993 211.664 136.57C211.018 136.142 210.51 135.534 210.141 134.745C209.775 133.952 209.593 133.001 209.593 131.892C209.593 130.783 209.777 129.834 210.147 129.045C210.521 128.257 211.034 127.653 211.684 127.234C212.335 126.815 213.072 126.606 213.896 126.606C214.533 126.606 215.046 126.713 215.433 126.927C215.825 127.136 216.128 127.381 216.342 127.662C216.56 127.942 216.73 128.19 216.85 128.404H216.97V123.318H218.968V137.004H217.017V135.407H216.85C216.73 135.625 216.556 135.875 216.329 136.155C216.106 136.436 215.798 136.681 215.406 136.89C215.014 137.1 214.506 137.205 213.883 137.205ZM214.324 135.5C214.899 135.5 215.384 135.349 215.781 135.046C216.182 134.739 216.485 134.313 216.689 133.77C216.899 133.226 217.004 132.594 217.004 131.872C217.004 131.159 216.901 130.535 216.696 130.001C216.491 129.466 216.19 129.05 215.794 128.751C215.397 128.453 214.907 128.303 214.324 128.303C213.722 128.303 213.221 128.459 212.82 128.771C212.419 129.083 212.116 129.508 211.911 130.047C211.711 130.587 211.611 131.195 211.611 131.872C211.611 132.558 211.713 133.175 211.918 133.723C212.123 134.271 212.426 134.705 212.827 135.026C213.232 135.342 213.731 135.5 214.324 135.5ZM229.813 129.246L228.002 129.566C227.926 129.335 227.806 129.114 227.641 128.905C227.48 128.695 227.262 128.524 226.986 128.39C226.71 128.257 226.365 128.19 225.95 128.19C225.384 128.19 224.912 128.317 224.533 128.571C224.155 128.82 223.965 129.143 223.965 129.54C223.965 129.883 224.092 130.159 224.346 130.368C224.6 130.578 225.01 130.749 225.576 130.883L227.207 131.257C228.151 131.475 228.855 131.812 229.318 132.266C229.782 132.721 230.013 133.311 230.013 134.037C230.013 134.652 229.835 135.2 229.479 135.681C229.127 136.158 228.634 136.532 228.002 136.804C227.374 137.075 226.645 137.211 225.817 137.211C224.667 137.211 223.729 136.966 223.003 136.476C222.277 135.982 221.831 135.28 221.667 134.371L223.598 134.077C223.718 134.58 223.965 134.961 224.34 135.22C224.714 135.474 225.202 135.601 225.803 135.601C226.458 135.601 226.982 135.465 227.374 135.193C227.766 134.917 227.962 134.58 227.962 134.184C227.962 133.863 227.841 133.594 227.601 133.375C227.365 133.157 227.002 132.992 226.512 132.881L224.774 132.5C223.816 132.282 223.108 131.934 222.649 131.457C222.195 130.981 221.967 130.377 221.967 129.647C221.967 129.041 222.137 128.51 222.475 128.056C222.814 127.602 223.282 127.247 223.879 126.994C224.476 126.735 225.159 126.606 225.93 126.606C227.039 126.606 227.913 126.847 228.55 127.328C229.187 127.804 229.608 128.444 229.813 129.246ZM233.828 137.131C233.462 137.131 233.148 137.002 232.885 136.743C232.623 136.481 232.491 136.164 232.491 135.794C232.491 135.429 232.623 135.117 232.885 134.859C233.148 134.596 233.462 134.465 233.828 134.465C234.193 134.465 234.507 134.596 234.77 134.859C235.033 135.117 235.164 135.429 235.164 135.794C235.164 136.04 235.102 136.264 234.977 136.469C234.857 136.67 234.696 136.83 234.496 136.951C234.295 137.071 234.073 137.131 233.828 137.131ZM243.363 137.004V123.318H248.241C249.301 123.318 250.181 123.501 250.881 123.866C251.585 124.231 252.11 124.737 252.458 125.383C252.805 126.025 252.979 126.766 252.979 127.608C252.979 128.446 252.803 129.183 252.451 129.82C252.104 130.453 251.578 130.945 250.874 131.297C250.174 131.649 249.295 131.825 248.234 131.825H244.539V130.047H248.047C248.715 130.047 249.259 129.952 249.678 129.76C250.101 129.569 250.411 129.29 250.607 128.925C250.803 128.559 250.901 128.121 250.901 127.608C250.901 127.092 250.8 126.644 250.6 126.265C250.404 125.886 250.094 125.597 249.671 125.396C249.252 125.191 248.702 125.089 248.02 125.089H245.428V137.004H243.363ZM250.119 130.829L253.5 137.004H251.148L247.833 130.829H250.119ZM258.619 137.231C257.969 137.231 257.381 137.111 256.855 136.87C256.33 136.625 255.913 136.271 255.606 135.808C255.303 135.345 255.151 134.777 255.151 134.104C255.151 133.525 255.263 133.048 255.485 132.674C255.708 132.3 256.009 132.003 256.387 131.785C256.766 131.567 257.189 131.402 257.657 131.29C258.125 131.179 258.602 131.094 259.087 131.036C259.702 130.965 260.201 130.907 260.584 130.863C260.967 130.814 261.246 130.736 261.419 130.629C261.593 130.522 261.68 130.348 261.68 130.108V130.061C261.68 129.477 261.515 129.025 261.186 128.704C260.86 128.384 260.375 128.223 259.729 128.223C259.056 128.223 258.526 128.372 258.138 128.671C257.755 128.965 257.49 129.292 257.343 129.653L255.465 129.226C255.688 128.602 256.013 128.098 256.441 127.715C256.873 127.328 257.37 127.047 257.931 126.873C258.492 126.695 259.083 126.606 259.702 126.606C260.112 126.606 260.546 126.655 261.005 126.753C261.468 126.847 261.901 127.02 262.301 127.274C262.707 127.528 263.039 127.891 263.297 128.363C263.556 128.831 263.685 129.439 263.685 130.188V137.004H261.733V135.601H261.653C261.524 135.859 261.33 136.113 261.072 136.363C260.814 136.612 260.482 136.819 260.076 136.984C259.671 137.149 259.185 137.231 258.619 137.231ZM259.054 135.627C259.606 135.627 260.078 135.518 260.47 135.3C260.867 135.082 261.168 134.797 261.373 134.445C261.582 134.088 261.687 133.707 261.687 133.302V131.979C261.615 132.05 261.477 132.117 261.272 132.179C261.072 132.237 260.842 132.288 260.584 132.333C260.326 132.373 260.074 132.411 259.829 132.447C259.584 132.478 259.379 132.504 259.214 132.527C258.827 132.576 258.472 132.658 258.152 132.774C257.835 132.89 257.581 133.057 257.39 133.275C257.203 133.489 257.109 133.774 257.109 134.131C257.109 134.625 257.292 134.999 257.657 135.253C258.022 135.503 258.488 135.627 259.054 135.627ZM271.439 126.74V128.343H265.832V126.74H271.439ZM267.336 124.28H269.334V133.99C269.334 134.378 269.392 134.67 269.507 134.866C269.623 135.057 269.772 135.189 269.955 135.26C270.142 135.327 270.345 135.36 270.563 135.36C270.724 135.36 270.864 135.349 270.984 135.327C271.104 135.304 271.198 135.287 271.265 135.273L271.626 136.924C271.51 136.968 271.345 137.013 271.131 137.057C270.917 137.106 270.65 137.133 270.329 137.138C269.804 137.147 269.314 137.053 268.859 136.857C268.405 136.661 268.037 136.358 267.757 135.948C267.476 135.538 267.336 135.024 267.336 134.405V124.28ZM278.264 137.211C277.252 137.211 276.381 136.995 275.651 136.563C274.924 136.126 274.363 135.514 273.967 134.725C273.575 133.932 273.379 133.003 273.379 131.939C273.379 130.887 273.575 129.961 273.967 129.159C274.363 128.357 274.916 127.731 275.624 127.281C276.337 126.831 277.17 126.606 278.123 126.606C278.702 126.606 279.264 126.702 279.807 126.893C280.351 127.085 280.839 127.386 281.271 127.795C281.703 128.205 282.044 128.738 282.293 129.393C282.543 130.043 282.667 130.834 282.667 131.765V132.473H274.508V130.976H280.709C280.709 130.451 280.602 129.985 280.389 129.58C280.175 129.17 279.874 128.847 279.486 128.611C279.103 128.375 278.653 128.257 278.137 128.257C277.575 128.257 277.085 128.395 276.666 128.671C276.252 128.943 275.931 129.299 275.704 129.74C275.481 130.177 275.37 130.651 275.37 131.163V132.333C275.37 133.019 275.49 133.603 275.731 134.084C275.976 134.565 276.317 134.932 276.753 135.186C277.19 135.436 277.7 135.561 278.284 135.561C278.662 135.561 279.008 135.507 279.319 135.4C279.631 135.289 279.901 135.124 280.128 134.906C280.355 134.687 280.529 134.418 280.649 134.097L282.54 134.438C282.389 134.995 282.117 135.483 281.725 135.901C281.338 136.316 280.85 136.639 280.262 136.87C279.678 137.098 279.012 137.211 278.264 137.211ZM289.028 137.205C288.199 137.205 287.46 136.993 286.809 136.57C286.163 136.142 285.655 135.534 285.286 134.745C284.92 133.952 284.738 133.001 284.738 131.892C284.738 130.783 284.923 129.834 285.292 129.045C285.667 128.257 286.179 127.653 286.829 127.234C287.48 126.815 288.217 126.606 289.041 126.606C289.678 126.606 290.191 126.713 290.578 126.927C290.97 127.136 291.273 127.381 291.487 127.662C291.705 127.942 291.875 128.19 291.995 128.404H292.115V123.318H294.113V137.004H292.162V135.407H291.995C291.875 135.625 291.701 135.875 291.474 136.155C291.251 136.436 290.944 136.681 290.551 136.89C290.159 137.1 289.652 137.205 289.028 137.205ZM289.469 135.5C290.044 135.5 290.529 135.349 290.926 135.046C291.327 134.739 291.63 134.313 291.835 133.77C292.044 133.226 292.149 132.594 292.149 131.872C292.149 131.159 292.046 130.535 291.841 130.001C291.636 129.466 291.336 129.05 290.939 128.751C290.543 128.453 290.053 128.303 289.469 128.303C288.867 128.303 288.366 128.459 287.965 128.771C287.564 129.083 287.261 129.508 287.057 130.047C286.856 130.587 286.756 131.195 286.756 131.872C286.756 132.558 286.858 133.175 287.063 133.723C287.268 134.271 287.571 134.705 287.972 135.026C288.377 135.342 288.876 135.5 289.469 135.5ZM298.583 137.131C298.217 137.131 297.903 137.002 297.64 136.743C297.378 136.481 297.246 136.164 297.246 135.794C297.246 135.429 297.378 135.117 297.64 134.859C297.903 134.596 298.217 134.465 298.583 134.465C298.948 134.465 299.262 134.596 299.525 134.859C299.788 135.117 299.919 135.429 299.919 135.794C299.919 136.04 299.857 136.264 299.732 136.469C299.612 136.67 299.451 136.83 299.251 136.951C299.05 137.071 298.828 137.131 298.583 137.131ZM308.118 137.004V123.318H312.996C314.056 123.318 314.936 123.501 315.636 123.866C316.34 124.231 316.865 124.737 317.213 125.383C317.56 126.025 317.734 126.766 317.734 127.608C317.734 128.446 317.558 129.183 317.206 129.82C316.859 130.453 316.333 130.945 315.629 131.297C314.929 131.649 314.05 131.825 312.989 131.825H309.294V130.047H312.802C313.47 130.047 314.014 129.952 314.433 129.76C314.856 129.569 315.166 129.29 315.362 128.925C315.558 128.559 315.656 128.121 315.656 127.608C315.656 127.092 315.555 126.644 315.355 126.265C315.159 125.886 314.849 125.597 314.426 125.396C314.007 125.191 313.457 125.089 312.775 125.089H310.183V137.004H308.118ZM314.874 130.829L318.255 137.004H315.903L312.588 130.829H314.874ZM323.374 137.231C322.724 137.231 322.136 137.111 321.61 136.87C321.085 136.625 320.668 136.271 320.361 135.808C320.058 135.345 319.906 134.777 319.906 134.104C319.906 133.525 320.018 133.048 320.24 132.674C320.463 132.3 320.764 132.003 321.142 131.785C321.521 131.567 321.944 131.402 322.412 131.29C322.88 131.179 323.357 131.094 323.842 131.036C324.457 130.965 324.956 130.907 325.339 130.863C325.722 130.814 326.001 130.736 326.174 130.629C326.348 130.522 326.435 130.348 326.435 130.108V130.061C326.435 129.477 326.27 129.025 325.941 128.704C325.615 128.384 325.13 128.223 324.484 128.223C323.811 128.223 323.281 128.372 322.893 128.671C322.51 128.965 322.245 129.292 322.098 129.653L320.22 129.226C320.443 128.602 320.768 128.098 321.196 127.715C321.628 127.328 322.125 127.047 322.686 126.873C323.247 126.695 323.838 126.606 324.457 126.606C324.867 126.606 325.301 126.655 325.76 126.753C326.223 126.847 326.656 127.02 327.056 127.274C327.462 127.528 327.794 127.891 328.052 128.363C328.311 128.831 328.44 129.439 328.44 130.188V137.004H326.488V135.601H326.408C326.279 135.859 326.085 136.113 325.827 136.363C325.569 136.612 325.237 136.819 324.831 136.984C324.426 137.149 323.94 137.231 323.374 137.231ZM323.809 135.627C324.361 135.627 324.833 135.518 325.225 135.3C325.622 135.082 325.923 134.797 326.128 134.445C326.337 134.088 326.442 133.707 326.442 133.302V131.979C326.37 132.05 326.232 132.117 326.027 132.179C325.827 132.237 325.597 132.288 325.339 132.333C325.081 132.373 324.829 132.411 324.584 132.447C324.339 132.478 324.134 132.504 323.969 132.527C323.582 132.576 323.227 132.658 322.907 132.774C322.59 132.89 322.336 133.057 322.145 133.275C321.958 133.489 321.864 133.774 321.864 134.131C321.864 134.625 322.047 134.999 322.412 135.253C322.777 135.503 323.243 135.627 323.809 135.627ZM333.4 130.91V137.004H331.402V126.74H333.32V128.41H333.447C333.683 127.867 334.053 127.43 334.556 127.1C335.064 126.771 335.704 126.606 336.474 126.606C337.174 126.606 337.786 126.753 338.312 127.047C338.838 127.337 339.245 127.769 339.535 128.343C339.824 128.918 339.969 129.629 339.969 130.475V137.004H337.971V130.716C337.971 129.972 337.777 129.39 337.39 128.972C337.002 128.548 336.47 128.337 335.793 128.337C335.329 128.337 334.917 128.437 334.556 128.637C334.2 128.838 333.917 129.132 333.708 129.52C333.503 129.903 333.4 130.366 333.4 130.91ZM344.788 133.522L344.774 131.083H345.122L349.212 126.74H351.604L346.94 131.685H346.625L344.788 133.522ZM342.95 137.004V123.318H344.948V137.004H342.95ZM349.432 137.004L345.757 132.126L347.133 130.729L351.885 137.004H349.432ZM353.726 137.004V126.74H355.657V128.37H355.764C355.951 127.818 356.281 127.383 356.753 127.067C357.23 126.746 357.769 126.586 358.37 126.586C358.495 126.586 358.642 126.59 358.812 126.599C358.985 126.608 359.121 126.619 359.219 126.633V128.544C359.139 128.522 358.996 128.497 358.791 128.47C358.587 128.439 358.382 128.424 358.177 128.424C357.704 128.424 357.283 128.524 356.914 128.724C356.548 128.92 356.259 129.194 356.045 129.546C355.831 129.894 355.724 130.29 355.724 130.736V137.004H353.726ZM364.724 137.205C363.896 137.205 363.156 136.993 362.506 136.57C361.86 136.142 361.352 135.534 360.982 134.745C360.617 133.952 360.434 133.001 360.434 131.892C360.434 130.783 360.619 129.834 360.989 129.045C361.363 128.257 361.875 127.653 362.526 127.234C363.176 126.815 363.913 126.606 364.738 126.606C365.375 126.606 365.887 126.713 366.275 126.927C366.667 127.136 366.97 127.381 367.183 127.662C367.402 127.942 367.571 128.19 367.691 128.404H367.812V123.318H369.81V137.004H367.858V135.407H367.691C367.571 135.625 367.397 135.875 367.17 136.155C366.947 136.436 366.64 136.681 366.248 136.89C365.856 137.1 365.348 137.205 364.724 137.205ZM365.165 135.5C365.74 135.5 366.226 135.349 366.622 135.046C367.023 134.739 367.326 134.313 367.531 133.77C367.74 133.226 367.845 132.594 367.845 131.872C367.845 131.159 367.743 130.535 367.538 130.001C367.333 129.466 367.032 129.05 366.635 128.751C366.239 128.453 365.749 128.303 365.165 128.303C364.564 128.303 364.063 128.459 363.662 128.771C363.261 129.083 362.958 129.508 362.753 130.047C362.552 130.587 362.452 131.195 362.452 131.872C362.452 132.558 362.555 133.175 362.76 133.723C362.965 134.271 363.267 134.705 363.668 135.026C364.074 135.342 364.573 135.5 365.165 135.5ZM374.279 137.131C373.914 137.131 373.6 137.002 373.337 136.743C373.074 136.481 372.943 136.164 372.943 135.794C372.943 135.429 373.074 135.117 373.337 134.859C373.6 134.596 373.914 134.465 374.279 134.465C374.644 134.465 374.958 134.596 375.221 134.859C375.484 135.117 375.616 135.429 375.616 135.794C375.616 136.04 375.553 136.264 375.428 136.469C375.308 136.67 375.148 136.83 374.947 136.951C374.747 137.071 374.524 137.131 374.279 137.131ZM383.814 137.004V123.318H388.692C389.753 123.318 390.633 123.501 391.332 123.866C392.036 124.231 392.562 124.737 392.909 125.383C393.257 126.025 393.43 126.766 393.43 127.608C393.43 128.446 393.254 129.183 392.902 129.82C392.555 130.453 392.029 130.945 391.325 131.297C390.626 131.649 389.746 131.825 388.686 131.825H384.99V130.047H388.499C389.167 130.047 389.71 129.952 390.129 129.76C390.552 129.569 390.862 129.29 391.058 128.925C391.254 128.559 391.352 128.121 391.352 127.608C391.352 127.092 391.252 126.644 391.051 126.265C390.855 125.886 390.546 125.597 390.122 125.396C389.704 125.191 389.154 125.089 388.472 125.089H385.879V137.004H383.814ZM390.57 130.829L393.952 137.004H391.599L388.285 130.829H390.57ZM400.379 137.211C399.368 137.211 398.497 136.995 397.766 136.563C397.04 136.126 396.479 135.514 396.082 134.725C395.69 133.932 395.494 133.003 395.494 131.939C395.494 130.887 395.69 129.961 396.082 129.159C396.479 128.357 397.031 127.731 397.739 127.281C398.452 126.831 399.285 126.606 400.239 126.606C400.818 126.606 401.379 126.702 401.923 126.893C402.466 127.085 402.954 127.386 403.386 127.795C403.818 128.205 404.159 128.738 404.409 129.393C404.658 130.043 404.783 130.834 404.783 131.765V132.473H396.623V130.976H402.825C402.825 130.451 402.718 129.985 402.504 129.58C402.29 129.17 401.989 128.847 401.602 128.611C401.219 128.375 400.769 128.257 400.252 128.257C399.691 128.257 399.201 128.395 398.782 128.671C398.367 128.943 398.047 129.299 397.82 129.74C397.597 130.177 397.485 130.651 397.485 131.163V132.333C397.485 133.019 397.606 133.603 397.846 134.084C398.091 134.565 398.432 134.932 398.869 135.186C399.305 135.436 399.815 135.561 400.399 135.561C400.778 135.561 401.123 135.507 401.435 135.4C401.747 135.289 402.016 135.124 402.243 134.906C402.471 134.687 402.644 134.418 402.765 134.097L404.656 134.438C404.504 134.995 404.233 135.483 403.841 135.901C403.453 136.316 402.965 136.639 402.377 136.87C401.793 137.098 401.127 137.211 400.379 137.211ZM415.788 126.74L412.065 137.004H409.927L406.198 126.74H408.343L410.943 134.638H411.05L413.643 126.74H415.788ZM422.041 137.211C421.03 137.211 420.159 136.995 419.428 136.563C418.702 136.126 418.141 135.514 417.744 134.725C417.352 133.932 417.156 133.003 417.156 131.939C417.156 130.887 417.352 129.961 417.744 129.159C418.141 128.357 418.693 127.731 419.402 127.281C420.114 126.831 420.947 126.606 421.901 126.606C422.48 126.606 423.041 126.702 423.585 126.893C424.128 127.085 424.616 127.386 425.048 127.795C425.481 128.205 425.821 128.738 426.071 129.393C426.32 130.043 426.445 130.834 426.445 131.765V132.473H418.286V130.976H424.487C424.487 130.451 424.38 129.985 424.166 129.58C423.952 129.17 423.652 128.847 423.264 128.611C422.881 128.375 422.431 128.257 421.914 128.257C421.353 128.257 420.863 128.395 420.444 128.671C420.03 128.943 419.709 129.299 419.482 129.74C419.259 130.177 419.148 130.651 419.148 131.163V132.333C419.148 133.019 419.268 133.603 419.509 134.084C419.754 134.565 420.094 134.932 420.531 135.186C420.968 135.436 421.478 135.561 422.061 135.561C422.44 135.561 422.785 135.507 423.097 135.4C423.409 135.289 423.678 135.124 423.906 134.906C424.133 134.687 424.307 134.418 424.427 134.097L426.318 134.438C426.167 134.995 425.895 135.483 425.503 135.901C425.115 136.316 424.627 136.639 424.039 136.87C423.456 137.098 422.79 137.211 422.041 137.211ZM431.95 137.231C431.3 137.231 430.712 137.111 430.186 136.87C429.66 136.625 429.244 136.271 428.936 135.808C428.633 135.345 428.482 134.777 428.482 134.104C428.482 133.525 428.593 133.048 428.816 132.674C429.039 132.3 429.339 132.003 429.718 131.785C430.097 131.567 430.52 131.402 430.988 131.29C431.456 131.179 431.932 131.094 432.418 131.036C433.033 130.965 433.532 130.907 433.915 130.863C434.298 130.814 434.576 130.736 434.75 130.629C434.924 130.522 435.011 130.348 435.011 130.108V130.061C435.011 129.477 434.846 129.025 434.516 128.704C434.191 128.384 433.705 128.223 433.059 128.223C432.387 128.223 431.857 128.372 431.469 128.671C431.086 128.965 430.821 129.292 430.674 129.653L428.796 129.226C429.019 128.602 429.344 128.098 429.772 127.715C430.204 127.328 430.701 127.047 431.262 126.873C431.823 126.695 432.413 126.606 433.033 126.606C433.443 126.606 433.877 126.655 434.336 126.753C434.799 126.847 435.231 127.02 435.632 127.274C436.038 127.528 436.37 127.891 436.628 128.363C436.886 128.831 437.016 129.439 437.016 130.188V137.004H435.064V135.601H434.984C434.855 135.859 434.661 136.113 434.403 136.363C434.144 136.612 433.812 136.819 433.407 136.984C433.002 137.149 432.516 137.231 431.95 137.231ZM432.385 135.627C432.937 135.627 433.409 135.518 433.801 135.3C434.198 135.082 434.498 134.797 434.703 134.445C434.913 134.088 435.017 133.707 435.017 133.302V131.979C434.946 132.05 434.808 132.117 434.603 132.179C434.403 132.237 434.173 132.288 433.915 132.333C433.656 132.373 433.405 132.411 433.16 132.447C432.915 132.478 432.71 132.504 432.545 132.527C432.157 132.576 431.803 132.658 431.482 132.774C431.166 132.89 430.912 133.057 430.721 133.275C430.533 133.489 430.44 133.774 430.44 134.131C430.44 134.625 430.623 134.999 430.988 135.253C431.353 135.503 431.819 135.627 432.385 135.627ZM441.976 123.318V137.004H439.978V123.318H441.976ZM449.389 137.211C448.378 137.211 447.507 136.995 446.776 136.563C446.05 136.126 445.489 135.514 445.092 134.725C444.7 133.932 444.504 133.003 444.504 131.939C444.504 130.887 444.7 129.961 445.092 129.159C445.489 128.357 446.041 127.731 446.749 127.281C447.462 126.831 448.295 126.606 449.249 126.606C449.828 126.606 450.389 126.702 450.933 126.893C451.476 127.085 451.964 127.386 452.396 127.795C452.828 128.205 453.169 128.738 453.419 129.393C453.668 130.043 453.793 130.834 453.793 131.765V132.473H445.633V130.976H451.835C451.835 130.451 451.728 129.985 451.514 129.58C451.3 129.17 451 128.847 450.612 128.611C450.229 128.375 449.779 128.257 449.262 128.257C448.701 128.257 448.211 128.395 447.792 128.671C447.378 128.943 447.057 129.299 446.83 129.74C446.607 130.177 446.496 130.651 446.496 131.163V132.333C446.496 133.019 446.616 133.603 446.856 134.084C447.101 134.565 447.442 134.932 447.879 135.186C448.315 135.436 448.826 135.561 449.409 135.561C449.788 135.561 450.133 135.507 450.445 135.4C450.757 135.289 451.026 135.124 451.253 134.906C451.481 134.687 451.654 134.418 451.775 134.097L453.666 134.438C453.514 134.995 453.243 135.483 452.851 135.901C452.463 136.316 451.975 136.639 451.387 136.87C450.804 137.098 450.138 137.211 449.389 137.211ZM460.153 137.205C459.325 137.205 458.585 136.993 457.935 136.57C457.289 136.142 456.781 135.534 456.411 134.745C456.046 133.952 455.863 133.001 455.863 131.892C455.863 130.783 456.048 129.834 456.418 129.045C456.792 128.257 457.304 127.653 457.955 127.234C458.605 126.815 459.343 126.606 460.167 126.606C460.804 126.606 461.316 126.713 461.704 126.927C462.096 127.136 462.399 127.381 462.613 127.662C462.831 127.942 463 128.19 463.12 128.404H463.241V123.318H465.239V137.004H463.288V135.407H463.12C463 135.625 462.826 135.875 462.599 136.155C462.376 136.436 462.069 136.681 461.677 136.89C461.285 137.1 460.777 137.205 460.153 137.205ZM460.594 135.5C461.169 135.5 461.655 135.349 462.051 135.046C462.452 134.739 462.755 134.313 462.96 133.77C463.169 133.226 463.274 132.594 463.274 131.872C463.274 131.159 463.172 130.535 462.967 130.001C462.762 129.466 462.461 129.05 462.065 128.751C461.668 128.453 461.178 128.303 460.594 128.303C459.993 128.303 459.492 128.459 459.091 128.771C458.69 129.083 458.387 129.508 458.182 130.047C457.982 130.587 457.881 131.195 457.881 131.872C457.881 132.558 457.984 133.175 458.189 133.723C458.394 134.271 458.697 134.705 459.098 135.026C459.503 135.342 460.002 135.5 460.594 135.5ZM469.708 137.131C469.343 137.131 469.029 137.002 468.766 136.743C468.503 136.481 468.372 136.164 468.372 135.794C468.372 135.429 468.503 135.117 468.766 134.859C469.029 134.596 469.343 134.465 469.708 134.465C470.073 134.465 470.388 134.596 470.65 134.859C470.913 135.117 471.045 135.429 471.045 135.794C471.045 136.04 470.982 136.264 470.858 136.469C470.737 136.67 470.577 136.83 470.376 136.951C470.176 137.071 469.953 137.131 469.708 137.131Z" fill="black"/>
<defs>
<linearGradient id="paint0_linear_872_3492" x1="72.0723" y1="48.3086" x2="87.3165" y2="120.176" gradientUnits="userSpaceOnUse">
<stop stop-color="#2AD3F8"/>
<stop offset="0.9813" stop-color="#933CFF"/>
</linearGradient>
<linearGradient id="paint1_linear_872_3492" x1="72.0724" y1="48.3085" x2="87.3166" y2="120.176" gradientUnits="userSpaceOnUse">
<stop stop-color="#2AD3F8"/>
<stop offset="0.9813" stop-color="#933CFF"/>
</linearGradient>
<linearGradient id="paint2_linear_872_3492" x1="72.0725" y1="48.3087" x2="87.3167" y2="120.176" gradientUnits="userSpaceOnUse">
<stop stop-color="#2AD3F8"/>
<stop offset="0.9813" stop-color="#933CFF"/>
</linearGradient>
<linearGradient id="paint3_linear_872_3492" x1="72.0726" y1="48.3085" x2="87.3168" y2="120.176" gradientUnits="userSpaceOnUse">
<stop stop-color="#2AD3F8"/>
<stop offset="0.9813" stop-color="#933CFF"/>
</linearGradient>
<linearGradient id="paint4_linear_872_3492" x1="79.0208" y1="70.2239" x2="79.0208" y2="118.111" gradientUnits="userSpaceOnUse">
<stop stop-color="#005DFF"/>
<stop offset="0.759615" stop-color="white" stop-opacity="0"/>
</linearGradient>
</defs>
</svg>
