<svg width="425" height="491" viewBox="0 0 425 491" fill="none" xmlns="http://www.w3.org/2000/svg">
<g filter="url(#filter0_d_17_8859)">
<rect x="25.085" y="11.2" width="374" height="440" rx="30" fill="white" shape-rendering="crispEdges"/>
<circle cx="69.085" cy="62.2" r="20" fill="#D8E3FF"/>
<mask id="mask0_17_8859" style="mask-type:alpha" maskUnits="userSpaceOnUse" x="49" y="42" width="41" height="41">
<circle cx="69.085" cy="62.2" r="20" fill="#D8E3FF"/>
</mask>
<g mask="url(#mask0_17_8859)">
</g>
<path d="M107.589 61.2V46.6545H110.665V52.6559H116.908V46.6545H119.976V61.2H116.908V55.1914H110.665V61.2H107.589ZM127.426 61.413C126.304 61.413 125.338 61.1857 124.528 60.7312C123.723 60.2719 123.103 59.6232 122.668 58.7852C122.232 57.9424 122.014 56.9457 122.014 55.7951C122.014 54.673 122.232 53.6881 122.668 52.8406C123.103 51.993 123.716 51.3325 124.507 50.859C125.302 50.3856 126.235 50.1488 127.305 50.1488C128.025 50.1488 128.695 50.2648 129.315 50.4968C129.94 50.7241 130.485 51.0674 130.949 51.5267C131.418 51.9859 131.782 52.5636 132.043 53.2596C132.303 53.9509 132.433 54.7606 132.433 55.6886V56.5196H123.222V54.6446H129.585C129.585 54.2089 129.49 53.8231 129.301 53.4869C129.112 53.1507 128.849 52.8879 128.513 52.6985C128.181 52.5044 127.795 52.4073 127.355 52.4073C126.896 52.4073 126.489 52.5139 126.133 52.7269C125.783 52.9353 125.508 53.217 125.31 53.5721C125.111 53.9225 125.009 54.3131 125.004 54.744V56.5267C125.004 57.0664 125.104 57.5328 125.302 57.9258C125.506 58.3188 125.793 58.6218 126.162 58.8349C126.531 59.048 126.969 59.1545 127.476 59.1545C127.812 59.1545 128.12 59.1071 128.399 59.0125C128.678 58.9178 128.918 58.7757 129.116 58.5863C129.315 58.3969 129.467 58.1649 129.571 57.8903L132.369 58.075C132.227 58.7473 131.936 59.3344 131.496 59.8363C131.06 60.3335 130.497 60.7217 129.805 61.0011C129.119 61.2757 128.326 61.413 127.426 61.413ZM135.983 65.2909C135.599 65.2909 135.239 65.2601 134.903 65.1985C134.572 65.1417 134.297 65.0683 134.079 64.9784L134.761 62.7198C135.116 62.8287 135.436 62.8879 135.72 62.8974C136.009 62.9069 136.257 62.8406 136.465 62.6985C136.679 62.5565 136.851 62.315 136.984 61.9741L137.161 61.5125L133.248 50.2909H136.43L138.688 58.3022H138.802L141.082 50.2909H144.285L140.045 62.3789C139.841 62.966 139.564 63.4774 139.214 63.913C138.868 64.3534 138.43 64.6919 137.9 64.9286C137.37 65.1701 136.731 65.2909 135.983 65.2909ZM149.448 46.6545L149.171 56.8392H146.572L146.288 46.6545H149.448ZM147.872 61.3846C147.403 61.3846 147.001 61.2189 146.664 60.8875C146.328 60.5513 146.162 60.1488 146.167 59.6801C146.162 59.216 146.328 58.8183 146.664 58.4869C147.001 58.1554 147.403 57.9897 147.872 57.9897C148.322 57.9897 148.717 58.1554 149.058 58.4869C149.399 58.8183 149.572 59.216 149.576 59.6801C149.572 59.9926 149.489 60.279 149.328 60.5394C149.171 60.7951 148.965 61.0011 148.71 61.1573C148.454 61.3089 148.175 61.3846 147.872 61.3846ZM160.278 61.2L156.116 46.6545H159.475L161.883 56.761H162.003L164.66 46.6545H167.536L170.185 56.7823H170.313L172.721 46.6545H176.08L171.918 61.2H168.921L166.151 51.69H166.038L163.275 61.2H160.278ZM181.469 61.413C180.347 61.413 179.381 61.1857 178.571 60.7312C177.766 60.2719 177.146 59.6232 176.71 58.7852C176.275 57.9424 176.057 56.9457 176.057 55.7951C176.057 54.673 176.275 53.6881 176.71 52.8406C177.146 51.993 177.759 51.3325 178.55 50.859C179.345 50.3856 180.278 50.1488 181.348 50.1488C182.068 50.1488 182.738 50.2648 183.358 50.4968C183.983 50.7241 184.528 51.0674 184.992 51.5267C185.46 51.9859 185.825 52.5636 186.085 53.2596C186.346 53.9509 186.476 54.7606 186.476 55.6886V56.5196H177.264V54.6446H183.628C183.628 54.2089 183.533 53.8231 183.344 53.4869C183.155 53.1507 182.892 52.8879 182.556 52.6985C182.224 52.5044 181.838 52.4073 181.398 52.4073C180.939 52.4073 180.532 52.5139 180.176 52.7269C179.826 52.9353 179.551 53.217 179.353 53.5721C179.154 53.9225 179.052 54.3131 179.047 54.744V56.5267C179.047 57.0664 179.147 57.5328 179.345 57.9258C179.549 58.3188 179.835 58.6218 180.205 58.8349C180.574 59.048 181.012 59.1545 181.519 59.1545C181.855 59.1545 182.163 59.1071 182.442 59.0125C182.721 58.9178 182.96 58.7757 183.159 58.5863C183.358 58.3969 183.51 58.1649 183.614 57.8903L186.412 58.075C186.27 58.7473 185.979 59.3344 185.539 59.8363C185.103 60.3335 184.54 60.7217 183.848 61.0011C183.162 61.2757 182.369 61.413 181.469 61.413ZM191.476 46.6545V61.2H188.451V46.6545H191.476ZM198.829 61.413C197.711 61.413 196.75 61.1763 195.945 60.7028C195.145 60.2246 194.53 59.5617 194.099 58.7142C193.672 57.8666 193.459 56.8912 193.459 55.788C193.459 54.6706 193.675 53.6905 194.106 52.8477C194.541 52.0001 195.159 51.3396 195.959 50.8661C196.76 50.3879 197.711 50.1488 198.815 50.1488C199.766 50.1488 200.6 50.3216 201.315 50.6673C202.03 51.0129 202.595 51.4982 203.012 52.1232C203.429 52.7482 203.658 53.4821 203.701 54.325H200.846C200.765 53.7804 200.552 53.3425 200.207 53.011C199.866 52.6749 199.418 52.5068 198.864 52.5068C198.396 52.5068 197.986 52.6346 197.636 52.8903C197.29 53.1412 197.02 53.5082 196.826 53.9911C196.632 54.4741 196.535 55.0589 196.535 55.7454C196.535 56.4414 196.629 57.0333 196.819 57.521C197.013 58.0087 197.285 58.3803 197.636 58.636C197.986 58.8917 198.396 59.0196 198.864 59.0196C199.21 59.0196 199.52 58.9485 199.795 58.8065C200.074 58.6644 200.304 58.4585 200.484 58.1886C200.668 57.914 200.789 57.5849 200.846 57.2014H203.701C203.654 58.0347 203.426 58.7686 203.019 59.4031C202.617 60.0328 202.06 60.5252 201.35 60.8803C200.64 61.2355 199.799 61.413 198.829 61.413ZM210.567 61.413C209.464 61.413 208.51 61.1786 207.705 60.7099C206.905 60.2364 206.287 59.5783 205.851 58.7355C205.416 57.8879 205.198 56.9054 205.198 55.788C205.198 54.6611 205.416 53.6763 205.851 52.8335C206.287 51.9859 206.905 51.3278 207.705 50.859C208.51 50.3856 209.464 50.1488 210.567 50.1488C211.67 50.1488 212.622 50.3856 213.422 50.859C214.227 51.3278 214.847 51.9859 215.283 52.8335C215.719 53.6763 215.936 54.6611 215.936 55.788C215.936 56.9054 215.719 57.8879 215.283 58.7355C214.847 59.5783 214.227 60.2364 213.422 60.7099C212.622 61.1786 211.67 61.413 210.567 61.413ZM210.581 59.0693C211.083 59.0693 211.502 58.9272 211.838 58.6431C212.175 58.3543 212.428 57.9613 212.598 57.4642C212.773 56.967 212.861 56.4012 212.861 55.7667C212.861 55.1322 212.773 54.5664 212.598 54.0693C212.428 53.5721 212.175 53.1791 211.838 52.8903C211.502 52.6015 211.083 52.4571 210.581 52.4571C210.075 52.4571 209.648 52.6015 209.303 52.8903C208.962 53.1791 208.704 53.5721 208.529 54.0693C208.358 54.5664 208.273 55.1322 208.273 55.7667C208.273 56.4012 208.358 56.967 208.529 57.4642C208.704 57.9613 208.962 58.3543 209.303 58.6431C209.648 58.9272 210.075 59.0693 210.581 59.0693ZM217.904 61.2V50.2909H220.787V52.2156H220.915C221.142 51.5764 221.521 51.0721 222.051 50.7028C222.582 50.3335 223.216 50.1488 223.955 50.1488C224.703 50.1488 225.34 50.3358 225.865 50.7099C226.391 51.0792 226.741 51.5811 226.916 52.2156H227.03C227.253 51.5906 227.655 51.091 228.237 50.717C228.825 50.3382 229.518 50.1488 230.318 50.1488C231.336 50.1488 232.163 50.4732 232.797 51.1218C233.436 51.7658 233.756 52.6796 233.756 53.8633V61.2H230.737V54.4599C230.737 53.8538 230.576 53.3993 230.255 53.0963C229.933 52.7932 229.53 52.6417 229.047 52.6417C228.498 52.6417 228.069 52.8169 227.762 53.1673C227.454 53.5129 227.3 53.9698 227.3 54.538V61.2H224.367V54.396C224.367 53.8609 224.213 53.4348 223.905 53.1176C223.602 52.8003 223.202 52.6417 222.705 52.6417C222.369 52.6417 222.066 52.7269 221.796 52.8974C221.531 53.0631 221.32 53.2975 221.164 53.6005C221.007 53.8988 220.929 54.2492 220.929 54.6517V61.2H217.904ZM241.117 61.413C239.995 61.413 239.029 61.1857 238.22 60.7312C237.415 60.2719 236.795 59.6232 236.359 58.7852C235.923 57.9424 235.706 56.9457 235.706 55.7951C235.706 54.673 235.923 53.6881 236.359 52.8406C236.795 51.993 237.408 51.3325 238.198 50.859C238.994 50.3856 239.927 50.1488 240.997 50.1488C241.716 50.1488 242.386 50.2648 243.007 50.4968C243.632 50.7241 244.176 51.0674 244.64 51.5267C245.109 51.9859 245.474 52.5636 245.734 53.2596C245.994 53.9509 246.125 54.7606 246.125 55.6886V56.5196H236.913V54.6446H243.277C243.277 54.2089 243.182 53.8231 242.992 53.4869C242.803 53.1507 242.54 52.8879 242.204 52.6985C241.873 52.5044 241.487 52.4073 241.046 52.4073C240.587 52.4073 240.18 52.5139 239.825 52.7269C239.474 52.9353 239.2 53.217 239.001 53.5721C238.802 53.9225 238.7 54.3131 238.696 54.744V56.5267C238.696 57.0664 238.795 57.5328 238.994 57.9258C239.197 58.3188 239.484 58.6218 239.853 58.8349C240.223 59.048 240.661 59.1545 241.167 59.1545C241.503 59.1545 241.811 59.1071 242.09 59.0125C242.37 58.9178 242.609 58.7757 242.808 58.5863C243.007 58.3969 243.158 58.1649 243.262 57.8903L246.061 58.075C245.919 58.7473 245.627 59.3344 245.187 59.8363C244.751 60.3335 244.188 60.7217 243.497 61.0011C242.81 61.2757 242.017 61.413 241.117 61.413ZM258.53 50.2909V52.5636H251.961V50.2909H258.53ZM253.452 47.6772H256.478V57.8477C256.478 58.127 256.521 58.3448 256.606 58.5011C256.691 58.6526 256.809 58.7591 256.961 58.8207C257.117 58.8822 257.297 58.913 257.501 58.913C257.643 58.913 257.785 58.9012 257.927 58.8775C258.069 58.8491 258.178 58.8278 258.253 58.8136L258.729 61.065C258.578 61.1124 258.365 61.1668 258.09 61.2284C257.815 61.2946 257.482 61.3349 257.089 61.3491C256.36 61.3775 255.72 61.2804 255.171 61.0579C254.627 60.8354 254.203 60.4897 253.9 60.021C253.597 59.5522 253.448 58.9604 253.452 58.2454V47.6772ZM265.313 61.413C264.21 61.413 263.256 61.1786 262.451 60.7099C261.651 60.2364 261.033 59.5783 260.597 58.7355C260.162 57.8879 259.944 56.9054 259.944 55.788C259.944 54.6611 260.162 53.6763 260.597 52.8335C261.033 51.9859 261.651 51.3278 262.451 50.859C263.256 50.3856 264.21 50.1488 265.313 50.1488C266.416 50.1488 267.368 50.3856 268.168 50.859C268.973 51.3278 269.593 51.9859 270.029 52.8335C270.465 53.6763 270.682 54.6611 270.682 55.788C270.682 56.9054 270.465 57.8879 270.029 58.7355C269.593 59.5783 268.973 60.2364 268.168 60.7099C267.368 61.1786 266.416 61.413 265.313 61.413ZM265.327 59.0693C265.829 59.0693 266.248 58.9272 266.584 58.6431C266.921 58.3543 267.174 57.9613 267.344 57.4642C267.52 56.967 267.607 56.4012 267.607 55.7667C267.607 55.1322 267.52 54.5664 267.344 54.0693C267.174 53.5721 266.921 53.1791 266.584 52.8903C266.248 52.6015 265.829 52.4571 265.327 52.4571C264.821 52.4571 264.395 52.6015 264.049 52.8903C263.708 53.1791 263.45 53.5721 263.275 54.0693C263.104 54.5664 263.019 55.1322 263.019 55.7667C263.019 56.4012 263.104 56.967 263.275 57.4642C263.45 57.9613 263.708 58.3543 264.049 58.6431C264.395 58.9272 264.821 59.0693 265.327 59.0693ZM279.843 61.2H276.547L281.568 46.6545H285.532L290.546 61.2H287.25L283.607 49.9784H283.493L279.843 61.2ZM279.637 55.4826H287.421V57.8832H279.637V55.4826ZM292.298 61.2V50.2909H295.324V61.2H292.298ZM293.818 48.8846C293.368 48.8846 292.982 48.7355 292.66 48.4372C292.343 48.1341 292.185 47.7719 292.185 47.3505C292.185 46.9339 292.343 46.5764 292.66 46.2781C292.982 45.975 293.368 45.8235 293.818 45.8235C294.268 45.8235 294.651 45.975 294.969 46.2781C295.291 46.5764 295.452 46.9339 295.452 47.3505C295.452 47.7719 295.291 48.1341 294.969 48.4372C294.651 48.7355 294.268 48.8846 293.818 48.8846ZM297.747 61.2V50.2909H300.681V52.1943H300.794C300.993 51.5172 301.327 51.0058 301.796 50.6602C302.264 50.3098 302.804 50.1346 303.415 50.1346C303.567 50.1346 303.73 50.1441 303.905 50.163C304.08 50.182 304.234 50.208 304.367 50.2411V52.9258C304.225 52.8832 304.028 52.8453 303.777 52.8122C303.526 52.779 303.297 52.7625 303.088 52.7625C302.643 52.7625 302.246 52.8595 301.895 53.0536C301.55 53.243 301.275 53.5082 301.071 53.8491C300.872 54.19 300.773 54.583 300.773 55.0281V61.2H297.747ZM312.28 50.2909V52.5636H305.711V50.2909H312.28ZM307.202 47.6772H310.228V57.8477C310.228 58.127 310.271 58.3448 310.356 58.5011C310.441 58.6526 310.559 58.7591 310.711 58.8207C310.867 58.8822 311.047 58.913 311.251 58.913C311.393 58.913 311.535 58.9012 311.677 58.8775C311.819 58.8491 311.928 58.8278 312.003 58.8136L312.479 61.065C312.328 61.1124 312.115 61.1668 311.84 61.2284C311.565 61.2946 311.232 61.3349 310.839 61.3491C310.11 61.3775 309.47 61.2804 308.921 61.0579C308.377 60.8354 307.953 60.4897 307.65 60.021C307.347 59.5522 307.198 58.9604 307.202 58.2454V47.6772ZM314.251 61.2V50.2909H317.185V52.1943H317.298C317.497 51.5172 317.831 51.0058 318.3 50.6602C318.768 50.3098 319.308 50.1346 319.919 50.1346C320.07 50.1346 320.234 50.1441 320.409 50.163C320.584 50.182 320.738 50.208 320.871 50.2411V52.9258C320.729 52.8832 320.532 52.8453 320.281 52.8122C320.03 52.779 319.801 52.7625 319.592 52.7625C319.147 52.7625 318.749 52.8595 318.399 53.0536C318.053 53.243 317.779 53.5082 317.575 53.8491C317.376 54.19 317.277 54.583 317.277 55.0281V61.2H314.251ZM325.233 61.4059C324.537 61.4059 323.917 61.2852 323.372 61.0437C322.828 60.7975 322.397 60.4353 322.08 59.9571C321.767 59.4741 321.611 58.8728 321.611 58.1531C321.611 57.547 321.722 57.038 321.945 56.6261C322.167 56.2142 322.47 55.8827 322.854 55.6318C323.237 55.3808 323.673 55.1914 324.161 55.0636C324.653 54.9357 325.169 54.8458 325.709 54.7937C326.344 54.7274 326.855 54.6659 327.243 54.609C327.631 54.5475 327.913 54.4575 328.088 54.3392C328.264 54.2208 328.351 54.0456 328.351 53.8136V53.771C328.351 53.3212 328.209 52.9732 327.925 52.7269C327.646 52.4807 327.248 52.3576 326.732 52.3576C326.187 52.3576 325.754 52.4784 325.432 52.7198C325.11 52.9566 324.897 53.2549 324.793 53.6147L321.995 53.3875C322.137 52.7246 322.416 52.1517 322.833 51.6687C323.249 51.181 323.787 50.807 324.445 50.5465C325.108 50.2814 325.875 50.1488 326.746 50.1488C327.352 50.1488 327.932 50.2198 328.486 50.3619C329.045 50.5039 329.54 50.7241 329.97 51.0224C330.406 51.3207 330.749 51.7042 331 52.173C331.251 52.637 331.377 53.1933 331.377 53.842V61.2H328.507V59.6872H328.422C328.247 60.0281 328.013 60.3287 327.719 60.5892C327.425 60.8448 327.073 61.0461 326.661 61.1928C326.249 61.3349 325.773 61.4059 325.233 61.4059ZM326.1 59.3178C326.545 59.3178 326.938 59.2303 327.279 59.0551C327.62 58.8751 327.887 58.6337 328.081 58.3306C328.275 58.0276 328.372 57.6843 328.372 57.3008V56.1431C328.278 56.2047 328.148 56.2615 327.982 56.3136C327.821 56.3609 327.639 56.4059 327.435 56.4485C327.231 56.4864 327.028 56.5219 326.824 56.5551C326.621 56.5835 326.436 56.6095 326.27 56.6332C325.915 56.6853 325.605 56.7681 325.34 56.8818C325.075 56.9954 324.869 57.1493 324.722 57.3434C324.575 57.5328 324.502 57.7696 324.502 58.0536C324.502 58.4656 324.651 58.7804 324.949 58.9982C325.252 59.2113 325.636 59.3178 326.1 59.3178ZM343.504 50.2909L339.69 61.2H336.281L332.467 50.2909H335.663L337.929 58.0963H338.042L340.301 50.2909H343.504Z" fill="#353945"/>
<path d="M107.638 85.2V75.0181H111.267C112.06 75.0181 112.716 75.1623 113.236 75.4507C113.757 75.739 114.146 76.1334 114.404 76.6339C114.663 77.1311 114.792 77.6912 114.792 78.3143C114.792 78.9407 114.661 79.5042 114.4 80.0046C114.141 80.5018 113.75 80.8962 113.226 81.1879C112.706 81.4762 112.051 81.6204 111.262 81.6204H108.767V80.3178H111.123C111.624 80.3178 112.03 80.2317 112.341 80.0593C112.653 79.8837 112.882 79.645 113.027 79.3434C113.173 79.0418 113.246 78.6988 113.246 78.3143C113.246 77.9298 113.173 77.5884 113.027 77.2901C112.882 76.9919 112.651 76.7582 112.336 76.5892C112.025 76.4201 111.614 76.3356 111.103 76.3356H109.174V85.2H107.638ZM117.96 75.0181V85.2H116.474V75.0181H117.96ZM123.251 85.3541C122.499 85.3541 121.851 85.1933 121.308 84.8718C120.767 84.547 120.35 84.0913 120.055 83.5046C119.763 82.9147 119.617 82.2236 119.617 81.4315C119.617 80.6493 119.763 79.9599 120.055 79.3633C120.35 78.7667 120.761 78.301 121.288 77.9663C121.818 77.6315 122.438 77.4642 123.147 77.4642C123.578 77.4642 123.996 77.5354 124.4 77.6779C124.804 77.8205 125.167 78.0442 125.489 78.3491C125.81 78.654 126.064 79.0501 126.249 79.5373C126.435 80.0212 126.528 80.6095 126.528 81.3022V81.8292H120.457V80.7156H125.071C125.071 80.3245 124.991 79.9781 124.832 79.6765C124.673 79.3716 124.45 79.1313 124.161 78.9556C123.876 78.78 123.541 78.6921 123.157 78.6921C122.739 78.6921 122.375 78.7949 122.063 79.0004C121.755 79.2026 121.516 79.4677 121.347 79.7958C121.182 80.1206 121.099 80.4736 121.099 80.8548V81.7248C121.099 82.2352 121.188 82.6694 121.367 83.0274C121.549 83.3853 121.803 83.6588 122.128 83.8477C122.453 84.0333 122.832 84.1261 123.266 84.1261C123.548 84.1261 123.805 84.0863 124.037 84.0068C124.269 83.9239 124.469 83.8013 124.638 83.6389C124.808 83.4765 124.937 83.2759 125.026 83.0373L126.433 83.2909C126.321 83.7052 126.118 84.0681 125.827 84.3796C125.538 84.6879 125.175 84.9282 124.738 85.1005C124.304 85.2696 123.808 85.3541 123.251 85.3541ZM130.399 85.369C129.915 85.369 129.478 85.2795 129.087 85.1005C128.696 84.9182 128.386 84.6547 128.157 84.31C127.932 83.9653 127.819 83.5428 127.819 83.0423C127.819 82.6114 127.902 82.2568 128.068 81.9784C128.233 81.7 128.457 81.4795 128.739 81.3171C129.021 81.1547 129.335 81.0321 129.683 80.9492C130.031 80.8664 130.386 80.8034 130.747 80.7603C131.205 80.7073 131.576 80.6642 131.861 80.6311C132.146 80.5946 132.353 80.5366 132.482 80.4571C132.612 80.3775 132.676 80.2482 132.676 80.0693V80.0345C132.676 79.6003 132.554 79.2639 132.308 79.0252C132.066 78.7866 131.705 78.6673 131.225 78.6673C130.724 78.6673 130.33 78.7783 130.041 79.0004C129.756 79.2191 129.559 79.4627 129.45 79.7312L128.053 79.413C128.218 78.949 128.46 78.5745 128.779 78.2894C129.1 78.0011 129.47 77.7923 129.887 77.663C130.305 77.5304 130.744 77.4642 131.205 77.4642C131.51 77.4642 131.833 77.5006 132.174 77.5735C132.519 77.6431 132.84 77.7724 133.139 77.9613C133.44 78.1502 133.687 78.4204 133.879 78.7717C134.072 79.1197 134.168 79.5721 134.168 80.1289V85.2H132.716V84.1559H132.656C132.56 84.3482 132.416 84.5371 132.224 84.7227C132.032 84.9083 131.785 85.0624 131.483 85.185C131.182 85.3077 130.82 85.369 130.399 85.369ZM130.722 84.1758C131.133 84.1758 131.485 84.0946 131.776 83.9322C132.071 83.7698 132.295 83.5577 132.448 83.2958C132.603 83.0307 132.681 82.7473 132.681 82.4457V81.4613C132.628 81.5143 132.526 81.5641 132.373 81.6105C132.224 81.6535 132.053 81.6917 131.861 81.7248C131.669 81.7546 131.481 81.7828 131.299 81.8093C131.117 81.8325 130.964 81.8524 130.842 81.869C130.553 81.9054 130.29 81.9668 130.051 82.0529C129.816 82.1391 129.627 82.2634 129.485 82.4258C129.345 82.5849 129.276 82.797 129.276 83.0622C129.276 83.4301 129.412 83.7085 129.683 83.8974C129.955 84.083 130.302 84.1758 130.722 84.1758ZM141.87 79.4279L140.523 79.6666C140.466 79.4942 140.377 79.3302 140.254 79.1744C140.135 79.0186 139.973 78.891 139.767 78.7916C139.562 78.6921 139.305 78.6424 138.996 78.6424C138.576 78.6424 138.224 78.7369 137.942 78.9258C137.661 79.1114 137.52 79.3517 137.52 79.6467C137.52 79.9019 137.614 80.1074 137.803 80.2632C137.992 80.4189 138.297 80.5465 138.718 80.646L139.931 80.9244C140.634 81.0868 141.157 81.337 141.502 81.6751C141.847 82.0132 142.019 82.4523 142.019 82.9926C142.019 83.45 141.887 83.8576 141.621 84.2156C141.36 84.5702 140.993 84.8486 140.523 85.0508C140.055 85.253 139.513 85.3541 138.897 85.3541C138.042 85.3541 137.344 85.1718 136.804 84.8072C136.264 84.4393 135.932 83.9173 135.81 83.2411L137.246 83.0224C137.336 83.3969 137.52 83.6803 137.798 83.8725C138.077 84.0615 138.44 84.1559 138.887 84.1559C139.374 84.1559 139.764 84.0548 140.055 83.8527C140.347 83.6472 140.493 83.3969 140.493 83.1019C140.493 82.8633 140.403 82.6628 140.224 82.5004C140.049 82.338 139.779 82.2153 139.414 82.1325L138.121 81.8491C137.409 81.6867 136.882 81.4282 136.54 81.0735C136.202 80.7189 136.033 80.2698 136.033 79.7262C136.033 79.2755 136.159 78.8811 136.411 78.543C136.663 78.2049 137.011 77.9414 137.455 77.7525C137.899 77.5603 138.408 77.4642 138.982 77.4642C139.807 77.4642 140.456 77.6431 140.93 78.0011C141.404 78.3557 141.718 78.8313 141.87 79.4279ZM146.945 85.3541C146.192 85.3541 145.544 85.1933 145.001 84.8718C144.461 84.547 144.043 84.0913 143.748 83.5046C143.456 82.9147 143.311 82.2236 143.311 81.4315C143.311 80.6493 143.456 79.9599 143.748 79.3633C144.043 78.7667 144.454 78.301 144.981 77.9663C145.511 77.6315 146.131 77.4642 146.84 77.4642C147.271 77.4642 147.689 77.5354 148.093 77.6779C148.498 77.8205 148.86 78.0442 149.182 78.3491C149.503 78.654 149.757 79.0501 149.943 79.5373C150.128 80.0212 150.221 80.6095 150.221 81.3022V81.8292H144.151V80.7156H148.764C148.764 80.3245 148.685 79.9781 148.526 79.6765C148.367 79.3716 148.143 79.1313 147.855 78.9556C147.57 78.78 147.235 78.6921 146.85 78.6921C146.433 78.6921 146.068 78.7949 145.757 79.0004C145.448 79.2026 145.21 79.4677 145.041 79.7958C144.875 80.1206 144.792 80.4736 144.792 80.8548V81.7248C144.792 82.2352 144.882 82.6694 145.061 83.0274C145.243 83.3853 145.496 83.6588 145.821 83.8477C146.146 84.0333 146.526 84.1261 146.96 84.1261C147.241 84.1261 147.498 84.0863 147.73 84.0068C147.962 83.9239 148.163 83.8013 148.332 83.6389C148.501 83.4765 148.63 83.2759 148.72 83.0373L150.127 83.2909C150.014 83.7052 149.812 84.0681 149.52 84.3796C149.232 84.6879 148.869 84.9282 148.431 85.1005C147.997 85.2696 147.502 85.3541 146.945 85.3541ZM161.248 77.6928C161.195 77.2222 160.976 76.8576 160.592 76.5991C160.207 76.3373 159.723 76.2063 159.14 76.2063C158.722 76.2063 158.361 76.2726 158.056 76.4052C157.751 76.5345 157.514 76.7134 157.345 76.9421C157.18 77.1675 157.097 77.4244 157.097 77.7127C157.097 77.9547 157.153 78.1635 157.266 78.3392C157.382 78.5148 157.533 78.6623 157.718 78.7816C157.907 78.8976 158.109 78.9954 158.325 79.075C158.54 79.1512 158.747 79.2142 158.946 79.2639L159.941 79.5224C160.265 79.6019 160.598 79.7097 160.94 79.8455C161.281 79.9814 161.598 80.1604 161.889 80.3825C162.181 80.6045 162.416 80.8796 162.595 81.2078C162.778 81.5359 162.869 81.9286 162.869 82.386C162.869 82.9627 162.72 83.4748 162.421 83.9223C162.126 84.3697 161.697 84.7227 161.134 84.9812C160.574 85.2397 159.896 85.369 159.1 85.369C158.338 85.369 157.678 85.248 157.122 85.0061C156.565 84.7641 156.129 84.4211 155.814 83.9769C155.499 83.5295 155.325 82.9992 155.292 82.386H156.833C156.863 82.7539 156.982 83.0605 157.191 83.3058C157.403 83.5477 157.673 83.7284 158.002 83.8477C158.333 83.9637 158.696 84.0217 159.09 84.0217C159.525 84.0217 159.911 83.9537 160.249 83.8178C160.59 83.6786 160.859 83.4864 161.054 83.2411C161.25 82.9926 161.347 82.7026 161.347 82.3711C161.347 82.0695 161.261 81.8226 161.089 81.6303C160.92 81.4381 160.69 81.279 160.398 81.1531C160.11 81.0271 159.783 80.9161 159.419 80.82L158.215 80.4919C157.4 80.2698 156.754 79.9433 156.276 79.5125C155.802 79.0816 155.566 78.5115 155.566 77.8022C155.566 77.2156 155.725 76.7035 156.043 76.266C156.361 75.8285 156.792 75.4888 157.335 75.2468C157.879 75.0016 158.492 74.8789 159.175 74.8789C159.864 74.8789 160.472 74.9999 160.999 75.2419C161.53 75.4838 161.947 75.8169 162.252 76.2411C162.557 76.6621 162.716 77.146 162.73 77.6928H161.248ZM167.876 85.3541C167.124 85.3541 166.476 85.1933 165.933 84.8718C165.392 84.547 164.975 84.0913 164.68 83.5046C164.388 82.9147 164.242 82.2236 164.242 81.4315C164.242 80.6493 164.388 79.9599 164.68 79.3633C164.975 78.7667 165.386 78.301 165.913 77.9663C166.443 77.6315 167.063 77.4642 167.772 77.4642C168.203 77.4642 168.621 77.5354 169.025 77.6779C169.429 77.8205 169.792 78.0442 170.114 78.3491C170.435 78.654 170.689 79.0501 170.874 79.5373C171.06 80.0212 171.153 80.6095 171.153 81.3022V81.8292H165.082V80.7156H169.696C169.696 80.3245 169.616 79.9781 169.457 79.6765C169.298 79.3716 169.075 79.1313 168.786 78.9556C168.501 78.78 168.166 78.6921 167.782 78.6921C167.364 78.6921 167 78.7949 166.688 79.0004C166.38 79.2026 166.141 79.4677 165.972 79.7958C165.807 80.1206 165.724 80.4736 165.724 80.8548V81.7248C165.724 82.2352 165.813 82.6694 165.992 83.0274C166.174 83.3853 166.428 83.6588 166.753 83.8477C167.078 84.0333 167.457 84.1261 167.891 84.1261C168.173 84.1261 168.43 84.0863 168.662 84.0068C168.894 83.9239 169.094 83.8013 169.263 83.6389C169.433 83.4765 169.562 83.2759 169.651 83.0373L171.058 83.2909C170.946 83.7052 170.743 84.0681 170.452 84.3796C170.163 84.6879 169.8 84.9282 169.363 85.1005C168.929 85.2696 168.433 85.3541 167.876 85.3541ZM174.289 75.0181V85.2H172.802V75.0181H174.289ZM179.58 85.3541C178.827 85.3541 178.179 85.1933 177.636 84.8718C177.095 84.547 176.678 84.0913 176.383 83.5046C176.091 82.9147 175.945 82.2236 175.945 81.4315C175.945 80.6493 176.091 79.9599 176.383 79.3633C176.678 78.7667 177.089 78.301 177.616 77.9663C178.146 77.6315 178.766 77.4642 179.475 77.4642C179.906 77.4642 180.324 77.5354 180.728 77.6779C181.132 77.8205 181.495 78.0442 181.817 78.3491C182.138 78.654 182.392 79.0501 182.577 79.5373C182.763 80.0212 182.856 80.6095 182.856 81.3022V81.8292H176.786V80.7156H181.399C181.399 80.3245 181.32 79.9781 181.161 79.6765C181.001 79.3716 180.778 79.1313 180.489 78.9556C180.204 78.78 179.87 78.6921 179.485 78.6921C179.067 78.6921 178.703 78.7949 178.391 79.0004C178.083 79.2026 177.844 79.4677 177.675 79.7958C177.51 80.1206 177.427 80.4736 177.427 80.8548V81.7248C177.427 82.2352 177.516 82.6694 177.695 83.0274C177.878 83.3853 178.131 83.6588 178.456 83.8477C178.781 84.0333 179.16 84.1261 179.594 84.1261C179.876 84.1261 180.133 84.0863 180.365 84.0068C180.597 83.9239 180.798 83.8013 180.967 83.6389C181.136 83.4765 181.265 83.2759 181.354 83.0373L182.761 83.2909C182.649 83.7052 182.446 84.0681 182.155 84.3796C181.866 84.6879 181.504 84.9282 181.066 85.1005C180.632 85.2696 180.136 85.3541 179.58 85.3541ZM187.722 85.3541C186.983 85.3541 186.346 85.1867 185.813 84.8519C185.282 84.5139 184.875 84.0482 184.59 83.4549C184.305 82.8616 184.162 82.1822 184.162 81.4166C184.162 80.641 184.308 79.9566 184.6 79.3633C184.891 78.7667 185.302 78.301 185.833 77.9663C186.363 77.6315 186.988 77.4642 187.707 77.4642C188.287 77.4642 188.804 77.5719 189.258 77.7873C189.712 77.9994 190.078 78.2977 190.357 78.6822C190.638 79.0667 190.806 79.5158 190.859 80.0295H189.412C189.333 79.6715 189.15 79.3633 188.865 79.1048C188.584 78.8463 188.206 78.717 187.732 78.717C187.317 78.717 186.954 78.8264 186.643 79.0451C186.335 79.2606 186.094 79.5688 185.922 79.9698C185.75 80.3676 185.664 80.8382 185.664 81.3818C185.664 81.9386 185.748 82.4192 185.917 82.8235C186.086 83.2279 186.325 83.5411 186.633 83.7632C186.945 83.9852 187.311 84.0963 187.732 84.0963C188.013 84.0963 188.269 84.0449 188.497 83.9421C188.729 83.8361 188.923 83.6853 189.079 83.4897C189.238 83.2942 189.349 83.0589 189.412 82.7838H190.859C190.806 83.2776 190.645 83.7184 190.377 84.1062C190.108 84.494 189.749 84.7989 189.298 85.021C188.85 85.243 188.325 85.3541 187.722 85.3541ZM196.013 77.5636V78.7568H191.842V77.5636H196.013ZM192.961 75.734H194.447V82.9578C194.447 83.2461 194.49 83.4632 194.576 83.609C194.663 83.7516 194.774 83.8493 194.909 83.9024C195.049 83.9521 195.199 83.9769 195.362 83.9769C195.481 83.9769 195.586 83.9687 195.675 83.9521C195.765 83.9355 195.834 83.9223 195.884 83.9123L196.152 85.1403C196.066 85.1734 195.944 85.2066 195.784 85.2397C195.625 85.2762 195.426 85.2961 195.188 85.2994C194.797 85.306 194.432 85.2364 194.094 85.0906C193.756 84.9447 193.483 84.7194 193.274 84.4144C193.065 84.1095 192.961 83.7267 192.961 83.266V75.734ZM204.927 77.5636V78.7568H200.756V77.5636H204.927ZM201.875 75.734H203.361V82.9578C203.361 83.2461 203.404 83.4632 203.49 83.609C203.577 83.7516 203.688 83.8493 203.824 83.9024C203.963 83.9521 204.114 83.9769 204.276 83.9769C204.395 83.9769 204.5 83.9687 204.589 83.9521C204.679 83.9355 204.748 83.9223 204.798 83.9123L205.066 85.1403C204.98 85.1734 204.858 85.2066 204.699 85.2397C204.539 85.2762 204.341 85.2961 204.102 85.2994C203.711 85.306 203.346 85.2364 203.008 85.0906C202.67 84.9447 202.397 84.7194 202.188 84.4144C201.979 84.1095 201.875 83.7267 201.875 83.266V75.734ZM209.706 85.3541C208.99 85.3541 208.365 85.19 207.832 84.8619C207.298 84.5338 206.884 84.0747 206.589 83.4848C206.294 82.8948 206.146 82.2054 206.146 81.4166C206.146 80.6244 206.294 79.9317 206.589 79.3384C206.884 78.7452 207.298 78.2845 207.832 77.9563C208.365 77.6282 208.99 77.4642 209.706 77.4642C210.422 77.4642 211.047 77.6282 211.58 77.9563C212.114 78.2845 212.528 78.7452 212.823 79.3384C213.118 79.9317 213.266 80.6244 213.266 81.4166C213.266 82.2054 213.118 82.8948 212.823 83.4848C212.528 84.0747 212.114 84.5338 211.58 84.8619C211.047 85.19 210.422 85.3541 209.706 85.3541ZM209.711 84.1062C210.175 84.1062 210.56 83.9836 210.865 83.7383C211.169 83.493 211.395 83.1666 211.541 82.7589C211.69 82.3512 211.764 81.9021 211.764 81.4116C211.764 80.9244 211.69 80.4769 211.541 80.0693C211.395 79.6583 211.169 79.3285 210.865 79.0799C210.56 78.8313 210.175 78.7071 209.711 78.7071C209.244 78.7071 208.856 78.8313 208.548 79.0799C208.243 79.3285 208.016 79.6583 207.867 80.0693C207.721 80.4769 207.648 80.9244 207.648 81.4116C207.648 81.9021 207.721 82.3512 207.867 82.7589C208.016 83.1666 208.243 83.493 208.548 83.7383C208.856 83.9836 209.244 84.1062 209.711 84.1062ZM221.847 85.3541C221.131 85.3541 220.506 85.19 219.972 84.8619C219.439 84.5338 219.025 84.0747 218.73 83.4848C218.435 82.8948 218.287 82.2054 218.287 81.4166C218.287 80.6244 218.435 79.9317 218.73 79.3384C219.025 78.7452 219.439 78.2845 219.972 77.9563C220.506 77.6282 221.131 77.4642 221.847 77.4642C222.563 77.4642 223.187 77.6282 223.721 77.9563C224.255 78.2845 224.669 78.7452 224.964 79.3384C225.259 79.9317 225.406 80.6244 225.406 81.4166C225.406 82.2054 225.259 82.8948 224.964 83.4848C224.669 84.0747 224.255 84.5338 223.721 84.8619C223.187 85.19 222.563 85.3541 221.847 85.3541ZM221.852 84.1062C222.316 84.1062 222.7 83.9836 223.005 83.7383C223.31 83.493 223.535 83.1666 223.681 82.7589C223.83 82.3512 223.905 81.9021 223.905 81.4116C223.905 80.9244 223.83 80.4769 223.681 80.0693C223.535 79.6583 223.31 79.3285 223.005 79.0799C222.7 78.8313 222.316 78.7071 221.852 78.7071C221.384 78.7071 220.997 78.8313 220.688 79.0799C220.383 79.3285 220.156 79.6583 220.007 80.0693C219.861 80.4769 219.789 80.9244 219.789 81.4116C219.789 81.9021 219.861 82.3512 220.007 82.7589C220.156 83.1666 220.383 83.493 220.688 83.7383C220.997 83.9836 221.384 84.1062 221.852 84.1062ZM228.552 80.6659V85.2H227.066V77.5636H228.493V78.8065H228.587C228.763 78.4021 229.038 78.0773 229.412 77.8321C229.79 77.5868 230.266 77.4642 230.839 77.4642C231.359 77.4642 231.815 77.5735 232.206 77.7923C232.597 78.0077 232.901 78.3292 233.116 78.7568C233.332 79.1843 233.439 79.713 233.439 80.3427V85.2H231.953V80.5217C231.953 79.9682 231.809 79.5357 231.52 79.2241C231.232 78.9092 230.836 78.7518 230.332 78.7518C229.987 78.7518 229.681 78.8264 229.412 78.9755C229.147 79.1247 228.937 79.3434 228.781 79.6318C228.628 79.9168 228.552 80.2615 228.552 80.6659ZM238.724 85.3541C237.972 85.3541 237.324 85.1933 236.78 84.8718C236.24 84.547 235.822 84.0913 235.527 83.5046C235.236 82.9147 235.09 82.2236 235.09 81.4315C235.09 80.6493 235.236 79.9599 235.527 79.3633C235.822 78.7667 236.233 78.301 236.76 77.9663C237.291 77.6315 237.91 77.4642 238.62 77.4642C239.051 77.4642 239.468 77.5354 239.873 77.6779C240.277 77.8205 240.64 78.0442 240.961 78.3491C241.283 78.654 241.536 79.0501 241.722 79.5373C241.908 80.0212 242 80.6095 242 81.3022V81.8292H235.93V80.7156H240.544C240.544 80.3245 240.464 79.9781 240.305 79.6765C240.146 79.3716 239.922 79.1313 239.634 78.9556C239.349 78.78 239.014 78.6921 238.63 78.6921C238.212 78.6921 237.847 78.7949 237.536 79.0004C237.228 79.2026 236.989 79.4677 236.82 79.7958C236.654 80.1206 236.571 80.4736 236.571 80.8548V81.7248C236.571 82.2352 236.661 82.6694 236.84 83.0274C237.022 83.3853 237.276 83.6588 237.6 83.8477C237.925 84.0333 238.305 84.1261 238.739 84.1261C239.021 84.1261 239.278 84.0863 239.51 84.0068C239.742 83.9239 239.942 83.8013 240.111 83.6389C240.28 83.4765 240.409 83.2759 240.499 83.0373L241.906 83.2909C241.793 83.7052 241.591 84.0681 241.299 84.3796C241.011 84.6879 240.648 84.9282 240.211 85.1005C239.776 85.2696 239.281 85.3541 238.724 85.3541Z" fill="#777E91"/>
<rect x="49.085" y="114.2" width="326" height="308" rx="23" fill="#ECECEC"/>
<rect x="69.085" y="134.2" width="244" height="124" rx="19" fill="white"/>
<circle cx="105.585" cy="170.7" r="24.5" fill="#DDDDDD"/>
<rect x="145.085" y="161.2" width="110" height="7" rx="3.5" fill="#DDDDDD"/>
<rect x="145.085" y="173.2" width="42" height="7" rx="3.5" fill="#DDDDDD"/>
<rect x="81.085" y="213.2" width="166" height="7" rx="3.5" fill="#DDDDDD"/>
<rect x="81.085" y="226.2" width="166" height="7" rx="3.5" fill="#DDDDDD"/>
<rect x="81.085" y="239.2" width="42" height="7" rx="3.5" fill="#DDDDDD"/>
<rect x="69.085" y="278.2" width="244" height="124" rx="19" fill="white"/>
<circle cx="105.585" cy="314.7" r="24.5" fill="#DDDDDD"/>
<rect x="145.085" y="305.2" width="110" height="7" rx="3.5" fill="#DDDDDD"/>
<rect x="145.085" y="317.2" width="42" height="7" rx="3.5" fill="#DDDDDD"/>
<rect x="81.085" y="357.2" width="166" height="7" rx="3.5" fill="#DDDDDD"/>
<rect x="81.085" y="370.2" width="166" height="7" rx="3.5" fill="#DDDDDD"/>
<rect x="81.085" y="383.2" width="42" height="7" rx="3.5" fill="#DDDDDD"/>
</g>
<rect x="366.085" y="255.2" width="87" height="33" rx="10" transform="rotate(180 366.085 255.2)" fill="#4AABF8"/>
<path d="M272.262 214.991C272.07 213.538 273.453 212.379 274.85 212.822L284.07 215.749C285.573 216.226 285.958 218.174 284.749 219.188L276.801 225.85C275.592 226.863 273.74 226.144 273.533 224.58L272.262 214.991Z" fill="#FA8F54"/>
<path d="M306.182 244.2V234.018H310.259C311.008 234.018 311.632 234.129 312.133 234.351C312.633 234.573 313.009 234.882 313.261 235.276C313.513 235.667 313.639 236.118 313.639 236.628C313.639 237.026 313.56 237.376 313.401 237.677C313.241 237.976 313.023 238.221 312.744 238.413C312.469 238.602 312.154 238.736 311.8 238.816V238.915C312.188 238.932 312.55 239.041 312.888 239.243C313.23 239.445 313.507 239.729 313.719 240.093C313.931 240.455 314.037 240.886 314.037 241.386C314.037 241.926 313.903 242.409 313.634 242.833C313.369 243.254 312.976 243.587 312.456 243.832C311.936 244.077 311.294 244.2 310.532 244.2H306.182ZM308.335 242.44H310.089C310.689 242.44 311.127 242.326 311.402 242.097C311.677 241.865 311.815 241.557 311.815 241.172C311.815 240.891 311.747 240.642 311.611 240.427C311.475 240.211 311.281 240.042 311.029 239.919C310.781 239.797 310.484 239.735 310.139 239.735H308.335V242.44ZM308.335 238.279H309.93C310.225 238.279 310.487 238.227 310.716 238.125C310.948 238.019 311.13 237.869 311.263 237.677C311.399 237.485 311.467 237.255 311.467 236.986C311.467 236.618 311.336 236.322 311.074 236.096C310.815 235.871 310.447 235.758 309.97 235.758H308.335V238.279ZM318.848 244.349C318.076 244.349 317.408 244.185 316.845 243.857C316.285 243.525 315.852 243.065 315.547 242.475C315.242 241.882 315.09 241.194 315.09 240.412C315.09 239.623 315.242 238.933 315.547 238.343C315.852 237.75 316.285 237.289 316.845 236.961C317.408 236.63 318.076 236.464 318.848 236.464C319.62 236.464 320.287 236.63 320.847 236.961C321.41 237.289 321.844 237.75 322.149 238.343C322.454 238.933 322.607 239.623 322.607 240.412C322.607 241.194 322.454 241.882 322.149 242.475C321.844 243.065 321.41 243.525 320.847 243.857C320.287 244.185 319.62 244.349 318.848 244.349ZM318.858 242.708C319.209 242.708 319.503 242.609 319.738 242.41C319.973 242.208 320.151 241.933 320.27 241.585C320.393 241.237 320.454 240.841 320.454 240.397C320.454 239.953 320.393 239.556 320.27 239.208C320.151 238.86 319.973 238.585 319.738 238.383C319.503 238.181 319.209 238.08 318.858 238.08C318.503 238.08 318.205 238.181 317.963 238.383C317.725 238.585 317.544 238.86 317.421 239.208C317.302 239.556 317.242 239.953 317.242 240.397C317.242 240.841 317.302 241.237 317.421 241.585C317.544 241.933 317.725 242.208 317.963 242.41C318.205 242.609 318.503 242.708 318.858 242.708ZM327.434 244.349C326.662 244.349 325.994 244.185 325.431 243.857C324.87 243.525 324.438 243.065 324.133 242.475C323.828 241.882 323.676 241.194 323.676 240.412C323.676 239.623 323.828 238.933 324.133 238.343C324.438 237.75 324.87 237.289 325.431 236.961C325.994 236.63 326.662 236.464 327.434 236.464C328.206 236.464 328.873 236.63 329.433 236.961C329.996 237.289 330.43 237.75 330.735 238.343C331.04 238.933 331.193 239.623 331.193 240.412C331.193 241.194 331.04 241.882 330.735 242.475C330.43 243.065 329.996 243.525 329.433 243.857C328.873 244.185 328.206 244.349 327.434 244.349ZM327.444 242.708C327.795 242.708 328.089 242.609 328.324 242.41C328.559 242.208 328.737 241.933 328.856 241.585C328.979 241.237 329.04 240.841 329.04 240.397C329.04 239.953 328.979 239.556 328.856 239.208C328.737 238.86 328.559 238.585 328.324 238.383C328.089 238.181 327.795 238.08 327.444 238.08C327.089 238.08 326.791 238.181 326.549 238.383C326.311 238.585 326.13 238.86 326.007 239.208C325.888 239.556 325.828 239.953 325.828 240.397C325.828 240.841 325.888 241.237 326.007 241.585C326.13 241.933 326.311 242.208 326.549 242.41C326.791 242.609 327.089 242.708 327.444 242.708ZM334.489 242.003L334.494 239.462H334.802L337.248 236.564H339.679L336.393 240.402H335.891L334.489 242.003ZM332.57 244.2V234.018H334.688V244.2H332.57ZM337.343 244.2L335.095 240.874L336.507 239.378L339.823 244.2H337.343Z" fill="white"/>
<defs>
<filter id="filter0_d_17_8859" x="0.0849609" y="0.199951" width="424" height="490" filterUnits="userSpaceOnUse" color-interpolation-filters="sRGB">
<feFlood flood-opacity="0" result="BackgroundImageFix"/>
<feColorMatrix in="SourceAlpha" type="matrix" values="0 0 0 0 0 0 0 0 0 0 0 0 0 0 0 0 0 0 127 0" result="hardAlpha"/>
<feMorphology radius="15" operator="erode" in="SourceAlpha" result="effect1_dropShadow_17_8859"/>
<feOffset dy="14"/>
<feGaussianBlur stdDeviation="20"/>
<feComposite in2="hardAlpha" operator="out"/>
<feColorMatrix type="matrix" values="0 0 0 0 0.0588235 0 0 0 0 0.0588235 0 0 0 0 0.0588235 0 0 0 0.08 0"/>
<feBlend mode="normal" in2="BackgroundImageFix" result="effect1_dropShadow_17_8859"/>
<feBlend mode="normal" in="SourceGraphic" in2="effect1_dropShadow_17_8859" result="shape"/>
</filter>
</defs>
</svg>
