<svg width="256" height="405" viewBox="0 0 256 405" fill="none" xmlns="http://www.w3.org/2000/svg">
<circle cx="193.385" cy="306.734" r="93.1341" fill="url(#paint0_linear_144_5963)"/>
<path d="M151.934 190.46C151.576 178.887 142.869 135.79 122.63 132.609C97.3309 128.633 95.8741 163.595 120.358 165.732C144.843 167.869 147.098 118.342 135.652 99.5083C116.555 68.0862 75.3601 39.896 60.3289 39.7326" stroke="#FA8F54" stroke-width="1.7236" stroke-dasharray="8.04 8.04"/>
<path d="M46.6337 31.2438C46.9456 31.5015 47.1626 31.8558 47.2502 32.2508L48.2573 36.7248L51.8398 36.2039C51.9974 36.181 52.1582 36.2005 52.3059 36.2601C52.4535 36.3198 52.5827 36.4176 52.6802 36.5435C52.7777 36.6694 52.84 36.819 52.8608 36.9768C52.8815 37.1347 52.86 37.2953 52.7985 37.4421L50.3727 43.2339L52.1649 46.1847C52.3582 46.5034 52.45 46.8734 52.4281 47.2456C52.4061 47.6177 52.2714 47.9744 52.0419 48.2681C51.8124 48.5619 51.499 48.7789 51.1432 48.8903C50.7874 49.0017 50.4062 49.0022 50.0501 48.8917L33.4765 43.6459C33.1597 43.5464 32.8758 43.363 32.655 43.1151C32.4341 42.8672 32.2845 42.5641 32.2222 42.238C32.1599 41.9118 32.187 41.5749 32.3009 41.263C32.4147 40.9511 32.6109 40.6759 32.8687 40.4666L44.3058 31.2263C44.637 30.9618 45.0491 30.8192 45.4729 30.8224C45.8967 30.8256 46.3066 30.9744 46.6337 31.2438Z" fill="#3B71FE"/>
<path d="M52.5417 36.4009C52.6906 36.5238 52.7959 36.6913 52.8422 36.8787C52.8885 37.0661 52.8733 37.2634 52.7988 37.4415L50.2018 43.6489C50.121 43.8425 49.9751 44.0017 49.7893 44.0989C49.6035 44.1962 49.3895 44.2254 49.1844 44.1815L38.7034 41.9448C38.4931 41.9001 38.3058 41.7817 38.1754 41.6108C38.045 41.44 37.9801 41.2281 37.9924 41.0135C38.0048 40.7989 38.0936 40.5958 38.2427 40.4411C38.3919 40.2863 38.5915 40.1901 38.8055 40.1698L47.7753 39.3141L51.4047 36.3939C51.5605 36.2683 51.7537 36.1983 51.9538 36.1949C52.1539 36.1915 52.3494 36.255 52.5093 36.3753C52.5207 36.3835 52.5315 36.3925 52.5417 36.4009Z" fill="#1A4ED3"/>
<path d="M174.067 339.721C172.808 317.61 172.334 305.215 174.067 283.103L127.729 274.071C121.347 267.985 213.258 266.436 224.399 266.271C225.117 266.26 225.794 265.985 226.301 265.477C233.35 258.433 234.861 250.752 229.321 226.828C187.28 226.828 136.402 230.063 119.727 236.49C110.228 240.15 58.1029 251.366 101.266 297.788C116.781 314.475 150.849 329.872 174.067 339.721Z" fill="#0B1F83"/>
<path d="M174.069 283.104C175.181 304.56 175.465 317.223 174.069 339.721C160.238 337.579 167.407 281.12 174.069 283.104Z" fill="#42447C"/>
<path d="M200.162 287.699L174.029 283.186L170.836 304.054L183.067 309.653L200.162 287.699Z" fill="#FEFEFE"/>
<path fill-rule="evenodd" clip-rule="evenodd" d="M170.673 303.978C170.632 304.068 170.671 304.174 170.761 304.215L182.992 309.814C183.082 309.856 183.189 309.816 183.23 309.726C183.271 309.636 183.232 309.53 183.142 309.489L170.911 303.89C170.821 303.848 170.714 303.888 170.673 303.978ZM175.611 283.6C175.594 283.698 175.66 283.79 175.758 283.806L200.133 287.875C200.23 287.891 200.323 287.825 200.339 287.727C200.355 287.63 200.289 287.537 200.192 287.521L175.817 283.453C175.719 283.437 175.627 283.503 175.611 283.6Z" fill="#444779"/>
<path d="M174.041 283.091L170.836 304.052L175.115 305.854L176.011 283.45L174.041 283.091Z" fill="#444779"/>
<path d="M177.378 306.023C176.804 294.628 190.719 301.366 185.313 285.279L204.082 288.149C206.049 288.45 207.397 290.281 207.082 292.246C205.463 302.339 200.899 330.817 200.048 336.383C196.44 359.974 178.307 324.466 177.378 306.023Z" fill="#355CB7"/>
<path d="M207.164 291.746C205.621 301.361 200.915 330.723 200.049 336.383C199.067 342.807 197.008 344.849 194.512 344.047C191.211 335.048 199.802 309.452 198.222 307.534C190.061 299.668 192.165 290.33 194.237 286.643L204.58 288.225C206.274 288.484 207.435 290.055 207.164 291.746Z" fill="#EEEFE9"/>
<path fill-rule="evenodd" clip-rule="evenodd" d="M194.062 286.617C194.047 286.715 194.114 286.806 194.212 286.821L197.146 287.27C197.244 287.285 197.336 287.218 197.351 287.12C197.366 287.022 197.299 286.93 197.201 286.915L194.266 286.467C194.168 286.452 194.077 286.519 194.062 286.617ZM201.63 287.774C201.615 287.872 201.682 287.963 201.78 287.978L204.555 288.403C206.151 288.647 207.243 290.126 206.988 291.718C206.972 291.816 207.039 291.908 207.137 291.924C207.234 291.939 207.326 291.873 207.342 291.775C207.629 289.984 206.399 288.322 204.609 288.048L201.834 287.624C201.736 287.609 201.645 287.676 201.63 287.774ZM206.644 294.994C206.547 294.978 206.455 295.045 206.439 295.142C206.188 296.71 205.901 298.498 205.591 300.432C205.576 300.529 205.642 300.621 205.74 300.637C205.838 300.653 205.93 300.586 205.945 300.488C206.255 298.555 206.542 296.767 206.793 295.199C206.809 295.101 206.742 295.009 206.644 294.994ZM205.183 304.118C205.085 304.102 204.994 304.169 204.978 304.267L202.651 318.813C201.38 326.782 200.255 333.865 199.874 336.357C199.859 336.455 199.926 336.546 200.024 336.561C200.122 336.576 200.213 336.509 200.228 336.411C200.609 333.92 201.734 326.839 203.005 318.869L205.332 304.323C205.347 304.226 205.281 304.134 205.183 304.118Z" fill="#345267"/>
<path fill-rule="evenodd" clip-rule="evenodd" d="M198.775 341.313C198.685 341.272 198.579 341.312 198.538 341.403C198.005 342.58 197.39 343.318 196.729 343.703C196.074 344.083 195.352 344.129 194.568 343.877C194.474 343.847 194.373 343.899 194.343 343.993C194.312 344.087 194.364 344.188 194.459 344.219C195.323 344.496 196.153 344.452 196.909 344.013C197.659 343.577 198.315 342.765 198.864 341.55C198.905 341.46 198.865 341.354 198.775 341.313Z" fill="#345267"/>
<path fill-rule="evenodd" clip-rule="evenodd" d="M178.103 307.957C175.95 310.371 173.684 311.525 171.902 311.945C170.956 312.168 170.155 312.183 169.582 312.079C169.295 312.027 169.077 311.948 168.929 311.86C168.778 311.771 168.726 311.69 168.711 311.646C168.525 311.093 168.715 310.535 169.282 309.98C169.853 309.42 170.762 308.915 171.851 308.528C173.835 307.824 176.287 307.553 178.103 307.957ZM168.78 309.468C168.101 310.134 167.726 310.965 168.031 311.874C168.12 312.138 168.325 312.336 168.564 312.477C168.806 312.62 169.11 312.722 169.454 312.785C170.144 312.91 171.046 312.884 172.066 312.643C174.112 312.161 176.668 310.808 179.021 307.99C179.097 307.898 179.123 307.775 179.09 307.661C179.057 307.546 178.97 307.456 178.856 307.419C176.811 306.756 173.887 307.044 171.611 307.853C170.471 308.258 169.454 308.807 168.78 309.468Z" fill="#FEFEFE"/>
<path fill-rule="evenodd" clip-rule="evenodd" d="M178.752 308.506C179.512 312.751 178.723 316.05 177.526 318.224C176.903 319.358 176.172 320.178 175.501 320.672C174.807 321.181 174.257 321.289 173.948 321.183C173.196 320.924 172.65 320.329 172.37 319.476C172.087 318.615 172.078 317.493 172.425 316.229C173.092 313.8 175.063 310.902 178.752 308.506ZM171.689 319.699C172.028 320.732 172.718 321.517 173.715 321.861C174.366 322.085 175.176 321.8 175.925 321.25C176.696 320.684 177.49 319.777 178.154 318.57C179.486 316.151 180.309 312.498 179.356 307.85C179.333 307.735 179.255 307.639 179.147 307.593C179.04 307.546 178.917 307.555 178.817 307.617C174.719 310.141 172.484 313.308 171.734 316.039C171.359 317.403 171.352 318.674 171.689 319.699Z" fill="#FEFEFE"/>
<path d="M163.866 375.612L164.375 349.097L143.264 349.097L139.579 362.034L163.866 375.612Z" fill="#FEFEFE"/>
<path fill-rule="evenodd" clip-rule="evenodd" d="M163.868 348.507C163.769 348.507 163.688 348.588 163.688 348.687L163.688 375.611C163.688 375.71 163.769 375.791 163.868 375.791C163.967 375.791 164.047 375.71 164.047 375.611L164.047 348.687C164.047 348.588 163.967 348.507 163.868 348.507ZM143.315 348.924C143.219 348.897 143.12 348.952 143.093 349.047L139.409 361.984C139.381 362.08 139.437 362.179 139.532 362.206C139.627 362.233 139.726 362.178 139.753 362.083L143.438 349.146C143.465 349.05 143.41 348.951 143.315 348.924Z" fill="#444779"/>
<path d="M164.028 348.166L143.265 349.097L142.296 352.498C142.296 352.498 159.32 354.96 164.028 357.756L164.028 348.166Z" fill="#444779"/>
<path d="M142.305 355.863C153.483 353.572 148.927 368.346 164.011 360.569L164.013 379.555C164.013 381.546 162.407 383.155 160.416 383.141C150.195 383.067 121.354 382.863 115.723 382.864C91.8584 382.866 124.215 359.57 142.305 355.863Z" fill="#355CB7"/>
<path d="M160.924 383.144C151.187 383.074 121.451 382.863 115.724 382.863C109.226 382.864 106.896 381.137 107.312 378.549C115.707 373.924 142.308 378.545 143.965 376.694C150.506 367.436 160.055 368.104 164.013 369.595L164.014 380.058C164.014 381.771 162.637 383.156 160.924 383.144Z" fill="#EEEFE9"/>
<path fill-rule="evenodd" clip-rule="evenodd" d="M164.014 369.415C163.915 369.415 163.835 369.495 163.835 369.594L163.835 372.563C163.835 372.662 163.916 372.742 164.015 372.742C164.114 372.742 164.194 372.662 164.194 372.563L164.194 369.594C164.194 369.495 164.113 369.415 164.014 369.415ZM164.015 377.071C163.916 377.071 163.836 377.151 163.836 377.25L163.836 380.057C163.836 381.672 162.539 382.976 160.927 382.964C160.828 382.964 160.747 383.043 160.746 383.142C160.745 383.241 160.825 383.322 160.924 383.323C162.738 383.336 164.195 381.869 164.195 380.057L164.194 377.25C164.194 377.151 164.114 377.071 164.015 377.071ZM157.637 383.12C157.638 383.021 157.558 382.94 157.459 382.939C155.871 382.928 154.061 382.915 152.102 382.902C152.003 382.901 151.922 382.981 151.922 383.08C151.921 383.179 152.001 383.259 152.1 383.26C154.058 383.274 155.869 383.287 157.456 383.298C157.555 383.299 157.636 383.219 157.637 383.12ZM148.397 383.056C148.397 382.957 148.318 382.876 148.219 382.875L133.488 382.776C125.418 382.724 118.247 382.683 115.726 382.684C115.627 382.684 115.546 382.764 115.547 382.863C115.547 382.962 115.627 383.042 115.726 383.042C118.245 383.042 125.415 383.083 133.486 383.134L148.216 383.234C148.315 383.234 148.396 383.155 148.397 383.056Z" fill="#345267"/>
<path fill-rule="evenodd" clip-rule="evenodd" d="M110.66 382.349C110.686 382.253 110.631 382.154 110.535 382.128C109.291 381.779 108.468 381.283 107.988 380.687C107.513 380.098 107.358 379.391 107.489 378.578C107.504 378.48 107.438 378.388 107.34 378.373C107.242 378.357 107.15 378.423 107.135 378.521C106.991 379.417 107.16 380.231 107.709 380.912C108.253 381.588 109.155 382.113 110.439 382.473C110.534 382.499 110.633 382.444 110.66 382.349Z" fill="#6DE277"/>
<path d="M225.623 266.254C241.308 257.713 230.134 229.32 230.134 229.32L181.03 229.259C181.03 229.259 143.928 231.516 131.309 245.411C118.689 259.307 126.027 337.602 121.159 349.588L168.305 350.496C175.125 339.206 166.623 268.099 168.698 267.297C170.772 266.496 225.236 266.865 225.623 266.254Z" fill="#4AABF8"/>
<path fill-rule="evenodd" clip-rule="evenodd" d="M230.303 229.255C230.303 229.255 230.303 229.254 230.137 229.32C229.97 229.386 229.97 229.386 229.97 229.386L229.972 229.391L229.977 229.406C229.983 229.419 229.99 229.439 230.001 229.466C230.021 229.519 230.051 229.599 230.09 229.703C230.168 229.912 230.28 230.22 230.417 230.616C230.691 231.406 231.065 232.545 231.465 233.939C232.266 236.728 233.169 240.534 233.584 244.603C234.416 252.76 233.277 261.883 225.539 266.097L225.711 266.412C233.658 262.084 234.775 252.741 233.941 244.566C233.523 240.469 232.614 236.642 231.81 233.841C231.407 232.439 231.031 231.294 230.755 230.498C230.617 230.1 230.505 229.79 230.426 229.579C230.387 229.473 230.356 229.392 230.335 229.338C230.325 229.311 230.317 229.29 230.312 229.276L230.305 229.26L230.303 229.255ZM168.779 267.456C168.779 267.456 168.774 267.46 168.764 267.464L168.635 267.13C168.555 267.161 168.501 267.222 168.465 267.279C168.428 267.338 168.399 267.409 168.375 267.485C168.327 267.639 168.291 267.845 168.263 268.093C168.208 268.593 168.184 269.3 168.185 270.184C168.188 271.954 168.291 274.46 168.456 277.498C168.622 280.553 168.85 284.153 169.099 288.092C169.345 291.985 169.613 296.209 169.862 300.564C170.363 309.33 170.79 318.638 170.826 326.891C170.862 335.149 170.505 342.333 169.444 346.858L169.793 346.94C170.865 342.369 171.22 335.147 171.184 326.889C171.149 318.627 170.721 309.311 170.219 300.543C169.97 296.181 169.703 291.958 169.457 288.067C169.207 284.132 168.98 280.536 168.814 277.479C168.649 274.441 168.546 271.944 168.544 270.184C168.542 269.303 168.566 268.612 168.619 268.133C168.646 267.892 168.679 267.713 168.717 267.592C168.736 267.532 168.754 267.493 168.768 267.471C168.776 267.459 168.78 267.455 168.779 267.456ZM123.223 329.337C123.308 324.854 123.337 319.906 123.365 314.716L123.007 314.714C122.979 319.905 122.949 324.851 122.864 329.33L123.223 329.337ZM122.356 345.042C122.617 343.064 122.806 340.669 122.945 337.946L122.587 337.928C122.449 340.647 122.26 343.031 122.001 344.995C121.741 346.962 121.411 348.495 120.995 349.52L121.327 349.655C121.761 348.587 122.095 347.016 122.356 345.042Z" fill="#1081B0"/>
<path d="M121.161 349.588C131.019 347.438 164.823 348.334 168.36 350.485C152.168 352.815 125.319 351.453 121.161 349.588Z" fill="#42447C"/>
<path fill-rule="evenodd" clip-rule="evenodd" d="M142.014 356.108C139.302 354.345 137.819 352.28 137.133 350.581C136.77 349.681 136.634 348.891 136.65 348.309C136.658 348.017 136.704 347.79 136.768 347.63C136.834 347.468 136.905 347.404 136.947 347.382C137.466 347.115 138.045 347.218 138.68 347.694C139.32 348.174 139.956 348.996 140.504 350.015C141.5 351.869 142.138 354.252 142.014 356.108ZM139.11 347.121C138.349 346.55 137.471 346.306 136.619 346.745C136.371 346.872 136.206 347.106 136.103 347.363C135.998 347.623 135.943 347.939 135.934 348.289C135.914 348.99 136.077 349.878 136.469 350.85C137.255 352.799 138.979 355.121 142.12 357.02C142.222 357.082 142.348 357.089 142.456 357.039C142.564 356.989 142.641 356.889 142.66 356.771C143.006 354.65 142.278 351.802 141.135 349.675C140.562 348.609 139.866 347.687 139.11 347.121Z" fill="#444779"/>
<path fill-rule="evenodd" clip-rule="evenodd" d="M141.571 356.835C137.49 358.229 134.109 357.947 131.779 357.093C130.564 356.648 129.643 356.051 129.053 355.461C128.445 354.853 128.255 354.325 128.313 354.004C128.456 353.222 128.96 352.592 129.762 352.186C130.57 351.776 131.677 351.598 132.979 351.749C135.482 352.041 138.644 353.551 141.571 356.835ZM129.438 351.546C128.469 352.037 127.797 352.839 127.608 353.876C127.485 354.554 127.889 355.311 128.546 355.968C129.222 356.645 130.239 357.293 131.532 357.767C134.125 358.717 137.86 358.978 142.311 357.333C142.42 357.293 142.503 357.201 142.533 357.088C142.563 356.975 142.535 356.854 142.46 356.765C139.345 353.096 135.876 351.366 133.062 351.037C131.658 350.873 130.401 351.058 129.438 351.546Z" fill="#444779"/>
<path d="M181.985 158.993C190.612 147.417 201.028 162.805 198.838 168.173C197.827 170.653 188.854 189.511 187.794 193.846C186.901 197.496 191.705 230.831 191.705 230.831L175.624 232.174C175.624 232.174 167.771 210.818 170.911 191.85C172.733 180.845 178.236 164.023 181.985 158.993Z" fill="#EC6C47"/>
<path d="M222.1 157.535C213.68 147.458 194.507 145.917 183.434 157.535C176.8 164.495 184.888 190.161 175.628 232.511L230.145 229.319C224.281 198.273 228.539 165.241 222.1 157.535Z" fill="#EC6C47"/>
<path fill-rule="evenodd" clip-rule="evenodd" d="M180.517 183.973C180.418 183.972 180.338 184.052 180.337 184.151C180.32 193.217 180.024 204.339 178.167 217.409C178.153 217.507 178.222 217.598 178.32 217.612C178.418 217.626 178.508 217.557 178.522 217.459C180.382 204.366 180.678 193.226 180.696 184.152C180.696 184.053 180.616 183.973 180.517 183.973Z" fill="#D5482A"/>
<path d="M183.796 231.785L173.629 218.352C173.629 218.352 211.99 215.588 212.476 214.177C212.895 212.959 206.527 166.27 206.527 160.311C206.527 150.98 215.685 152.013 218.002 153.694C232.626 164.302 237.795 215.467 232.08 225.068C223.709 239.132 183.796 231.785 183.796 231.785Z" fill="#EC6C47"/>
<path fill-rule="evenodd" clip-rule="evenodd" d="M208.955 183.257C208.856 183.269 208.786 183.358 208.798 183.456C209.118 186.092 209.447 188.771 209.768 191.394C210.323 195.919 210.857 200.277 211.292 203.95C211.636 206.851 211.917 209.325 212.097 211.116C212.187 212.012 212.252 212.735 212.287 213.256C212.304 213.516 212.314 213.724 212.316 213.876C212.317 213.952 212.316 214.012 212.313 214.056C212.311 214.082 212.309 214.099 212.308 214.108C212.307 214.109 212.307 214.109 212.307 214.109C212.295 214.12 212.273 214.135 212.237 214.155C212.164 214.194 212.054 214.238 211.905 214.285C211.607 214.38 211.178 214.48 210.633 214.585C209.543 214.794 208.01 215.018 206.178 215.246C202.517 215.703 197.679 216.181 192.854 216.615C188.029 217.048 183.219 217.438 179.616 217.719C177.814 217.86 176.314 217.973 175.264 218.051C174.739 218.09 174.327 218.121 174.046 218.141C173.906 218.152 173.798 218.16 173.725 218.165L173.617 218.173L173.616 218.173C173.616 218.173 173.615 218.173 173.628 218.352C173.641 218.53 173.641 218.53 173.642 218.53L173.86 218.514C173.919 218.51 173.99 218.505 174.072 218.499C174.354 218.478 174.766 218.448 175.291 218.409C176.341 218.33 177.842 218.217 179.644 218.076C183.248 217.795 188.059 217.405 192.886 216.972C197.712 216.538 202.555 216.06 206.223 215.602C208.056 215.373 209.599 215.149 210.701 214.937C211.25 214.831 211.696 214.728 212.013 214.627C212.172 214.576 212.305 214.525 212.406 214.47C212.457 214.443 212.504 214.413 212.544 214.378C212.582 214.344 212.623 214.297 212.645 214.235C212.661 214.188 212.667 214.131 212.671 214.079C212.674 214.022 212.675 213.952 212.674 213.872C212.672 213.71 212.662 213.495 212.645 213.232C212.61 212.705 212.544 211.977 212.454 211.08C212.273 209.285 211.992 206.809 211.648 203.908C211.213 200.234 210.679 195.875 210.124 191.349C209.803 188.726 209.474 186.047 209.154 183.413C209.142 183.315 209.053 183.245 208.955 183.257ZM173.628 218.352L173.641 218.53C173.543 218.537 173.457 218.463 173.45 218.364C173.442 218.266 173.517 218.18 173.615 218.173L173.628 218.352ZM232.397 188.097C232.299 188.114 232.233 188.206 232.25 188.304C233.575 196.2 234.225 204.149 234.175 210.74C234.15 214.036 233.951 216.989 233.574 219.424C233.197 221.864 232.645 223.768 231.926 224.976C229.869 228.432 225.86 230.593 220.958 231.877C216.061 233.161 210.305 233.561 204.8 233.521C199.296 233.482 194.053 233.004 190.184 232.535C188.25 232.301 186.66 232.069 185.554 231.896C185.002 231.809 184.57 231.737 184.276 231.687C184.129 231.662 184.017 231.642 183.942 231.629C183.904 231.622 183.875 231.617 183.856 231.614L183.835 231.61L183.83 231.609L183.828 231.609C183.828 231.608 183.828 231.608 183.795 231.785C183.763 231.961 183.763 231.961 183.763 231.961L183.77 231.962L183.792 231.966C183.812 231.97 183.841 231.975 183.879 231.982C183.955 231.995 184.068 232.015 184.215 232.04C184.511 232.091 184.944 232.163 185.499 232.25C186.609 232.424 188.202 232.656 190.141 232.891C194.018 233.36 199.276 233.84 204.797 233.88C210.317 233.919 216.108 233.519 221.049 232.224C225.985 230.931 230.105 228.736 232.234 225.16C232.989 223.891 233.55 221.932 233.929 219.479C234.308 217.021 234.509 214.05 234.533 210.743C234.583 204.128 233.931 196.158 232.603 188.245C232.587 188.147 232.495 188.081 232.397 188.097ZM183.619 231.752C183.601 231.85 183.666 231.943 183.763 231.961L183.795 231.785L183.828 231.608C183.731 231.591 183.637 231.655 183.619 231.752Z" fill="#D5482A"/>
<path d="M173.63 218.352C177.29 220.697 183.576 227.537 183.796 231.785C180.776 230.541 175.387 225.242 173.63 218.352Z" fill="#3E4981"/>
<path d="M159.652 220.635C163.178 217.964 175.627 219.985 175.627 219.985C178.35 222.164 182.343 226.703 183.433 229.97C183.433 229.97 177.624 228.154 171.815 230.514C169.582 231.421 171.12 228.849 171.815 228.154C174.175 225.795 149.487 228.336 159.652 220.635Z" fill="#F1B09B"/>
<path d="M206.541 125.673C203.565 124.147 197.564 120.049 197.365 115.863C198.031 117.763 200.797 122.385 206.541 125.673Z" fill="#444779"/>
<path d="M207.742 127.467C205.074 125.451 199.87 120.379 200.397 116.222C200.724 118.208 202.651 123.238 207.742 127.467Z" fill="#444779"/>
<path d="M213.908 126.114C223.762 131.851 214.647 140.701 209.715 144.541C204.196 140.15 212.486 136.034 210.97 135.579C209.454 135.124 206.653 136.42 197.967 131.763C196.964 131.225 196.183 130.643 195.588 130.033C192.065 126.413 194.583 119.486 196.908 117.372C198.043 120.6 201.375 122.872 204.316 123.932C203.258 123.122 200.972 120.25 202.834 117.372C205.586 122.451 209.607 123.61 213.908 126.114Z" fill="#05185A"/>
<path d="M195.731 156.652C197.58 158.574 205.348 159.878 210.829 156.652C211.586 155.142 208.099 141.219 210.537 139.522C215.068 136.367 210.25 133.07 207.562 134.245C205.948 134.95 204.515 133.787 203.439 132.891C198.994 128.876 196.507 127.327 195.731 128.947C189.638 141.673 194.063 145.621 195.466 147.055C195.996 147.597 196.133 149.391 196.083 151.476C196.027 153.807 194.4 155.268 195.731 156.652Z" fill="#F1B09B"/>
<path fill-rule="evenodd" clip-rule="evenodd" d="M209.842 133.956C209.055 133.756 208.207 133.767 207.49 134.081C206.743 134.407 206.035 134.305 205.373 134.005C204.705 133.702 204.096 133.205 203.557 132.755C201.336 130.749 199.589 129.346 198.294 128.648C197.649 128.3 197.091 128.114 196.629 128.136C196.394 128.147 196.183 128.213 196.001 128.339C195.819 128.465 195.677 128.645 195.57 128.869C192.514 135.252 192.082 139.46 192.611 142.268C193.113 144.929 194.475 146.307 195.216 147.057C195.259 147.1 195.3 147.142 195.338 147.181C195.441 147.286 195.539 147.469 195.622 147.735C195.704 147.998 195.768 148.326 195.814 148.708C195.907 149.473 195.929 150.433 195.904 151.471C195.883 152.347 195.635 153.087 195.407 153.773C195.339 153.975 195.273 154.173 195.215 154.368C195.09 154.788 195.001 155.201 195.038 155.604C195.076 156.015 195.243 156.403 195.602 156.777C196.095 157.289 196.96 157.742 198.045 158.087C199.135 158.434 200.465 158.679 201.907 158.761C204.79 158.926 208.14 158.442 210.92 156.807L210.965 156.78L210.989 156.733C211.052 156.607 211.085 156.437 211.102 156.246C211.119 156.05 211.122 155.814 211.113 155.546C211.094 155.01 211.029 154.329 210.938 153.556C210.846 152.782 210.728 151.911 210.604 150.992L210.604 150.989C210.479 150.07 210.348 149.104 210.231 148.136C209.995 146.196 209.812 144.26 209.84 142.705C209.854 141.928 209.92 141.255 210.055 140.728C210.19 140.195 210.388 139.844 210.64 139.669C211.794 138.865 212.382 138.032 212.538 137.236C212.694 136.434 212.406 135.707 211.889 135.139C211.375 134.574 210.63 134.157 209.842 133.956ZM212.186 137.167C212.055 137.839 211.546 138.601 210.435 139.375C210.077 139.624 209.85 140.079 209.707 140.639C209.563 141.204 209.496 141.909 209.482 142.699C209.453 144.28 209.638 146.237 209.875 148.179C209.993 149.149 210.124 150.118 210.248 151.036L210.249 151.04C210.373 151.96 210.491 152.828 210.582 153.598C210.673 154.369 210.737 155.038 210.754 155.558C210.763 155.819 210.761 156.039 210.745 156.214C210.732 156.357 210.711 156.46 210.687 156.527C207.995 158.093 204.744 158.564 201.928 158.403C200.512 158.323 199.211 158.083 198.154 157.746C197.09 157.407 196.292 156.977 195.86 156.528C195.554 156.21 195.425 155.896 195.395 155.571C195.365 155.238 195.436 154.88 195.558 154.47C195.611 154.294 195.673 154.109 195.738 153.915C195.969 153.223 196.239 152.415 196.262 151.48C196.287 150.434 196.266 149.454 196.17 148.665C196.122 148.271 196.055 147.919 195.964 147.628C195.874 147.34 195.755 147.095 195.594 146.93C195.556 146.891 195.515 146.85 195.473 146.807C194.742 146.067 193.445 144.755 192.964 142.202C192.453 139.496 192.856 135.367 195.893 129.024C195.979 128.844 196.085 128.717 196.205 128.634C196.325 128.55 196.469 128.503 196.646 128.494C197.008 128.477 197.495 128.625 198.124 128.963C199.377 129.638 201.096 131.015 203.319 133.023L203.322 133.026L203.324 133.028C203.86 133.474 204.505 134.005 205.225 134.332C205.951 134.661 206.768 134.788 207.634 134.409C208.261 134.135 209.024 134.118 209.754 134.304C210.484 134.49 211.164 134.874 211.624 135.38C212.082 135.884 212.316 136.5 212.186 137.167Z" fill="#EC8E67"/>
<path d="M207.022 147.055C205.098 148.834 198.964 147.719 195.464 147.055C195.993 147.597 196.131 149.391 196.081 151.476C199.558 151.235 205.536 150.201 207.022 147.055Z" fill="#EC8E67"/>
<path d="M129.946 233.802L108.438 196.162H158.336C158.847 196.162 159.319 196.434 159.576 196.876L180.49 232.906L129.946 233.802Z" fill="#1C43AE"/>
<path d="M159.576 196.876L180.49 232.906H194.023C194.666 232.906 195.188 232.384 195.188 231.741C195.188 231.097 194.666 230.576 194.023 230.576H181.207L160.828 194.736C160.573 194.288 160.097 194.011 159.582 194.011H113.245C113.03 194.011 112.818 194.06 112.624 194.153L108.438 196.162H158.336C158.847 196.162 159.319 196.434 159.576 196.876Z" fill="#0F2E9A"/>
<defs>
<linearGradient id="paint0_linear_144_5963" x1="230.354" y1="232.085" x2="100.251" y2="306.023" gradientUnits="userSpaceOnUse">
<stop stop-color="#0089E4"/>
<stop offset="1" stop-color="#0328AD"/>
</linearGradient>
</defs>
</svg>
