<svg width="536" height="147" viewBox="0 0 536 147" fill="none" xmlns="http://www.w3.org/2000/svg">
<g clip-path="url(#clip0_522_7838)">
<path d="M38.8117 65.2611H17.4093L12.2523 80.9063H0.821777L22.3081 19.8811H33.9129L55.3992 80.8999H43.9686L38.8117 65.2547H38.8181L38.8117 65.2611ZM28.0653 30.4532C28.0653 30.4532 26.6905 36.4686 25.4836 39.9087L20.0684 56.2381H36.0557L30.6405 39.9087C29.5175 36.4686 28.2331 30.4532 28.2331 30.4532H28.0588H28.0653Z" fill="#182852"/>
<path d="M61.4985 37.0753H71.9803V42.1484C71.9803 43.7878 71.806 45.1561 71.806 45.1561H71.9803C73.8714 41.4642 78.6798 36.0491 87.5351 36.0491C97.2488 36.0491 102.748 41.1221 102.748 52.7269V80.9192H91.9175V54.9601C91.9175 49.6289 90.5428 46.0209 84.9534 46.0209C79.364 46.0209 74.8137 49.7128 73.1743 54.9601C72.574 56.7609 72.4062 58.7423 72.4062 60.8077V80.9192H61.4856V37.0753H61.4921H61.4985Z" fill="#182852"/>
<path d="M119.038 19.8811H120.155C122.84 19.8811 125.015 22.0562 125.015 24.7412C125.015 27.4262 122.84 29.6012 120.155 29.6012H119.038C116.353 29.6012 114.178 27.4262 114.178 24.7412C114.178 22.0562 116.353 19.8811 119.038 19.8811ZM114.178 37.0753H125.099V80.9128H114.178V37.0753Z" fill="#182852"/>
<path d="M137.123 37.0753H147.605V42.1484C147.605 43.7878 147.431 45.1561 147.431 45.1561H147.605C149.754 40.8575 154.995 36.0491 161.875 36.0491C168.756 36.0491 172.874 39.1471 174.687 45.0722H174.861C177.269 40.3476 182.936 36.0491 189.816 36.0491C198.923 36.0491 204.164 41.1996 204.164 52.7269V80.9192H193.243V54.7923C193.243 49.8031 192.301 46.0274 187.221 46.0274C181.638 46.0274 177.94 50.5002 176.649 55.9928C176.217 57.7096 176.133 59.6072 176.133 61.6661V80.9192H165.212V54.7923C165.212 50.0678 164.444 46.0274 159.281 46.0274C153.608 46.0274 149.909 50.5002 148.534 56.0832C148.108 57.7161 148.018 59.6976 148.018 61.6661V80.9192H137.097V37.0753H137.11H137.123Z" fill="#182852"/>
<path d="M237.855 53.3981H239.314V52.7979C239.314 47.0407 235.699 45.0657 230.891 45.0657C224.617 45.0657 218.86 49.2739 218.86 49.2739L214.729 41.4513C214.729 41.4513 221.519 36.0361 231.924 36.0361C243.438 36.0361 250.151 42.3936 250.151 53.4821V80.8998H240.095V77.2854C240.095 75.5686 240.269 74.1874 240.269 74.1874H240.095C240.179 74.1874 236.745 81.9261 226.773 81.9261C218.951 81.9261 211.909 77.0273 211.909 68.2624C211.909 54.3405 230.73 53.3981 237.868 53.3981H237.862H237.855ZM229.516 73.4258C235.273 73.4258 239.404 67.2426 239.404 61.9113V60.8787H237.513C231.93 60.8787 222.901 61.6467 222.901 67.7525C222.901 70.6763 225.05 73.4258 229.516 73.4258Z" fill="#182852"/>
<path d="M260.884 19.8811H271.714V65.6097C271.714 70.4181 273.347 71.6251 276.187 71.6251C277.046 71.6251 277.82 71.5347 277.82 71.5347V81.0741C277.82 81.0741 276.187 81.3388 274.38 81.3388C268.358 81.3388 260.884 79.7897 260.884 67.2426V19.8811Z" fill="#182852"/>
<path d="M287.611 19.8811H309.44C320.438 19.8811 328.26 25.5544 328.26 35.6102C328.26 41.2835 325.511 46.1823 320.87 48.6736V48.8479C327.57 50.8229 330.758 57.0126 330.758 63.1958C330.758 75.4008 320.96 80.9063 309.698 80.9063H287.605V19.8811H287.611ZM309.44 44.8075C314.254 44.8075 316.998 41.3674 316.998 36.9849C316.998 32.6025 314.416 29.4205 309.265 29.4205H298.693V44.8011H309.44V44.8075ZM310.556 71.3669C316.23 71.3669 319.411 67.675 319.411 62.5116C319.411 57.3482 316.146 53.7467 310.556 53.7467H298.693V71.3669H310.556Z" fill="#182852"/>
<path d="M345.932 19.8811H347.049C349.734 19.8811 351.909 22.0562 351.909 24.7412C351.909 27.4262 349.734 29.6012 347.049 29.6012H345.932C343.247 29.6012 341.072 27.4262 341.072 24.7412C341.072 22.0562 343.247 19.8811 345.932 19.8811ZM341.072 37.0753H351.993V80.9128H341.072V37.0753Z" fill="#182852"/>
<path d="M417.73 37.0753H428.211V42.1484C428.211 43.7878 428.037 45.1561 428.037 45.1561H428.211C430.361 40.8575 435.601 36.0491 442.482 36.0491C449.362 36.0491 453.48 39.1471 455.293 45.0722H455.468C457.875 40.3476 463.542 36.0491 470.422 36.0491C479.529 36.0491 484.77 41.1996 484.77 52.7269V80.9192H473.85V54.7923C473.85 49.8031 472.907 46.0274 467.828 46.0274C462.245 46.0274 458.546 50.5002 457.256 55.9928C456.823 57.7096 456.739 59.6072 456.739 61.6661V80.9192H445.819V54.7923C445.819 50.0678 445.051 46.0274 439.887 46.0274C434.214 46.0274 430.515 50.5002 429.141 56.0832C428.715 57.7161 428.624 59.6976 428.624 61.6661V80.9192H417.704V37.0753H417.717H417.73Z" fill="#182852"/>
<path d="M515.363 36.0426C528.001 36.0426 534.791 45.2399 534.791 56.8383C534.791 58.1227 534.526 61.0465 534.526 61.0465H504.269C504.959 68.6948 510.884 72.6448 517.422 72.6448C524.464 72.6448 530.053 67.8364 530.053 67.8364L534.262 75.6589C534.262 75.6589 527.562 81.9325 516.641 81.9325C502.119 81.9325 493.096 71.4508 493.096 58.9811C493.096 45.4852 502.294 36.0297 515.357 36.0297L515.363 36.0426ZM523.786 53.5788C523.612 47.6474 519.92 44.4719 515.105 44.4719C509.522 44.4719 505.65 47.912 504.623 53.5788H523.793H523.786Z" fill="#182852"/>
<path d="M396.514 55.6636C396.45 55.4893 396.334 55.3538 396.185 55.2828C396.043 55.2118 395.875 55.2118 395.72 55.2699C395.398 55.3861 395.069 55.4894 394.752 55.5991C394.423 55.7088 394.126 55.8056 393.829 55.9089C393.681 55.7604 393.5 55.6249 393.287 55.5087C393.403 55.328 393.526 55.1602 393.649 54.973C393.855 54.6697 394.094 54.3276 394.307 53.9984C394.436 53.7919 394.417 53.6176 394.384 53.5079C394.346 53.3788 394.249 53.2691 394.12 53.1852C393.952 53.0819 393.758 53.0432 393.578 53.0819C393.403 53.1142 393.261 53.2239 393.165 53.3788C392.952 53.7144 392.732 54.0371 392.48 54.3921C392.313 54.6245 392.158 54.8568 392.003 55.0956C391.699 55.0505 391.396 55.0182 391.08 55.0182C391.093 54.7407 391.106 54.4696 391.119 54.192C391.131 53.779 391.151 53.3078 391.202 52.856C391.228 52.6107 391.125 52.3719 390.912 52.2235C390.705 52.0815 390.434 52.0363 390.228 52.1331C390.125 52.1783 389.95 52.3009 389.918 52.5914C389.873 53.0367 389.853 53.5079 389.834 53.9274C389.821 54.334 389.808 54.7471 389.763 55.1537C389.466 55.2183 389.15 55.2893 388.801 55.3925C388.582 55.0376 388.421 54.6245 388.253 54.1727C388.143 53.8822 388.027 53.5853 387.891 53.3207C387.756 53.0561 387.549 53.0045 387.401 52.998C387.175 52.998 386.955 53.1271 386.813 53.3336C386.678 53.5402 386.665 53.7919 386.781 54.0178C386.923 54.2953 387.033 54.5987 387.156 54.8956C387.272 55.2054 387.394 55.5281 387.556 55.8314C387.02 56.0444 386.452 56.2961 385.852 56.6059C385.755 56.4252 385.665 56.2445 385.574 56.0573L385.542 55.9928C385.335 55.5733 385.122 55.1344 384.877 54.7213C384.716 54.4567 384.503 54.4179 384.367 54.4179C384.129 54.4179 383.883 54.5664 383.767 54.7923C383.657 54.9924 383.664 55.2183 383.786 55.4313C384.025 55.8314 384.238 56.2574 384.438 56.6769L384.471 56.7479C384.548 56.9093 384.632 57.0642 384.703 57.2256L384.354 57.4192C384.167 57.5224 383.98 57.6257 383.799 57.7354L383.657 57.5483C383.296 57.0642 382.915 56.5737 382.528 56.0961C382.412 55.9541 382.25 55.8637 382.076 55.8443C381.882 55.825 381.689 55.8766 381.54 56.0057C381.476 56.0509 381.334 56.1929 381.308 56.3994C381.295 56.5027 381.308 56.664 381.444 56.8254C381.863 57.3482 382.276 57.8903 382.676 58.4131L382.696 58.439C382.399 58.6455 382.128 58.8585 381.863 59.0779C381.147 58.639 380.579 58.3163 380.024 58.0323C379.811 57.9226 379.585 57.9355 379.398 58.0582C379.191 58.1872 379.068 58.4454 379.081 58.6842C379.094 58.9037 379.217 59.0844 379.423 59.1877C379.882 59.42 380.372 59.6975 380.921 60.0267C380.604 60.414 380.353 60.8141 380.146 61.2401C380.082 61.3627 380.036 61.4918 379.998 61.6338H379.514C379.178 61.6338 378.797 61.6467 378.423 61.6145C378.32 61.6145 378.158 61.6274 378.01 61.7758C377.874 61.9114 377.784 62.1114 377.797 62.2986C377.81 62.6407 378.081 62.886 378.462 62.9182C378.862 62.9505 379.256 62.944 379.604 62.9376H379.907C379.966 63.299 380.088 63.6476 380.269 63.9445C379.869 64.2801 379.469 64.6544 379.081 65.061C378.92 65.2289 378.862 65.4225 378.913 65.629C378.978 65.8549 379.185 66.0485 379.417 66.1131C379.636 66.1776 379.869 66.1131 380.036 65.9324C380.475 65.487 380.876 65.1127 381.269 64.7964C381.669 64.9707 382.115 65.074 382.605 65.0998V65.1772C382.683 65.7646 382.741 66.3584 382.702 66.9328C382.689 67.1393 382.767 67.2749 382.825 67.3523C382.922 67.462 383.057 67.5266 383.218 67.5395H383.277C383.451 67.5395 383.632 67.4749 383.767 67.3588C383.903 67.2426 383.987 67.0748 383.999 66.8812C384.038 66.2938 383.98 65.6871 383.909 65.074V65.0159C384.341 64.9449 384.813 64.8416 385.374 64.6867C385.503 65.3386 385.626 65.9388 385.832 66.5326C385.91 66.7585 386.078 66.9134 386.297 66.9522C386.542 66.9973 386.807 66.9134 386.962 66.7263C387.104 66.5584 387.143 66.3454 387.065 66.126C386.865 65.5387 386.736 64.9191 386.607 64.2801C387.02 64.1187 387.446 63.938 387.866 63.7315C388.079 64.2801 388.311 64.8932 388.505 65.4999C388.563 65.6742 388.666 65.7968 388.808 65.8743C388.956 65.9517 389.143 65.9582 389.318 65.9001C389.498 65.842 389.64 65.7194 389.718 65.5774C389.763 65.4741 389.815 65.3063 389.744 65.0933C389.544 64.4673 389.305 63.8476 389.053 63.2087L389.021 63.1183C389.473 62.8537 389.905 62.5761 390.331 62.2857C390.551 62.7956 390.776 63.3313 391.041 63.9703C391.112 64.1445 391.235 64.2672 391.39 64.3253C391.564 64.4027 391.764 64.3963 391.938 64.3253C392.074 64.2672 392.19 64.1639 392.254 64.0477C392.313 63.9445 392.364 63.7702 392.267 63.5443C391.99 62.8795 391.699 62.1631 391.39 61.4596C391.674 61.2207 391.938 60.969 392.19 60.7302C392.584 61.253 393.023 61.7371 393.436 62.1824C393.584 62.3503 393.778 62.4148 393.971 62.3696C394.197 62.3244 394.397 62.1308 394.475 61.8855C394.552 61.6532 394.494 61.4079 394.326 61.2272C393.926 60.7948 393.474 60.2913 393.087 59.7363C393.274 59.5039 393.442 59.2587 393.61 59.0134C394.055 59.3103 394.533 59.5555 394.985 59.8073L395.152 59.8976C395.359 60.0073 395.578 60.0073 395.766 59.8912C395.972 59.7621 396.101 59.5104 396.095 59.2716C396.095 59.0457 395.972 58.8585 395.759 58.7423L395.54 58.6261C395.094 58.3873 394.623 58.1356 394.21 57.8516C394.288 57.5999 394.326 57.3546 394.326 57.1223C394.591 57.0319 394.856 56.9416 395.14 56.8512C395.488 56.735 395.804 56.6318 396.127 56.522C396.476 56.3994 396.643 56.038 396.514 55.6765V55.6636ZM393.055 57.303C393.074 57.8516 392.209 58.7681 391.919 59.0715L391.848 59.1425C390.299 60.7948 388.188 62.1824 386.065 62.9376C385.161 63.2216 383.974 63.5443 382.805 63.5572C382.076 63.5572 381.456 63.1828 381.237 62.6084C380.843 61.5951 382.295 60.4204 382.741 60.0848C384.993 58.4196 387.575 57.1933 390.028 56.6382C390.615 56.5091 392.08 56.2832 392.932 57.0384C393.01 57.1094 393.048 57.1997 393.055 57.3095V57.303Z" fill="#182852"/>
<path d="M409.274 50.3066C409.165 50.1582 409.003 50.0678 408.823 50.0355C408.235 49.9516 407.616 49.971 407.015 50.0032H406.951C406.919 49.5579 406.841 49.0803 406.725 48.5188C407.383 48.4349 407.99 48.3445 408.597 48.1896C408.823 48.1251 408.99 47.9766 409.042 47.7572C409.113 47.5248 409.042 47.2473 408.861 47.073C408.713 46.9117 408.5 46.8665 408.268 46.931C407.667 47.0924 407.041 47.1763 406.396 47.2602C406.267 46.8342 406.105 46.4018 405.938 45.9693C406.525 45.7886 407.125 45.6079 407.745 45.453C407.919 45.4143 408.055 45.3174 408.138 45.1754C408.222 45.0335 408.248 44.8463 408.203 44.672C408.164 44.5107 408.074 44.3751 407.951 44.2783C407.848 44.2009 407.674 44.1299 407.435 44.1879C406.783 44.3493 406.112 44.5494 405.531 44.7301L405.421 44.7624C405.195 44.2977 404.944 43.833 404.685 43.4005C405.189 43.2198 405.744 43.0391 406.422 42.8132C406.596 42.7551 406.731 42.6389 406.809 42.4905C406.893 42.3227 406.906 42.129 406.841 41.9419C406.815 41.845 406.731 41.6708 406.544 41.5804C406.447 41.5352 406.299 41.4901 406.092 41.5611C405.408 41.7805 404.692 42.0258 403.943 42.2904C403.717 41.9806 403.498 41.6966 403.272 41.4449C403.814 41.0963 404.33 40.6833 404.802 40.3089C405.034 40.1217 405.053 39.9152 405.034 39.7797C405.002 39.5538 404.827 39.3408 404.589 39.2504C404.363 39.1601 404.124 39.1923 403.924 39.3537C403.472 39.7151 402.936 40.1282 402.349 40.4896C402.13 40.2831 401.897 40.0895 401.665 39.9217C401.981 39.5021 402.272 39.0568 402.543 38.6114L402.652 38.4372C402.775 38.2371 402.788 38.0241 402.685 37.824C402.575 37.611 402.336 37.4626 402.065 37.4497C401.852 37.4497 401.665 37.5529 401.542 37.753L401.413 37.9596C401.142 38.392 400.864 38.8373 400.542 39.2375C400.297 39.1407 400.051 39.0891 399.825 39.0697C399.748 38.7922 399.683 38.5211 399.612 38.2371C399.528 37.9144 399.438 37.5659 399.348 37.2238C399.244 36.8688 398.902 36.6752 398.528 36.7784C398.347 36.8236 398.212 36.9398 398.128 37.0818C398.07 37.1786 398.025 37.3335 398.089 37.54C398.18 37.8563 398.263 38.179 398.354 38.5275C398.438 38.8632 398.515 39.1665 398.599 39.4699C398.438 39.6054 398.296 39.7797 398.167 39.9862C397.999 39.8571 397.831 39.7151 397.637 39.5602C397.34 39.3214 397.037 39.0762 396.727 38.8503C396.527 38.7083 396.347 38.7147 396.237 38.7405C396.108 38.7728 395.992 38.8567 395.901 38.9793C395.785 39.1407 395.733 39.3279 395.766 39.515C395.791 39.6893 395.888 39.8378 396.037 39.9475C396.334 40.1669 396.63 40.3993 396.94 40.651L397.005 40.7091C397.218 40.8834 397.437 41.0576 397.663 41.2319C397.592 41.5352 397.547 41.8321 397.528 42.1484C397.25 42.1161 396.979 42.0774 396.695 42.0516C396.282 42.0064 395.824 41.9548 395.372 41.8773C395.12 41.8386 394.881 41.9225 394.726 42.1161C394.559 42.3162 394.507 42.5744 394.591 42.7874C394.63 42.8906 394.733 43.0778 395.023 43.123C395.475 43.2004 395.959 43.2521 396.366 43.2973C396.76 43.336 397.166 43.3876 397.573 43.4457C397.612 43.7426 397.67 44.0653 397.747 44.4203C397.373 44.6139 396.947 44.743 396.514 44.8786C396.224 44.9689 395.901 45.0657 395.611 45.1884C395.333 45.3045 395.275 45.5111 395.262 45.6272C395.243 45.8596 395.353 46.092 395.553 46.2533C395.753 46.4018 395.998 46.434 396.224 46.3372C396.501 46.221 396.805 46.1242 397.134 46.0274C397.424 45.9371 397.766 45.8338 398.089 45.6982C398.27 46.2469 398.483 46.8277 398.741 47.4538C398.554 47.5377 398.367 47.6152 398.18 47.6862L398.108 47.712C397.676 47.8927 397.224 48.067 396.792 48.2929C396.501 48.4413 396.456 48.6737 396.456 48.7834C396.443 49.0222 396.572 49.2739 396.779 49.4095C396.973 49.5321 397.198 49.545 397.418 49.4353C397.844 49.2158 398.296 49.0351 398.741 48.8544C398.922 48.7834 399.096 48.7124 399.27 48.6349L399.438 48.9899C399.528 49.1836 399.625 49.3772 399.716 49.5708L399.464 49.7451C398.973 50.0678 398.483 50.397 397.992 50.7261C397.644 50.9714 397.637 51.4167 397.825 51.7007C397.863 51.7717 397.999 51.9202 398.205 51.9653C398.302 51.9847 398.457 51.9783 398.638 51.8621C399.199 51.4748 399.78 51.1005 400.335 50.7261C400.522 51.0424 400.716 51.3328 400.923 51.5975C400.426 52.2881 400.064 52.8302 399.754 53.353C399.632 53.5596 399.625 53.779 399.735 53.9791C399.851 54.1921 400.096 54.3341 400.348 54.3405C400.561 54.3405 400.748 54.2308 400.864 54.0307C401.136 53.5854 401.445 53.1142 401.807 52.5914C402.168 52.9335 402.549 53.2175 402.956 53.4498C403.072 53.5208 403.201 53.5789 403.343 53.6306C403.336 53.7725 403.324 53.9275 403.317 54.1082C403.298 54.4632 403.278 54.844 403.22 55.1989C403.188 55.4055 403.304 55.5733 403.349 55.6249C403.472 55.7734 403.672 55.8702 403.872 55.8766C404.214 55.8766 404.466 55.6378 404.518 55.2506C404.576 54.8762 404.595 54.5019 404.621 54.1146L404.634 53.8113C405.008 53.7855 405.357 53.6822 405.666 53.5144C405.983 53.9404 406.325 54.3599 406.693 54.7794C406.841 54.9537 407.035 55.0182 407.254 54.986C407.487 54.9408 407.693 54.7536 407.771 54.5212C407.848 54.3018 407.796 54.0759 407.641 53.8887C407.222 53.4111 406.886 52.9851 406.596 52.5785C406.796 52.1913 406.932 51.7524 406.996 51.2683H407.08C407.667 51.2425 408.268 51.2231 408.829 51.3006C409.036 51.3328 409.171 51.2747 409.255 51.2102C409.371 51.1198 409.449 50.9908 409.475 50.8229C409.5 50.6358 409.455 50.4228 409.339 50.2679H409.313L409.274 50.3066ZM405.421 51.0101C405.363 51.7395 404.956 52.3268 404.363 52.5075C404.266 52.5333 404.169 52.5462 404.066 52.5462C403.124 52.5462 402.201 51.2231 401.949 50.8165C400.445 48.4542 399.406 45.7886 399.025 43.3102C398.935 42.7099 398.812 41.2383 399.632 40.4445C399.709 40.3735 399.793 40.3412 399.909 40.3412C400.458 40.3541 401.31 41.29 401.594 41.5933L401.665 41.6708C403.207 43.3295 404.44 45.5369 405.04 47.712C405.26 48.6349 405.492 49.8354 405.428 50.9843V51.0037L405.421 51.0101Z" fill="#182852"/>
<path d="M395.862 36.417C395.701 36.2427 395.475 36.1846 395.243 36.2362C394.636 36.3782 394.094 36.4815 393.597 36.5525C393.352 36.1975 393.029 35.8683 392.629 35.5908L392.661 35.5198C392.9 35.0164 393.171 34.4484 393.513 33.9837C393.687 33.7513 393.636 33.5513 393.597 33.448C393.539 33.3189 393.448 33.235 393.39 33.1963C393.242 33.0865 393.035 33.0285 392.835 33.0607C392.655 33.0865 392.5 33.1834 392.39 33.3383C392.041 33.8223 391.77 34.3839 391.512 34.9196L391.486 34.9776C391.073 34.7969 390.622 34.642 390.06 34.4807C390.292 33.8546 390.499 33.2737 390.647 32.6735C390.705 32.4411 390.641 32.2281 390.473 32.0732C390.292 31.9054 390.028 31.8409 389.782 31.9119C389.576 31.9829 389.434 32.1378 389.376 32.3637C389.24 32.9639 389.027 33.5577 388.789 34.1709C388.35 34.087 387.891 34.0224 387.433 33.9708C387.549 33.3641 387.665 32.7445 387.82 32.1313C387.859 31.957 387.84 31.7957 387.756 31.6537C387.672 31.5117 387.517 31.4084 387.343 31.3568C387.156 31.3116 386.981 31.3374 386.833 31.4278C386.736 31.4859 386.613 31.6021 386.549 31.8215C386.381 32.4863 386.246 33.1963 386.142 33.7707L386.123 33.874C385.594 33.8611 385.077 33.8611 384.574 33.8933C384.658 33.3318 384.755 32.738 384.864 32.0926C384.897 31.8925 384.851 31.6989 384.722 31.5569C384.613 31.4278 384.458 31.3439 384.283 31.3181C383.935 31.26 383.657 31.4536 383.593 31.8021C383.477 32.5121 383.348 33.2673 383.244 34.0353C382.87 34.0934 382.515 34.158 382.179 34.2354C382.121 33.5771 381.999 32.9252 381.889 32.3443C381.831 32.0409 381.644 31.9377 381.54 31.9054C381.321 31.828 381.043 31.886 380.856 32.0474C380.669 32.2088 380.585 32.4411 380.637 32.6864C380.746 33.2673 380.863 33.9385 380.901 34.6098C380.624 34.7066 380.353 34.8227 380.075 34.9454C379.849 34.4548 379.578 33.9901 379.32 33.5319L379.23 33.3834C379.114 33.1769 378.926 33.0672 378.707 33.0672C378.468 33.0672 378.223 33.2092 378.1 33.4157C377.984 33.6158 377.991 33.8352 378.107 34.0418L378.223 34.2483C378.475 34.6937 378.746 35.1519 378.946 35.6231C378.746 35.7973 378.584 35.9781 378.462 36.1781C378.242 36.133 378.029 36.0749 377.81 36.0168L377.629 35.9781C377.274 35.8877 376.938 35.8102 376.609 35.7393C376.254 35.6618 375.919 35.8748 375.841 36.2556C375.809 36.4363 375.835 36.6106 375.925 36.7526C375.99 36.8429 376.106 36.9656 376.319 37.0043C376.648 37.0753 376.964 37.1527 377.319 37.2366C377.642 37.3141 377.952 37.3851 378.268 37.4561C378.313 37.6626 378.397 37.8692 378.513 38.0822C378.365 38.1532 378.216 38.2112 378.068 38.2758L377.932 38.3403C377.577 38.4888 377.203 38.6566 376.848 38.8309C376.538 38.9793 376.429 39.3085 376.577 39.6247C376.661 39.799 376.809 39.9345 376.99 39.9991C377.158 40.0572 377.332 40.0378 377.5 39.9668C377.855 39.7925 378.223 39.6376 378.584 39.4763L378.681 39.4376C378.913 39.3343 379.159 39.231 379.391 39.1213C379.623 39.3278 379.869 39.5086 380.133 39.6699C379.991 39.8764 379.843 40.0894 379.701 40.296L379.656 40.367C379.417 40.722 379.159 41.0963 378.894 41.4448C378.733 41.6449 378.7 41.8902 378.804 42.1354C378.901 42.3678 379.114 42.5421 379.333 42.5743C379.443 42.5872 379.656 42.5743 379.836 42.3484C380.108 41.9999 380.366 41.6191 380.604 41.2577C380.83 40.922 381.063 40.5735 381.314 40.2508C381.605 40.3541 381.915 40.4573 382.263 40.5541C382.263 40.9737 382.179 41.4126 382.095 41.8321C382.037 42.1354 381.973 42.4711 381.947 42.7938C381.921 43.0907 382.07 43.2456 382.173 43.3166C382.366 43.4457 382.625 43.4586 382.863 43.3488C383.089 43.2456 383.238 43.039 383.257 42.7938C383.277 42.555 383.322 42.3033 383.367 42.058L383.464 41.5546C383.502 41.3287 383.548 41.0769 383.567 40.8446C384.135 40.9479 384.742 41.0253 385.426 41.0834C385.413 41.2899 385.394 41.49 385.368 41.6966V41.7869C385.31 42.2258 385.264 42.7228 385.258 43.2133C385.258 43.5425 385.439 43.6909 385.536 43.7426C385.742 43.8652 386.026 43.8652 386.239 43.7426C386.439 43.6328 386.555 43.4328 386.562 43.1875C386.562 42.6905 386.626 42.1677 386.665 41.7288C386.684 41.5416 386.697 41.3674 386.723 41.1802L387.123 41.1996C387.336 41.2125 387.549 41.2189 387.762 41.2254L387.788 41.4965C387.846 42.0903 387.904 42.6905 387.975 43.2972C388.02 43.7038 388.363 43.9039 388.685 43.9039H388.763C388.86 43.891 389.047 43.8458 389.169 43.6909C389.234 43.607 389.298 43.4715 389.279 43.2585C389.202 42.5872 389.137 41.8966 389.072 41.2318C389.434 41.2125 389.782 41.1738 390.118 41.1221C390.499 41.8837 390.809 42.4646 391.125 42.981C391.248 43.181 391.435 43.2908 391.667 43.2908C391.912 43.2908 392.158 43.1423 392.274 42.9293C392.377 42.7357 392.371 42.5227 392.248 42.3226C391.977 41.8773 391.706 41.3867 391.415 40.8188C391.893 40.6574 392.313 40.4573 392.713 40.1992C392.829 40.1217 392.939 40.0378 393.048 39.9474C393.171 40.0249 393.3 40.1088 393.449 40.1862C393.758 40.3734 394.081 40.5735 394.378 40.7865C394.462 40.851 394.597 40.9091 394.817 40.8704C395.01 40.8317 395.191 40.6961 395.269 40.5412C395.443 40.2379 395.346 39.9023 395.03 39.6635C394.726 39.4376 394.397 39.2439 394.068 39.0438L393.803 38.8825C393.945 38.5469 394.023 38.1854 394.023 37.8369C394.539 37.7594 395.075 37.6497 395.617 37.5206C395.843 37.4625 395.998 37.3205 396.056 37.1205C396.127 36.8946 396.056 36.617 395.882 36.4492V36.4363L395.862 36.417ZM392.487 38.4307C392.287 39.4956 390.428 39.728 389.873 39.7796C387.052 40.0055 384.225 39.6764 381.863 38.8567C381.295 38.6566 379.94 38.0822 379.611 36.9849C379.585 36.8817 379.591 36.7913 379.643 36.688C379.914 36.204 381.134 35.8877 381.534 35.7844L381.631 35.7586C382.844 35.4359 384.154 35.2681 385.465 35.2681C386.517 35.2681 387.569 35.3714 388.556 35.5908C389.473 35.8296 390.647 36.1846 391.654 36.7848C392.274 37.1721 392.603 37.8111 392.487 38.4242V38.4307Z" fill="#182852"/>
<path d="M382.044 48.906C381.902 48.7898 381.734 48.7382 381.54 48.7575C380.947 48.8221 380.359 48.9963 379.772 49.1641L379.714 49.177C379.572 48.7511 379.385 48.3122 379.126 47.7894C379.753 47.5441 380.314 47.3118 380.863 47.0149C381.069 46.8987 381.185 46.7051 381.192 46.4856C381.192 46.2403 381.063 45.9886 380.856 45.866C380.663 45.7563 380.45 45.7563 380.243 45.866C379.701 46.1693 379.114 46.4082 378.507 46.6405C378.274 46.2533 378.016 45.8724 377.752 45.4981C378.281 45.1818 378.823 44.8527 379.378 44.5558C379.54 44.4719 379.643 44.3428 379.688 44.1943C379.733 44.033 379.714 43.8523 379.623 43.6909C379.533 43.5231 379.398 43.4069 379.23 43.3553C379.12 43.323 378.946 43.3101 378.752 43.4134C378.152 43.7296 377.577 44.0846 377.009 44.4267L376.932 44.4654C376.596 44.0653 376.241 43.678 375.88 43.3295C376.338 43.0261 376.842 42.6969 377.416 42.342C377.565 42.2451 377.681 42.1032 377.713 41.9289C377.752 41.7482 377.713 41.5481 377.61 41.3932C377.513 41.2512 377.384 41.1479 377.235 41.1092C377.132 41.0834 376.971 41.0834 376.79 41.1996C376.183 41.5868 375.538 41.9999 374.892 42.4323C374.608 42.2 374.324 41.9805 374.034 41.774C374.479 41.2899 374.88 40.7671 375.247 40.296C375.428 40.0571 375.383 39.8442 375.338 39.7344C375.247 39.5214 375.028 39.3601 374.776 39.3278C374.544 39.2955 374.299 39.3924 374.157 39.5924C373.808 40.0507 373.389 40.5928 372.905 41.0769C372.64 40.9349 372.375 40.8058 372.098 40.6897C372.304 40.1991 372.479 39.6893 372.633 39.1923L372.692 39.018C372.769 38.7921 372.724 38.5791 372.575 38.4178C372.408 38.237 372.143 38.1467 371.911 38.2048C371.691 38.2499 371.523 38.4048 371.452 38.6307L371.375 38.8631C371.214 39.3536 371.059 39.8442 370.839 40.3153C370.575 40.283 370.329 40.2895 370.103 40.3282C369.981 40.1023 369.858 39.8764 369.729 39.657L369.69 39.5795C369.522 39.2762 369.361 38.9664 369.187 38.663C369 38.3403 368.625 38.2435 368.283 38.4371C368.122 38.5275 368.006 38.6695 367.967 38.8308C367.941 38.9341 367.928 39.1019 368.038 39.2891C368.186 39.5602 368.341 39.8248 368.483 40.0959L368.529 40.1927C368.677 40.4767 368.838 40.7607 368.993 41.0446C368.877 41.2189 368.774 41.4255 368.696 41.6514C368.503 41.5674 368.309 41.4771 368.115 41.3867C367.76 41.2189 367.393 41.0576 367.031 40.9027C366.831 40.8187 366.683 40.8575 366.586 40.8962C366.386 40.9801 366.295 41.1673 366.27 41.2318C366.192 41.4125 366.192 41.6191 366.27 41.7869C366.341 41.9482 366.47 42.0773 366.631 42.1419C367.012 42.2903 367.386 42.471 367.722 42.6259C367.967 42.7357 368.245 42.8648 368.522 42.9809C368.522 43.2907 368.554 43.5941 368.612 43.9039C368.341 43.9362 368.07 43.9749 367.76 44.0136C367.36 44.0717 366.909 44.1298 366.47 44.1621C366.218 44.1814 366.011 44.3234 365.902 44.5558C365.792 44.7817 365.805 45.0592 365.927 45.2464C365.992 45.3367 366.147 45.4852 366.437 45.4658C366.876 45.4336 367.341 45.369 367.767 45.3045C368.167 45.2464 368.574 45.1948 368.987 45.1625C369.096 45.4465 369.232 45.7434 369.393 46.0661C369.077 46.3501 368.696 46.576 368.309 46.8083C368.038 46.9761 367.76 47.1375 367.509 47.3311C367.276 47.5118 367.264 47.7248 367.276 47.8475C367.309 48.0734 367.476 48.2799 367.709 48.3767C367.935 48.4735 368.193 48.4477 368.393 48.2928C368.638 48.1056 368.922 47.9378 369.2 47.77C369.484 47.5957 369.781 47.4215 370.045 47.2214C370.349 47.7119 370.697 48.2089 371.104 48.764C370.942 48.8801 370.788 48.9963 370.626 49.119L370.542 49.1835C370.161 49.461 369.781 49.745 369.413 50.0613C369.168 50.2743 369.18 50.5131 369.206 50.6163C369.251 50.8487 369.439 51.0617 369.671 51.1391C369.89 51.2166 370.11 51.165 370.297 51.0101C370.658 50.6873 371.052 50.3969 371.439 50.1258L371.575 50.0226C371.685 49.9386 371.788 49.8612 371.891 49.7902L372.136 50.1C372.272 50.2678 372.414 50.4292 372.55 50.597L372.401 50.7648C371.988 51.2101 371.569 51.6813 371.155 52.1396C370.871 52.4623 370.975 52.8947 371.239 53.1206C371.297 53.1658 371.401 53.2432 371.543 53.2691C371.652 53.2884 371.865 53.2884 372.065 53.069C372.504 52.5655 372.963 52.0686 373.408 51.5845L373.434 51.5522C373.685 51.8168 373.95 52.0427 374.208 52.2622C373.898 53.0561 373.679 53.6628 373.498 54.2501C373.427 54.4825 373.479 54.6955 373.634 54.8633C373.802 55.044 374.079 55.1279 374.299 55.0698C374.512 55.0246 374.673 54.8697 374.738 54.6438C374.886 54.1404 375.073 53.6111 375.299 53.0173C375.732 53.2561 376.17 53.4433 376.629 53.566C376.758 53.5982 376.9 53.6305 377.042 53.6499C377.068 53.7919 377.1 53.9468 377.132 54.1146C377.197 54.4502 377.268 54.831 377.306 55.1989C377.326 55.4119 377.481 55.5345 377.532 55.5797C377.655 55.67 377.81 55.7152 377.952 55.7152C377.997 55.7152 378.042 55.7152 378.081 55.7023C378.416 55.6249 378.61 55.328 378.578 54.9343C378.546 54.547 378.468 54.1791 378.391 53.8048L378.333 53.5014C378.681 53.3852 378.997 53.1981 379.262 52.9657C379.662 53.2949 380.101 53.624 380.559 53.9403C380.753 54.0694 380.959 54.0887 381.16 54.0048C381.373 53.9016 381.534 53.6692 381.547 53.424C381.566 53.1916 381.463 52.9851 381.263 52.8431C380.746 52.4881 380.308 52.1525 379.927 51.8298C380.03 51.4102 380.049 50.952 379.991 50.4679L380.075 50.4485C380.63 50.2807 381.211 50.1129 381.779 50.0548C382.115 50.0226 382.315 49.7708 382.283 49.4352C382.263 49.2416 382.166 49.048 382.012 48.9253L382.024 48.906H382.044ZM377.823 52.2428C377.655 52.3461 377.481 52.3913 377.274 52.3913C376.429 52.3913 375.454 51.5587 375.073 51.2037C373.034 49.2868 371.381 46.9503 370.4 44.6397C370.168 44.0846 369.684 42.6905 370.284 41.7159C370.342 41.6255 370.413 41.5739 370.523 41.5481C370.562 41.5416 370.613 41.5352 370.658 41.5352C371.22 41.5352 372.143 42.1419 372.459 42.3549L372.543 42.413C374.441 43.6457 376.183 45.4787 377.3 47.4408C377.732 48.2799 378.262 49.39 378.481 50.5453C378.61 51.2618 378.352 51.933 377.823 52.2557V52.2428Z" fill="#182852"/>
<path d="M374.247 65.5838C374.331 65.3643 374.279 65.1062 374.124 64.9125C373.976 64.7189 373.737 64.6221 373.492 64.6608C373.189 64.6996 372.866 64.7189 372.537 64.7318C372.22 64.7447 371.865 64.7512 371.53 64.8028C371.504 64.2348 371.446 63.6217 371.349 62.9375C371.569 62.9053 371.788 62.873 372.033 62.8472C372.498 62.7826 372.982 62.731 373.46 62.6277C373.782 62.5567 373.886 62.3437 373.911 62.2405C373.989 62.0146 373.924 61.737 373.763 61.5499C373.602 61.3756 373.389 61.3111 373.15 61.3627C372.672 61.466 372.195 61.5305 371.672 61.5886C371.498 61.608 371.33 61.6273 371.162 61.6596L371.091 61.2659C371.059 61.0529 371.013 60.8464 370.975 60.6334L371.207 60.5559C371.775 60.3623 372.362 60.1687 372.943 59.9621C373.35 59.8201 373.466 59.3941 373.35 59.0585C373.318 58.9617 373.234 58.7939 373.053 58.7164C372.963 58.6713 372.808 58.6325 372.608 58.71C371.975 58.9359 371.33 59.1489 370.71 59.3554L370.678 59.3683C370.581 59.0198 370.471 58.6971 370.342 58.3679C370.994 57.8322 371.491 57.4062 371.93 56.9738C372.104 56.806 372.162 56.5865 372.111 56.3735C372.046 56.1347 371.859 55.9346 371.62 55.8701C371.407 55.8056 371.201 55.8701 371.026 56.0315C370.652 56.3929 370.232 56.7672 369.742 57.1739C369.477 56.7479 369.187 56.3735 368.858 56.0444C368.761 55.9476 368.651 55.8572 368.535 55.7668C368.58 55.6313 368.632 55.4764 368.696 55.2892C368.806 54.9536 368.922 54.6051 369.071 54.2759C369.155 54.0823 369.084 53.8951 369.058 53.8305C368.974 53.6498 368.813 53.5078 368.638 53.4497C368.303 53.3529 367.993 53.5207 367.831 53.8822C367.683 54.2243 367.56 54.5922 367.444 54.9471L367.347 55.2505C366.986 55.1795 366.618 55.1859 366.282 55.2699C366.089 54.7793 365.869 54.2823 365.624 53.7854C365.521 53.5788 365.347 53.4562 365.146 53.4433C364.908 53.4175 364.65 53.5466 364.514 53.7596C364.385 53.9532 364.372 54.1855 364.482 54.405C364.766 54.9665 364.985 55.4699 365.153 55.9411C364.856 56.2574 364.617 56.6511 364.43 57.1029L364.353 57.09C363.785 56.9609 363.191 56.8253 362.662 56.5994C362.468 56.5155 362.32 56.5413 362.229 56.5801C362.094 56.6382 361.99 56.7479 361.919 56.8963C361.842 57.0706 361.835 57.29 361.906 57.4643C361.977 57.6386 362.1 57.7677 362.281 57.8451C362.829 58.0775 363.436 58.2195 364.023 58.3485L364.082 58.3615C363.998 58.8003 363.952 59.2844 363.914 59.8588C363.249 59.7685 362.642 59.691 362.023 59.691C361.784 59.691 361.59 59.8008 361.474 59.9944C361.351 60.2074 361.351 60.4914 361.474 60.6979C361.551 60.827 361.7 60.9883 362.023 60.9948C362.629 60.9948 363.255 61.0723 363.894 61.1626C363.914 61.608 363.952 62.0662 364.004 62.5309C363.391 62.5503 362.752 62.5696 362.113 62.5567C361.939 62.5567 361.79 62.6148 361.681 62.7245C361.558 62.8407 361.487 63.015 361.487 63.1893C361.487 63.3635 361.551 63.5442 361.668 63.6733C361.745 63.7572 361.887 63.854 362.113 63.8605C362.778 63.8734 363.455 63.8476 364.12 63.8282H364.211C364.307 64.3317 364.43 64.8416 364.572 65.3256C364.03 65.3643 363.443 65.4031 362.752 65.4418C362.552 65.4547 362.371 65.5451 362.255 65.6935C362.158 65.8226 362.107 65.9969 362.119 66.1776C362.132 66.4745 362.345 66.7456 362.745 66.7391C363.468 66.7004 364.236 66.6488 365.011 66.5907C365.14 66.9327 365.288 67.2619 365.443 67.5782C364.817 67.7782 364.217 68.0364 363.668 68.2817C363.384 68.4043 363.326 68.6108 363.32 68.727C363.294 68.9529 363.417 69.2111 363.617 69.3531C363.817 69.4951 364.056 69.5274 364.282 69.4241C364.817 69.1917 365.437 68.9271 366.095 68.7335C366.257 68.9787 366.424 69.2305 366.605 69.4628C366.192 69.7791 365.798 70.147 365.418 70.502L365.276 70.631C365.101 70.7924 365.037 70.9925 365.082 71.2184C365.14 71.4507 365.327 71.6573 365.566 71.7347C365.785 71.7993 365.998 71.7476 366.173 71.5863L366.353 71.4185C366.728 71.0764 367.109 70.7085 367.528 70.4051C367.741 70.5665 367.961 70.6827 368.174 70.7472C368.174 71.0377 368.174 71.3152 368.167 71.6056C368.167 71.98 368.154 72.3092 368.167 72.6512C368.167 73.0256 368.451 73.2902 368.838 73.2902C369.019 73.2902 369.187 73.2192 369.303 73.103C369.413 72.9933 369.471 72.8384 369.464 72.6706V71.6444C369.464 71.3281 369.471 70.9989 369.471 70.6698C369.658 70.5794 369.845 70.4503 370.026 70.2825C370.155 70.4568 370.278 70.631 370.439 70.8376C370.646 71.128 370.884 71.4443 371.13 71.7476C371.265 71.9154 371.42 71.9606 371.517 71.9735C371.62 71.9864 371.794 71.9735 371.962 71.838C372.111 71.7218 372.214 71.5411 372.24 71.3539C372.259 71.1797 372.207 71.0054 372.098 70.8634C371.852 70.5536 371.614 70.2373 371.388 69.9211C371.188 69.65 371.026 69.4241 370.852 69.2046C370.994 68.9336 371.123 68.6625 371.226 68.3591C371.472 68.4624 371.73 68.5657 371.994 68.6689C372.382 68.8174 372.821 68.9917 373.234 69.1788C373.466 69.2885 373.711 69.2627 373.924 69.1143C374.131 68.9723 374.253 68.7206 374.234 68.5011C374.221 68.3914 374.163 68.1849 373.899 68.0622C373.498 67.8751 373.066 67.7137 372.666 67.5523C372.285 67.4104 371.904 67.2555 371.53 67.0941C371.568 66.7907 371.601 66.468 371.614 66.1066C371.956 66.0291 372.324 66.0033 372.685 65.9904L373.195 65.9711C373.414 65.9646 373.653 65.9452 373.879 65.913C374.176 65.8742 374.286 65.6871 374.331 65.5773L374.286 65.5644L374.247 65.5838ZM369.974 66.8553C369.91 67.4555 369.652 68.9077 368.651 69.4693C368.554 69.5274 368.464 69.5338 368.354 69.4951C367.825 69.3337 367.238 68.2171 367.057 67.8492L367.012 67.7589C365.953 65.7581 365.327 63.3054 365.308 61.0529C365.334 60.1106 365.418 58.8842 365.792 57.7741C366.024 57.0835 366.586 56.6253 367.238 56.5994C368.296 56.5994 368.929 58.3163 369.103 58.852C369.948 61.5241 370.265 64.3639 369.987 66.8617H369.981L369.974 66.8553Z" fill="#182852"/>
<path d="M392.952 78.4408C392.913 78.3376 392.829 78.202 392.629 78.1117C392.338 77.9761 392.041 77.8341 391.706 77.6663C391.396 77.5179 391.112 77.3759 390.828 77.2468C390.828 77.0338 390.789 76.8143 390.718 76.582C390.925 76.5433 391.138 76.4981 391.344 76.4594C391.732 76.3819 392.119 76.3109 392.513 76.2206C392.719 76.1754 392.829 76.0527 392.887 75.9688C392.964 75.8398 392.984 75.6784 392.952 75.517C392.913 75.3299 392.79 75.1685 392.635 75.0652C392.493 74.9749 392.313 74.9491 392.132 74.9878C391.757 75.0781 391.39 75.1491 390.996 75.2266L390.873 75.2524C390.622 75.2976 390.357 75.3557 390.112 75.4138C389.931 75.1685 389.731 74.9362 389.505 74.7167C389.705 74.536 389.899 74.3553 390.112 74.1552C390.415 73.8712 390.751 73.5485 391.099 73.2516C391.293 73.0838 391.383 72.8514 391.338 72.6062C391.299 72.3544 391.131 72.1414 390.918 72.064C390.815 72.0253 390.602 71.9865 390.376 72.1802C390.028 72.4706 389.686 72.7933 389.35 73.116C389.066 73.3871 388.782 73.6582 388.485 73.9164C388.233 73.7486 387.949 73.5937 387.627 73.4194C387.717 73.0128 387.898 72.6062 388.059 72.206C388.188 71.9091 388.324 71.5993 388.414 71.2895C388.498 71.0055 388.388 70.8248 388.304 70.7344C388.137 70.5602 387.885 70.4956 387.646 70.5537C387.407 70.6118 387.22 70.7731 387.143 71.012C387.052 71.2959 386.93 71.5799 386.794 71.9091C386.678 72.1866 386.53 72.5223 386.433 72.8514C385.903 72.632 385.323 72.4254 384.671 72.2189C384.735 72.0124 384.8 71.8058 384.877 71.5799C385.006 71.1733 385.174 70.6699 385.29 70.1858C385.368 69.8695 385.213 69.6824 385.129 69.6178C384.955 69.45 384.684 69.3919 384.438 69.4565C384.212 69.5275 384.058 69.6888 384.006 69.9212C383.896 70.3988 383.741 70.857 383.58 71.354C383.522 71.5218 383.47 71.6832 383.419 71.851L383.038 71.7413C382.831 71.6832 382.625 71.6316 382.418 71.5799L382.45 71.3088C382.521 70.7151 382.592 70.1148 382.657 69.5146C382.676 69.308 382.612 69.1208 382.47 68.9789C382.354 68.8562 382.186 68.7788 382.018 68.7594C381.96 68.753 381.818 68.7465 381.682 68.8175C381.579 68.8627 381.405 68.9918 381.373 69.2822C381.308 69.9405 381.231 70.6118 381.147 71.2572V71.3153C380.785 71.2508 380.437 71.2185 380.095 71.1927C379.895 70.3794 379.714 69.7534 379.507 69.166C379.423 68.9401 379.262 68.7852 379.043 68.7465C378.804 68.7013 378.533 68.7852 378.378 68.9724C378.236 69.1402 378.197 69.3532 378.274 69.5791C378.442 70.0696 378.604 70.6118 378.765 71.2314C378.268 71.2895 377.81 71.3992 377.364 71.5541C377.235 71.5993 377.1 71.6638 376.977 71.7284C376.874 71.6251 376.764 71.5218 376.635 71.3992C376.37 71.1539 376.106 70.8958 375.867 70.6118C375.661 70.373 375.164 70.4052 374.938 70.657C374.712 70.9216 374.725 71.2766 374.983 71.5735C375.235 71.8639 375.512 72.1221 375.783 72.3803L376.009 72.5932C375.79 72.8966 375.635 73.2258 375.57 73.5678C375.054 73.5356 374.505 73.5227 373.937 73.5356C373.705 73.5356 373.524 73.6453 373.421 73.8325C373.305 74.039 373.318 74.323 373.44 74.5295C373.556 74.7232 373.756 74.8329 374.002 74.8329C374.647 74.82 375.196 74.8329 375.68 74.8716C375.848 75.2718 376.093 75.6655 376.422 76.0205L376.364 76.0915C376.009 76.5497 375.628 77.0273 375.202 77.4081C375.041 77.5437 375.002 77.6921 375.002 77.7954C374.989 78.0019 375.105 78.1504 375.151 78.2085C375.273 78.3505 375.473 78.4473 375.667 78.4602C375.841 78.4666 376.022 78.4021 376.164 78.2859C376.609 77.8858 376.997 77.4017 377.358 76.9241L377.39 76.8789C377.752 77.1435 378.165 77.3952 378.675 77.6728C378.3 78.2343 377.978 78.7571 377.719 79.3186C377.616 79.5316 377.629 79.7575 377.758 79.9447C377.9 80.1512 378.145 80.2674 378.391 80.248C378.61 80.2287 378.784 80.106 378.888 79.893C379.152 79.3315 379.494 78.8023 379.843 78.2537C380.256 78.4279 380.682 78.5893 381.121 78.7442C380.876 79.3057 380.624 79.893 380.346 80.4546C380.262 80.6159 380.25 80.7773 380.308 80.9386C380.366 81.1 380.488 81.2355 380.65 81.3194C380.824 81.4033 381.005 81.4162 381.16 81.3582C381.314 81.3001 381.437 81.1903 381.508 81.0354C381.805 80.4352 382.07 79.8091 382.334 79.2153L382.373 79.125C382.876 79.2541 383.386 79.3573 383.883 79.4412C383.683 79.9576 383.47 80.4997 383.218 81.1387C383.147 81.313 383.147 81.4872 383.218 81.6486C383.289 81.8229 383.431 81.9584 383.612 82.0294C383.69 82.0617 383.89 82.1262 384.09 82.0359C384.187 81.9971 384.316 81.9068 384.4 81.7067C384.671 81.0419 384.955 80.3319 385.226 79.5961C385.607 79.622 385.962 79.6349 386.304 79.6284C386.22 80.2803 386.2 80.9515 386.181 81.5389C386.175 81.8422 386.342 81.9842 386.433 82.0488C386.523 82.1133 386.652 82.1391 386.768 82.1391C386.884 82.1391 387.014 82.1133 387.117 82.0488C387.336 81.9326 387.459 81.7261 387.465 81.4808C387.485 80.8935 387.511 80.2222 387.627 79.5445C387.924 79.5122 388.221 79.4541 388.498 79.3961C388.614 79.9253 388.789 80.461 388.93 80.9386L388.989 81.1064C389.06 81.3323 389.215 81.4872 389.427 81.526C389.66 81.5841 389.937 81.4937 390.092 81.313C390.241 81.1452 390.292 80.9257 390.215 80.6998L390.137 80.4675C389.976 79.9769 389.821 79.48 389.724 78.9765C389.957 78.8539 390.157 78.699 390.318 78.5376C390.557 78.6474 390.802 78.7635 391.035 78.8797L391.099 78.9055C391.402 79.054 391.719 79.2089 392.029 79.3509C392.216 79.4348 392.403 79.4348 392.564 79.3509C392.7 79.2799 392.816 79.1637 392.893 79.0088C392.971 78.841 392.977 78.6667 392.919 78.5054L392.932 78.486L392.952 78.4408ZM389.402 77.4146C389.402 77.5179 389.376 77.6082 389.305 77.6921C388.943 78.1052 387.672 78.1504 387.259 78.1697H387.162C384.884 78.273 382.425 77.7889 380.366 76.8466C379.527 76.4206 378.455 75.8204 377.603 75.0072C377.08 74.4973 376.9 73.8002 377.145 73.2322C377.435 72.5674 378.365 72.419 379.114 72.419C379.475 72.419 379.811 72.4513 379.985 72.4835C382.767 72.8643 385.471 73.7937 387.607 75.104C388.124 75.4202 389.324 76.2722 389.402 77.4146Z" fill="#182852"/>
<path d="M409.545 62.034C409.429 61.8404 409.223 61.7371 408.99 61.7436H408.745C408.235 61.7629 407.706 61.7823 407.196 61.7436C407.138 61.4789 407.054 61.253 406.932 61.0529C407.119 60.84 407.312 60.627 407.499 60.414C407.745 60.1364 407.977 59.8847 408.197 59.6266C408.435 59.3426 408.403 58.9553 408.106 58.6971C407.971 58.581 407.796 58.5229 407.641 58.5293C407.532 58.5358 407.37 58.5874 407.228 58.7488C407.009 59.0005 406.783 59.2587 406.544 59.5168C406.325 59.7556 406.112 60.0009 405.899 60.2462C405.692 60.1881 405.466 60.1687 405.234 60.1687C405.247 59.9557 405.266 59.7427 405.292 59.5362C405.324 59.1425 405.363 58.7423 405.376 58.3486C405.382 58.1098 405.279 57.9613 405.195 57.8904C405.092 57.8 404.956 57.7484 404.821 57.7484C404.627 57.729 404.434 57.7935 404.285 57.9355C404.156 58.0517 404.085 58.2195 404.079 58.3938C404.066 58.7939 404.034 59.1877 403.988 59.633C403.969 59.9041 403.943 60.1752 403.924 60.4592C403.633 60.5689 403.362 60.698 403.091 60.8529C402.981 60.627 402.865 60.4011 402.71 60.1106C402.504 59.7169 402.297 59.3232 402.117 58.923C402.013 58.6907 401.807 58.5422 401.555 58.5164C401.303 58.4906 401.052 58.5939 400.916 58.781C400.852 58.8714 400.768 59.065 400.884 59.3297C401.065 59.7234 401.258 60.1042 401.491 60.5431C401.678 60.8916 401.865 61.2595 402.033 61.6209C401.807 61.821 401.574 62.0469 401.316 62.3115C400.961 62.1114 400.613 61.8339 400.258 61.5564C400.025 61.3628 399.754 61.1433 399.49 60.969C399.257 60.8206 399.057 60.8593 398.928 60.9239C398.722 61.0336 398.593 61.2595 398.58 61.5177C398.567 61.7629 398.676 61.9824 398.889 62.1244C399.096 62.2599 399.303 62.4213 399.496 62.5697L399.89 62.886C400.071 63.028 400.271 63.1829 400.458 63.3055C400.103 63.7573 399.735 64.2607 399.367 64.8287C399.225 64.7319 399.077 64.6351 398.935 64.5383L398.812 64.4544C398.412 64.1833 398.005 63.9122 397.579 63.6798C397.295 63.5185 397.076 63.6088 396.979 63.6798C396.772 63.8025 396.643 64.0542 396.643 64.2995C396.643 64.5318 396.766 64.7254 396.979 64.8416C397.392 65.074 397.799 65.345 398.238 65.6419C398.38 65.7388 398.528 65.8356 398.676 65.9324L398.47 66.268C398.36 66.4552 398.25 66.6294 398.147 66.8166L397.973 66.7392C397.328 66.4681 396.792 66.2422 396.224 66.0227C396.037 65.9453 395.837 65.9582 395.662 66.0486C395.514 66.1325 395.391 66.2616 395.327 66.4358C395.294 66.5262 395.243 66.7069 395.327 66.8876C395.365 66.9844 395.456 67.1071 395.656 67.191C396.275 67.4298 396.895 67.6944 397.502 67.9461L397.547 67.9655C397.386 68.3011 397.257 68.6174 397.147 68.9336C396.314 68.9078 395.662 68.9078 395.036 68.9401C394.797 68.953 394.61 69.0692 394.507 69.2757C394.397 69.4951 394.41 69.7791 394.539 69.9792C394.623 70.1083 394.778 70.2697 395.088 70.2503C395.598 70.2245 396.159 70.218 396.805 70.2309C396.721 70.7279 396.701 71.1926 396.734 71.6702C396.74 71.8058 396.76 71.9478 396.798 72.0898C396.669 72.1672 396.534 72.2382 396.366 72.3415C396.063 72.5222 395.746 72.7029 395.424 72.8578C395.294 72.9224 395.191 73.045 395.14 73.1999C395.081 73.3871 395.114 73.6065 395.217 73.755C395.404 74.0454 395.753 74.1293 396.101 73.9551C396.456 73.7808 396.805 73.5807 397.102 73.4064L397.366 73.2451C397.592 73.5355 397.876 73.7743 398.186 73.9357C398.012 74.4262 397.85 74.949 397.708 75.4912C397.644 75.7171 397.702 75.9236 397.85 76.0721C397.973 76.1947 398.16 76.2657 398.347 76.2657C398.412 76.2657 398.47 76.2592 398.534 76.2399C398.754 76.1753 398.922 76.014 398.98 75.7816C399.141 75.1749 399.303 74.6521 399.483 74.181C399.916 74.1358 400.355 73.9938 400.793 73.7808L400.839 73.8453C401.181 74.31 401.542 74.8006 401.787 75.3234C401.91 75.588 402.11 75.6396 402.213 75.6461C402.336 75.659 402.459 75.6267 402.536 75.5815C402.71 75.4976 402.859 75.3427 402.923 75.1555C402.988 74.9813 402.981 74.8006 402.898 74.6328C402.633 74.097 402.272 73.5936 401.917 73.1095L401.884 73.0644C402.233 72.7868 402.588 72.4577 402.994 72.0446C403.433 72.5545 403.846 73.0063 404.317 73.4129C404.498 73.5743 404.718 73.613 404.931 73.542C405.163 73.4645 405.35 73.2515 405.395 73.0192C405.434 72.8062 405.37 72.5997 405.189 72.4383C404.724 72.0317 404.292 71.5605 403.866 71.07C404.15 70.7215 404.421 70.3536 404.685 69.9663C405.163 70.3536 405.654 70.7602 406.118 71.1797C406.241 71.2894 406.383 71.3733 406.57 71.354C406.738 71.3475 406.899 71.2572 407.022 71.1281C407.132 71.0054 407.203 70.8505 407.203 70.7021C407.203 70.573 407.177 70.3858 406.99 70.218C406.493 69.7727 405.976 69.3532 405.466 68.9401L405.376 68.8691C405.641 68.4237 405.879 67.959 406.092 67.5008C406.518 67.8235 406.99 68.172 407.545 68.6109C407.706 68.7335 407.893 68.7852 408.08 68.74C408.248 68.7077 408.39 68.6109 408.5 68.4689C408.564 68.385 408.661 68.2301 408.635 68.0236C408.623 67.9203 408.571 67.7719 408.403 67.6363C407.867 67.2232 407.241 66.7327 406.602 66.268C406.731 65.913 406.841 65.5645 406.932 65.2353C407.538 65.4999 408.164 65.6871 408.739 65.8743C409.029 65.9647 409.216 65.8485 409.294 65.7646C409.468 65.6032 409.539 65.345 409.487 65.0998C409.429 64.861 409.268 64.6803 409.036 64.6028C408.481 64.4221 407.829 64.2155 407.222 63.9316C407.261 63.6347 407.299 63.3378 407.312 63.0473C407.848 63.0796 408.384 63.0602 408.913 63.0473H409.087C409.32 63.0344 409.513 62.9247 409.616 62.7311C409.733 62.5181 409.72 62.2341 409.597 62.0275L409.558 62.0405L409.545 62.034ZM405.821 63.938L405.802 64.0348C405.286 66.2422 404.143 68.4947 402.678 70.2116C402.039 70.9086 401.174 71.7735 400.161 72.3738C399.541 72.7287 398.799 72.7094 398.328 72.335C397.482 71.6509 398.147 69.9082 398.373 69.3919C399.49 66.8231 401.123 64.4737 402.969 62.7762C403.362 62.4148 404.318 61.6403 405.311 61.6403C405.434 61.6403 405.557 61.6532 405.673 61.6726C405.776 61.6919 405.854 61.75 405.912 61.8468C406.209 62.3115 405.912 63.5378 405.815 63.9445H405.808L405.821 63.938Z" fill="#182852"/>
<path d="M389.77 49.4546C389.428 48.7704 388.595 48.4993 387.911 48.8414C387.227 49.1835 386.956 50.0161 387.298 50.7002C387.465 51.0294 387.749 51.2811 388.098 51.3908C388.24 51.436 388.388 51.4618 388.53 51.4618C388.743 51.4618 388.956 51.4167 389.15 51.3134C389.834 50.9713 390.105 50.1387 389.763 49.4546H389.77Z" fill="#182852"/>
<path d="M392.842 67.9461C392.5 67.262 391.667 66.9973 390.983 67.333C390.299 67.675 390.028 68.5076 390.37 69.1918C390.538 69.521 390.822 69.7598 391.17 69.8824C391.312 69.9276 391.461 69.9534 391.603 69.9534C391.816 69.9534 392.029 69.9082 392.222 69.8049C392.906 69.4629 393.177 68.6303 392.835 67.9461H392.842Z" fill="#182852"/>
<path d="M371.607 75.0007C371.265 74.3166 370.433 74.0455 369.748 74.3875C369.419 74.5554 369.18 74.8329 369.058 75.1879C368.935 75.5429 368.967 75.9108 369.135 76.2399C369.303 76.5691 369.587 76.8079 369.936 76.9305C370.078 76.9757 370.226 77.0015 370.368 77.0015C370.581 77.0015 370.794 76.9564 370.988 76.8531C371.672 76.511 371.943 75.6784 371.601 74.9943V75.0072L371.607 75.0007Z" fill="#182852"/>
<path d="M397.347 78.3569C397.179 78.0277 396.902 77.776 396.547 77.6663C396.198 77.5501 395.824 77.5759 395.495 77.7437C395.165 77.9115 394.927 78.1891 394.804 78.544C394.681 78.899 394.714 79.2669 394.881 79.5961C395.12 80.0802 395.611 80.3512 396.121 80.3512C396.327 80.3512 396.54 80.3061 396.74 80.2092C397.069 80.0414 397.308 79.7575 397.431 79.4089C397.553 79.0604 397.521 78.686 397.353 78.3569H397.347Z" fill="#182852"/>
<path d="M377.487 57.3612C377.145 56.677 376.312 56.4059 375.628 56.748C374.944 57.0901 374.673 57.9227 375.015 58.6069C375.183 58.936 375.467 59.1748 375.815 59.2975C375.957 59.3426 376.106 59.3685 376.248 59.3685C376.461 59.3685 376.674 59.3233 376.867 59.22C377.552 58.8779 377.823 58.0453 377.481 57.3612H377.487Z" fill="#182852"/>
<path d="M394.165 44.8592C393.836 44.2073 393.035 43.9427 392.384 44.2719C391.732 44.601 391.467 45.4014 391.796 46.0532C391.958 46.3695 392.229 46.6018 392.564 46.7116C392.7 46.7568 392.842 46.7826 392.984 46.7826C393.19 46.7826 393.39 46.7374 393.584 46.6406C394.236 46.3114 394.501 45.5111 394.171 44.8592H394.165Z" fill="#182852"/>
<path d="M411.417 57.1482C411.256 56.8319 410.985 56.5996 410.649 56.4898C410.314 56.3801 409.952 56.4059 409.636 56.5673C409.32 56.7286 409.087 56.9997 408.978 57.3353C408.868 57.671 408.894 58.0324 409.055 58.3487C409.216 58.6649 409.487 58.8973 409.823 59.007C409.959 59.0522 410.101 59.078 410.243 59.078C410.449 59.078 410.649 59.0328 410.843 58.936C411.159 58.7746 411.391 58.5036 411.501 58.1679C411.611 57.8323 411.585 57.4709 411.424 57.1546H411.417V57.1482Z" fill="#182852"/>
<path d="M365.282 45.5821C364.953 44.9302 364.153 44.6656 363.501 44.9948C362.849 45.3239 362.584 46.1243 362.913 46.7761C363.075 47.0924 363.346 47.3247 363.681 47.4345C363.817 47.4797 363.959 47.5055 364.101 47.5055C364.307 47.5055 364.508 47.4603 364.701 47.3635C365.017 47.2021 365.25 46.931 365.359 46.5954C365.469 46.2598 365.443 45.8984 365.282 45.5821Z" fill="#182852"/>
<path d="M385.949 45.7369C385.632 45.1109 384.864 44.8591 384.238 45.1754C383.935 45.3238 383.709 45.5885 383.606 45.9112C383.496 46.2339 383.522 46.576 383.683 46.8793C383.832 47.1827 384.096 47.4086 384.419 47.5183C384.548 47.557 384.69 47.5828 384.819 47.5828C385.019 47.5828 385.213 47.5377 385.387 47.4473C385.69 47.2989 385.916 47.0342 386.026 46.7115C386.129 46.3888 386.11 46.0467 385.949 45.7434V45.7369Z" fill="#182852"/>
<path d="M400.91 56.6447C400.761 56.3414 400.497 56.1155 400.174 56.0058C399.851 55.896 399.509 55.9219 399.206 56.0768C398.902 56.2252 398.676 56.4898 398.567 56.8126C398.463 57.1353 398.483 57.4773 398.644 57.7807C398.87 58.226 399.315 58.4842 399.787 58.4842C399.98 58.4842 400.174 58.4455 400.355 58.3487C400.658 58.2002 400.884 57.9356 400.987 57.6129C401.097 57.2902 401.071 56.9481 400.91 56.6447Z" fill="#182852"/>
<path d="M374.905 35.0873C374.757 34.784 374.492 34.5581 374.17 34.4484C373.847 34.3451 373.505 34.3645 373.201 34.5258C372.575 34.8421 372.324 35.6101 372.64 36.2362C372.866 36.6815 373.311 36.9397 373.782 36.9397C373.976 36.9397 374.17 36.901 374.35 36.8042C374.976 36.4879 375.228 35.7199 374.912 35.0938H374.905V35.0873Z" fill="#182852"/>
<path d="M368.238 50.1774C368.09 49.8741 367.825 49.6482 367.502 49.5385C367.18 49.4352 366.838 49.4545 366.534 49.6159C365.908 49.9322 365.656 50.7002 365.973 51.3263C366.121 51.6296 366.386 51.8555 366.708 51.9653C366.838 52.004 366.98 52.0298 367.109 52.0298C367.309 52.0298 367.502 51.9846 367.677 51.8943C368.303 51.578 368.554 50.8099 368.238 50.1839V50.1774Z" fill="#182852"/>
<path d="M362.887 52.856C362.739 52.5527 362.474 52.3268 362.152 52.217C361.829 52.1138 361.487 52.1331 361.184 52.2945C360.558 52.6108 360.306 53.3788 360.622 54.0049C360.771 54.3082 361.035 54.5341 361.358 54.6439C361.487 54.6826 361.629 54.7084 361.758 54.7084C361.958 54.7084 362.152 54.6632 362.326 54.5729C362.952 54.2566 363.204 53.4885 362.887 52.8625V52.856Z" fill="#182852"/>
<path d="M341.324 87.6123H344.473L352.767 110.331C353.316 111.867 353.916 114.204 353.916 114.204H354C354 114.204 354.6 111.867 355.149 110.331L363.443 87.6123H366.592L355.491 117.515H352.432L341.33 87.6123H341.324Z" fill="#182852"/>
<path d="M378.365 95.6026C384.277 95.6026 387.298 100.159 387.298 105.465C387.298 105.975 387.214 106.949 387.214 106.949H370.794C370.923 112.442 374.667 115.411 379.088 115.411C382.999 115.411 385.594 112.816 385.594 112.816L386.917 115.03C386.917 115.03 383.812 118.012 379.004 118.012C372.627 118.012 367.819 113.416 367.819 106.827C367.819 99.8108 372.582 95.5962 378.365 95.5962V95.6026ZM384.361 104.581C384.187 100.114 381.469 98.0295 378.281 98.0295C374.712 98.0295 371.601 100.288 370.923 104.581H384.367H384.361Z" fill="#182852"/>
<path d="M393.636 98.7974H390.828V96.3771H393.674V90.2133H396.521V96.3771H401.878V98.7974H396.521V109.434C396.521 114.456 399.716 115.088 401.329 115.088C401.929 115.088 402.304 115.004 402.304 115.004V117.599C402.304 117.599 401.839 117.683 401.071 117.683C398.599 117.683 393.629 116.876 393.629 109.731V98.7974H393.636Z" fill="#182852"/>
<path d="M416.135 95.6026C422.047 95.6026 425.068 100.159 425.068 105.465C425.068 105.975 424.984 106.949 424.984 106.949H408.564C408.694 112.442 412.437 115.411 416.858 115.411C420.77 115.411 423.364 112.816 423.364 112.816L424.687 115.03C424.687 115.03 421.583 118.012 416.774 118.012C410.397 118.012 405.589 113.416 405.589 106.827C405.589 99.8108 410.352 95.5962 416.135 95.5962V95.6026ZM422.131 104.581C421.957 100.114 419.24 98.0295 416.051 98.0295C412.482 98.0295 409.371 100.288 408.694 104.581H422.138H422.131Z" fill="#182852"/>
<path d="M430.586 96.119H433.433V99.9012C433.433 100.837 433.349 101.599 433.349 101.599H433.433C434.453 98.3651 436.841 95.8931 440.197 95.8931C440.797 95.8931 441.346 96.0222 441.346 96.0222V98.8685C441.346 98.8685 440.836 98.7846 440.281 98.7846C437.26 98.7846 435.001 101.166 434.072 104.316C433.646 105.678 433.472 107.124 433.472 108.485V117.502H430.58V96.1061H430.586V96.119Z" fill="#182852"/>
<path d="M445.651 87.6123H448.671V91.2332H445.651V87.6123ZM445.735 96.119H448.626V117.515H445.735V96.119Z" fill="#182852"/>
<path d="M455.597 96.119H458.443V99.3139C458.443 100.25 458.359 101.011 458.359 101.011H458.443C459.205 99.0557 461.928 95.6091 466.995 95.6091C472.062 95.6091 474.14 98.6297 474.14 103.903V117.515H471.248V104.671C471.248 101.315 470.739 98.3328 466.614 98.3328C462.955 98.3328 459.811 100.844 458.824 104.374C458.572 105.271 458.488 106.246 458.488 107.266V117.515H455.597V96.119Z" fill="#182852"/>
<path d="M492.173 104.284H493.361V103.735C493.361 99.6044 491.102 98.2038 488.042 98.2038C484.512 98.2038 482.001 100.25 482.001 100.25L480.639 98.0424C480.639 98.0424 483.447 95.6221 488.255 95.6221C493.4 95.6221 496.252 98.4684 496.252 103.832V117.528H493.49V115.191C493.49 114.126 493.574 113.404 493.574 113.404H493.49C493.49 113.404 491.702 118.038 486.345 118.038C482.776 118.038 479.071 115.953 479.071 111.7C479.071 104.471 488.468 104.297 492.167 104.297H492.173V104.284ZM486.816 115.553C490.902 115.553 493.367 111.3 493.367 107.601V106.665H492.134C488.778 106.665 482.053 106.794 482.053 111.513C482.053 113.513 483.628 115.553 486.816 115.553Z" fill="#182852"/>
<path d="M502.932 96.119H505.779V99.9012C505.779 100.837 505.695 101.599 505.695 101.599H505.779C506.799 98.3651 509.187 95.8931 512.543 95.8931C513.143 95.8931 513.692 96.0222 513.692 96.0222V98.8685C513.692 98.8685 513.182 98.7846 512.627 98.7846C509.606 98.7846 507.347 101.166 506.418 104.316C505.992 105.678 505.818 107.124 505.818 108.485V117.502H502.926V96.1061H502.932V96.119Z" fill="#182852"/>
<path d="M515.989 122.872C515.989 122.872 517.177 123.847 518.539 123.847C520.411 123.847 521.734 122.31 522.579 120.361L523.902 117.341L514.97 96.119H518.165L524.457 111.725C524.883 112.79 525.219 113.984 525.219 113.984H525.303C525.303 113.984 525.6 112.797 526.026 111.725L532.19 96.119H535.339L524.793 121.981C523.683 124.705 521.476 126.448 518.629 126.448C516.415 126.448 514.886 125.176 514.886 125.176L515.996 122.878H515.989V122.872Z" fill="#182852"/>
</g>
<defs>
<clipPath id="clip0_522_7838">
<rect width="534.518" height="146.317" fill="white" transform="translate(0.821777 0.00585938)"/>
</clipPath>
</defs>
</svg>
