<svg width="179" height="178" viewBox="0 0 179 178" fill="none" xmlns="http://www.w3.org/2000/svg">
<g filter="url(#filter0_d_311_8081)">
<path fill-rule="evenodd" clip-rule="evenodd" d="M89.5999 120.859C118.663 120.859 142.224 97.2987 142.224 68.2352C142.224 39.1717 118.663 15.6111 89.5999 15.6111C60.5364 15.6111 36.9758 39.1717 36.9758 68.2352C36.9758 97.2987 60.5364 120.859 89.5999 120.859Z" fill="white"/>
<path fill-rule="evenodd" clip-rule="evenodd" d="M89.5999 120.859C118.663 120.859 142.224 97.2987 142.224 68.2352C142.224 39.1717 118.663 15.6111 89.5999 15.6111C60.5364 15.6111 36.9758 39.1717 36.9758 68.2352C36.9758 97.2987 60.5364 120.859 89.5999 120.859Z" stroke="white" stroke-width="2.76969"/>
</g>
<path fill-rule="evenodd" clip-rule="evenodd" d="M106.022 50.8605C106.233 50.8605 106.444 51.0384 106.486 51.3054C106.528 51.6168 112.219 92.2389 112.219 92.2389L95.9887 95.9319L66.0576 90.0142C66.0576 90.0142 69.8939 58.6467 70.0625 57.5789C70.2311 56.1106 70.2733 56.0661 71.7488 55.5767C71.9595 55.4877 73.8566 54.8648 76.4703 54.0195C77.4821 49.4812 80.7281 40.5381 87.5153 40.5381C88.4007 40.5381 89.4123 41.0275 90.2555 42.1843H90.5084C93.4173 42.1843 95.0613 44.8094 95.9887 47.657C96.9163 47.3455 97.5065 47.1675 97.5485 47.1675C97.7595 47.0785 98.3917 46.9896 98.6869 47.301C99.0241 47.6125 101.806 50.549 101.806 50.549C101.806 50.549 105.811 50.8605 106.022 50.8605ZM92.785 48.7014C93.3235 48.5241 93.8294 48.3577 94.3026 48.1912C93.6702 46.1001 92.7008 44.3203 91.183 44.1424C91.5202 45.2547 91.7732 46.6785 91.7732 48.4582V49.0366C92.1219 48.9195 92.4589 48.8086 92.7839 48.7017L92.7848 48.7014H92.785ZM89.3284 44.4534C89.7499 45.5657 90.0028 47.123 90.0028 49.2586V49.5701C89.312 49.7944 88.5917 50.0266 87.8568 50.2633C86.8431 50.59 85.8022 50.9254 84.7755 51.2608C85.7872 47.212 87.6844 45.2098 89.3284 44.4534ZM88.1896 42.7628C87.8944 42.5403 87.5994 42.4514 87.3042 42.4514C82.4563 42.4514 79.7161 49.1698 78.5779 53.3076C79.8847 52.9072 81.2759 52.4623 82.7092 51.9729C83.6788 46.5447 86.0396 43.8306 88.1896 42.7628Z" fill="#95BF47"/>
<path d="M106.022 50.8606C105.811 50.8606 101.807 50.5492 101.807 50.5492C101.807 50.5492 99.0241 47.6127 98.6869 47.3012C98.5604 47.1677 98.4339 47.1232 98.2652 47.0787L95.9888 95.932L112.219 92.2391C112.219 92.2391 106.528 51.617 106.486 51.3501C106.444 51.0386 106.191 50.9051 106.022 50.8606Z" fill="#5E8E3E"/>
<path d="M90.466 60.3378L88.4848 66.6113C88.4848 66.6113 86.7142 65.6325 84.6063 65.6325C81.4446 65.6325 81.3181 67.7236 81.3181 68.2574C81.3181 71.1051 88.4005 72.2174 88.4005 78.936C88.4005 84.2305 85.2387 87.612 80.9387 87.612C75.7956 87.612 73.1819 84.2305 73.1819 84.2305L74.5731 79.4253C74.5731 79.4253 77.2711 81.8723 79.5475 81.8723C81.023 81.8723 81.6554 80.6266 81.6554 79.7366C81.6554 75.9994 75.8377 75.8215 75.8377 69.6813C75.8377 64.5202 79.3367 59.4924 86.4613 59.4924C89.1172 59.4924 90.466 60.3378 90.466 60.3378Z" fill="white"/>
<defs>
<filter id="filter0_d_311_8081" x="0.969952" y="0.377754" width="177.26" height="177.26" filterUnits="userSpaceOnUse" color-interpolation-filters="sRGB">
<feFlood flood-opacity="0" result="BackgroundImageFix"/>
<feColorMatrix in="SourceAlpha" type="matrix" values="0 0 0 0 0 0 0 0 0 0 0 0 0 0 0 0 0 0 127 0" result="hardAlpha"/>
<feOffset dy="20.7727"/>
<feGaussianBlur stdDeviation="17.3106"/>
<feColorMatrix type="matrix" values="0 0 0 0 0 0 0 0 0 0 0 0 0 0 0 0 0 0 0.06 0"/>
<feBlend mode="normal" in2="BackgroundImageFix" result="effect1_dropShadow_311_8081"/>
<feBlend mode="normal" in="SourceGraphic" in2="effect1_dropShadow_311_8081" result="shape"/>
</filter>
</defs>
</svg>
