<svg width="193" height="192" viewBox="0 0 193 192" fill="none" xmlns="http://www.w3.org/2000/svg">
<g filter="url(#filter0_d_311_8094)">
<path fill-rule="evenodd" clip-rule="evenodd" d="M96.4823 129.476C127.878 129.476 153.329 104.025 153.329 72.6296C153.329 41.234 127.878 15.7828 96.4823 15.7828C65.0867 15.7828 39.6355 41.234 39.6355 72.6296C39.6355 104.025 65.0867 129.476 96.4823 129.476Z" fill="white"/>
<path fill-rule="evenodd" clip-rule="evenodd" d="M96.4823 129.476C127.878 129.476 153.329 104.025 153.329 72.6296C153.329 41.234 127.878 15.7828 96.4823 15.7828C65.0867 15.7828 39.6355 41.234 39.6355 72.6296C39.6355 104.025 65.0867 129.476 96.4823 129.476Z" stroke="white" stroke-width="2.99194"/>
</g>
<rect x="60.9531" y="37.1005" width="71.0585" height="71.0585"/>
<defs>
<filter id="filter0_d_311_8094" x="0.833958" y="0.0751743" width="191.297" height="191.297" filterUnits="userSpaceOnUse" color-interpolation-filters="sRGB">
<feFlood flood-opacity="0" result="BackgroundImageFix"/>
<feColorMatrix in="SourceAlpha" type="matrix" values="0 0 0 0 0 0 0 0 0 0 0 0 0 0 0 0 0 0 127 0" result="hardAlpha"/>
<feOffset dy="23.094"/>
<feGaussianBlur stdDeviation="18.6528"/>
<feColorMatrix type="matrix" values="0 0 0 0 0 0 0 0 0 0 0 0 0 0 0 0 0 0 0.06 0"/>
<feBlend mode="normal" in2="BackgroundImageFix" result="effect1_dropShadow_311_8094"/>
<feBlend mode="normal" in="SourceGraphic" in2="effect1_dropShadow_311_8094" result="shape"/>
</filter>
</defs>
</svg>
