<svg width="238" height="42" viewBox="0 0 238 42" fill="none" xmlns="http://www.w3.org/2000/svg">
<path d="M87.2151 14.56H72.6659V18.85H83.012C82.4947 24.895 77.4509 27.56 72.7305 27.56C66.6522 27.56 61.3498 22.75 61.3498 16.055C61.3498 9.48999 66.3935 4.41999 72.7305 4.41999C77.6449 4.41999 80.4901 7.53999 80.4901 7.53999L83.4646 4.41999C83.4646 4.41999 79.5848 0.129991 72.5365 0.129991C63.5484 0.0649913 56.6294 7.66999 56.6294 15.925C56.6294 23.985 63.1604 31.85 72.7952 31.85C81.2661 31.85 87.4737 26.065 87.4737 17.42C87.4737 15.6 87.2151 14.56 87.2151 14.56Z" fill="#3780FF"/>
<path fill-rule="evenodd" clip-rule="evenodd" d="M88.8315 21.515C88.8315 16.055 93.0993 11.375 99.0483 11.375C103.963 11.375 109.265 14.885 109.33 21.645C109.33 27.625 104.803 31.85 99.1777 31.85C92.97 31.85 88.8315 27.105 88.8315 21.515ZM104.803 21.645C104.803 17.875 102.023 15.47 99.113 15.47C95.8152 15.47 93.2933 18.07 93.358 21.58C93.358 25.22 95.8798 27.82 99.113 27.82C102.088 27.82 104.803 25.415 104.803 21.645Z" fill="#FA3913"/>
<path fill-rule="evenodd" clip-rule="evenodd" d="M111.076 21.515C111.076 16.055 115.343 11.375 121.292 11.375C126.207 11.375 131.509 14.885 131.574 21.645C131.574 27.625 127.047 31.85 121.422 31.85C115.214 31.85 111.076 27.105 111.076 21.515ZM127.047 21.645C127.047 17.875 124.267 15.47 121.357 15.47C118.059 15.47 115.537 18.07 115.602 21.58C115.602 25.22 118.124 27.82 121.357 27.82C124.332 27.82 127.047 25.415 127.047 21.645Z" fill="#FCBD06"/>
<path fill-rule="evenodd" clip-rule="evenodd" d="M133.32 21.645C133.32 16.25 137.588 11.44 143.084 11.44C145.477 11.44 147.287 12.35 148.451 13.78V12.025H152.719V30.42C152.719 37.635 148.58 41.08 143.149 41.08C138.17 41.08 135.389 38.025 134.031 35.1L137.976 33.475C138.558 34.775 140.109 37.115 143.213 37.115C146.446 37.115 148.58 34.97 148.58 31.46V29.445C147.352 30.81 145.864 31.915 142.955 31.915C138.299 31.915 133.32 27.755 133.32 21.645ZM148.904 21.71C148.904 17.81 146.123 15.47 143.472 15.47C140.627 15.47 137.846 17.745 137.782 21.775C137.782 25.48 140.497 27.885 143.407 27.885C146.188 27.885 148.904 25.74 148.904 21.71Z" fill="#3780FF"/>
<path fill-rule="evenodd" clip-rule="evenodd" d="M162.354 21.58C162.354 15.47 166.686 11.375 171.859 11.375C175.868 11.375 178.907 14.105 180.265 17.225L180.977 18.915L167.333 24.635C168.173 26.195 169.466 27.755 172.312 27.755C174.834 27.755 176.385 26.39 177.291 24.96L180.847 27.365C179.295 29.445 176.579 31.85 172.312 31.85C167.203 31.85 162.354 28.015 162.354 21.58ZM175.803 17.55C175.157 16.315 173.864 15.34 171.988 15.34C169.078 15.34 166.233 18.395 166.751 21.385L175.803 17.55Z" fill="#FA3913"/>
<path d="M155.887 31.265H160.349V1.10498H155.887V31.265Z" fill="#38B137"/>
</svg>
