<svg width="238" height="42" viewBox="0 0 238 42" fill="none" xmlns="http://www.w3.org/2000/svg">
<path fill-rule="evenodd" clip-rule="evenodd" d="M74.7209 7.39151C74.7209 8.67924 73.5977 9.78302 72.2873 9.78302C70.9769 9.78302 69.8537 8.67924 69.8537 7.39151C69.8537 6.10377 70.9769 5 72.2873 5C73.5977 5 74.7209 6.10377 74.7209 7.39151ZM72.2873 11.7453C70.8521 11.7453 69.7289 12.8491 69.7289 14.2594C69.7289 15.6698 70.8521 16.7736 72.2873 16.7736C73.7225 16.7736 74.8457 15.6698 74.8457 14.2594C74.8457 12.7877 73.7225 11.7453 72.2873 11.7453ZM69.6665 21.0047C69.6665 19.5943 70.8521 18.4292 72.2873 18.4292C73.7225 18.4292 74.9705 19.5943 74.9081 21.0047C74.9081 22.4151 73.7225 23.5802 72.2873 23.5802C70.8521 23.5802 69.6665 22.4151 69.6665 21.0047ZM72.2873 25.2358C70.8521 25.2358 69.7289 26.3396 69.7289 27.75C69.7289 29.1604 70.8521 30.2641 72.2873 30.2641C73.7225 30.2641 74.8457 29.1604 74.8457 27.75C74.8457 26.4009 73.7225 25.2358 72.2873 25.2358ZM69.8537 34.5566C69.8537 33.2689 70.9769 32.1651 72.2873 32.1651C73.6601 32.1651 74.7209 33.2689 74.7209 34.5566C74.7209 35.8443 73.5977 36.9481 72.2873 36.9481C70.9769 36.9481 69.8537 35.8443 69.8537 34.5566ZM79.0265 11.4387C77.4665 11.4387 76.1561 12.7264 76.1561 14.2594C76.1561 15.7925 77.4665 17.0802 79.0265 17.0802C80.5865 17.0802 81.8969 15.7925 81.8969 14.2594C81.8969 12.7264 80.5865 11.4387 79.0265 11.4387ZM76.0313 21.066C76.0313 19.4104 77.4041 18.1226 79.0265 18.1226C80.6489 18.1226 82.0217 19.4104 82.0217 21.066C82.0217 22.7217 80.6489 24.0094 79.0265 24.0094C77.3417 24.0094 76.0313 22.6604 76.0313 21.066ZM79.0265 24.9292C77.4665 24.9292 76.1561 26.217 76.1561 27.75C76.1561 29.283 77.4665 30.5708 79.0265 30.5708C80.5865 30.5708 81.8969 29.283 81.8969 27.75C81.8969 26.217 80.5865 24.9292 79.0265 24.9292ZM82.6457 21.0047C82.6457 19.1651 84.2057 17.7547 85.9529 17.7547C87.7001 17.7547 89.1353 19.1651 89.2601 21.0047C89.2601 22.8443 87.8249 24.2547 85.9529 24.2547C84.0809 24.2547 82.6457 22.7217 82.6457 21.0047ZM65.4857 12.0519C64.3001 12.0519 63.3017 13.033 63.3017 14.1981C63.3017 15.3632 64.3001 16.3443 65.4857 16.3443C66.6713 16.3443 67.6697 15.3632 67.6697 14.1981C67.6697 13.033 66.7337 12.0519 65.4857 12.0519ZM63.1769 21.0047C63.1769 19.717 64.1753 18.7358 65.4857 18.7358C66.7961 18.7358 67.7945 19.717 67.7945 21.0047C67.7945 22.2925 66.7961 23.2736 65.4857 23.2736C64.1753 23.2736 63.1769 22.2925 63.1769 21.0047ZM65.4857 25.5425C64.3001 25.5425 63.3017 26.5236 63.3017 27.6887C63.3017 28.8538 64.3001 29.8349 65.4857 29.8349C66.6713 29.8349 67.6697 28.8538 67.6697 27.6887C67.6697 26.5236 66.7337 25.5425 65.4857 25.5425ZM56.6873 21.066C56.6873 19.9623 57.5609 19.1038 58.6841 19.1038C59.8073 19.1038 60.6809 19.9623 60.6809 21.066C60.6809 22.1698 59.8073 23.0283 58.6841 23.0283C57.5609 23.0283 56.6873 22.1698 56.6873 21.066Z" fill="#2CBFBE"/>
<path d="M114.095 16.8349C113.846 16.8349 113.658 17.0802 113.658 17.2641V34.25C113.658 34.4953 113.908 34.6792 114.095 34.6792H116.154C116.404 34.6792 116.591 34.434 116.591 34.25V17.2641C116.591 17.0189 116.342 16.8349 116.154 16.8349H114.095Z" fill="#2CBFBE"/>
<path d="M115.218 9.66034C114.095 9.66034 113.222 10.5188 113.222 11.6226C113.222 12.7264 114.095 13.5849 115.218 13.5849C116.342 13.5849 117.215 12.7264 117.215 11.6226C117.215 10.5188 116.279 9.66034 115.218 9.66034Z" fill="#2CBFBE"/>
<path d="M158.399 16.8349C158.15 16.8349 157.962 17.0802 157.962 17.2641V34.25C157.962 34.4953 158.212 34.6792 158.399 34.6792H160.458C160.708 34.6792 160.895 34.434 160.895 34.25V17.2641C160.895 17.0189 160.646 16.8349 160.458 16.8349H158.399Z" fill="#2CBFBE"/>
<path d="M159.398 9.66034C158.274 9.66034 157.401 10.5188 157.401 11.6226C157.401 12.7264 158.274 13.5849 159.398 13.5849C160.521 13.5849 161.394 12.7264 161.394 11.6226C161.394 10.5188 160.521 9.66034 159.398 9.66034Z" fill="#2CBFBE"/>
<path fill-rule="evenodd" clip-rule="evenodd" d="M180.467 32.8195C180.454 32.8792 180.422 32.9514 180.346 33.0236C180.346 33.1462 180.216 33.2689 179.956 33.2076L180.055 33.3223C180.042 33.3273 180.031 33.3302 180.021 33.3302H179.826L180.281 33.8821H180.541L180.055 33.3223C180.077 33.314 180.102 33.3 180.13 33.2845C180.193 33.2496 180.27 33.2076 180.346 33.2076C180.476 33.2076 180.476 33.0849 180.476 32.9623C180.476 32.9118 180.476 32.8614 180.467 32.8195ZM179.566 33.3302V33.1462V32.5943H180.021C180.151 32.5943 180.281 32.5943 180.346 32.717C180.422 32.717 180.454 32.7595 180.467 32.8195C180.476 32.7778 180.476 32.7422 180.476 32.717V32.5943C180.476 32.5943 180.476 32.4717 180.346 32.4717C180.346 32.4717 180.216 32.3491 180.086 32.3491H179.826H179.241V33.8821H179.501V33.3302H179.566Z" fill="#8C98A4"/>
<path fill-rule="evenodd" clip-rule="evenodd" d="M178.429 33.1462C178.429 32.4104 179.116 31.7358 179.865 31.7358C180.676 31.7358 181.3 32.349 181.3 33.1462C181.3 33.8821 180.613 34.5566 179.865 34.5566C179.116 34.5566 178.429 33.8821 178.429 33.1462ZM178.554 33.1462C178.554 33.8821 179.116 34.434 179.865 34.434C180.551 34.434 181.175 33.8821 181.175 33.1462C181.175 32.4104 180.613 31.8585 179.865 31.8585C179.116 31.8585 178.554 32.4104 178.554 33.1462Z" fill="#8C98A4"/>
<path d="M131.255 19.5943C131.505 19.5943 131.692 19.3491 131.692 19.1651V17.1415C131.692 16.8962 131.442 16.7123 131.255 16.7123H126.825V10.2123C126.825 9.96698 126.575 9.78302 126.388 9.78302H124.329C124.079 9.78302 123.892 10.0283 123.892 10.2123V16.7123H121.708C121.458 16.7123 121.271 16.9575 121.271 17.1415V19.1651C121.271 19.4104 121.521 19.5943 121.708 19.5943H123.892V29.4057C123.892 32.4104 125.951 34.3726 128.946 34.3726H131.13C131.38 34.3726 131.567 34.1274 131.567 33.9434V31.9198C131.567 31.6745 131.318 31.4906 131.13 31.4906H129.258C127.823 31.4906 126.825 30.5094 126.825 28.9764V19.533H131.255V19.5943Z" fill="#2CBFBE"/>
<path d="M175.06 19.5943C175.31 19.5943 175.497 19.3491 175.497 19.1651V17.1415C175.497 16.8962 175.247 16.7123 175.06 16.7123H170.63V10.2123C170.63 9.96698 170.38 9.78302 170.193 9.78302H168.134C167.884 9.78302 167.697 10.0283 167.697 10.2123V16.7123H165.513C165.263 16.7123 165.076 16.9575 165.076 17.1415V19.1651C165.076 19.4104 165.326 19.5943 165.513 19.5943H167.697V29.4057C167.697 32.4104 169.756 34.3726 172.751 34.3726H174.935C175.185 34.3726 175.372 34.1274 175.372 33.9434V31.9198C175.372 31.6745 175.122 31.4906 174.935 31.4906H172.938C171.503 31.4906 170.505 30.5094 170.505 28.9764V19.533H174.998L175.06 19.5943Z" fill="#2CBFBE"/>
<path d="M100.991 19.5943V34.066C100.991 34.3113 101.241 34.4953 101.428 34.4953H103.487C103.737 34.4953 103.924 34.25 103.924 34.066V19.5943H108.791C109.041 19.5943 109.228 19.349 109.228 19.1651V17.1415C109.228 16.8962 108.978 16.7123 108.791 16.7123H103.924V12.9104C103.924 11.3773 105.047 10.3349 106.358 10.3349H108.791C109.041 10.3349 109.228 10.0896 109.228 9.90565V7.88207C109.228 7.63678 108.978 7.45282 108.791 7.45282H106.482C103.425 7.45282 100.991 9.96697 100.991 12.849V16.7123H98.8072C98.5576 16.7123 98.3704 16.9575 98.3704 17.1415V19.1651C98.3704 19.4104 98.62 19.5943 98.8072 19.5943H100.991Z" fill="#2CBFBE"/>
<path fill-rule="evenodd" clip-rule="evenodd" d="M145.046 16.1604C147.479 16.1604 149.788 17.1415 151.41 18.8585C153.033 20.5755 153.906 22.967 153.906 25.6038C153.906 32.1651 149.351 35.1085 144.983 35.1085C140.553 35.1085 136.06 32.2264 136.06 25.6038V7.75945C136.06 7.57548 136.247 7.3302 136.497 7.3302H138.556C138.743 7.3302 138.993 7.51416 138.993 7.75945V18.5519C140.428 17.1415 142.737 16.1604 145.046 16.1604ZM138.93 25.6651C138.93 28.9151 140.553 32.3491 144.983 32.3491C149.414 32.3491 150.974 28.9151 151.036 25.6651C151.036 21.7406 148.602 19.0425 144.983 19.0425C141.364 19.0425 138.93 21.6793 138.93 25.6651Z" fill="#2CBFBE"/>
</svg>
