<svg width="238" height="42" viewBox="0 0 238 42" fill="none" xmlns="http://www.w3.org/2000/svg">
<path fill-rule="evenodd" clip-rule="evenodd" d="M74.0344 35.2189C72.8624 35.4112 71.6904 35.5314 70.4878 35.6546C69.7695 35.7282 69.0403 35.803 68.2936 35.8949L62.3032 18.5647V36.6323C60.4312 36.8167 58.7464 37.0625 56.9368 37.3698V4.24579H61.9288L68.7304 23.0509V4.24579H74.0344V35.2189ZM84.3928 16.4138C85.4469 16.4138 86.779 16.3816 88.0794 16.3501L88.0795 16.3501C89.3193 16.3202 90.5303 16.2909 91.444 16.2909V21.4531C89.1352 21.4531 86.3896 21.4531 84.3928 21.576V29.2578C85.3652 29.1992 86.3439 29.1343 87.327 29.0692L87.3271 29.0692L87.3272 29.0692C89.4351 28.9295 91.5627 28.7885 93.6904 28.7047V33.6825L79.1512 34.7887V4.24579H93.6904V9.40797H84.3928V16.4138ZM107.73 9.46942H113.159C113.159 9.46942 113.159 4.24579 113.222 4.24579H97.06V9.46942H102.489V33.3138C104.174 33.2523 105.983 33.2523 107.73 33.2523V9.46942ZM121.708 16.0451H128.884V21.2072H121.708V32.9451H116.529V4.24579H131.193V9.40797H121.708V16.0451ZM145.183 28.6445C143.379 28.54 141.56 28.4347 139.742 28.3974V4.24579H134.5V33.2523C139.305 33.3752 143.985 33.6211 148.665 33.9283V28.8276C147.513 28.7793 146.351 28.7121 145.184 28.6445L145.183 28.6445L145.183 28.6445ZM153.095 34.2971C153.679 34.3396 154.27 34.3749 154.866 34.4104C155.991 34.4773 157.133 34.5453 158.274 34.6658V4.24579H153.095V34.2971ZM174.561 19.9782L181.238 4.24579H175.434L171.753 12.9109L168.321 4.24579H162.705L168.82 19.7938L162.081 34.9116C162.83 35.0099 163.578 35.0886 164.327 35.1673C165.45 35.2853 166.574 35.4032 167.697 35.5876L171.566 26.7996L175.31 36.3865C176.009 36.4941 176.701 36.6093 177.39 36.724C178.669 36.937 179.94 37.1486 181.238 37.3083L174.561 19.9782Z" fill="#D81F26"/>
</svg>
