<svg width="536" height="147" viewBox="0 0 536 147" fill="none" xmlns="http://www.w3.org/2000/svg">
<g clip-path="url(#clip0_522_7830)">
<path fill-rule="evenodd" clip-rule="evenodd" d="M457.534 106.671C457.256 106.907 456.903 107.036 456.539 107.034H437.11C436.495 107.034 435.896 106.709 435.643 106.148C435.5 105.84 435.463 105.494 435.536 105.162C435.609 104.83 435.789 104.532 436.049 104.313L471.504 74.4528C471.69 74.2962 471.839 74.101 471.942 73.8809C472.044 73.6607 472.097 73.4208 472.098 73.1779C472.098 72.935 472.046 72.6949 471.944 72.4744C471.842 72.2538 471.693 72.0582 471.508 71.9009L436.102 41.839C435.673 41.473 435.423 40.9134 435.52 40.3581C435.653 39.5937 436.309 39.0723 437.049 39.0723H455.746C456.105 39.0723 456.454 39.1994 456.741 39.434L495.325 71.891L495.674 72.1892C495.814 72.3085 495.927 72.4562 496.005 72.6225C496.084 72.7888 496.126 72.9698 496.129 73.1537C496.132 73.3376 496.096 73.52 496.024 73.6889C495.951 73.8579 495.843 74.0094 495.708 74.1335L495.326 74.4825L457.534 106.671Z" fill="#A8CB3A"/>
<path fill-rule="evenodd" clip-rule="evenodd" d="M78.6749 39.547H66.8197C65.3982 39.547 64.2338 40.7114 64.2338 42.1343V80.4525C64.2338 81.3526 63.1741 81.8359 62.4944 81.2438L18.6145 43.0429C15.6232 40.4401 12.3718 39.1147 8.94098 39.1147C5.91288 39.1147 0.821777 40.3511 0.821777 48.62V104.057C0.821777 104.743 1.09421 105.401 1.57915 105.885C2.06408 106.37 2.7218 106.643 3.4076 106.643H15.2558C15.9411 106.642 16.5982 106.37 17.0828 105.885C17.5674 105.401 17.8398 104.744 17.8402 104.058V65.5805C17.8403 65.3789 17.8984 65.1816 18.0077 65.0121C18.1169 64.8427 18.2727 64.7083 18.4563 64.625C18.6398 64.5417 18.8435 64.513 19.043 64.5424C19.2424 64.5718 19.4292 64.6579 19.581 64.7906L63.9244 103.57C66.6727 106.008 69.6612 107.245 72.808 107.245C75.9647 107.245 81.2579 105.953 81.2579 97.3042V42.1315C81.256 41.4468 80.9833 40.7908 80.4994 40.3066C80.0154 39.8223 79.3595 39.5493 78.6749 39.547ZM165.396 39.547H151.616C150.774 39.547 150.082 40.2338 150.082 41.0816V85.9576C150.082 89.6541 145.492 91.5292 136.433 91.5292H117.693C108.464 91.5292 103.779 89.6541 103.779 85.9576V41.0816C103.779 40.2338 103.092 39.547 102.243 39.547H88.2933C87.4427 39.547 86.7545 40.2338 86.7545 41.0816V86.6472C86.7545 89.8081 87.2901 92.5353 88.33 94.7565C89.3658 96.9523 90.776 98.8416 92.5267 100.372C94.2894 101.896 96.3121 103.089 98.4981 103.896C100.704 104.725 102.984 105.345 105.306 105.747C107.63 106.167 110.05 106.418 112.497 106.511C114.881 106.599 117.122 106.643 119.221 106.643H134.471C145.665 106.643 153.631 105.094 158.833 101.913C164.208 98.6239 166.935 93.4919 166.935 86.6472V41.0816C166.935 40.2338 166.242 39.547 165.396 39.547ZM245.959 51.3896V42.5582C245.959 40.8484 244.575 39.4637 242.865 39.4637H175.468C173.758 39.4637 172.372 40.8498 172.372 42.5596V51.3896C172.372 53.0993 173.758 54.4869 175.47 54.4869H199.046C199.908 54.4869 200.607 55.1849 200.607 56.0469V103.547C200.607 105.257 201.993 106.643 203.703 106.643H214.534C215.355 106.643 216.143 106.317 216.724 105.736C217.306 105.155 217.632 104.367 217.633 103.545V56.0469C217.633 55.1849 218.331 54.4869 219.193 54.4869H242.862C243.269 54.4871 243.672 54.4071 244.048 54.2515C244.423 54.0959 244.765 53.8678 245.053 53.5801C245.34 53.2925 245.568 52.9509 245.724 52.5751C245.88 52.1992 245.96 51.7964 245.959 51.3896ZM263.624 72.9296L272.257 60.5205C272.348 60.3886 272.47 60.2807 272.612 60.206C272.754 60.1313 272.912 60.0919 273.073 60.0912C273.233 60.0905 273.391 60.1285 273.534 60.202C273.677 60.2755 273.799 60.3823 273.892 60.5134L282.629 72.8349C282.72 72.9643 282.775 73.1164 282.786 73.2747C282.797 73.4329 282.764 73.5911 282.692 73.732C282.619 73.873 282.509 73.9911 282.373 74.0737C282.238 74.1562 282.082 74.1999 281.924 74.1999H264.288C264.14 74.2001 263.995 74.1598 263.868 74.0833C263.742 74.0068 263.639 73.8971 263.57 73.7661C263.502 73.6352 263.471 73.4879 263.48 73.3405C263.489 73.193 263.539 73.0509 263.624 72.9296ZM282.622 44.0871C280.3 40.8456 277.227 39.1994 273.486 39.1994C269.797 39.1994 266.753 40.8767 264.426 44.1945L222.852 104.227C222.455 104.797 222.483 105.575 222.964 106.123C223.276 106.478 223.752 106.643 224.224 106.643H240.567C241.087 106.643 241.576 106.377 241.859 105.941L252.3 89.8774C252.412 89.7042 252.566 89.562 252.747 89.4635C252.929 89.3651 253.132 89.3135 253.338 89.3136C253.338 89.3136 288.148 89.3051 293.417 89.3122C293.835 89.3122 294.221 89.5213 294.451 89.8703L305.128 105.953C305.411 106.384 305.893 106.643 306.408 106.643H322.093C322.657 106.643 323.181 106.329 323.445 105.822C323.714 105.32 323.681 104.714 323.363 104.244L282.622 44.0871ZM405.262 39.547H393.08C391.745 39.547 390.661 40.6308 390.661 41.9675V80.8128C390.661 80.983 390.612 81.1495 390.52 81.2926C390.428 81.4357 390.297 81.5492 390.142 81.6197C389.987 81.6902 389.815 81.7146 389.647 81.69C389.479 81.6655 389.321 81.593 389.193 81.4812L345.043 43.0429C342.053 40.4401 338.796 39.1147 335.361 39.1147C332.333 39.1147 327.245 40.3511 327.245 48.62V104.221C327.245 105.553 328.334 106.643 329.667 106.643H341.844C343.182 106.643 344.267 105.558 344.267 104.22V65.2188C344.267 65.0485 344.316 64.8818 344.408 64.7387C344.501 64.5956 344.632 64.482 344.787 64.4117C344.942 64.3413 345.114 64.3171 345.283 64.342C345.451 64.3668 345.609 64.4397 345.737 64.5518L390.352 103.57C393.097 106.008 396.088 107.245 399.235 107.245C402.389 107.245 407.685 105.953 407.685 97.3042V41.9704C407.685 40.6322 406.6 39.547 405.262 39.547ZM428.591 39.547H414.647C413.798 39.547 413.111 40.2338 413.111 41.0816V105.107C413.111 105.953 413.798 106.643 414.647 106.643H428.591C429.438 106.643 430.129 105.953 430.129 105.107V41.0816C430.129 40.2338 429.438 39.547 428.591 39.547ZM501.282 67.5573C501.582 67.8123 501.963 67.9524 502.356 67.9527C502.75 67.953 503.131 67.8133 503.431 67.5587L534.379 41.839C534.809 41.473 535.057 40.9134 534.961 40.3581C534.9 39.9977 534.712 39.6708 534.432 39.4354C534.152 39.2 533.798 39.0714 533.432 39.0723H514.735C514.376 39.0723 514.027 39.1994 513.741 39.434L492.024 57.1377C491.839 57.2931 491.691 57.4868 491.589 57.7054C491.486 57.924 491.433 58.1623 491.432 58.4036C491.432 58.6449 491.484 58.8834 491.585 59.1026C491.686 59.3218 491.833 59.5163 492.017 59.6727L501.282 67.5573ZM501.177 78.8021C501.477 78.5468 501.858 78.4064 502.252 78.4061C502.646 78.4059 503.028 78.5457 503.328 78.8007L534.737 104.453C535.166 104.817 535.415 105.378 535.319 105.933C535.186 106.697 534.529 107.219 533.79 107.219H515.091C514.734 107.219 514.385 107.092 514.098 106.858L492.517 88.8883C492.332 88.7329 492.184 88.5392 492.082 88.3206C491.98 88.102 491.926 87.8637 491.926 87.6224C491.925 87.3811 491.977 87.1426 492.078 86.9234C492.179 86.7042 492.326 86.5097 492.51 86.3533L501.177 78.8021Z" fill="#174489"/>
</g>
<defs>
<clipPath id="clip0_522_7830">
<rect width="534.518" height="146.317" fill="white" transform="translate(0.821777)"/>
</clipPath>
</defs>
</svg>
