<svg width="214" height="58" viewBox="0 0 214 58" fill="none" xmlns="http://www.w3.org/2000/svg">
<rect y="0.348633" width="57.349" height="57.349" rx="10.1533" fill="#151AAF"/>
<path d="M98.6973 38.197V20.7005L92.0479 30.3051H89.7643L83.1486 20.7005V38.197H80.1261V15.8647H83.4508L90.9061 26.6446L98.3614 15.8647H101.72V38.197H98.6973ZM118.684 38.197V35.6448C117.968 36.4731 117.14 37.1336 116.199 37.6261C115.259 38.1187 114.263 38.3649 113.21 38.3649C112.046 38.3649 110.949 38.1522 109.919 37.7269C108.912 37.3015 108.016 36.697 107.233 35.9134C106.449 35.1522 105.833 34.2567 105.386 33.2268C104.96 32.1746 104.748 31.0775 104.748 29.9357C104.748 28.7939 104.96 27.7081 105.386 26.6782C105.833 25.626 106.449 24.708 107.233 23.9245C108.016 23.1409 108.912 22.5364 109.919 22.111C110.949 21.6856 112.046 21.4729 113.21 21.4729C114.285 21.4729 115.293 21.6968 116.233 22.1446C117.196 22.5924 118.013 23.2192 118.684 24.0252V21.8088H121.707V38.197H118.684ZM113.21 24.4618C112.472 24.4618 111.755 24.6073 111.061 24.8984C110.389 25.167 109.807 25.5476 109.315 26.0402C108.822 26.5327 108.431 27.126 108.139 27.82C107.871 28.4917 107.736 29.1969 107.736 29.9357C107.736 30.6745 107.871 31.3798 108.139 32.0514C108.431 32.7231 108.822 33.3052 109.315 33.7977C109.807 34.2903 110.389 34.6821 111.061 34.9731C111.755 35.2418 112.472 35.3761 113.21 35.3761C113.949 35.3761 114.654 35.2418 115.326 34.9731C115.998 34.6821 116.58 34.2903 117.072 33.7977C117.565 33.3052 117.946 32.7231 118.214 32.0514C118.505 31.3798 118.651 30.6745 118.651 29.9357C118.651 29.1969 118.505 28.4917 118.214 27.82C117.946 27.126 117.565 26.5327 117.072 26.0402C116.58 25.5476 115.998 25.167 115.326 24.8984C114.654 24.6073 113.949 24.4618 113.21 24.4618ZM132.545 24.6297C132.007 24.3834 131.526 24.2603 131.101 24.2603C130.205 24.2603 129.466 24.5737 128.884 25.2006C128.257 25.8722 127.944 26.6446 127.944 27.5178V38.197H125.056V27.5178C125.056 26.3088 125.358 25.2006 125.963 24.1931C126.589 23.1856 127.44 22.4021 128.515 21.8423C129.321 21.4617 130.183 21.2714 131.101 21.2714C131.84 21.2714 132.545 21.4058 133.216 21.6744C133.888 21.9431 134.593 22.3797 135.332 22.9841L132.545 24.6297ZM145.775 38.197L140.67 31.9843V38.197H137.715V15.8647H140.67V25.5028L145.237 21.2043H149.637L141.678 28.5924L149.67 38.197H145.775ZM153.59 31.0775C153.59 31.6149 153.78 32.1746 154.161 32.7567C154.564 33.3388 155.023 33.8313 155.538 34.2343C156.478 34.9731 157.575 35.3425 158.829 35.3425C160.821 35.3425 162.445 34.3798 163.698 32.4544L166.251 33.9656C165.377 35.3761 164.303 36.4619 163.027 37.2231C161.751 37.9843 160.351 38.3649 158.829 38.3649C157.687 38.3649 156.601 38.1522 155.571 37.7269C154.541 37.2791 153.635 36.6634 152.851 35.8798C152.068 35.0962 151.452 34.1895 151.004 33.1596C150.579 32.1298 150.366 31.0439 150.366 29.9021C150.366 28.7603 150.579 27.6745 151.004 26.6446C151.452 25.5924 152.068 24.6745 152.851 23.8909C153.612 23.1073 154.508 22.5028 155.538 22.0774C156.59 21.652 157.687 21.4394 158.829 21.4394C159.971 21.4394 161.056 21.652 162.086 22.0774C163.139 22.5028 164.045 23.1073 164.807 23.8909C166.463 25.5924 167.292 27.5626 167.292 29.8014C167.292 30.2044 167.258 30.6298 167.191 31.0775H153.59ZM158.829 24.1931C157.911 24.1931 157.049 24.3946 156.243 24.7976C155.437 25.2006 154.788 25.7379 154.295 26.4096C153.825 27.0588 153.59 27.7529 153.59 28.4917H164.068C164.068 27.7529 163.821 27.0588 163.329 26.4096C162.859 25.7379 162.221 25.2006 161.415 24.7976C160.609 24.3946 159.747 24.1931 158.829 24.1931ZM174.695 24.4282V38.197H171.84V24.4282H169.322V21.4058H171.84V15.8647H174.695V21.4058H177.214V24.4282H174.695ZM181.795 18.9878C181.37 18.9878 181.001 18.8423 180.687 18.5513C180.396 18.2378 180.251 17.8684 180.251 17.443C180.251 17.0177 180.396 16.6594 180.687 16.3684C181.001 16.055 181.37 15.8982 181.795 15.8982C182.221 15.8982 182.579 16.055 182.87 16.3684C183.183 16.6594 183.34 17.0177 183.34 17.443C183.34 17.8684 183.183 18.2378 182.87 18.5513C182.579 18.8423 182.221 18.9878 181.795 18.9878ZM180.418 38.197V21.4058H183.239V38.197H180.418ZM191.111 24.2267V38.197H188.29V24.2267H186.711V21.4058H188.323C188.368 20.3311 188.67 19.3684 189.23 18.5177C189.812 17.6669 190.573 17.0065 191.514 16.5363C192.454 16.0662 193.484 15.8311 194.603 15.8311V18.7192C193.663 18.6744 192.868 18.9095 192.219 19.4244C191.592 19.9393 191.256 20.5998 191.211 21.4058H194.603V24.2267H191.111ZM204.256 45.3501C202.98 45.3501 201.793 45.0255 200.696 44.3762C199.621 43.7269 198.681 42.7866 197.875 41.5553L200.494 40.0441C200.965 40.7829 201.524 41.3426 202.174 41.7232C202.823 42.1262 203.517 42.3277 204.256 42.3277C205.442 42.3277 206.472 41.8911 207.345 41.018C207.748 40.615 208.051 40.1448 208.252 39.6075C208.476 39.0702 208.588 38.4993 208.588 37.8948V36.7194C208.073 37.2567 207.424 37.6933 206.64 38.0291C205.856 38.3425 205.062 38.4993 204.256 38.4993C203.271 38.4993 202.342 38.3202 201.468 37.9619C200.595 37.5813 199.823 37.0552 199.151 36.3836C198.457 35.7119 197.92 34.9395 197.539 34.0664C197.159 33.1708 196.968 32.2305 196.968 31.2454V21.4058H199.924V31.0439C199.924 31.8275 200.114 32.5664 200.494 33.2604C200.897 33.932 201.424 34.4694 202.073 34.8724C202.745 35.2753 203.472 35.4768 204.256 35.4768C205.039 35.4768 205.767 35.2865 206.439 34.9059C207.11 34.5029 207.636 33.9656 208.017 33.294C208.398 32.5999 208.588 31.8499 208.588 31.0439V21.4058H211.543V37.8948C211.543 38.9023 211.353 39.865 210.972 40.7829C210.614 41.7008 210.099 42.4956 209.427 43.1672C208.733 43.8613 207.939 44.3986 207.043 44.7792C206.17 45.1598 205.241 45.3501 204.256 45.3501Z" fill="black"/>
<path d="M20.0591 31.2281C20.7679 30.0324 21.4372 28.903 21.513 27.7048C21.5755 26.718 21.2272 25.6664 20.8902 24.6494L20.5413 23.5967C19.9357 22.1893 19.3235 20.7853 18.7043 19.3854C18.6451 19.2661 18.5865 19.1458 18.5336 19.0191C18.5057 18.9521 18.4805 18.8849 18.4553 18.8177C18.4216 18.7419 18.387 18.6666 18.3532 18.5908C17.9172 19.0985 17.5089 19.6394 17.137 20.2184C13.6237 25.6885 14.2443 32.6269 18.198 37.3688C18.1278 36.1493 18.2973 34.9187 18.7386 33.7745C19.0914 32.8612 19.5833 32.0309 20.0591 31.2281Z" fill="url(#paint0_linear_37_5149)"/>
<path d="M43.8401 29.228C43.4832 29.3112 43.1174 29.3912 42.7304 29.4634C42.6725 29.4742 42.6142 29.4844 42.5561 29.4949C41.9499 29.5323 41.3155 29.5085 40.6587 29.4825L40.5489 29.4781C39.2121 29.4252 37.9076 29.4117 36.643 29.8197C34.9573 30.3634 33.519 31.6529 32.795 33.2697C32.17 34.666 32.1008 36.1315 32.0341 37.5488C32.0256 37.7344 32.017 37.9198 32.0068 38.104C31.9346 39.4384 31.763 40.802 31.0061 41.7394C30.7491 42.0572 30.416 42.3342 29.9979 42.5771C29.1337 42.6158 28.2641 42.5785 27.3987 42.4612C27.0443 42.2069 26.7046 41.9358 26.3834 41.6425C24.8582 40.2479 23.9953 38.5118 24.0163 36.8784C24.0337 35.514 24.6324 34.1605 25.2665 32.7277L25.2671 32.7264C26.085 30.8785 26.9308 28.9674 26.6091 26.8138C26.2973 24.7267 24.9425 23.0792 23.7471 21.6256L23.7157 21.5875C23.5956 21.4415 23.4759 21.2959 23.3581 21.1506C22.4103 19.9826 21.1849 18.2404 21.4804 16.5996C21.5344 16.2988 21.6414 15.9895 21.8041 15.6592C23.4087 14.684 25.1807 14.0344 27.0142 13.7336C27.5451 14.272 28.0204 14.9839 28.4572 15.9007C28.8968 16.8245 29.1787 17.6791 29.3185 18.5135C29.3982 18.9887 29.4355 19.483 29.4751 20.0059L29.4759 20.0163L29.476 20.0174C29.5534 21.0426 29.6334 22.1024 30.0397 23.1492C30.4987 24.3328 31.3455 25.3406 32.4049 26.0209C32.969 26.3834 33.5934 26.6528 34.2519 26.8061C36.0659 27.2297 37.8711 26.7483 39.071 26.349C39.5311 26.1961 39.9845 26.0273 40.4235 25.8638L40.4407 25.8574L40.4476 25.8549C41.332 25.5255 42.1676 25.2143 43.0242 25.0338C43.1963 24.9976 43.3703 24.9693 43.5446 24.9433C43.8528 26.3427 43.954 27.7874 43.8401 29.228Z" fill="url(#paint1_linear_37_5149)"/>
<path d="M40.0283 20.7753C38.3371 20.8231 36.7806 20.3451 35.6427 19.4232C34.6709 18.637 33.9477 17.4868 33.2484 16.3744L33.2482 16.3742L31.575 13.7122C33.5237 14.0118 35.4432 14.7112 37.2091 15.8455C39.1405 17.0857 40.6776 18.7081 41.7892 20.5487C41.1869 20.6826 40.5988 20.7592 40.0283 20.7753Z" fill="url(#paint2_linear_37_5149)"/>
<path d="M43.318 31.6742C43.3556 31.6726 43.3941 31.6706 43.432 31.6687C43.056 33.1372 42.4459 34.572 41.5822 35.9176C40.4864 37.6238 39.0928 39.0226 37.5139 40.0922C37.5123 39.3781 37.3806 38.7161 37.2486 38.0767C37.1507 37.6031 37.0583 37.1557 37.0309 36.7271C36.9329 35.1878 37.7491 33.6097 39.0624 32.8002C40.0448 32.1946 41.2657 31.9758 42.5585 31.7442L42.7907 31.7019C42.9661 31.6928 43.1381 31.6828 43.318 31.6742Z" fill="url(#paint3_linear_37_5149)"/>
<rect x="10.334" y="28.6555" width="38.0504" height="13.9364" fill="url(#paint4_linear_37_5149)"/>
<path d="M10.3147 28.6555H48.4031" stroke="white" stroke-width="1.61037" stroke-linecap="round"/>
<path d="M10.3342 17.445V15.0788C10.3342 12.2624 12.6174 9.97925 15.4337 9.97925H18.0308" stroke="white" stroke-width="1.61037" stroke-linecap="round"/>
<path d="M10.334 38.7418V41.108C10.334 43.9244 12.6171 46.2075 15.4335 46.2075H18.0305" stroke="white" stroke-width="1.61037" stroke-linecap="round"/>
<path d="M48.384 17.445V15.0788C48.384 12.2624 46.1009 9.97925 43.2845 9.97925H40.6875" stroke="white" stroke-width="1.61037" stroke-linecap="round"/>
<path d="M48.384 38.7418V41.108C48.384 43.9244 46.1009 46.2075 43.2845 46.2075H40.6875" stroke="white" stroke-width="1.61037" stroke-linecap="round"/>
<defs>
<linearGradient id="paint0_linear_37_5149" x1="26.3638" y1="13.9448" x2="32.9348" y2="44.9235" gradientUnits="userSpaceOnUse">
<stop stop-color="#2AD3F8"/>
<stop offset="0.9813" stop-color="#933CFF"/>
</linearGradient>
<linearGradient id="paint1_linear_37_5149" x1="26.3639" y1="13.9447" x2="32.9349" y2="44.9233" gradientUnits="userSpaceOnUse">
<stop stop-color="#2AD3F8"/>
<stop offset="0.9813" stop-color="#933CFF"/>
</linearGradient>
<linearGradient id="paint2_linear_37_5149" x1="26.3639" y1="13.9448" x2="32.9349" y2="44.9234" gradientUnits="userSpaceOnUse">
<stop stop-color="#2AD3F8"/>
<stop offset="0.9813" stop-color="#933CFF"/>
</linearGradient>
<linearGradient id="paint3_linear_37_5149" x1="26.3639" y1="13.9447" x2="32.9349" y2="44.9234" gradientUnits="userSpaceOnUse">
<stop stop-color="#2AD3F8"/>
<stop offset="0.9813" stop-color="#933CFF"/>
</linearGradient>
<linearGradient id="paint4_linear_37_5149" x1="29.3592" y1="23.3914" x2="29.3592" y2="44.0329" gradientUnits="userSpaceOnUse">
<stop stop-color="#005DFF"/>
<stop offset="0.759615" stop-color="white" stop-opacity="0"/>
</linearGradient>
</defs>
</svg>
