<svg width="238" height="42" viewBox="0 0 238 42" fill="none" xmlns="http://www.w3.org/2000/svg">
<path fill-rule="evenodd" clip-rule="evenodd" d="M91.5804 27.1857C91.7667 27.619 91.953 28.1143 92.1392 28.6095C92.698 30.0333 92.8222 31.3952 92.6359 32.7571C92.2013 35.6047 90.3386 38.0809 87.6067 39.1952C86.6133 39.6285 85.5577 39.8143 84.4401 39.8143C84.1297 39.8143 83.7571 39.8143 83.4467 39.7523C82.1428 39.6285 80.8389 39.1952 79.535 38.4524C77.9828 37.5857 76.4306 36.2857 74.6921 34.4285C72.9535 36.2857 71.4634 37.5857 69.8491 38.4524C68.5452 39.1952 67.2413 39.5666 65.9374 39.7523C65.7822 39.7523 65.6115 39.7678 65.4407 39.7833C65.27 39.7988 65.0992 39.8143 64.944 39.8143C63.8264 39.8143 62.7709 39.6285 61.7774 39.1952C59.1076 38.0809 57.1207 35.6666 56.6861 32.7571C56.4998 31.3333 56.6861 29.9714 57.1828 28.6095C57.3691 28.0524 57.5553 27.619 57.7416 27.1857C58.0521 26.5047 58.3625 25.8238 58.6109 25.2047L58.673 25.1428C61.4049 19.3238 64.261 13.4428 67.2413 7.62378L67.3655 7.37616C67.6759 6.81902 67.9864 6.19997 68.2968 5.58092C68.3805 5.44991 68.4641 5.31662 68.5486 5.18191C68.9033 4.61643 69.2736 4.02611 69.7249 3.47616C71.0288 1.99045 72.7673 1.12378 74.6921 1.12378C76.5547 1.12378 78.3553 1.99045 79.5971 3.53806C80.218 4.21902 80.6527 4.96187 81.0252 5.64283C81.3356 6.26187 81.6461 6.88092 81.9565 7.43806L82.0807 7.68568C85.1231 13.5047 87.9792 19.3857 90.6491 25.2047H90.7112C90.9595 25.8238 91.27 26.5047 91.5804 27.1857ZM122.128 10.8428C122.128 12.2666 121.011 13.3809 119.583 13.3809C118.155 13.3809 117.037 12.2666 117.037 10.8428C117.037 9.41902 118.155 8.30473 119.583 8.30473C121.073 8.36664 122.128 9.48092 122.128 10.8428ZM111.76 15.919V16.5381C111.76 16.5381 110.58 14.9904 107.972 14.9904C103.75 14.9904 100.459 18.2095 100.459 22.6666C100.459 27.0619 103.75 30.3428 107.972 30.3428C110.58 30.3428 111.76 28.7333 111.76 28.7333V29.4143C111.76 29.7238 112.008 29.9714 112.318 29.9714H115.485V15.3619H112.318C111.946 15.3619 111.76 15.6095 111.76 15.919ZM108.593 26.8143C110.021 26.8143 111.201 26.0714 111.76 25.2047V20.0047C111.201 19.2 109.959 18.3952 108.593 18.3952C106.109 18.3952 104.185 19.9428 104.185 22.6047C104.185 25.2666 106.109 26.8143 108.593 26.8143ZM121.445 15.3619V29.9095H117.72V15.3619H121.445ZM169.627 16.5381C169.627 16.5381 170.869 14.9904 173.414 14.9904C177.637 14.9904 180.927 18.2095 180.927 22.6047C180.927 27 177.637 30.2809 173.414 30.2809C170.807 30.2809 169.627 28.6714 169.627 28.6714V29.3524C169.627 29.6619 169.379 29.9095 169.068 29.9095H165.902V8.36664H169.627V16.5381ZM172.794 26.7523C171.365 26.7523 170.248 26.0095 169.627 25.1428V19.9428C170.186 19.1381 171.428 18.3333 172.794 18.3333C175.277 18.3333 177.202 19.8809 177.202 22.5428C177.202 25.2047 175.277 26.7523 172.794 26.7523ZM163.977 29.9714V21.3047C163.977 18.8285 163.48 17.4666 162.238 16.4143C161.121 15.4857 159.755 14.9904 158.14 14.9904C156.712 14.9904 155.284 15.4238 154.167 16.5381V15.919C154.167 15.6095 153.918 15.3619 153.608 15.3619H150.628V29.9714H154.353V19.819C155.098 18.9524 156.278 18.3952 157.395 18.3952C159.444 18.3952 160.251 19.3238 160.251 21.7381V29.9714H163.977ZM141.562 14.9904C139.017 14.9904 137.775 16.5381 137.775 16.5381V8.36664H134.05V29.9095H137.216C137.527 29.9095 137.775 29.6619 137.775 29.3524V28.6714C137.775 28.6714 138.955 30.2809 141.562 30.2809C145.785 30.2809 149.075 27 149.075 22.6047C149.137 18.2095 145.847 14.9904 141.562 14.9904ZM137.775 25.1428C138.396 26.0095 139.514 26.7523 140.942 26.7523C143.425 26.7523 145.35 25.2047 145.35 22.5428C145.35 19.8809 143.425 18.3333 140.942 18.3333C139.576 18.3333 138.334 19.1381 137.775 19.9428V25.1428ZM130.883 14.9904C132.001 14.9904 132.622 15.1762 132.622 15.1762V18.6428C132.622 18.6428 129.517 17.5904 127.592 19.819V29.9714H123.867V15.3619H127.034C127.344 15.3619 127.592 15.6095 127.592 15.919V16.5381C128.213 15.7333 129.703 14.9904 130.883 14.9904ZM74.63 30.5904C72.5189 27.9285 71.153 25.4524 70.7183 23.4095C70.5321 22.5428 70.47 21.7381 70.5941 21.0571C70.6562 20.4381 70.9046 19.8809 71.215 19.4476C71.9601 18.3952 73.2019 17.7143 74.63 17.7143C76.058 17.7143 77.3619 18.3333 78.0449 19.4476C78.3553 19.9428 78.6037 20.4381 78.6658 21.0571C78.79 21.7381 78.7279 22.5428 78.5416 23.4095C78.107 25.4524 76.741 27.9285 74.63 30.5904ZM86.6132 36.9666C88.538 36.2238 89.904 34.4904 90.1524 32.4476C90.2765 31.3952 90.1524 30.4666 89.9661 29.4762C89.8989 29.2751 89.8134 29.074 89.7197 28.8533C89.6402 28.6663 89.5548 28.4652 89.4694 28.2381C89.3141 27.9285 89.1744 27.6035 89.0347 27.2785C88.895 26.9535 88.7553 26.6285 88.6001 26.319V26.2571C85.9303 20.5 83.0741 14.619 80.0938 8.86187L79.9697 8.61425L79.9697 8.61424C79.6592 7.9952 79.3488 7.37616 79.0383 6.81902C78.7279 6.19997 78.3553 5.58092 77.9207 5.08568C77.1136 4.15711 75.9959 3.66187 74.8162 3.66187C73.6365 3.66187 72.5189 4.15711 71.7118 5.08568C71.2771 5.64283 70.9046 6.19997 70.5941 6.81902L70.5941 6.81903C70.2837 7.43807 69.9732 8.05712 69.6628 8.61425L69.5386 8.86187C66.4962 14.619 63.6401 20.5 60.9703 26.2571L60.9082 26.319C60.5977 26.9381 60.2873 27.619 60.0389 28.2381C59.8527 28.6714 59.6664 29.1047 59.5422 29.4762C59.1076 30.5904 59.0455 31.519 59.1697 32.5095C59.418 34.4904 60.784 36.2238 62.7088 37.0285C63.578 37.3381 64.5715 37.5238 65.627 37.4C66.6204 37.2762 67.6138 36.9666 68.6073 36.4095C69.9733 35.6047 71.4013 34.4285 73.0156 32.6333C70.47 29.4762 68.8556 26.5666 68.2968 24.0285C67.9864 22.8524 67.9243 21.7381 68.1106 20.7476C68.2968 19.7571 68.6073 18.8904 69.1661 18.0857C70.3458 16.4143 72.3947 15.3619 74.63 15.3619C76.8652 15.3619 78.9141 16.3524 80.0938 18.0857C80.6527 18.8904 80.9631 19.7571 81.1494 20.7476C81.2736 21.7381 81.2115 22.8524 80.9631 24.0285C80.3422 26.5666 78.79 29.4143 76.2443 32.5714C77.8586 34.3666 79.2246 35.5428 80.6527 36.3476C81.7082 36.9047 82.6395 37.2143 83.633 37.3381C84.6885 37.4619 85.6819 37.3381 86.6132 36.9666Z" fill="#E74969"/>
</svg>
