<svg width="238" height="42" viewBox="0 0 238 42" fill="none" xmlns="http://www.w3.org/2000/svg">
<path d="M73.112 4.16C72.5428 2.29517 70.5508 1.29103 68.7011 1.86483C66.8513 2.43862 65.8553 4.4469 66.4244 6.31172L75.5309 34.571C76.1712 36.2924 78.021 37.2965 79.7996 36.7945C81.6493 36.2207 82.7876 34.2841 82.2185 32.4193C82.2185 32.3476 73.112 4.16 73.112 4.16Z" fill="#FAAD13"/>
<path d="M59.0253 8.82205C58.4562 6.95722 56.4641 5.95308 54.6144 6.52688C52.7646 7.10067 51.7686 9.10894 52.3378 10.9738L61.4442 39.2331C62.0845 40.9545 63.9343 41.9586 65.7129 41.4565C67.5626 40.8827 68.701 38.9462 68.1318 37.0814C68.1318 37.0096 59.0253 8.82205 59.0253 8.82205Z" fill="#36B37E"/>
<path d="M84.6373 27.6138C86.4871 27.04 87.4831 25.0317 86.9139 23.1669C86.3448 21.3021 84.3527 20.2979 82.503 20.8717L54.401 29.9807C52.6935 30.6262 51.6975 32.491 52.1955 34.2841C52.7647 36.149 54.6856 37.2966 56.5353 36.7228C56.6776 36.7228 84.6373 27.6138 84.6373 27.6138Z" fill="#D81F26"/>
<path opacity="0.2" d="M60.2348 35.5752C62.0845 35.0014 64.4323 34.2124 66.9223 33.3517C66.3532 31.4869 65.5706 29.12 64.7169 26.6097L58.0293 28.8331L60.2348 35.5752Z" fill="white"/>
<path opacity="0.2" d="M74.3925 30.9131C76.9537 30.0524 79.3014 29.3352 81.08 28.6896C80.5109 26.8248 79.7283 24.4579 78.8746 21.9476L72.187 24.171L74.3925 30.9131Z" fill="white"/>
<path d="M80.0129 13.3407C81.8627 12.7669 82.8587 10.7586 82.2896 8.89376C81.7204 7.02894 79.7284 6.0248 77.8786 6.59859L49.8478 15.7793C48.1403 16.4248 47.1443 18.2896 47.6423 20.0827C48.2115 22.0193 50.1324 23.1669 51.9821 22.5213C52.0532 22.5213 80.0129 13.3407 80.0129 13.3407Z" fill="#00B8D9"/>
<path opacity="0.2" d="M55.6815 21.3021C57.5313 20.7283 59.8791 19.9393 62.3691 19.0786C61.5154 16.4965 60.8039 14.1297 60.1636 12.3365L53.4761 14.56L55.6815 21.3021Z" fill="white"/>
<path opacity="0.2" d="M69.7682 16.7117C72.3294 15.851 74.6772 15.1338 76.4558 14.4883C75.602 11.9062 74.8906 9.53932 74.2503 7.74622L67.5627 9.96966L69.7682 16.7117Z" fill="white"/>
<path d="M113.024 11.6193C114.233 12.1931 114.376 12.5517 113.38 14.4165C112.384 16.3531 112.17 16.4248 110.889 15.9227C109.324 15.2772 107.403 14.7751 106.123 14.7751C104.06 14.7751 102.708 15.4924 102.708 16.64C102.708 20.3696 114.589 18.3614 114.589 26.3945C114.589 30.411 111.174 33.0648 106.052 33.0648C103.348 33.0648 100.004 32.1324 97.7278 30.9848C96.5895 30.411 96.5183 30.0524 97.5144 28.1158C98.3681 26.4662 98.6527 26.251 99.8621 26.7531C101.854 27.6138 104.273 28.2593 105.981 28.2593C107.901 28.2593 109.111 27.4703 109.111 26.3227C109.111 22.6648 97.0163 24.3862 97.0163 16.64C97.0163 12.5517 100.431 9.75446 105.483 9.75446C107.901 9.96963 110.961 10.6869 113.024 11.6193Z" fill="#183B56"/>
<path d="M122.628 2.15173V31.989C122.628 32.4193 122.13 32.9214 121.49 32.9214H118.36C117.648 32.9214 117.221 32.4193 117.221 31.989V2.15173C117.221 0.645519 117.648 0.573795 119.925 0.573795C122.486 0.502071 122.628 0.717243 122.628 2.15173Z" fill="#183B56"/>
<path fill-rule="evenodd" clip-rule="evenodd" d="M144.683 31.7021V18.8635C144.683 13.269 140.912 9.96967 134.936 9.96967C132.233 9.96967 129.245 10.8304 127.11 12.2648C125.972 12.9821 125.972 13.3407 127.11 15.1338C128.32 16.9269 128.533 16.9986 129.672 16.3531C131.094 15.4924 132.873 14.9186 134.367 14.9186C137.497 14.9186 139.347 16.3531 139.347 18.72V20.2262C137.853 19.5807 136.003 19.2221 134.011 19.2221C128.676 19.2221 125.189 22.091 125.189 26.3945C125.189 30.411 128.32 33.1366 132.944 33.1366C135.363 33.1366 137.782 32.1324 139.418 30.2676L139.347 31.6304C139.276 32.3476 139.774 32.8497 140.485 32.8497H143.545C144.185 32.8497 144.683 32.4193 144.683 31.7021ZM133.584 28.8331C131.664 28.8331 130.383 27.829 130.383 26.3228C130.383 24.4579 132.304 23.0235 135.15 23.0235C136.501 23.0235 138.067 23.2386 139.276 23.7407V25.749C138.067 27.6855 135.932 28.8331 133.584 28.8331Z" fill="#183B56"/>
<path d="M165.813 11.691C166.951 12.3365 166.951 12.6952 165.742 14.6317C164.604 16.4248 164.39 16.5683 163.11 15.9228C162.185 15.4207 160.62 14.9903 159.41 14.9903C155.497 14.9903 152.936 17.5724 152.936 21.5172C152.936 25.6055 155.497 28.331 159.41 28.331C160.762 28.331 162.469 27.829 163.536 27.1834C164.675 26.5379 164.888 26.5379 166.098 28.331C167.165 29.9807 167.165 30.3393 166.169 31.0565C164.461 32.2759 161.687 33.2083 159.268 33.2083C152.082 33.2083 147.244 28.5462 147.244 21.589C147.244 14.6317 152.082 10.0414 159.339 10.0414C161.616 9.96965 164.177 10.6869 165.813 11.691Z" fill="#183B56"/>
<path d="M189.362 30.0524C190.287 31.2 189.931 31.6303 187.654 32.4193C185.378 33.28 185.022 33.2083 184.239 32.1324L177.765 23.4538L174.848 26.251V31.9172C174.848 32.3476 174.35 32.8497 173.71 32.8497H170.58C169.868 32.8497 169.441 32.3476 169.441 31.9172V2.15172C169.441 0.645516 169.868 0.573792 172.145 0.573792C174.777 0.573792 174.848 0.788964 174.848 2.15172V19.0786L183.67 10.5434C184.666 9.61103 185.164 9.68276 186.943 10.8303C188.864 12.0497 189.006 12.4083 188.081 13.3407L181.536 19.7959L189.362 30.0524Z" fill="#183B56"/>
</svg>
