<svg width="536" height="147" viewBox="0 0 536 147" fill="none" xmlns="http://www.w3.org/2000/svg">
<g clip-path="url(#clip0_522_7814)">
<path d="M236.568 41.601C229.401 41.601 221.957 43.5614 212.743 48.5167L217.861 61.2266C225.863 56.7407 232.471 54.7803 237.313 54.7803C242.804 54.7803 245.224 56.8349 245.224 59.5458V59.7313C245.224 61.6004 243.733 62.6291 240.105 63.0043L233.778 63.6578C217.955 65.3386 211.44 72.2557 211.44 81.7866V82.4415C211.44 91.5088 218.885 98.6099 229.401 98.6099C236.325 98.6099 242.342 95.6736 245.997 90.4915L247.177 97.6768H261.509V65.0589C261.509 49.6382 252.668 41.5996 236.568 41.5996M235.169 86.1726C229.868 86.1726 227.354 84.118 227.354 80.9391V80.7536C227.354 77.95 228.934 75.894 234.704 75.055L237.218 74.6798C240.891 74.1661 243.148 73.4884 245.223 72.2257V76.3634C245.223 82.6242 241.313 86.174 235.171 86.174" fill="black"/>
<path d="M55.8189 88.1288L101.804 41.9749L83.4587 23.565L65.1145 41.9749L74.2459 51.1363L28.2804 97.2973L46.6047 115.72L64.9504 97.2973L55.8189 88.1288Z" fill="#F04E23"/>
<path d="M0.821777 69.7331L46.8016 23.5593L65.1359 41.9706L19.1561 88.1444L0.821777 69.7331ZM64.9404 97.3287L110.92 51.1563L129.254 69.5662L83.2747 115.74L64.9404 97.3287Z" fill="#F04E23"/>
<path d="M270.801 22.9115H287.086V97.6683H270.801V22.9115ZM184.07 41.601C176.667 41.601 170.721 44.8898 167.448 50.0419L166.204 42.5342H151.872V116.345H168.157V90.7554C171.258 95.5537 177.122 98.5885 184.07 98.5885C197.101 98.5885 207.711 87.0016 207.711 71.0186V69.1467C207.711 53.1766 197.101 41.5839 184.07 41.5839M190.959 70.5578C190.959 78.9659 186.584 85.044 179.325 85.044C172.065 85.044 167.691 78.9702 167.691 70.5578V69.6247C167.691 61.2109 172.064 55.137 179.325 55.137C186.586 55.137 190.959 61.2109 190.959 69.6247V70.5578ZM506.952 41.601C490.296 41.601 478.567 53.188 478.567 69.1724V71.0415C478.567 87.0215 490.296 98.6142 506.953 98.6142C523.611 98.6142 535.339 87.0258 535.339 71.0429V69.1709C535.339 53.1923 523.611 41.601 506.953 41.601M518.586 70.5735C518.586 78.983 514.213 85.0611 506.953 85.0611C499.694 85.0611 495.319 78.9873 495.319 70.5735V69.6404C495.319 61.2266 499.692 55.1541 506.953 55.1541C514.214 55.1541 518.586 61.2266 518.586 69.6404V70.5735Z" fill="black"/>
<path d="M414.409 22.9115H430.694V97.6683H414.409V22.9115ZM462.729 85.044C457.982 85.044 456.214 82.7084 456.214 77.6632V55.137H475.386V42.5213H456.214V29.9028L439.928 32.334V79.2512C439.928 92.0567 446.443 98.5985 459.473 98.5985C465.243 98.5985 472.036 96.8222 477.621 93.6433L472.97 82.0563C469.706 83.8327 465.148 85.0497 462.729 85.0497M379.97 41.601C372.805 41.601 365.36 43.5615 356.146 48.5167L361.265 61.2266C369.267 56.7407 375.875 54.7803 380.715 54.7803C386.207 54.7803 388.627 56.8349 388.627 59.5458V59.7313C388.627 61.6004 387.137 62.6291 383.509 63.0044L377.182 63.6578C361.359 65.3386 354.845 72.2557 354.845 81.7866V82.4415C354.845 91.5088 362.288 98.6099 372.805 98.6099C379.725 98.6099 385.745 95.6736 389.401 90.4915L390.58 97.6768H404.912V65.0589C404.912 49.6382 396.072 41.5996 379.97 41.5996M378.574 86.1726C373.266 86.1726 370.758 84.118 370.758 80.9391V80.7536C370.758 77.95 372.337 75.894 378.107 75.055L380.621 74.6798C384.295 74.1661 386.551 73.4884 388.622 72.2257V76.3634C388.622 82.6242 384.716 86.1726 378.574 86.1726ZM322.725 41.601C306.065 41.601 294.339 53.188 294.339 69.1724V71.0415C294.339 87.0215 306.067 98.6142 322.723 98.6142C339.38 98.6142 351.109 87.0258 351.109 71.0429V69.1709C351.105 53.1923 339.381 41.601 322.723 41.601M334.353 70.5735C334.353 78.983 329.98 85.0611 322.72 85.0611C315.461 85.0611 311.086 78.9873 311.086 70.5735V69.6404C311.086 61.2266 315.459 55.1541 322.72 55.1541C329.981 55.1541 334.353 61.2266 334.353 69.6404V70.5735ZM399.175 124.396L393.278 116.583H393.238V124.396H389.389V110.95H393.565L399.339 118.557H399.38V110.95H403.23V124.396H399.175ZM412.361 119.009V121.106H420.551L420.142 124.396H408.306V110.95H420.142V114.198H412.361V116.048H418.504V119.009H412.361ZM428.741 124.396V114.405H423.827V110.95H436.931L437.34 114.403H432.426V124.396H428.741ZM456.996 120.284L459.043 110.95H463.138L459.453 124.396H454.539L452.082 116.254H451.672L449.215 124.396H443.892L440.616 110.95H444.711L447.168 120.284L450.034 110.95H454.129L456.586 120.284H456.996ZM466.003 117.652C466.003 113.269 468.969 110.522 473.658 110.522C478.346 110.522 481.315 113.269 481.315 117.652C481.315 122.035 478.351 124.783 473.658 124.783C468.969 124.783 466.004 122.032 466.004 117.652M477.315 117.652C477.315 115.329 475.975 113.942 473.658 113.942C471.341 113.942 470.001 115.329 470.001 117.652C470.001 119.979 471.339 121.362 473.636 121.362C475.955 121.362 477.315 119.976 477.315 117.652ZM485.66 110.95H493.469C497.027 110.95 498.771 112.64 498.771 115.773C498.771 117.923 497.89 119.387 496.167 120.079L499.344 124.405H494.791L492.323 120.868H489.681V124.405H485.66V110.95ZM492.948 117.713C494.288 117.713 494.767 116.966 494.767 115.945C494.767 114.925 494.288 114.198 492.948 114.198H489.676V117.715L492.948 117.713ZM513.096 117.405L518.418 124.354V124.396H513.915L509.82 119.214H508.182V124.396H504.087V110.95H508.182V115.884H509.82L513.505 110.95H518.419L513.096 117.405ZM521.695 123.492V119.804H521.715C523.955 120.938 526.138 121.493 528.03 121.493C529.467 121.493 530.192 121.148 530.192 120.473C530.192 119.798 529.712 119.627 526.841 119.166C523.705 118.668 521.617 117.722 521.617 115.012C521.617 112.495 523.82 110.555 528.123 110.555C529.848 110.555 531.645 110.92 533.312 111.632V115.285L533.292 115.305C531.703 114.383 529.561 113.804 527.837 113.804C526.305 113.804 525.696 114.169 525.696 114.783C525.696 115.572 526.633 115.646 528.987 116.052C532.125 116.592 534.212 117.475 534.212 120.321C534.212 122.529 532.567 124.742 527.842 124.742C525.507 124.742 523.647 124.261 521.695 123.492Z" fill="black"/>
</g>
<defs>
<clipPath id="clip0_522_7814">
<rect width="534.518" height="146.317" fill="white" transform="translate(0.821777 0.688721)"/>
</clipPath>
</defs>
</svg>
