<svg width="536" height="148" viewBox="0 0 536 148" fill="none" xmlns="http://www.w3.org/2000/svg">
<g clip-path="url(#clip0_522_7737)">
<path fill-rule="evenodd" clip-rule="evenodd" d="M116.109 11.8454C119.35 11.4862 121.582 13.2223 122.788 15.7881C123.374 16.9698 123.62 18.2906 123.501 19.6039C123.382 20.9173 122.901 22.1719 122.113 23.2289C115.065 33.3153 107.938 43.3446 100.731 53.317C96.5917 59.0387 92.5292 64.8117 88.441 70.559C87.5858 71.8077 87.7397 74.6044 88.9114 76.2294C94.6588 84.1662 100.418 92.0888 106.188 99.9971C110.327 105.665 114.467 111.332 118.606 117C120.248 119.24 121.924 121.464 123.455 123.773C126.021 127.699 125.38 133.968 120.787 135.747C117.862 136.902 114.142 135.593 112.046 133.652C109.737 131.496 108.172 128.768 106.29 126.288C102.459 121.225 98.7897 116.025 95.0436 110.893C91.5456 106.104 88.022 101.323 84.5239 96.5333C80.1878 90.5379 75.6292 84.5597 71.37 78.3932C68.9496 74.8867 68.1884 72.4064 70.9338 68.6775C74.9878 63.1097 79.0588 57.5591 83.0785 51.9486C87.7996 45.3887 92.4864 38.769 97.1561 32.2091C101.261 26.5131 105.341 20.7999 109.609 15.2322C111.174 13.171 113.192 11.4006 116.109 11.8454Z" fill="#EE5757"/>
<path fill-rule="evenodd" clip-rule="evenodd" d="M8.54274 43.8324C9.5205 43.7532 10.5032 43.9055 11.4111 44.277C12.319 44.6484 13.1266 45.2286 13.7684 45.9705C16.5309 48.8613 19.5328 51.5297 22.2012 54.5231C27.1618 60.0224 32.567 65.0599 37.7071 70.3711C39.6058 72.3297 39.9736 74.9895 37.6216 76.9224C36.2438 78.1448 34.9333 79.441 33.696 80.8053C27.1618 87.3994 20.7131 94.0704 14.1532 100.63C11.7842 103.016 8.97037 104.393 5.45524 103.256C0.95657 101.811 -0.4204 95.5585 2.88946 92.4625C8.70524 86.9461 14.3329 81.25 20.1486 75.6908C21.4828 74.4165 21.6453 73.5612 20.217 72.2014C16.7321 69.0501 13.4203 65.7125 10.296 62.2034C7.73023 59.1501 4.44603 56.7382 2.11972 53.4369C0.853938 51.6323 0.29802 49.9646 1.42696 47.8093C1.9514 46.7316 2.73863 45.8032 3.71612 45.1097C4.69362 44.4162 5.82993 43.9799 7.02037 43.8409C7.52668 43.7953 8.03594 43.7924 8.54274 43.8324Z" fill="#2693C1"/>
<path fill-rule="evenodd" clip-rule="evenodd" d="M53.5207 91.8552C56.574 95.1651 59.653 98.4749 62.6635 101.845C62.7885 101.946 62.8915 102.072 62.9658 102.214C63.0401 102.357 63.0843 102.513 63.0955 102.674C63.1067 102.834 63.0848 102.995 63.0311 103.147C62.9773 103.299 62.893 103.438 62.7832 103.555C58.6095 109.106 54.5642 114.759 50.4675 120.37C47.9017 123.928 45.3359 127.528 42.6247 131.026C40.5379 133.746 38.1346 136.098 34.3372 136.004C31.1214 135.91 28.4616 132.814 28.1451 129.735C27.7175 125.647 30.3774 122.987 32.4813 120.096C37.3449 113.391 42.2512 106.717 47.2003 100.074C49.2273 97.346 51.3398 94.6861 53.5207 91.8552Z" fill="#8FD3E5"/>
<path fill-rule="evenodd" clip-rule="evenodd" d="M29.7273 19.1922C29.7378 17.7534 30.1705 16.3494 30.9718 15.1544C31.773 13.9593 32.9076 13.0259 34.2346 12.4698C37.1082 11.1784 39.5457 12.1363 41.5984 14.0435C44.6516 16.8744 46.6786 20.5606 49.1418 23.8705C53.495 29.729 57.6944 35.6987 61.9707 41.5915C62.4667 42.2586 62.6292 42.6349 62.0306 43.302C59.2424 46.5349 56.5056 49.8191 53.7431 53.0776C53.2727 53.6336 53.0246 54.0184 52.3233 53.0007C49.0648 48.2197 45.6352 43.5928 42.2655 38.8546C38.5878 33.7231 34.8675 28.5915 31.2326 23.4001C30.3089 22.1172 29.2997 20.7317 29.7273 19.1922Z" fill="#8FD3E5"/>
<path d="M185.513 97.1161L176.561 83.9632L167.398 97.1161C166.421 98.5459 165.291 99.8647 164.029 101.049C163.039 101.853 161.792 102.269 160.518 102.219C159.058 102.268 157.634 101.764 156.529 100.81C156.024 100.403 155.614 99.8905 155.329 99.3083C155.044 98.7261 154.891 98.0884 154.879 97.4403C154.879 96.1434 155.711 94.2966 157.403 91.886L168.596 75.8291L158.728 62.4929C157.27 60.9096 156.365 58.8965 156.148 56.7553C156.147 56.1265 156.285 55.5053 156.55 54.9353C156.816 54.3654 157.203 53.8606 157.685 53.4565C158.795 52.4912 160.232 51.9869 161.702 52.0468C163.011 51.9975 164.292 52.4344 165.297 53.2733C166.537 54.4292 167.643 55.72 168.596 57.1218L176.589 68.0473L184.371 57.1218C185.325 55.6873 186.457 54.3798 187.74 53.231C188.739 52.4238 189.995 52.0034 191.279 52.0468C192.755 52.0019 194.196 52.504 195.325 53.4565C195.827 53.8533 196.232 54.3589 196.511 54.9352C196.789 55.5115 196.933 56.1435 196.932 56.7835C196.926 57.719 196.704 58.6406 196.283 59.4761C195.699 60.5465 195.025 61.5651 194.267 62.5211L184.399 75.8572L195.564 91.8578C197.312 94.353 198.186 96.242 198.186 97.4967C198.183 98.1427 198.034 98.7796 197.75 99.3603C197.467 99.941 197.058 100.451 196.551 100.852C195.431 101.8 194.001 102.302 192.533 102.262C191.226 102.302 189.949 101.866 188.939 101.035C187.634 99.8806 186.483 98.5635 185.513 97.1161Z" fill="#2892BF"/>
<path d="M250.22 93.5921L247.048 85.2746H220.122L216.95 93.733C216.189 96.0957 215.128 98.3509 213.792 100.443C213.269 101.059 212.605 101.54 211.857 101.844C211.108 102.149 210.297 102.268 209.492 102.191C208.662 102.192 207.839 102.028 207.072 101.708C206.305 101.389 205.609 100.921 205.024 100.331C204.417 99.8048 203.93 99.1555 203.594 98.4261C203.259 97.6968 203.083 96.9042 203.078 96.1014C203.085 95.1442 203.237 94.1935 203.529 93.2819C203.839 92.3092 204.333 90.9699 205.024 89.2501L221.94 46.2249L223.689 41.7842C224.269 40.3004 225.007 38.8827 225.888 37.555C226.655 36.3891 227.689 35.4227 228.905 34.7355C230.334 33.9896 231.931 33.6254 233.543 33.6782C235.168 33.6225 236.78 33.9867 238.223 34.7355C239.434 35.4278 240.467 36.3933 241.24 37.555C242.02 38.677 242.673 39.8828 243.185 41.1498C243.721 42.4327 244.383 44.1385 245.201 46.2813L262.513 89.0386C263.59 91.2539 264.276 93.6385 264.543 96.0873C264.527 96.8855 264.349 97.6721 264.019 98.3992C263.69 99.1263 263.216 99.7787 262.626 100.317C262.022 100.933 261.3 101.421 260.503 101.751C259.706 102.081 258.85 102.245 257.987 102.234C257.053 102.263 256.126 102.069 255.281 101.67C254.542 101.303 253.892 100.779 253.378 100.133C252.714 99.2044 252.16 98.2015 251.728 97.1446C251.15 95.7912 250.643 94.6071 250.22 93.5921ZM223.646 75.2655H243.383L233.444 47.8461L223.646 75.2655Z" fill="#2892BF"/>
<path d="M314.574 78.0422V94.4374C314.733 96.5343 314.105 98.615 312.812 100.274C312.225 100.917 311.505 101.425 310.701 101.761C309.898 102.097 309.03 102.253 308.16 102.219C307.305 102.249 306.454 102.089 305.667 101.753C304.88 101.417 304.176 100.912 303.607 100.274C302.331 98.6073 301.714 96.5298 301.873 94.4374V74.7857C301.907 72.3711 301.804 69.9565 301.562 67.5537C301.42 66.005 300.821 64.5332 299.843 63.3245C299.274 62.7379 298.581 62.2855 297.815 62.0002C297.05 61.7149 296.23 61.6038 295.416 61.6751C291.37 61.6751 288.72 63.0849 287.437 65.9044C285.976 69.7083 285.323 73.7747 285.52 77.8448V94.5079C285.667 96.5926 285.045 98.659 283.772 100.316C283.201 100.963 282.494 101.476 281.702 101.817C280.91 102.158 280.052 102.32 279.19 102.29C278.326 102.315 277.468 102.152 276.674 101.811C275.88 101.47 275.17 100.96 274.594 100.316C273.303 98.6667 272.67 96.5971 272.818 94.5079V59.2645C272.681 57.3641 273.253 55.4805 274.425 53.978C274.949 53.378 275.601 52.9031 276.333 52.5884C277.065 52.2737 277.858 52.1271 278.654 52.1594C279.438 52.1404 280.218 52.2819 280.945 52.5753C281.672 52.8686 282.332 53.3076 282.883 53.8652C283.467 54.4879 283.917 55.2226 284.208 56.0247C284.499 56.8268 284.624 57.6796 284.575 58.5314V59.7156C286.449 57.3757 288.792 55.4548 291.455 54.0767C293.99 52.8538 296.774 52.2361 299.589 52.2722C302.367 52.198 305.118 52.8336 307.582 54.1189C309.907 55.4512 311.815 57.4036 313.094 59.7579C314.912 57.4352 317.192 55.515 319.79 54.1189C322.239 52.8752 324.953 52.2462 327.699 52.2863C330.693 52.1714 333.668 52.8062 336.355 54.133C338.729 55.3867 340.644 57.361 341.825 59.772C342.887 61.9994 343.413 65.5096 343.403 70.3027V94.381C343.562 96.4779 342.934 98.5586 341.641 100.217C341.043 100.838 340.326 101.331 339.532 101.668C338.739 102.005 337.886 102.179 337.024 102.179C336.163 102.179 335.309 102.005 334.516 101.668C333.723 101.331 333.006 100.838 332.407 100.217C331.101 98.5758 330.461 96.5017 330.617 94.4092V73.7002C330.647 71.571 330.534 69.4422 330.279 67.3282C330.1 65.8311 329.459 64.4269 328.446 63.3104C327.854 62.7322 327.145 62.2872 326.367 62.0051C325.589 61.7231 324.76 61.6106 323.935 61.6751C322.283 61.675 320.669 62.1657 319.297 63.0849C317.829 64.05 316.65 65.3946 315.885 66.9758C315.011 69.081 314.574 72.7698 314.574 78.0422Z" fill="#2892BF"/>
<path d="M366.82 58.9684V60.4627C368.785 57.8997 371.244 55.7569 374.051 54.1611C376.657 52.7892 379.566 52.0959 382.51 52.1452C386.213 52.1143 389.849 53.1308 392.998 55.0775C396.298 57.1483 398.927 60.1301 400.569 63.6628C402.528 67.8451 403.493 72.424 403.388 77.0412C403.428 80.5923 402.885 84.1259 401.781 87.5014C400.856 90.4339 399.361 93.1549 397.383 95.5087C395.562 97.6259 393.301 99.3195 390.757 100.471C388.183 101.646 385.382 102.243 382.552 102.219C379.454 102.327 376.384 101.591 373.671 100.09C371.032 98.4468 368.715 96.3352 366.834 93.8594V112.383C366.834 117.815 364.86 120.527 360.913 120.517C358.587 120.517 357.05 119.827 356.303 118.417C355.441 116.498 355.054 114.399 355.175 112.299V59.0529C355.028 57.1713 355.574 55.3008 356.712 53.7946C357.243 53.2074 357.898 52.7459 358.629 52.4435C359.361 52.1411 360.15 52.0055 360.941 52.0465C361.732 52.0315 362.517 52.1832 363.246 52.4917C363.975 52.8001 364.63 53.2585 365.17 53.8369C366.353 55.2752 366.943 57.1103 366.82 58.9684ZM390.997 76.9143C391.08 74.0225 390.571 71.1442 389.502 68.4559C388.66 66.3076 387.228 64.4409 385.372 63.0707C383.668 61.8453 381.62 61.1891 379.521 61.1957C377.875 61.1812 376.247 61.5359 374.757 62.2337C373.266 62.9314 371.951 63.9545 370.908 65.2276C368.568 67.9061 367.398 71.8533 367.398 77.0694C367.398 81.9753 368.568 85.7957 370.88 88.5164C371.914 89.8107 373.23 90.8517 374.728 91.5602C376.225 92.2687 377.865 92.6259 379.521 92.6047C381.537 92.5965 383.503 91.9772 385.16 90.8284C387.042 89.4722 388.507 87.6166 389.389 85.4714C390.505 82.7591 391.052 79.8466 390.997 76.9143Z" fill="#2892BF"/>
<path d="M413.27 94.7194V41.1494C413.113 39.1314 413.699 37.1257 414.919 35.5104C415.474 34.8821 416.161 34.3853 416.932 34.0561C417.702 33.7269 418.537 33.5736 419.374 33.6073C420.219 33.5732 421.061 33.7233 421.843 34.047C422.624 34.3708 423.326 34.8605 423.899 35.4822C425.16 37.0794 425.774 39.0923 425.619 41.1212V94.6912C425.772 96.7244 425.147 98.7397 423.871 100.33C423.301 100.948 422.604 101.436 421.827 101.759C421.051 102.083 420.214 102.235 419.374 102.205C418.542 102.231 417.715 102.07 416.953 101.733C416.192 101.396 415.516 100.893 414.975 100.26C413.746 98.6851 413.139 96.713 413.27 94.7194Z" fill="#2892BF"/>
<path d="M444.595 46.3092C442.979 46.3486 441.406 45.7858 440.182 44.7303C439.567 44.1663 439.085 43.4729 438.771 42.7001C438.456 41.9274 438.317 41.0944 438.364 40.2614C438.341 39.4488 438.497 38.6412 438.821 37.8956C439.145 37.1501 439.629 36.4851 440.239 35.9476C441.413 34.8335 442.976 34.2216 444.595 34.2418C446.142 34.2341 447.642 34.779 448.824 35.7784C449.456 36.3334 449.953 37.0262 450.276 37.8034C450.598 38.5807 450.738 39.4216 450.685 40.2614C450.731 41.091 450.593 41.9205 450.281 42.6907C449.969 43.4608 449.491 44.1524 448.88 44.7162C447.699 45.7614 446.172 46.3293 444.595 46.3092ZM450.699 58.9968V94.6632C450.855 96.6991 450.224 98.7172 448.937 100.302C448.37 100.923 447.676 101.414 446.903 101.742C446.129 102.071 445.294 102.229 444.454 102.205C443.622 102.231 442.794 102.07 442.033 101.733C441.272 101.397 440.596 100.893 440.055 100.26C438.833 98.6765 438.232 96.7012 438.364 94.7055V59.462C438.217 57.4776 438.82 55.5103 440.055 53.9499C440.608 53.3368 441.288 52.8524 442.048 52.5309C442.808 52.2094 443.629 52.0585 444.454 52.0891C445.29 52.064 446.122 52.217 446.895 52.5378C447.668 52.8586 448.364 53.3399 448.937 53.9499C450.165 55.3575 450.797 57.1878 450.699 59.0532V58.9968Z" fill="#2892BF"/>
<path d="M462.442 53.1328H465.388V49.4393C465.243 46.3076 465.722 43.1783 466.798 40.2337C467.74 37.9945 469.521 36.2132 471.76 35.2715C474.825 34.1007 478.097 33.5682 481.375 33.7066C488.564 33.7066 492.173 35.4688 492.173 38.9932C492.188 40.0791 491.784 41.1291 491.046 41.9254C490.715 42.3085 490.306 42.6162 489.846 42.8277C489.387 43.0393 488.887 43.1499 488.381 43.1519C487.545 43.1118 486.712 43.0224 485.886 42.884C484.903 42.7159 483.909 42.6216 482.911 42.6021C480.684 42.6021 479.246 43.2647 478.612 44.5757C477.891 46.3644 477.568 48.2887 477.667 50.2147V53.1469H480.698C485.397 53.1469 487.747 54.5567 487.747 57.3761C487.747 59.3921 487.112 60.6749 485.872 61.2106C484.219 61.8265 482.46 62.1046 480.698 62.0283H477.667V94.706C477.824 96.7397 477.199 98.7565 475.919 100.345C475.354 100.972 474.659 101.469 473.882 101.8C473.105 102.131 472.266 102.289 471.422 102.262C470.6 102.279 469.784 102.117 469.032 101.786C468.279 101.454 467.608 100.963 467.066 100.345C465.798 98.7511 465.178 96.737 465.332 94.706V62.0424H461.935C460.423 62.1401 458.925 61.7008 457.705 60.8018C457.223 60.416 456.838 59.9236 456.578 59.3634C456.319 58.8033 456.193 58.1905 456.211 57.5735C456.239 54.5661 458.316 53.0858 462.442 53.1328Z" fill="#2892BF"/>
<path d="M505.65 103.812L506.778 100.993L491.595 62.7608C490.848 61.2581 490.371 59.6357 490.185 57.9677C490.18 56.9352 490.458 55.9209 490.989 55.0355C491.54 54.1338 492.312 53.3868 493.23 52.8645C494.128 52.3369 495.149 52.0549 496.191 52.0468C496.947 51.9974 497.705 52.1259 498.402 52.4221C499.1 52.7184 499.719 53.1741 500.209 53.7526C501.283 55.2177 502.094 56.8588 502.605 58.6021L513.051 88.982L522.919 60.7872C523.519 58.9506 524.23 57.1522 525.048 55.402C525.472 54.3702 526.163 53.4699 527.05 52.794C527.963 52.2793 529.006 52.0394 530.053 52.1032C531.001 52.1076 531.931 52.3656 532.745 52.8504C533.58 53.3274 534.268 54.0248 534.733 54.8663C535.192 55.6795 535.435 56.5969 535.438 57.5307C535.311 58.1087 535.114 58.9405 534.846 59.9696C534.578 60.9987 534.24 62.0983 533.859 63.1838L517.802 105.222C516.74 108.253 515.38 111.172 513.742 113.934C512.461 116.006 510.638 117.688 508.47 118.798C505.701 120.046 502.678 120.626 499.645 120.49C496.883 120.623 494.122 120.226 491.511 119.32C490.652 118.995 489.922 118.4 489.431 117.625C488.94 116.849 488.715 115.935 488.79 115.02C488.759 114.414 488.858 113.808 489.082 113.243C489.306 112.679 489.648 112.169 490.087 111.749C491.167 110.904 492.525 110.491 493.893 110.593C494.55 110.597 495.204 110.687 495.838 110.861C496.507 111.031 497.193 111.125 497.883 111.143C499.031 111.196 500.175 110.979 501.224 110.509C502.137 109.987 502.892 109.227 503.409 108.309C504.268 106.869 505.018 105.366 505.65 103.812Z" fill="#2892BF"/>
</g>
<defs>
<clipPath id="clip0_522_7737">
<rect width="534.518" height="146.317" fill="white" transform="translate(0.821777 0.84729)"/>
</clipPath>
</defs>
</svg>
