<svg width="17" height="22" viewBox="0 0 17 22" fill="none" xmlns="http://www.w3.org/2000/svg">
<path d="M5.09276 21.323H12.2366C14.3759 20.3111 15.9846 18.3903 16.4365 16.1759C17.1078 12.8865 15.8658 10.5033 14.5231 9.0263C13.1805 7.54938 14.8252 3.95788 14.8252 3.95788C13.2477 4.05838 12.1064 6.27409 12.1064 6.27409C9.12771 2.83516 11.0994 0.769115 11.0994 0.769115C4.01703 3.79003 5.72895 11.5102 5.72895 11.5102C3.78213 9.46267 4.55408 6.67664 4.55408 6.67664C0.156825 10.0334 0.694055 14.2963 0.694055 14.2963C0.968759 18.4859 3.08796 20.4264 5.09276 21.323Z" fill="url(#paint0_linear_200_6036)"/>
<path d="M6.47163 21.323H11.771C13.882 19.9763 13.9468 16.9245 12.6239 14.3314C10.8293 10.8138 9.48919 10.5267 9.48919 10.5267C10.1913 13.8041 8.48706 16.0264 8.48706 16.0264C7.6505 15.8638 6.8372 14.2139 6.8372 14.2139C5.32683 15.6545 5.16399 17.444 5.16399 17.444C5.16399 17.444 4.703 20.0412 6.47163 21.323Z" fill="url(#paint1_linear_200_6036)"/>
<defs>
<linearGradient id="paint0_linear_200_6036" x1="8.64887" y1="0.769115" x2="8.64887" y2="21.323" gradientUnits="userSpaceOnUse">
<stop offset="0.756785" stop-color="#F15A29"/>
<stop offset="0.947549" stop-color="white"/>
</linearGradient>
<linearGradient id="paint1_linear_200_6036" x1="9.3091" y1="10.5267" x2="9.3091" y2="21.323" gradientUnits="userSpaceOnUse">
<stop stop-color="#FBB040"/>
<stop offset="1" stop-color="white" stop-opacity="0"/>
</linearGradient>
</defs>
</svg>
