<svg width="158" height="290" viewBox="0 0 158 290" fill="none" xmlns="http://www.w3.org/2000/svg">
<circle cx="-47" cy="249.5" r="95.5" fill="url(#paint0_linear_144_5964)"/>
<path d="M53.4772 63.9364C56.9587 58.8015 73.259 41.7943 83.3307 46.159C95.9204 51.615 86.5529 67.8555 74.8593 61.8008C63.1656 55.7461 76.3486 32.6848 86.9299 27.444C104.584 18.7001 131.312 17.7565 138.162 21.9933" stroke="#FA8F54" stroke-width="0.923477" stroke-dasharray="4.31 4.31"/>
<path d="M146.794 22.0793C146.579 22.1065 146.38 22.2046 146.227 22.3582L144.488 24.0942L143.016 22.831C142.951 22.7755 142.873 22.7382 142.789 22.7228C142.705 22.7075 142.618 22.7147 142.538 22.7437C142.458 22.7728 142.387 22.8226 142.332 22.8881C142.277 22.9536 142.241 23.0324 142.227 23.1165L141.664 26.4333L140.006 27.2548C139.827 27.3436 139.68 27.4847 139.583 27.6595C139.486 27.8342 139.445 28.0342 139.465 28.233C139.484 28.4317 139.564 28.6198 139.693 28.7723C139.822 28.9247 139.994 29.0343 140.187 29.0864L149.192 31.4654C149.364 31.5113 149.545 31.5097 149.716 31.4608C149.887 31.412 150.042 31.3177 150.164 31.188C150.285 31.0583 150.37 30.898 150.408 30.7242C150.446 30.5504 150.436 30.3696 150.379 30.2009L147.853 22.739C147.779 22.5243 147.633 22.3416 147.441 22.2215C147.248 22.1014 147.02 22.0512 146.794 22.0793Z" fill="#3B71FE"/>
<path d="M142.642 22.7187C142.539 22.7317 142.444 22.7773 142.369 22.8488C142.294 22.9203 142.245 23.014 142.227 23.116L141.622 26.67C141.603 26.7808 141.624 26.8947 141.68 26.992C141.736 27.0893 141.825 27.1639 141.93 27.2028L147.315 29.1964C147.423 29.2365 147.541 29.2366 147.65 29.1967C147.758 29.1568 147.848 29.0795 147.904 28.9788C147.96 28.8782 147.978 28.7608 147.955 28.648C147.931 28.5352 147.869 28.4344 147.778 28.3638L143.964 25.4041L143.158 23.0417C143.124 22.9401 143.057 22.853 142.967 22.7941C142.877 22.7352 142.771 22.7079 142.664 22.7165C142.656 22.7169 142.649 22.7179 142.642 22.7187Z" fill="#1A4ED3"/>
<path d="M18.7268 70.9029C20.6897 66.4161 16.1685 60.1972 15.5388 56.9699C-6.75363 51.1134 1.25174 69.2498 6.21085 77.515L12.5869 78.2235L12.8931 74.8099C12.8931 73.855 17.4043 73.9256 18.7268 70.9029Z" fill="#F1B09B"/>
<path fill-rule="evenodd" clip-rule="evenodd" d="M15.5157 56.8613C15.5754 56.8496 15.6334 56.8886 15.645 56.9484C15.7949 57.7167 16.1709 58.6634 16.633 59.73C16.7616 60.0268 16.8968 60.3328 17.0353 60.6461C17.3923 61.4539 17.771 62.3109 18.1146 63.1881C18.1368 63.2448 18.1089 63.3088 18.0522 63.3311C17.9954 63.3533 17.9314 63.3253 17.9092 63.2686C17.5674 62.396 17.1918 61.5459 16.8354 60.7396C16.6965 60.4252 16.5605 60.1175 16.4306 59.8177C15.9693 58.7532 15.5837 57.7857 15.4285 56.9906C15.4169 56.9308 15.4559 56.8729 15.5157 56.8613ZM18.9517 66.1904C19.0113 66.1777 19.0699 66.2157 19.0826 66.2753C19.4285 67.8952 19.4565 69.5051 18.8258 70.9467C18.3603 72.0107 17.5126 72.6981 16.6105 73.1796C15.8724 73.5736 15.0888 73.834 14.4416 74.0492C14.2998 74.0963 14.1646 74.1412 14.0379 74.1849C13.9803 74.2048 13.9175 74.1742 13.8977 74.1166C13.8778 74.059 13.9084 73.9962 13.966 73.9764C14.0966 73.9314 14.2345 73.8855 14.3781 73.8378C15.025 73.6226 15.7868 73.3693 16.5066 72.985C17.3838 72.5168 18.1852 71.8606 18.6237 70.8583C19.2287 69.4754 19.2077 67.9176 18.8669 66.3213C18.8541 66.2617 18.8921 66.2031 18.9517 66.1904Z" fill="#EC8E65"/>
<path d="M12.8922 74.8098L12.586 78.2234L10.5096 77.9927C10.3144 77.9952 10.1028 77.9698 9.87036 77.9216L10.5096 77.9927C11.5448 77.9792 12.1186 77.1791 12.8922 74.8098Z" fill="#EC8E65"/>
<path d="M21.931 108.4C21.931 125.699 15.7585 139.723 8.14435 139.723C0.530177 139.723 -5.64233 125.699 -5.64233 108.4C-5.64233 91.1002 0.530177 77.0762 8.14435 77.0762C28.8795 77.0762 21.931 91.1002 21.931 108.4Z" fill="#F6BC33"/>
<path d="M21.9316 113.142L17.7405 102.884L21.1596 118.767L21.9316 113.142Z" fill="#D89B0E"/>
<path d="M51.9547 66.0844L51.3551 66.982L61.2071 68.3213L58.5742 63.5804L57.8377 67.0375L52.1783 65.99C52.0916 65.974 52.0037 66.0111 51.9547 66.0844Z" fill="#F0E898"/>
<path d="M50.4483 66.7798L49.3839 68.7988L60.7461 68.0841L50.6742 66.6642C50.582 66.6512 50.4917 66.6975 50.4483 66.7798Z" fill="#D5482A"/>
<path d="M43.0412 83.7561L49.5015 68.5673L60.7303 68.0126L53.588 84.7503L44.1692 85.3628C43.311 85.4171 42.5869 84.58 43.0412 83.7561Z" fill="#EC6C47"/>
<path d="M53.5328 84.8305L44.114 85.443C43.2558 85.4972 42.6434 84.6251 42.986 83.8363C43.1092 84.2965 44.3097 84.9492 48.1254 83.8778C52.895 82.5385 52.7723 82.6008 54.644 78.6961C56.1414 75.5724 58.5961 71.9487 59.6362 70.5274L53.5328 84.8305Z" fill="#EC8E67"/>
<path d="M60.7296 68.0133L53.5873 84.751C54.1568 85.1676 54.9657 84.9462 55.2437 84.2977L62.3017 67.8343L60.7296 68.0133Z" fill="#B83013"/>
<path d="M62.302 67.8342L59.0261 63.562C58.8489 63.3309 58.5002 63.3319 58.3244 63.5641L57.5344 64.6068L60.7299 68.0132L62.302 67.8342Z" fill="#D5482A"/>
<path d="M62.302 67.8342L59.0261 63.562C58.8489 63.3309 58.5002 63.3319 58.3244 63.5641L57.5344 64.6068C57.8332 64.4762 58.5276 64.2341 58.5978 64.3419C58.668 64.4497 62.302 67.8342 62.302 67.8342Z" fill="#EC6C47"/>
<path d="M55.2114 91.9203L44.9389 86.7252L32.5412 102.901C30.4552 97.1151 25.3154 84.1508 21.4422 80.4672C16.7257 75.9817 7.0185 77.3726 12.1548 90.7406C13.8128 95.4372 16.254 101.66 18.3723 107.387C24.7484 124.627 38.0907 119.077 41.6329 116.244C48.7173 110.576 55.2114 91.9203 55.2114 91.9203Z" fill="#F6BC33"/>
<path d="M44.939 86.7244C49.8981 90.7391 53.9126 92.9822 55.2114 91.9197C56.5102 90.8571 47.2516 87.325 44.939 86.7244Z" fill="#D89B0E"/>
<path d="M46.827 78.4603C45.5282 79.8772 47.8898 81.3174 47.8898 84.0098C47.8898 84.5743 46.8322 86.7741 46.5909 87.552C48.1439 88.5359 51.4619 90.74 53.7051 90.74C54.2657 90.004 54.9554 89.2419 55.8006 88.4735C60.6706 84.0463 60.4089 80.2544 60.1737 76.8463L60.1694 76.7841C59.9332 73.36 58.8705 74.0684 56.5091 77.7287C54.285 81.176 51.4319 82.3871 50.7234 81.7431C49.4246 80.5623 48.1258 77.0434 46.827 78.4603Z" fill="#F1B09B"/>
<path d="M53.7062 90.7398C51.463 90.7398 48.145 88.5357 46.592 87.5518C46.6915 87.2311 46.9463 86.6072 46.9463 86.6072C46.9463 86.6072 52.85 90.1862 54.1488 90.1862C53.993 90.3721 53.8456 90.5568 53.7062 90.7398Z" fill="#EFF0EA"/>
<path fill-rule="evenodd" clip-rule="evenodd" d="M60.166 76.7292C60.1964 76.7271 60.2227 76.75 60.2248 76.7804C60.2263 76.8022 60.2278 76.824 60.2293 76.8459C60.3744 78.9481 60.5305 81.2095 59.4774 83.6772C59.4655 83.7052 59.4331 83.7183 59.4051 83.7063C59.3771 83.6943 59.364 83.6619 59.376 83.6339C60.4186 81.1908 60.2641 78.9522 60.1188 76.8468L60.1148 76.788C60.1127 76.7576 60.1356 76.7313 60.166 76.7292ZM58.0015 86.0912C58.0258 86.1095 58.0306 86.1441 58.0122 86.1684C57.4347 86.9312 56.7201 87.7127 55.8381 88.5144C54.9953 89.2806 54.3079 90.0402 53.7494 90.7735C53.731 90.7977 53.6964 90.8024 53.6721 90.7839C53.6479 90.7655 53.6432 90.7309 53.6617 90.7067C54.2244 89.9679 54.9163 89.2034 55.764 88.4328C56.6414 87.6351 57.3513 86.8586 57.9242 86.1018C57.9426 86.0776 57.9772 86.0728 58.0015 86.0912Z" fill="#3F487F"/>
<path fill-rule="evenodd" clip-rule="evenodd" d="M45.0063 86.756C45.0545 86.7933 45.0634 86.8625 45.0262 86.9107L32.6282 102.969C32.6036 103.001 32.5636 103.017 32.5238 103.011C32.4841 103.005 32.4508 102.977 32.4372 102.939C31.336 99.8849 29.3833 94.8291 27.216 90.197C27.1902 90.1418 27.214 90.0762 27.2691 90.0503C27.3243 90.0245 27.39 90.0483 27.4158 90.1035C29.5428 94.6495 31.4626 99.6007 32.5764 102.675L44.8516 86.7759C44.8888 86.7277 44.958 86.7188 45.0063 86.756Z" fill="#D89B0E"/>
<path fill-rule="evenodd" clip-rule="evenodd" d="M55.2478 91.8157C55.3054 91.8357 55.3358 91.8986 55.3157 91.9561L55.2116 91.9198L55.1074 91.8836C55.1274 91.826 55.1903 91.7956 55.2478 91.8157ZM55.2116 91.9198C55.1074 91.8836 55.1075 91.8834 55.1074 91.8836L55.1027 91.8969L55.0887 91.9369C55.0762 91.9722 55.0576 92.0248 55.033 92.0936C54.9839 92.2314 54.9107 92.4342 54.8152 92.6945C54.624 93.215 54.3429 93.9652 53.9835 94.8831C53.2645 96.7191 52.2323 99.2259 50.979 101.909C49.7256 104.593 48.2519 107.452 46.6501 109.993C45.0474 112.535 43.3209 114.751 41.5641 116.157C41.5165 116.195 41.5088 116.264 41.5469 116.312C41.5849 116.36 41.6543 116.367 41.7019 116.329C43.4873 114.901 45.2293 112.66 46.8367 110.11C48.4451 107.559 49.9232 104.691 51.1789 102.003C52.4347 99.3139 53.4688 96.8026 54.1889 94.9636C54.5489 94.044 54.8306 93.2924 55.0222 92.7705C55.118 92.5096 55.1914 92.3061 55.2408 92.1678C55.2655 92.0987 55.2842 92.0458 55.2967 92.0102L55.3109 91.9698L55.3156 91.9563C55.3157 91.9562 55.3157 91.9561 55.2116 91.9198Z" fill="#D89B0E"/>
<path d="M5.21646 90.8673C1.20218 92.6384 3.09088 98.6602 -3.63935 100.313C-4.1701 100.444 -4.69981 100.553 -5.22656 100.642L7.81404 77.1691C11.0022 80.5916 9.23073 89.0962 5.21646 90.8673Z" fill="#3E4885"/>
<path d="M7.81356 77.1693C9.60824 71.2191 7.03493 67.2429 5.85407 66.0621C5.85407 66.0621 3.96488 65.4717 3.96488 63.5825C3.96488 60.3709 7.86133 59.568 9.39629 62.2905C9.98678 63.3378 11.3033 63.5742 12.064 63.3562C14.2268 62.7365 15.7959 62.0939 17.0712 61.3391L16.8351 60.7488L11.876 62.52C11.01 61.0637 8.59329 58.411 5.85407 59.45C2.43004 60.7489 -1.08989 71.0376 7.81356 77.1693Z" fill="#EC8E65"/>
<path d="M6.15846 50.9986C16.7944 47.0791 19.7747 54.3699 19.8974 57.8901C17.2434 46.9401 6.34111 50.9317 6.15951 50.9982L6.15846 50.9986Z" fill="#3052A9"/>
<path d="M19.9837 56.6453C19.5177 53.154 13.9565 46.2911 4.43802 50.8704C4.56674 50.8085 16.2646 45.9833 19.9837 56.6453Z" fill="#3052A9"/>
<path d="M7.57799 76.9326C9.37267 70.9824 6.79936 67.0062 5.6185 65.8254C5.6185 65.8254 3.72931 65.235 3.72931 63.3458C3.72931 60.1342 7.62576 59.3313 9.16072 62.0538C9.75121 63.1011 11.0677 63.3375 11.8285 63.1195C27.9345 58.5045 17.6621 49.059 7.38961 50.9471C-3.68979 52.9837 -6.36973 78.4692 -11.9044 78.4692C-15.6828 78.4692 -22.1288 87.0788 -19.6493 93.5729C-17.1697 100.067 -10.6056 101.73 -3.8754 100.077C2.85482 98.4237 0.966129 92.4019 4.9804 90.6308C8.99468 88.8597 10.7662 80.3551 7.57799 76.9326Z" fill="#05185A"/>
<path d="M-11.6141 97.625C-8.24602 98.6559 0.309731 96.4593 0.112148 85.8984C0.11482 86.0412 -0.371997 98.6858 -11.6141 97.625Z" fill="#312E63"/>
<path d="M3.0209 90.2672C9.04268 86.9611 7.66514 79.4831 6.56312 77.3971C8.45231 85.5206 4.83137 89.1258 2.5486 90.031C-1.04085 99.288 -7.2122 100.028 -9.61304 99.1227C-2.43413 101.862 1.21043 94.9508 3.0209 90.2672Z" fill="#312E63"/>
<path d="M2.31419 89.5585C7.79283 85.4967 6.72229 79.837 5.50219 77.5149C7.76921 84.4104 4.24285 88.0628 2.07815 89.2042C-1.88914 97.6111 -7.21046 99.2012 -9.25708 98.7682C-3.94363 99.8922 0.661263 93.4549 2.31419 89.5585Z" fill="#312E63"/>
<path d="M3.95302 286.525L3.81396 261.709L20.0559 262.591C20.0559 268.437 21.3143 276.817 21.3143 276.817L3.95302 286.525Z" fill="#F26AAA"/>
<path d="M3.81396 261.709L20.2765 262.923V266.562L3.81396 267.776V261.709Z" fill="#3F4785"/>
<path d="M19.3645 272.405C11.3736 270.768 14.6319 281.329 3.84774 275.771L3.84776 289.703C3.84776 290.928 4.83231 291.918 6.05696 291.91C13.0178 291.859 34.2757 291.705 38.3696 291.705C55.4305 291.705 32.2975 275.054 19.3645 272.405Z" fill="#355FB3"/>
<path d="M6.05578 291.909C13.0166 291.858 34.2745 291.705 38.3685 291.705C43.0141 291.705 44.6795 290.471 44.3821 288.62C38.3798 285.315 19.3633 288.62 18.1787 287.297C13.5023 280.679 6.67544 281.157 3.84657 282.223L3.84658 289.703C3.84658 290.928 4.83114 291.918 6.05578 291.909Z" fill="white"/>
<path fill-rule="evenodd" clip-rule="evenodd" d="M42.0062 291.331C41.9898 291.273 42.024 291.212 42.0826 291.195C42.9741 290.945 43.5663 290.589 43.9126 290.16C44.2561 289.733 44.3673 289.223 44.2733 288.638C44.2636 288.577 44.3045 288.521 44.3646 288.511C44.4248 288.502 44.4814 288.542 44.491 288.603C44.5933 289.239 44.4732 289.816 44.0844 290.298C43.6985 290.777 43.0578 291.151 42.1422 291.408C42.0836 291.424 42.0227 291.39 42.0062 291.331Z" fill="#260500"/>
<path fill-rule="evenodd" clip-rule="evenodd" d="M20.62 273.187C22.597 271.916 23.676 270.419 24.173 269.186C24.4341 268.539 24.5325 267.97 24.5208 267.547C24.515 267.336 24.4818 267.169 24.4339 267.05C24.3853 266.929 24.3293 266.875 24.2893 266.854C23.9018 266.655 23.4726 266.736 23.0126 267.081C22.5494 267.428 22.0915 268.021 21.699 268.751C20.9741 270.101 20.5122 271.843 20.62 273.187ZM22.7479 266.728C23.2854 266.325 23.8987 266.157 24.4914 266.462C24.6579 266.548 24.7712 266.706 24.8432 266.885C24.916 267.067 24.955 267.288 24.9618 267.535C24.9755 268.03 24.8608 268.66 24.5821 269.351C24.0233 270.737 22.7965 272.391 20.5567 273.746C20.494 273.784 20.4166 273.788 20.3501 273.758C20.2836 273.727 20.2367 273.665 20.2249 273.593C19.979 272.086 20.4957 270.059 21.3104 268.543C21.7187 267.783 22.2135 267.128 22.7479 266.728Z" fill="#3F4785"/>
<path fill-rule="evenodd" clip-rule="evenodd" d="M20.9082 273.66C23.8558 274.678 26.2996 274.478 27.983 273.861C28.8551 273.541 29.5187 273.111 29.9444 272.686C30.3817 272.248 30.5279 271.859 30.4829 271.612C30.3788 271.04 30.0096 270.581 29.4283 270.287C28.8431 269.99 28.0437 269.862 27.1079 269.972C25.2987 270.183 23.015 271.278 20.9082 273.66ZM29.6277 269.893C30.3122 270.24 30.7844 270.805 30.917 271.533C31.0019 272 30.7239 272.53 30.2564 272.998C29.7774 273.477 29.0555 273.938 28.1348 274.275C26.2899 274.951 23.6285 275.139 20.4539 273.966C20.3864 273.941 20.3353 273.885 20.317 273.815C20.2987 273.745 20.3156 273.671 20.3622 273.616C22.584 270.999 25.0561 269.767 27.0567 269.533C28.0558 269.417 28.9469 269.548 29.6277 269.893Z" fill="#3F4785"/>
<path fill-rule="evenodd" clip-rule="evenodd" d="M3.84658 289.593C3.90749 289.593 3.95687 289.643 3.95687 289.704C3.95688 290.868 4.8924 291.808 6.05497 291.799C13.0155 291.748 34.274 291.595 38.3685 291.595C38.4294 291.595 38.4788 291.645 38.4788 291.706C38.4788 291.767 38.4294 291.816 38.3685 291.816C34.275 291.816 13.0178 291.969 6.05659 292.02C4.76986 292.029 3.73629 290.989 3.73629 289.704C3.73629 289.643 3.78567 289.593 3.84658 289.593Z" fill="#260500"/>
<path d="M2.62893 265.9H32.6809C32.8232 265.9 32.9396 265.818 32.9124 265.678C31.3631 257.721 26.705 170.052 19.173 127.264L-2.77545 127.151C-23.0694 142.369 -3.98877 166.749 -1.89323 190.241C-0.472898 206.164 3.07011 247.224 2.62893 265.9Z" fill="#355EBA"/>
<path d="M-2.77546 127.151C-23.0694 142.369 -3.98877 166.749 -1.89323 190.241C-1.65925 192.864 -1.36766 196.17 -1.04577 199.945L25.0975 173.801C23.3783 156.511 21.4015 139.923 19.173 127.264L-2.77546 127.151Z" fill="#48ACFA"/>
<path fill-rule="evenodd" clip-rule="evenodd" d="M27.9788 208.879C28.1002 208.869 28.2067 208.959 28.2166 209.081C29.006 218.769 29.7126 227.942 30.3318 235.982C30.6391 239.97 30.9248 243.68 31.1885 247.035C31.5862 252.094 31.9337 256.347 32.2292 259.536C32.5256 262.734 32.7683 264.842 32.954 265.629C32.982 265.747 32.9086 265.866 32.79 265.894C32.6715 265.922 32.5527 265.849 32.5247 265.73C32.3301 264.906 32.085 262.76 31.79 259.577C31.4941 256.384 31.1463 252.129 30.7487 247.069C30.4849 243.713 30.1991 240.003 29.8918 236.014C29.2726 227.975 28.5662 218.804 27.7769 209.117C27.767 208.995 27.8574 208.889 27.9788 208.879Z" fill="#3F487F"/>
<path d="M2.62964 265.9H8.25461C14.6516 251.892 24.7986 226.194 28.328 209.209C28.2653 208.55 28.0605 206.785 27.9971 206.121L2.62964 265.9Z" fill="#3F4785"/>
<path d="M-0.459942 189.248C-9.9893 214.042 -26.048 232.225 -32.8862 238.218L-11.1584 283.549C-0.202587 272.189 23.1429 239.718 28.8781 200.719C32.2972 170.388 26.893 140.827 19.1724 127.26C19.1724 127.26 1.85622 126.932 1.63564 127.373C-3.43787 154.505 3.06945 160.02 3.40033 163.439C3.73121 166.858 2.73857 181.638 -0.459942 189.248Z" fill="#48ACFA"/>
<path fill-rule="evenodd" clip-rule="evenodd" d="M0.554077 134.445C0.667492 134.49 0.723371 134.618 0.678886 134.731C-1.91455 141.343 -1.19233 147.632 0.187006 152.709C0.845013 155.13 1.65127 157.272 2.31783 159.042C2.3501 159.128 2.38205 159.213 2.41363 159.297C2.75488 160.204 3.05557 161.012 3.27073 161.701C3.48453 162.386 3.62122 162.976 3.62122 163.439C3.62122 165.165 3.4553 169.723 2.88917 174.802C2.32364 179.876 1.35615 185.497 -0.256283 189.333C-0.303486 189.445 -0.432798 189.498 -0.545108 189.451C-0.657419 189.404 -0.710199 189.274 -0.662996 189.162C0.923084 185.388 1.88573 179.822 2.45071 174.753C3.01509 169.69 3.18005 165.148 3.18005 163.439C3.18005 163.047 3.06168 162.512 2.84959 161.833C2.63886 161.158 2.34281 160.361 2.00071 159.452C1.96875 159.367 1.9364 159.281 1.9037 159.194C1.23774 157.426 0.424909 155.267 -0.238732 152.824C-1.63158 147.698 -2.3729 141.304 0.268175 134.57C0.31266 134.457 0.440662 134.401 0.554077 134.445Z" fill="#3F487F"/>
<defs>
<linearGradient id="paint0_linear_144_5964" x1="-9.09161" y1="172.954" x2="-142.5" y2="248.771" gradientUnits="userSpaceOnUse">
<stop stop-color="#FFD166"/>
<stop offset="1" stop-color="#F5B318"/>
</linearGradient>
</defs>
</svg>
