<svg id="efHZYoSbUk71" xmlns="http://www.w3.org/2000/svg" xmlns:xlink="http://www.w3.org/1999/xlink" viewBox="0 0 1001 587" shape-rendering="geometricPrecision" text-rendering="geometricPrecision" project-id="e6cc383cc1194f8eb3c59ad710e7f936" export-id="5a2c746cb4c94749a05bd58e99d9c1cf" cached="false" width="1001" height="587"><defs><linearGradient id="efHZYoSbUk72-stroke" x1="791.159" y1="528.676" x2="502.025" y2="528.676" spreadMethod="pad" gradientUnits="userSpaceOnUse" gradientTransform="translate(0 0)"><stop id="efHZYoSbUk72-stroke-0" offset="0%" stop-color="#1565d8"/><stop id="efHZYoSbUk72-stroke-1" offset="59.7384%" stop-color="#f8fbff"/><stop id="efHZYoSbUk72-stroke-2" offset="100%" stop-color="#fff"/></linearGradient><linearGradient id="efHZYoSbUk73-stroke" x1="843.037" y1="556.776" x2="519.318" y2="556.776" spreadMethod="pad" gradientUnits="userSpaceOnUse" gradientTransform="translate(0 0)"><stop id="efHZYoSbUk73-stroke-0" offset="0%" stop-color="#1565d8"/><stop id="efHZYoSbUk73-stroke-1" offset="59.7384%" stop-color="#f8fbff"/><stop id="efHZYoSbUk73-stroke-2" offset="100%" stop-color="#fff"/></linearGradient><linearGradient id="efHZYoSbUk74-stroke" x1="905.982" y1="586.001" x2="546.294" y2="586.001" spreadMethod="pad" gradientUnits="userSpaceOnUse" gradientTransform="translate(0 0)"><stop id="efHZYoSbUk74-stroke-0" offset="0%" stop-color="#1565d8"/><stop id="efHZYoSbUk74-stroke-1" offset="59.7384%" stop-color="#f8fbff"/><stop id="efHZYoSbUk74-stroke-2" offset="100%" stop-color="#fff"/></linearGradient><linearGradient id="efHZYoSbUk75-stroke" x1="151.26" y1="528.676" x2="440.394" y2="528.676" spreadMethod="pad" gradientUnits="userSpaceOnUse" gradientTransform="translate(0 0)"><stop id="efHZYoSbUk75-stroke-0" offset="0%" stop-color="#1565d8"/><stop id="efHZYoSbUk75-stroke-1" offset="59.7384%" stop-color="#f8fbff"/><stop id="efHZYoSbUk75-stroke-2" offset="100%" stop-color="#fff"/></linearGradient><linearGradient id="efHZYoSbUk76-stroke" x1="99.3818" y1="556.776" x2="423.101" y2="556.776" spreadMethod="pad" gradientUnits="userSpaceOnUse" gradientTransform="translate(0 0)"><stop id="efHZYoSbUk76-stroke-0" offset="0%" stop-color="#1565d8"/><stop id="efHZYoSbUk76-stroke-1" offset="59.7384%" stop-color="#f8fbff"/><stop id="efHZYoSbUk76-stroke-2" offset="100%" stop-color="#fff"/></linearGradient><linearGradient id="efHZYoSbUk77-stroke" x1="36.4363" y1="586.001" x2="396.124" y2="586.001" spreadMethod="pad" gradientUnits="userSpaceOnUse" gradientTransform="translate(0 0)"><stop id="efHZYoSbUk77-stroke-0" offset="0%" stop-color="#1565d8"/><stop id="efHZYoSbUk77-stroke-1" offset="59.7384%" stop-color="#f8fbff"/><stop id="efHZYoSbUk77-stroke-2" offset="100%" stop-color="#fff"/></linearGradient><linearGradient id="efHZYoSbUk734-fill" x1="13.993" y1="16.9355" x2="17.9476" y2="16.9355" spreadMethod="pad" gradientUnits="userSpaceOnUse" gradientTransform="translate(0 0)"><stop id="efHZYoSbUk734-fill-0" offset="0.56%" stop-color="#6176b9"/><stop id="efHZYoSbUk734-fill-1" offset="69.1%" stop-color="#394a9f"/></linearGradient><linearGradient id="efHZYoSbUk735-fill" x1="26.4338" y1="15.1356" x2="30.0359" y2="15.1356" spreadMethod="pad" gradientUnits="userSpaceOnUse" gradientTransform="translate(0 0)"><stop id="efHZYoSbUk735-fill-0" offset="0.56%" stop-color="#6176b9"/><stop id="efHZYoSbUk735-fill-1" offset="69.1%" stop-color="#394a9f"/></linearGradient></defs><path d="M502.025,58.8332c159.684,0,289.134,105.1778,289.134,234.9208c0,129.744-129.45,234.922-289.134,234.922" transform="translate(20.29845 0)" opacity="0.1" fill="none" stroke="url(#efHZYoSbUk72-stroke)" stroke-width="1.38342"/><path d="M519.318,30.7325c178.785,0,323.719,117.7585,323.719,263.0215s-144.934,263.022-323.719,263.022" transform="translate(20.29845 0)" opacity="0.2" fill="none" stroke="url(#efHZYoSbUk73-stroke)" stroke-width="1.38342"/><path d="M546.294,1.50783c198.651,0,359.688,130.84317,359.688,292.24617c0,161.404-161.037,292.247-359.688,292.247" transform="translate(20.29845 0)" opacity="0.4" fill="none" stroke="url(#efHZYoSbUk74-stroke)" stroke-width="1.38342"/><path d="M440.394,58.8332C280.71,58.8332,151.26,164.011,151.26,293.754c0,129.744,129.45,234.922,289.134,234.922" transform="translate(20.29845 0)" opacity="0.1" fill="none" stroke="url(#efHZYoSbUk75-stroke)" stroke-width="1.38342"/><path d="M423.101,30.7325c-178.785,0-323.7192,117.7585-323.7192,263.0215s144.9342,263.022,323.7192,263.022" transform="translate(20.29845 0)" opacity="0.2" fill="none" stroke="url(#efHZYoSbUk76-stroke)" stroke-width="1.38342"/><path d="M396.124,1.50783C197.474,1.50783,36.4363,132.351,36.4363,293.754c0,161.404,161.0377,292.247,359.6877,292.247" transform="translate(20.29845 0)" opacity="0.4" fill="none" stroke="url(#efHZYoSbUk77-stroke)" stroke-width="1.38342"/><rect width="35.9688" height="32.3719" rx="0" ry="0" transform="translate(908.29645 287.46)" fill="none"/><rect width="35.0696" height="32.3719" rx="0" ry="0" transform="translate(771.61445 354.002)" fill="none"/><path d="M58.58,159.139l-1.2865,4.073c0,0-1.1496-.635-2.5184-.635-2.053,0-2.1351,1.358-2.1351,1.704c0,1.849,4.5988,2.572,4.5988,6.934c0,3.438-2.053,5.634-4.8451,5.634-3.3396,0-5.0368-2.196-5.0368-2.196l.9034-3.12c0,0,1.7519,1.589,3.23,1.589.9581,0,1.3687-.809,1.3687-1.387c0-2.427-3.7775-2.542-3.7775-6.529c0-3.351,2.272-6.616,6.8981-6.616c1.7246,0,2.6004.549,2.6004.549Z" transform="translate(20.29845 0)" fill="#fff"/><rect width="35.9688" height="35.9688" rx="0" ry="0" transform="translate(833.66045 197.538)" fill="none"/><g transform="translate(20.29845 0)" clip-path="url(#efHZYoSbUk716)"><g><path d="M315.463,236.717v3.658h-6.021v18.938h-4.532v-18.938h-6.021v-3.658h16.574Zm8.019,7.446c.583-.95,1.338-1.694,2.266-2.234.95-.539,2.029-.809,3.237-.809v4.759h-1.197c-1.425,0-2.504.334-3.238,1.003-.712.669-1.068,1.835-1.068,3.496v8.935h-4.532v-17.934h4.532v2.784Zm25.666-2.784v17.934h-4.564v-2.266c-.583.777-1.349,1.392-2.299,1.845-.928.432-1.942.648-3.043.648-1.402,0-2.643-.292-3.722-.874-1.079-.605-1.932-1.479-2.558-2.623-.604-1.165-.906-2.546-.906-4.143v-10.521h4.532v9.873c0,1.425.356,2.525,1.068,3.302.712.756,1.684,1.133,2.914,1.133c1.251,0,2.233-.377,2.946-1.133.712-.777,1.068-1.877,1.068-3.302v-9.873h4.564Zm11.515,18.225c-1.468,0-2.784-.259-3.95-.777-1.165-.539-2.093-1.262-2.784-2.169-.669-.906-1.036-1.909-1.1-3.01h4.564c.086.691.421,1.262,1.004,1.716.604.453,1.348.679,2.233.679.863,0,1.532-.172,2.007-.518.497-.345.745-.787.745-1.327c0-.582-.302-1.014-.907-1.295-.582-.302-1.521-.626-2.816-.971-1.338-.324-2.439-.658-3.302-1.003-.842-.346-1.575-.874-2.201-1.587-.604-.712-.907-1.672-.907-2.881c0-.992.281-1.899.842-2.719.583-.82,1.403-1.467,2.46-1.942c1.079-.475,2.342-.712,3.788-.712c2.136,0,3.841.539,5.115,1.618c1.273,1.058,1.974,2.493,2.104,4.306h-4.338c-.065-.713-.367-1.274-.906-1.684-.518-.431-1.22-.647-2.105-.647-.82,0-1.456.151-1.91.453-.431.302-.647.723-.647,1.263c0,.604.302,1.068.906,1.392.605.302,1.543.615,2.817.938c1.295.324,2.363.659,3.205,1.004.841.345,1.564.885,2.168,1.618.626.713.95,1.662.972,2.849c0,1.036-.292,1.964-.874,2.784-.562.82-1.382,1.468-2.461,1.943-1.057.453-2.298.679-3.722.679Zm16.233-14.502v8.675c0,.605.141,1.047.421,1.328.302.259.799.388,1.489.388h2.104v3.82h-2.848c-3.82,0-5.73-1.856-5.73-5.568v-8.643h-2.137v-3.723h2.137v-4.435h4.564v4.435h4.014v3.723h-4.014Zm24.126,4.856c0,.647-.044,1.23-.13,1.748h-13.111c.108,1.294.562,2.309,1.36,3.043.799.733,1.781,1.1,2.946,1.1c1.683,0,2.881-.723,3.593-2.169h4.888c-.518,1.727-1.51,3.151-2.978,4.273-1.467,1.101-3.269,1.651-5.406,1.651-1.726,0-3.28-.377-4.662-1.133-1.359-.777-2.427-1.866-3.204-3.269-.756-1.403-1.133-3.022-1.133-4.856c0-1.856.377-3.485,1.133-4.888.755-1.403,1.812-2.482,3.172-3.237c1.36-.756,2.924-1.133,4.694-1.133c1.705,0,3.226.366,4.564,1.1c1.36.734,2.407,1.781,3.141,3.14.755,1.338,1.133,2.881,1.133,4.63Zm-4.694-1.295c-.022-1.166-.443-2.094-1.263-2.784-.82-.713-1.823-1.069-3.01-1.069-1.123,0-2.072.346-2.849,1.036-.756.669-1.22,1.608-1.392,2.817h8.514Zm7.016,1.618c0-1.813.356-3.42,1.068-4.823.734-1.403,1.727-2.482,2.979-3.237c1.251-.756,2.643-1.133,4.175-1.133c1.166,0,2.277.259,3.335.777c1.057.496,1.899,1.165,2.525,2.007v-8.514h4.597v23.955h-4.597v-2.655c-.561.885-1.349,1.598-2.363,2.137-1.015.54-2.191.809-3.529.809-1.511,0-2.892-.388-4.143-1.165-1.252-.777-2.245-1.867-2.979-3.27-.712-1.424-1.068-3.053-1.068-4.888Zm14.114.065c0-1.101-.216-2.039-.647-2.816-.432-.799-1.015-1.403-1.748-1.813-.734-.432-1.522-.648-2.363-.648-.842,0-1.619.205-2.331.615s-1.295,1.015-1.748,1.813c-.432.777-.648,1.705-.648,2.784s.216,2.029.648,2.849c.453.798,1.036,1.414,1.748,1.845.733.432,1.51.648,2.331.648.841,0,1.629-.205,2.363-.615.733-.432,1.316-1.036,1.748-1.813.431-.799.647-1.748.647-2.849Zm21.596-6.345c.583-.863,1.382-1.565,2.396-2.104c1.036-.54,2.212-.809,3.528-.809c1.533,0,2.914.377,4.144,1.133c1.252.755,2.234,1.834,2.946,3.237.734,1.381,1.101,2.989,1.101,4.823c0,1.835-.367,3.464-1.101,4.888-.712,1.403-1.694,2.493-2.946,3.27-1.23.777-2.611,1.165-4.144,1.165-1.338,0-2.514-.259-3.528-.777-.993-.539-1.791-1.23-2.396-2.071v2.557h-4.532v-23.955h4.532v8.643Zm9.485,6.28c0-1.079-.226-2.007-.679-2.784-.432-.798-1.015-1.403-1.749-1.813-.712-.41-1.489-.615-2.33-.615-.82,0-1.597.216-2.331.648-.712.41-1.295,1.014-1.748,1.813-.432.798-.648,1.737-.648,2.816s.216,2.018.648,2.816c.453.799,1.036,1.414,1.748,1.846.734.41,1.511.615,2.331.615.841,0,1.618-.216,2.33-.648.734-.431,1.317-1.047,1.749-1.845.453-.799.679-1.748.679-2.849Zm25.26-8.902l-11.104,26.415h-4.823l3.884-8.934-7.186-17.481h5.082l4.629,12.528l4.694-12.528h4.824Zm24.469-4.662v3.658h-9.421v5.795h7.219v3.593h-7.219v9.55h-4.532v-22.596h13.953Zm11.357,22.887c-1.727,0-3.281-.377-4.662-1.133-1.381-.777-2.471-1.866-3.27-3.269-.777-1.403-1.165-3.022-1.165-4.856s.399-3.453,1.198-4.856c.82-1.403,1.931-2.482,3.334-3.237c1.403-.777,2.967-1.165,4.694-1.165s3.291.388,4.694,1.165c1.403.755,2.503,1.834,3.302,3.237.82,1.403,1.23,3.022,1.23,4.856s-.421,3.453-1.263,4.856c-.82,1.403-1.942,2.492-3.366,3.269-1.403.756-2.978,1.133-4.726,1.133Zm0-3.949c.82,0,1.586-.194,2.298-.583.734-.41,1.316-1.014,1.748-1.813.432-.798.647-1.769.647-2.913c0-1.705-.453-3.011-1.359-3.917-.885-.928-1.975-1.392-3.27-1.392s-2.384.464-3.269,1.392c-.864.906-1.295,2.212-1.295,3.917s.421,3.021,1.262,3.949c.864.907,1.943,1.36,3.238,1.36Zm17.391-11.492c.583-.95,1.338-1.694,2.266-2.234.95-.539,2.029-.809,3.238-.809v4.759h-1.198c-1.425,0-2.504.334-3.237,1.003-.713.669-1.069,1.835-1.069,3.496v8.935h-4.532v-17.934h4.532v2.784Zm33.598-2.784l-5.245,17.934h-4.888l-3.269-12.528-3.27,12.528h-4.92l-5.277-17.934h4.597l3.172,13.661l3.432-13.661h4.791l3.366,13.629l3.173-13.629h4.338Zm1.466,8.902c0-1.813.356-3.42,1.069-4.823.733-1.403,1.715-2.482,2.945-3.237c1.252-.756,2.644-1.133,4.176-1.133c1.338,0,2.504.269,3.497.809c1.014.539,1.823,1.219,2.427,2.039v-2.557h4.565v17.934h-4.565v-2.622c-.582.842-1.392,1.543-2.427,2.104-1.015.54-2.191.809-3.529.809-1.511,0-2.892-.388-4.144-1.165-1.23-.777-2.212-1.867-2.945-3.27-.713-1.424-1.069-3.053-1.069-4.888Zm14.114.065c0-1.101-.215-2.039-.647-2.816-.432-.799-1.014-1.403-1.748-1.813-.734-.432-1.522-.648-2.363-.648-.842,0-1.619.205-2.331.615s-1.295,1.015-1.748,1.813c-.432.777-.648,1.705-.648,2.784s.216,2.029.648,2.849c.453.798,1.036,1.414,1.748,1.845.734.432,1.511.648,2.331.648.841,0,1.629-.205,2.363-.615.734-.432,1.316-1.036,1.748-1.813.432-.799.647-1.748.647-2.849Zm13.703-6.183c.583-.95,1.338-1.694,2.266-2.234.95-.539,2.029-.809,3.237-.809v4.759h-1.197c-1.425,0-2.504.334-3.238,1.003-.712.669-1.068,1.835-1.068,3.496v8.935h-4.532v-17.934h4.532v2.784Zm7.57,6.118c0-1.813.357-3.42,1.069-4.823.733-1.403,1.726-2.482,2.978-3.237c1.252-.756,2.644-1.133,4.176-1.133c1.165,0,2.277.259,3.334.777c1.058.496,1.899,1.165,2.525,2.007v-8.514h4.597v23.955h-4.597v-2.655c-.561.885-1.349,1.598-2.363,2.137-1.014.54-2.19.809-3.528.809-1.511,0-2.892-.388-4.144-1.165s-2.245-1.867-2.978-3.27c-.712-1.424-1.069-3.053-1.069-4.888Zm14.115.065c0-1.101-.216-2.039-.648-2.816-.431-.799-1.014-1.403-1.748-1.813-.734-.432-1.521-.648-2.363-.648s-1.619.205-2.331.615-1.295,1.015-1.748,1.813c-.432.777-.647,1.705-.647,2.784s.215,2.029.647,2.849c.453.798,1.036,1.414,1.748,1.845.734.432,1.511.648,2.331.648.842,0,1.629-.205,2.363-.615.734-.432,1.317-1.036,1.748-1.813.432-.799.648-1.748.648-2.849Zm30.854-4.5v3.82h-13.726v-3.82h13.726ZM357.285,279.717v3.658h-6.021v18.938h-4.532v-18.938h-6.022v-3.658h16.575Zm13.587,4.403c1.359,0,2.568.302,3.625.906c1.058.583,1.878,1.457,2.46,2.623.605,1.143.907,2.525.907,4.143v10.521h-4.532v-9.906c0-1.424-.356-2.514-1.069-3.269-.712-.777-1.683-1.166-2.913-1.166-1.252,0-2.244.389-2.978,1.166-.712.755-1.068,1.845-1.068,3.269v9.906h-4.533v-23.955h4.533v8.255c.582-.777,1.359-1.382,2.33-1.813.971-.453,2.051-.68,3.238-.68Zm13.78-1.878c-.799,0-1.468-.248-2.007-.744-.518-.518-.777-1.155-.777-1.91s.259-1.381.777-1.878c.539-.518,1.208-.777,2.007-.777.798,0,1.457.259,1.975.777.539.497.809,1.123.809,1.878s-.27,1.392-.809,1.91c-.518.496-1.177.744-1.975.744Zm2.234,2.137v17.934h-4.533v-17.934h4.533Zm14.595-.259c2.137,0,3.863.68,5.18,2.039c1.316,1.338,1.974,3.216,1.974,5.633v10.521h-4.532v-9.906c0-1.424-.356-2.514-1.068-3.269-.712-.777-1.683-1.166-2.913-1.166-1.252,0-2.245.389-2.979,1.166-.712.755-1.068,1.845-1.068,3.269v9.906h-4.532v-17.934h4.532v2.234c.604-.777,1.371-1.382,2.299-1.813.949-.453,1.985-.68,3.107-.68Zm22.262,18.193l-6.086-7.64v7.64h-4.532v-23.955h4.532v13.628l6.021-7.607h5.892l-7.899,8.999l7.964,8.935h-5.892Zm10.765-20.071c-.799,0-1.468-.248-2.007-.744-.518-.518-.777-1.155-.777-1.91s.259-1.381.777-1.878c.539-.518,1.208-.777,2.007-.777.798,0,1.457.259,1.975.777.539.497.809,1.123.809,1.878s-.27,1.392-.809,1.91c-.518.496-1.177.744-1.975.744Zm2.234,2.137v17.934h-4.532v-17.934h4.532Zm14.595-.259c2.137,0,3.863.68,5.18,2.039c1.316,1.338,1.975,3.216,1.975,5.633v10.521h-4.532v-9.906c0-1.424-.357-2.514-1.069-3.269-.712-.777-1.683-1.166-2.913-1.166-1.252,0-2.245.389-2.978,1.166-.713.755-1.069,1.845-1.069,3.269v9.906h-4.532v-17.934h4.532v2.234c.605-.777,1.371-1.382,2.299-1.813.949-.453,1.985-.68,3.107-.68Zm18.669-.032c1.338,0,2.514.269,3.528.809c1.015.518,1.813,1.198,2.396,2.039v-2.557h4.564v18.063c0,1.662-.334,3.141-1.003,4.435-.669,1.317-1.673,2.353-3.011,3.108-1.338.777-2.956,1.166-4.856,1.166-2.546,0-4.639-.594-6.28-1.781-1.618-1.187-2.535-2.805-2.751-4.856h4.499c.238.82.745,1.468,1.522,1.943.798.496,1.759.744,2.881.744c1.316,0,2.385-.399,3.205-1.198.82-.777,1.23-1.964,1.23-3.561v-2.784c-.583.842-1.392,1.544-2.428,2.105-1.014.561-2.18.841-3.496.841-1.511,0-2.892-.388-4.144-1.165-1.251-.777-2.244-1.867-2.978-3.27-.712-1.424-1.068-3.053-1.068-4.888c0-1.813.356-3.42,1.068-4.823.734-1.403,1.716-2.482,2.946-3.237c1.252-.756,2.644-1.133,4.176-1.133Zm5.924,9.258c0-1.101-.216-2.039-.647-2.816-.432-.799-1.015-1.403-1.749-1.813-.733-.432-1.521-.648-2.363-.648-.841,0-1.618.205-2.33.615-.713.41-1.295,1.015-1.749,1.813-.431.777-.647,1.705-.647,2.784s.216,2.029.647,2.849c.454.798,1.036,1.414,1.749,1.845.733.432,1.51.648,2.33.648.842,0,1.63-.205,2.363-.615.734-.432,1.317-1.036,1.749-1.813.431-.799.647-1.748.647-2.849Zm32.441-13.629v3.658h-6.021v18.938h-4.533v-18.938h-6.021v-3.658h16.575Zm20.158,13.241c0,.647-.043,1.23-.13,1.748h-13.11c.108,1.294.561,2.309,1.359,3.043.799.733,1.781,1.1,2.946,1.1c1.684,0,2.881-.723,3.593-2.169h4.889c-.518,1.727-1.511,3.151-2.979,4.273-1.467,1.101-3.269,1.651-5.406,1.651-1.726,0-3.28-.377-4.661-1.133-1.36-.777-2.428-1.866-3.205-3.269-.755-1.403-1.133-3.022-1.133-4.856c0-1.856.378-3.485,1.133-4.888s1.813-2.482,3.172-3.237c1.36-.756,2.925-1.133,4.694-1.133c1.705,0,3.227.366,4.565,1.1c1.359.734,2.406,1.781,3.14,3.14.755,1.338,1.133,2.881,1.133,4.63Zm-4.694-1.295c-.022-1.166-.442-2.094-1.263-2.784-.82-.713-1.823-1.069-3.01-1.069-1.122,0-2.072.346-2.849,1.036-.755.669-1.219,1.608-1.392,2.817h8.514Zm7.016,1.618c0-1.813.356-3.42,1.069-4.823.733-1.403,1.715-2.482,2.945-3.237c1.252-.756,2.644-1.133,4.176-1.133c1.338,0,2.504.269,3.497.809c1.014.539,1.823,1.219,2.428,2.039v-2.557h4.564v17.934h-4.564v-2.622c-.583.842-1.392,1.543-2.428,2.104-1.015.54-2.191.809-3.529.809-1.511,0-2.892-.388-4.144-1.165-1.23-.777-2.212-1.867-2.945-3.27-.713-1.424-1.069-3.053-1.069-4.888Zm14.115.065c0-1.101-.216-2.039-.648-2.816-.432-.799-1.014-1.403-1.748-1.813-.734-.432-1.521-.648-2.363-.648s-1.619.205-2.331.615-1.295,1.015-1.748,1.813c-.432.777-.647,1.705-.647,2.784s.215,2.029.647,2.849c.453.798,1.036,1.414,1.748,1.845.734.432,1.511.648,2.331.648.842,0,1.629-.205,2.363-.615.734-.432,1.316-1.036,1.748-1.813.432-.799.648-1.748.648-2.849Zm31.442-9.226c2.201,0,3.971.68,5.309,2.039c1.36,1.338,2.039,3.216,2.039,5.633v10.521h-4.532v-9.906c0-1.403-.356-2.471-1.068-3.205-.712-.755-1.683-1.133-2.913-1.133-1.231,0-2.212.378-2.946,1.133-.712.734-1.068,1.802-1.068,3.205v9.906h-4.533v-9.906c0-1.403-.356-2.471-1.068-3.205-.712-.755-1.683-1.133-2.913-1.133-1.252,0-2.245.378-2.979,1.133-.712.734-1.068,1.802-1.068,3.205v9.906h-4.532v-17.934h4.532v2.169c.583-.755,1.327-1.349,2.234-1.781.928-.431,1.942-.647,3.043-.647c1.403,0,2.654.302,3.755.906c1.101.583,1.953,1.425,2.557,2.525.583-1.036,1.425-1.866,2.525-2.492c1.123-.626,2.331-.939,3.626-.939ZM595.1,302.604c-1.468,0-2.784-.259-3.95-.777-1.165-.539-2.093-1.262-2.784-2.169-.669-.906-1.035-1.909-1.1-3.01h4.564c.087.691.421,1.262,1.004,1.716.604.453,1.349.679,2.233.679.864,0,1.533-.172,2.007-.518.497-.345.745-.787.745-1.327c0-.582-.302-1.014-.906-1.295-.583-.302-1.522-.626-2.817-.971-1.338-.324-2.438-.658-3.302-1.003-.841-.346-1.575-.874-2.201-1.587-.604-.712-.906-1.672-.906-2.881c0-.992.28-1.899.841-2.719.583-.82,1.403-1.467,2.461-1.942c1.079-.475,2.341-.712,3.787-.712c2.137,0,3.842.539,5.115,1.618c1.273,1.058,1.975,2.493,2.104,4.306h-4.338c-.065-.713-.367-1.274-.906-1.684-.518-.431-1.22-.647-2.104-.647-.82,0-1.457.151-1.91.453-.432.302-.648.723-.648,1.263c0,.604.302,1.068.907,1.392.604.302,1.543.615,2.816.938c1.295.324,2.363.659,3.205,1.004.841.345,1.564.885,2.169,1.618.626.713.949,1.662.971,2.849c0,1.036-.291,1.964-.874,2.784-.561.82-1.381,1.468-2.46,1.943-1.058.453-2.299.679-3.723.679Z" fill="#183b56"/><path d="M284.998,342.643c0,.939-.323,1.721-.971,2.347-.636.615-1.613.922-2.93.922h-2.168v4.711h-1.473v-11.282h3.641c1.274,0,2.24.307,2.898.923.669.615,1.003,1.408,1.003,2.379Zm-3.901,2.055c.821,0,1.425-.178,1.813-.534.389-.356.583-.863.583-1.521c0-1.392-.798-2.088-2.396-2.088h-2.168v4.143h2.168Zm9.6,6.07c-.83,0-1.586-.189-2.266-.566-.669-.378-1.197-.912-1.586-1.603-.378-.701-.566-1.51-.566-2.428c0-.906.194-1.705.582-2.395.4-.701.939-1.236,1.619-1.603.68-.377,1.44-.566,2.282-.566s1.603.189,2.282.566c.68.367,1.214.896,1.603,1.587.399.69.599,1.494.599,2.411c0,.918-.205,1.727-.615,2.428-.4.691-.945,1.225-1.635,1.603-.691.377-1.457.566-2.299.566Zm0-1.295c.529,0,1.026-.124,1.49-.372s.836-.62,1.116-1.117c.292-.496.437-1.1.437-1.813c0-.712-.14-1.316-.42-1.812-.281-.497-.648-.864-1.101-1.101-.453-.248-.944-.372-1.473-.372-.54,0-1.036.124-1.489.372-.443.237-.799.604-1.068,1.101-.27.496-.405,1.1-.405,1.812c0,.723.129,1.333.388,1.829.27.497.626.869,1.069,1.117.442.238.928.356,1.456.356Zm7.958-10.828v11.978h-1.473v-11.978h1.473Zm10.15,3.108l-5.341,13.046h-1.522l1.749-4.274-3.578-8.772h1.635l2.784,7.186l2.752-7.186h1.521Zm5.139-.146c.766,0,1.435.167,2.007.502.583.334,1.014.755,1.295,1.262v-1.618h1.489v9.064c0,.809-.173,1.527-.518,2.153-.345.636-.842,1.133-1.489,1.489-.637.356-1.381.534-2.234.534-1.165,0-2.136-.275-2.913-.826-.777-.55-1.236-1.3-1.376-2.25h1.457c.162.54.496.972,1.003,1.295.507.335,1.117.502,1.829.502.81,0,1.468-.254,1.975-.761.518-.507.777-1.219.777-2.136v-1.862c-.291.518-.723.95-1.295,1.295-.572.346-1.241.518-2.007.518-.788,0-1.505-.194-2.153-.582-.636-.389-1.138-.934-1.505-1.635-.367-.702-.55-1.5-.55-2.396c0-.906.183-1.699.55-2.379.367-.691.869-1.225,1.505-1.603.648-.377,1.365-.566,2.153-.566Zm3.302,4.564c0-.669-.135-1.251-.405-1.748-.269-.496-.636-.874-1.1-1.133-.454-.269-.955-.404-1.506-.404-.55,0-1.052.129-1.505.388s-.815.637-1.084,1.133c-.27.497-.405,1.079-.405,1.748c0,.68.135,1.274.405,1.781.269.496.631.879,1.084,1.149.453.259.955.388,1.505.388.551,0,1.052-.129,1.506-.388.464-.27.831-.653,1.1-1.149.27-.507.405-1.096.405-1.765Zm7.847,4.597c-.831,0-1.587-.189-2.266-.566-.669-.378-1.198-.912-1.587-1.603-.377-.701-.566-1.51-.566-2.428c0-.906.194-1.705.583-2.395.399-.701.938-1.236,1.618-1.603.68-.377,1.441-.566,2.282-.566.842,0,1.603.189,2.283.566.679.367,1.214.896,1.602,1.587.399.69.599,1.494.599,2.411c0,.918-.205,1.727-.615,2.428-.399.691-.944,1.225-1.635,1.603-.691.377-1.457.566-2.298.566Zm0-1.295c.528,0,1.025-.124,1.489-.372s.836-.62,1.117-1.117c.291-.496.437-1.1.437-1.813c0-.712-.141-1.316-.421-1.812-.281-.497-.648-.864-1.101-1.101-.453-.248-.944-.372-1.473-.372-.539,0-1.036.124-1.489.372-.442.237-.798.604-1.068,1.101-.27.496-.405,1.1-.405,1.812c0,.723.13,1.333.389,1.829.269.497.625.869,1.068,1.117.442.238.928.356,1.457.356Zm10.806-7.882c1.079,0,1.953.329,2.622.987.669.648,1.004,1.586,1.004,2.816v5.229h-1.457v-5.018c0-.885-.221-1.559-.664-2.023-.442-.475-1.046-.713-1.812-.713-.777,0-1.398.243-1.862.729-.453.485-.68,1.192-.68,2.12v4.905h-1.473v-8.87h1.473v1.262c.292-.453.686-.804,1.182-1.052.507-.248,1.063-.372,1.667-.372Zm9.797,4.564c0-.906.183-1.699.55-2.379.367-.691.869-1.225,1.505-1.603.648-.377,1.365-.566,2.153-.566.777,0,1.451.167,2.023.502.572.334.998.755,1.279,1.262v-1.618h1.489v8.87h-1.489v-1.651c-.291.518-.728.949-1.311,1.294-.572.335-1.241.502-2.007.502-.788,0-1.5-.194-2.137-.582-.636-.389-1.138-.934-1.505-1.635-.367-.702-.55-1.5-.55-2.396Zm7.51.016c0-.669-.135-1.251-.405-1.748-.269-.496-.636-.874-1.1-1.133-.454-.269-.955-.404-1.506-.404-.55,0-1.052.129-1.505.388s-.815.637-1.084,1.133c-.27.497-.405,1.079-.405,1.748c0,.68.135,1.274.405,1.781.269.496.631.879,1.084,1.149.453.259.955.388,1.505.388.551,0,1.052-.129,1.506-.388.464-.27.831-.653,1.1-1.149.27-.507.405-1.096.405-1.765Zm5.451-2.767c.302-.529.745-.961,1.327-1.295.583-.335,1.247-.502,1.991-.502.799,0,1.516.189,2.153.566.637.378,1.138.912,1.505,1.603.367.68.551,1.473.551,2.379c0,.896-.184,1.694-.551,2.396-.367.701-.874,1.246-1.521,1.635-.637.388-1.349.582-2.137.582-.766,0-1.44-.167-2.023-.502-.572-.334-1.004-.76-1.295-1.278v1.635h-1.473v-11.978h1.473v4.759Zm6.021,2.751c0-.669-.135-1.251-.404-1.748-.27-.496-.637-.874-1.101-1.133-.453-.259-.955-.388-1.505-.388-.54,0-1.042.135-1.506.404-.453.259-.82.642-1.1,1.15-.27.496-.405,1.073-.405,1.731c0,.669.135,1.258.405,1.765.28.496.647.879,1.1,1.149.464.259.966.388,1.506.388.55,0,1.052-.129,1.505-.388.464-.27.831-.653,1.101-1.149.269-.507.404-1.101.404-1.781Zm6.584,4.613c-.679,0-1.289-.113-1.829-.34-.539-.237-.965-.561-1.278-.971-.313-.421-.486-.901-.518-1.44h1.521c.043.442.248.804.615,1.084.378.281.869.421,1.473.421.561,0,1.004-.124,1.327-.372.324-.249.486-.561.486-.939c0-.389-.173-.675-.518-.858-.345-.194-.879-.383-1.602-.567-.659-.172-1.198-.345-1.619-.517-.41-.184-.766-.448-1.068-.794-.292-.356-.437-.82-.437-1.392c0-.453.135-.868.404-1.246.27-.378.653-.674,1.15-.89.496-.227,1.063-.34,1.699-.34.982,0,1.775.248,2.38.745.604.496.928,1.176.971,2.039h-1.473c-.033-.464-.221-.836-.567-1.117-.334-.28-.787-.421-1.359-.421-.529,0-.95.114-1.263.34-.313.227-.469.524-.469.89c0,.292.091.535.275.729.194.183.432.334.712.453.291.108.691.232,1.198.372.636.173,1.154.346,1.554.518.399.162.739.41,1.019.745.292.334.443.771.454,1.311c0,.485-.135.922-.405,1.311-.27.388-.653.696-1.149.923-.486.215-1.047.323-1.684.323Zm9.185,0c-.831,0-1.586-.189-2.266-.566-.669-.378-1.197-.912-1.586-1.603-.378-.701-.566-1.51-.566-2.428c0-.906.194-1.705.582-2.395.4-.701.939-1.236,1.619-1.603.68-.377,1.44-.566,2.282-.566s1.602.189,2.282.566c.68.367,1.214.896,1.603,1.587.399.69.599,1.494.599,2.411c0,.918-.205,1.727-.615,2.428-.4.691-.945,1.225-1.635,1.603-.691.377-1.457.566-2.299.566Zm0-1.295c.529,0,1.025-.124,1.489-.372s.837-.62,1.117-1.117c.292-.496.437-1.1.437-1.813c0-.712-.14-1.316-.421-1.812-.28-.497-.647-.864-1.1-1.101-.453-.248-.944-.372-1.473-.372-.54,0-1.036.124-1.489.372-.443.237-.799.604-1.068,1.101-.27.496-.405,1.1-.405,1.812c0,.723.129,1.333.388,1.829.27.497.626.869,1.069,1.117.442.238.928.356,1.456.356Zm7.958-10.828v11.978h-1.473v-11.978h1.473Zm10.377,3.108v8.87h-1.473v-1.312c-.281.454-.674.81-1.182,1.069-.496.248-1.046.372-1.651.372-.69,0-1.311-.14-1.861-.421-.55-.291-.987-.723-1.311-1.295-.313-.572-.469-1.268-.469-2.088v-5.195h1.456v5.001c0,.874.221,1.549.664,2.023.442.464,1.047.696,1.813.696.787,0,1.408-.242,1.861-.728s.68-1.192.68-2.12v-4.872h1.473Zm4.283,1.214v5.228c0,.431.092.739.276.922.183.173.501.259.955.259h1.084v1.247h-1.327c-.82,0-1.435-.189-1.845-.567s-.615-.998-.615-1.861v-5.228h-1.15v-1.214h1.15v-2.234h1.472v2.234h2.315v1.214h-2.315Zm12.193,2.881c0,.28-.017.577-.049.89h-7.089c.054.874.35,1.559.89,2.056.55.485,1.214.728,1.991.728.636,0,1.165-.146,1.586-.437.432-.302.734-.701.906-1.198h1.587c-.238.853-.713,1.549-1.425,2.088-.712.529-1.597.793-2.654.793-.842,0-1.597-.189-2.266-.566-.659-.378-1.176-.912-1.554-1.603-.378-.701-.567-1.51-.567-2.428c0-.917.184-1.721.551-2.411.367-.691.879-1.22,1.537-1.587.669-.377,1.435-.566,2.299-.566.841,0,1.586.183,2.233.55.648.367,1.144.874,1.49,1.522.356.636.534,1.359.534,2.169Zm-1.522-.308c0-.561-.124-1.041-.372-1.44-.248-.41-.588-.718-1.02-.923-.421-.216-.89-.324-1.408-.324-.745,0-1.381.238-1.91.712-.518.475-.815,1.133-.89,1.975h5.6Zm4.939-6.895v11.978h-1.473v-11.978h1.473Zm10.15,3.108l-5.341,13.046h-1.522l1.748-4.274-3.577-8.772h1.635l2.784,7.186l2.751-7.186h1.522Zm17.611,0l-2.767,8.87h-1.522l-2.136-7.041-2.137,7.041h-1.521l-2.784-8.87h1.505l2.039,7.445l2.202-7.445h1.505l2.153,7.461l2.007-7.461h1.456Zm5.331,9.015c-.831,0-1.586-.189-2.266-.566-.669-.378-1.198-.912-1.587-1.603-.377-.701-.566-1.51-.566-2.428c0-.906.194-1.705.583-2.395.399-.701.938-1.236,1.618-1.603.68-.377,1.441-.566,2.282-.566.842,0,1.603.189,2.283.566.68.367,1.214.896,1.602,1.587.399.69.599,1.494.599,2.411c0,.918-.205,1.727-.615,2.428-.399.691-.944,1.225-1.635,1.603-.69.377-1.457.566-2.298.566Zm0-1.295c.528,0,1.025-.124,1.489-.372s.836-.62,1.117-1.117c.291-.496.437-1.1.437-1.813c0-.712-.141-1.316-.421-1.812-.281-.497-.648-.864-1.101-1.101-.453-.248-.944-.372-1.473-.372-.539,0-1.036.124-1.489.372-.442.237-.798.604-1.068,1.101-.27.496-.405,1.1-.405,1.812c0,.723.13,1.333.389,1.829.269.497.626.869,1.068,1.117.442.238.928.356,1.457.356Zm7.958-6.28c.259-.507.625-.901,1.1-1.181.486-.281,1.074-.421,1.764-.421v1.521h-.388c-1.651,0-2.476.896-2.476,2.687v4.824h-1.473v-8.87h1.473v1.44Zm9.518,7.43l-3.48-3.917v3.917h-1.473v-11.978h1.473v7.041l3.415-3.933h2.056l-4.176,4.418l4.192,4.452h-2.007Zm6.517.145c-.68,0-1.29-.113-1.829-.34-.54-.237-.966-.561-1.279-.971-.313-.421-.485-.901-.518-1.44h1.522c.043.442.248.804.615,1.084.377.281.868.421,1.473.421.561,0,1.003-.124,1.327-.372.324-.249.486-.561.486-.939c0-.389-.173-.675-.518-.858-.346-.194-.88-.383-1.603-.567-.658-.172-1.198-.345-1.618-.517-.41-.184-.767-.448-1.069-.794-.291-.356-.437-.82-.437-1.392c0-.453.135-.868.405-1.246s.653-.674,1.149-.89c.497-.227,1.063-.34,1.7-.34.982,0,1.775.248,2.379.745.604.496.928,1.176.971,2.039h-1.473c-.032-.464-.221-.836-.566-1.117-.335-.28-.788-.421-1.36-.421-.529,0-.949.114-1.262.34-.313.227-.47.524-.47.89c0,.292.092.535.275.729.195.183.432.334.713.453.291.108.69.232,1.197.372.637.173,1.155.346,1.554.518.399.162.739.41,1.02.745.291.334.442.771.453,1.311c0,.485-.135.922-.405,1.311-.269.388-.652.696-1.149.923-.485.215-1.046.323-1.683.323Zm13.29-9.161c.766,0,1.435.167,2.007.502.582.334,1.014.755,1.295,1.262v-1.618h1.489v9.064c0,.809-.173,1.527-.518,2.153-.346.636-.842,1.133-1.489,1.489-.637.356-1.382.534-2.234.534-1.165,0-2.137-.275-2.914-.826-.776-.55-1.235-1.3-1.375-2.25h1.456c.162.54.497.972,1.004,1.295.507.335,1.117.502,1.829.502.809,0,1.467-.254,1.975-.761.518-.507.777-1.219.777-2.136v-1.862c-.292.518-.723.95-1.295,1.295-.572.346-1.241.518-2.007.518-.788,0-1.506-.194-2.153-.582-.637-.389-1.139-.934-1.505-1.635-.367-.702-.551-1.5-.551-2.396c0-.906.184-1.699.551-2.379.366-.691.868-1.225,1.505-1.603.647-.377,1.365-.566,2.153-.566Zm3.302,4.564c0-.669-.135-1.251-.405-1.748-.27-.496-.637-.874-1.101-1.133-.453-.269-.955-.404-1.505-.404s-1.052.129-1.505.388c-.454.259-.815.637-1.085,1.133-.27.497-.404,1.079-.404,1.748c0,.68.134,1.274.404,1.781.27.496.631.879,1.085,1.149.453.259.955.388,1.505.388s1.052-.129,1.505-.388c.464-.27.831-.653,1.101-1.149.27-.507.405-1.096.405-1.765Zm5.451-2.978c.259-.507.626-.901,1.1-1.181.486-.281,1.074-.421,1.765-.421v1.521h-.389c-1.651,0-2.476.896-2.476,2.687v4.824h-1.473v-8.87h1.473v1.44Zm12.658,2.655c0,.28-.016.577-.049.89h-7.089c.054.874.351,1.559.89,2.056.55.485,1.214.728,1.991.728.637,0,1.165-.146,1.586-.437.432-.302.734-.701.907-1.198h1.586c-.238.853-.712,1.549-1.425,2.088-.712.529-1.597.793-2.654.793-.842,0-1.597-.189-2.266-.566-.658-.378-1.176-.912-1.554-1.603-.378-.701-.566-1.51-.566-2.428c0-.917.183-1.721.55-2.411.367-.691.879-1.22,1.538-1.587.669-.377,1.435-.566,2.298-.566.842,0,1.586.183,2.234.55.647.367,1.143.874,1.489,1.522.356.636.534,1.359.534,2.169Zm-1.522-.308c0-.561-.124-1.041-.372-1.44-.248-.41-.588-.718-1.02-.923-.42-.216-.89-.324-1.408-.324-.744,0-1.381.238-1.91.712-.518.475-.814,1.133-.89,1.975h5.6Zm2.916.615c0-.906.183-1.699.55-2.379.367-.691.869-1.225,1.505-1.603.648-.377,1.365-.566,2.153-.566.777,0,1.451.167,2.023.502.572.334.998.755,1.279,1.262v-1.618h1.489v8.87h-1.489v-1.651c-.291.518-.728.949-1.311,1.294-.572.335-1.241.502-2.007.502-.788,0-1.5-.194-2.137-.582-.636-.389-1.138-.934-1.505-1.635-.367-.702-.55-1.5-.55-2.396Zm7.51.016c0-.669-.135-1.251-.405-1.748-.269-.496-.636-.874-1.1-1.133-.453-.269-.955-.404-1.506-.404-.55,0-1.052.129-1.505.388s-.815.637-1.084,1.133c-.27.497-.405,1.079-.405,1.748c0,.68.135,1.274.405,1.781.269.496.631.879,1.084,1.149.453.259.955.388,1.505.388.551,0,1.053-.129,1.506-.388.464-.27.831-.653,1.1-1.149.27-.507.405-1.096.405-1.765Zm5.775-3.204v5.228c0,.431.092.739.275.922.183.173.502.259.955.259h1.084v1.247h-1.327c-.82,0-1.435-.189-1.845-.567s-.615-.998-.615-1.861v-5.228h-1.149v-1.214h1.149v-2.234h1.473v2.234h2.314v1.214h-2.314Zm20.23-1.214l-2.768,8.87h-1.521l-2.137-7.041-2.136,7.041h-1.522l-2.784-8.87h1.506l2.039,7.445l2.201-7.445h1.506l2.152,7.461l2.007-7.461h1.457Zm2.223-1.441c-.281,0-.518-.097-.713-.291-.194-.194-.291-.432-.291-.712c0-.281.097-.518.291-.713.195-.194.432-.291.713-.291.269,0,.496.097.679.291.195.195.292.432.292.713c0,.28-.097.518-.292.712-.183.194-.41.291-.679.291Zm.712,1.441v8.87h-1.473v-8.87h1.473Zm4.307,1.214v5.228c0,.431.091.739.275.922.183.173.502.259.955.259h1.084v1.247h-1.327c-.82,0-1.435-.189-1.845-.567s-.615-.998-.615-1.861v-5.228h-1.149v-1.214h1.149v-2.234h1.473v2.234h2.314v1.214h-2.314Zm8.502-1.376c.669,0,1.273.145,1.812.437.54.28.961.707,1.263,1.279.313.571.469,1.267.469,2.087v5.229h-1.456v-5.018c0-.885-.222-1.559-.664-2.023-.442-.475-1.047-.713-1.813-.713-.777,0-1.397.243-1.861.729-.453.485-.68,1.192-.68,2.12v4.905h-1.473v-11.978h1.473v4.37c.291-.453.691-.804,1.198-1.052.518-.248,1.095-.372,1.732-.372Zm12.062,1.376v5.228c0,.431.092.739.275.922.184.173.502.259.955.259h1.085v1.247h-1.328c-.82,0-1.435-.189-1.845-.567s-.615-.998-.615-1.861v-5.228h-1.149v-1.214h1.149v-2.234h1.473v2.234h2.315v1.214h-2.315Zm7.968,7.801c-.831,0-1.586-.189-2.266-.566-.669-.378-1.198-.912-1.586-1.603-.378-.701-.567-1.51-.567-2.428c0-.906.194-1.705.583-2.395.399-.701.939-1.236,1.618-1.603.68-.377,1.441-.566,2.283-.566.841,0,1.602.189,2.282.566.68.367,1.214.896,1.602,1.587.399.69.599,1.494.599,2.411c0,.918-.205,1.727-.615,2.428-.399.691-.944,1.225-1.635,1.603-.69.377-1.457.566-2.298.566Zm0-1.295c.529,0,1.025-.124,1.489-.372s.836-.62,1.117-1.117c.291-.496.437-1.1.437-1.813c0-.712-.14-1.316-.421-1.812-.281-.497-.647-.864-1.101-1.101-.453-.248-.944-.372-1.473-.372-.539,0-1.036.124-1.489.372-.442.237-.798.604-1.068,1.101-.27.496-.405,1.1-.405,1.812c0,.723.13,1.333.389,1.829.27.497.626.869,1.068,1.117.442.238.928.356,1.457.356Zm10.353,1.295c-.831,0-1.586-.189-2.266-.566-.669-.378-1.198-.912-1.586-1.603-.378-.701-.567-1.51-.567-2.428c0-.906.195-1.705.583-2.395.399-.701.939-1.236,1.619-1.603.679-.377,1.44-.566,2.282-.566s1.602.189,2.282.566c.68.367,1.214.896,1.603,1.587.399.69.598,1.494.598,2.411c0,.918-.205,1.727-.615,2.428-.399.691-.944,1.225-1.634,1.603-.691.377-1.457.566-2.299.566Zm0-1.295c.529,0,1.025-.124,1.489-.372s.837-.62,1.117-1.117c.291-.496.437-1.1.437-1.813c0-.712-.14-1.316-.421-1.812-.28-.497-.647-.864-1.1-1.101-.454-.248-.945-.372-1.473-.372-.54,0-1.036.124-1.489.372-.443.237-.799.604-1.069,1.101-.269.496-.404,1.1-.404,1.812c0,.723.129,1.333.388,1.829.27.497.626.869,1.068,1.117.443.238.928.356,1.457.356Zm7.958-10.828v11.978h-1.473v-11.978h1.473Zm5.65,12.123c-.679,0-1.289-.113-1.829-.34-.539-.237-.965-.561-1.278-.971-.313-.421-.486-.901-.518-1.44h1.521c.043.442.248.804.615,1.084.378.281.869.421,1.473.421.561,0,1.004-.124,1.327-.372.324-.249.486-.561.486-.939c0-.389-.173-.675-.518-.858-.345-.194-.879-.383-1.602-.567-.659-.172-1.198-.345-1.619-.517-.41-.184-.766-.448-1.068-.794-.292-.356-.437-.82-.437-1.392c0-.453.135-.868.404-1.246.27-.378.653-.674,1.15-.89.496-.227,1.062-.34,1.699-.34.982,0,1.775.248,2.379.745.605.496.928,1.176.972,2.039h-1.473c-.033-.464-.222-.836-.567-1.117-.334-.28-.788-.421-1.359-.421-.529,0-.95.114-1.263.34-.313.227-.469.524-.469.89c0,.292.091.535.275.729.194.183.431.334.712.453.291.108.691.232,1.198.372.636.173,1.154.346,1.554.518.399.162.739.41,1.019.745.292.334.443.771.454,1.311c0,.485-.135.922-.405,1.311-.27.388-.653.696-1.149.923-.486.215-1.047.323-1.684.323Zm10.393-10.456c-.281,0-.518-.097-.712-.291-.195-.194-.292-.432-.292-.712c0-.281.097-.518.292-.713.194-.194.431-.291.712-.291.27,0,.496.097.68.291.194.195.291.432.291.713c0,.28-.097.518-.291.712-.184.194-.41.291-.68.291Zm.712,1.441v8.87h-1.473v-8.87h1.473Zm6.832-.162c1.079,0,1.953.329,2.622.987.669.648,1.004,1.586,1.004,2.816v5.229h-1.457v-5.018c0-.885-.221-1.559-.664-2.023-.442-.475-1.046-.713-1.813-.713-.777,0-1.397.243-1.861.729-.453.485-.68,1.192-.68,2.12v4.905h-1.473v-8.87h1.473v1.262c.292-.453.685-.804,1.182-1.052.507-.248,1.063-.372,1.667-.372Zm17.987.162l-5.342,13.046h-1.521l1.748-4.274-3.577-8.772h1.635l2.784,7.186l2.751-7.186h1.522Zm5.349,9.015c-.831,0-1.587-.189-2.266-.566-.669-.378-1.198-.912-1.587-1.603-.377-.701-.566-1.51-.566-2.428c0-.906.194-1.705.583-2.395.399-.701.938-1.236,1.618-1.603.68-.377,1.441-.566,2.282-.566.842,0,1.603.189,2.283.566.679.367,1.214.896,1.602,1.587.399.69.599,1.494.599,2.411c0,.918-.205,1.727-.615,2.428-.399.691-.944,1.225-1.635,1.603-.691.377-1.457.566-2.298.566Zm0-1.295c.528,0,1.025-.124,1.489-.372s.836-.62,1.117-1.117c.291-.496.437-1.1.437-1.813c0-.712-.141-1.316-.421-1.812-.281-.497-.648-.864-1.101-1.101-.453-.248-.944-.372-1.473-.372-.539,0-1.036.124-1.489.372-.442.237-.798.604-1.068,1.101-.27.496-.405,1.1-.405,1.812c0,.723.13,1.333.389,1.829.269.497.625.869,1.068,1.117.442.238.928.356,1.457.356Zm14.351-7.72v8.87h-1.473v-1.312c-.281.454-.674.81-1.182,1.069-.496.248-1.046.372-1.651.372-.69,0-1.311-.14-1.861-.421-.55-.291-.987-.723-1.311-1.295-.313-.572-.469-1.268-.469-2.088v-5.195h1.456v5.001c0,.874.222,1.549.664,2.023.442.464,1.047.696,1.813.696.788,0,1.408-.242,1.861-.728s.68-1.192.68-2.12v-4.872h1.473Zm3.96,1.44c.259-.507.626-.901,1.1-1.181.486-.281,1.074-.421,1.765-.421v1.521h-.389c-1.651,0-2.476.896-2.476,2.687v4.824h-1.473v-8.87h1.473v1.44Zm-280.59,36.575c-.831,0-1.587-.189-2.266-.566-.669-.378-1.198-.912-1.587-1.603-.377-.701-.566-1.51-.566-2.428c0-.906.194-1.705.583-2.395.399-.701.938-1.236,1.618-1.603.68-.377,1.441-.566,2.282-.566.842,0,1.603.189,2.283.566.679.367,1.214.896,1.602,1.587.399.69.599,1.494.599,2.411c0,.918-.205,1.727-.615,2.428-.399.691-.944,1.225-1.635,1.603-.691.377-1.457.566-2.298.566Zm0-1.295c.528,0,1.025-.124,1.489-.372s.836-.62,1.117-1.117c.291-.496.437-1.1.437-1.813c0-.712-.141-1.316-.421-1.812-.281-.497-.648-.864-1.101-1.101-.453-.248-.944-.372-1.473-.372-.539,0-1.036.124-1.489.372-.442.237-.798.604-1.068,1.101-.27.496-.405,1.1-.405,1.812c0,.723.13,1.333.389,1.829.269.497.625.869,1.068,1.117.442.238.928.356,1.457.356Zm8.281-6.506v5.228c0,.431.092.739.275.922.184.173.502.259.955.259h1.085v1.247h-1.327c-.821,0-1.436-.189-1.846-.567s-.615-.998-.615-1.861v-5.228h-1.149v-1.214h1.149v-2.234h1.473v2.234h2.315v1.214h-2.315Zm8.502-1.376c.669,0,1.273.145,1.813.437.539.28.96.707,1.262,1.279.313.571.47,1.267.47,2.087v5.229h-1.457v-5.018c0-.885-.221-1.559-.664-2.023-.442-.475-1.046-.713-1.812-.713-.777,0-1.398.243-1.862.729-.453.485-.68,1.192-.68,2.12v4.905h-1.473v-11.978h1.473v4.37c.292-.453.691-.804,1.198-1.052.518-.248,1.095-.372,1.732-.372Zm14.044,4.257c0,.28-.016.577-.049.89h-7.089c.054.874.35,1.559.89,2.056.55.485,1.214.728,1.991.728.636,0,1.165-.146,1.586-.437.432-.302.734-.701.906-1.198h1.587c-.238.853-.713,1.549-1.425,2.088-.712.529-1.597.793-2.654.793-.842,0-1.597-.189-2.266-.566-.658-.378-1.176-.912-1.554-1.603-.378-.701-.567-1.51-.567-2.428c0-.917.184-1.721.551-2.411.367-.691.879-1.22,1.537-1.587.669-.377,1.436-.566,2.299-.566.841,0,1.586.183,2.233.55.648.367,1.144.874,1.49,1.522.356.636.534,1.359.534,2.169Zm-1.522-.308c0-.561-.124-1.041-.372-1.44-.248-.41-.588-.718-1.02-.923-.421-.216-.89-.324-1.408-.324-.744,0-1.381.238-1.91.712-.518.475-.815,1.133-.89,1.975h5.6Zm4.939-2.347c.259-.507.626-.901,1.1-1.181.486-.281,1.074-.421,1.765-.421v1.521h-.389c-1.651,0-2.476.896-2.476,2.687v4.824h-1.473v-8.87h1.473v1.44Zm16.973,2.655c0,.28-.016.577-.048.89h-7.09c.054.874.351,1.559.89,2.056.551.485,1.214.728,1.991.728.637,0,1.166-.146,1.587-.437.431-.302.733-.701.906-1.198h1.586c-.237.853-.712,1.549-1.424,2.088-.712.529-1.597.793-2.655.793-.841,0-1.597-.189-2.266-.566-.658-.378-1.176-.912-1.554-1.603-.377-.701-.566-1.51-.566-2.428c0-.917.183-1.721.55-2.411.367-.691.88-1.22,1.538-1.587.669-.377,1.435-.566,2.298-.566.842,0,1.587.183,2.234.55s1.144.874,1.489,1.522c.356.636.534,1.359.534,2.169Zm-1.521-.308c0-.561-.124-1.041-.373-1.44-.248-.41-.588-.718-1.019-.923-.421-.216-.89-.324-1.408-.324-.745,0-1.382.238-1.91.712-.518.475-.815,1.133-.891,1.975h5.601Zm8.095,5.083l-2.105-3.302-2.023,3.302h-1.537l2.864-4.403-2.864-4.467h1.667l2.104,3.285l2.007-3.285h1.538l-2.849,4.386l2.865,4.484h-1.667Zm3.876-10.311c-.28,0-.518-.097-.712-.291s-.291-.432-.291-.712c0-.281.097-.518.291-.713.194-.194.432-.291.712-.291.27,0,.497.097.68.291.194.195.292.432.292.713c0,.28-.098.518-.292.712-.183.194-.41.291-.68.291Zm.713,1.441v8.87h-1.473v-8.87h1.473Zm5.65,9.015c-.68,0-1.289-.113-1.829-.34-.54-.237-.966-.561-1.279-.971-.313-.421-.485-.901-.518-1.44h1.522c.043.442.248.804.615,1.084.378.281.869.421,1.473.421.561,0,1.003-.124,1.327-.372.324-.249.486-.561.486-.939c0-.389-.173-.675-.518-.858-.346-.194-.88-.383-1.603-.567-.658-.172-1.197-.345-1.618-.517-.41-.184-.766-.448-1.069-.794-.291-.356-.437-.82-.437-1.392c0-.453.135-.868.405-1.246s.653-.674,1.149-.89c.497-.227,1.063-.34,1.7-.34.982,0,1.775.248,2.379.745.604.496.928,1.176.971,2.039h-1.473c-.032-.464-.221-.836-.566-1.117-.335-.28-.788-.421-1.36-.421-.529,0-.949.114-1.262.34-.313.227-.47.524-.47.89c0,.292.092.535.275.729.195.183.432.334.713.453.291.108.69.232,1.197.372.637.173,1.155.346,1.554.518.4.162.739.41,1.02.745.291.334.442.771.453,1.311c0,.485-.135.922-.404,1.311-.27.388-.653.696-1.15.923-.485.215-1.046.323-1.683.323Zm7.113-7.801v5.228c0,.431.092.739.275.922.184.173.502.259.955.259h1.085v1.247h-1.328c-.82,0-1.435-.189-1.845-.567s-.615-.998-.615-1.861v-5.228h-1.149v-1.214h1.149v-2.234h1.473v2.234h2.315v1.214h-2.315Zm4.86-2.655c-.28,0-.518-.097-.712-.291s-.291-.432-.291-.712c0-.281.097-.518.291-.713.194-.194.432-.291.712-.291.27,0,.496.097.68.291.194.195.291.432.291.713c0,.28-.097.518-.291.712-.184.194-.41.291-.68.291Zm.712,1.441v8.87h-1.473v-8.87h1.473Zm6.832-.162c1.079,0,1.953.329,2.622.987.669.648,1.004,1.586,1.004,2.816v5.229h-1.457v-5.018c0-.885-.221-1.559-.663-2.023-.443-.475-1.047-.713-1.813-.713-.777,0-1.398.243-1.862.729-.453.485-.679,1.192-.679,2.12v4.905h-1.473v-8.87h1.473v1.262c.291-.453.685-.804,1.181-1.052.507-.248,1.063-.372,1.667-.372Zm9.69.016c.766,0,1.435.167,2.007.502.583.334,1.014.755,1.295,1.262v-1.618h1.489v9.064c0,.809-.173,1.527-.518,2.153-.345.636-.842,1.133-1.489,1.489-.637.356-1.381.534-2.234.534-1.165,0-2.136-.275-2.913-.826-.777-.55-1.236-1.3-1.376-2.25h1.457c.162.54.496.972,1.003,1.295.507.335,1.117.502,1.829.502.81,0,1.468-.254,1.975-.761.518-.507.777-1.219.777-2.136v-1.862c-.291.518-.723.95-1.295,1.295-.572.346-1.241.518-2.007.518-.788,0-1.505-.194-2.153-.582-.636-.389-1.138-.934-1.505-1.635-.367-.702-.55-1.5-.55-2.396c0-.906.183-1.699.55-2.379.367-.691.869-1.225,1.505-1.603.648-.377,1.365-.566,2.153-.566Zm3.302,4.564c0-.669-.135-1.251-.405-1.748-.27-.496-.636-.874-1.1-1.133-.454-.269-.955-.404-1.506-.404-.55,0-1.052.129-1.505.388s-.815.637-1.084,1.133c-.27.497-.405,1.079-.405,1.748c0,.68.135,1.274.405,1.781.269.496.631.879,1.084,1.149.453.259.955.388,1.505.388.551,0,1.052-.129,1.506-.388.464-.27.83-.653,1.1-1.149.27-.507.405-1.096.405-1.765Zm9.766-2.784c.292-.507.723-.928,1.295-1.262.583-.345,1.257-.518,2.023-.518.788,0,1.5.189,2.137.566.647.378,1.155.912,1.521,1.603.367.68.551,1.473.551,2.379c0,.896-.184,1.694-.551,2.396-.366.701-.874,1.246-1.521,1.635-.637.388-1.349.582-2.137.582-.755,0-1.424-.167-2.007-.502-.572-.345-1.009-.771-1.311-1.278v5.843h-1.473v-13.078h1.473v1.634Zm6.021,2.768c0-.669-.134-1.251-.404-1.748-.27-.496-.637-.874-1.101-1.133-.453-.259-.955-.388-1.505-.388-.54,0-1.041.135-1.505.404-.454.259-.821.642-1.101,1.15-.27.496-.405,1.073-.405,1.731c0,.669.135,1.258.405,1.765.28.496.647.879,1.101,1.149.464.259.965.388,1.505.388.55,0,1.052-.129,1.505-.388.464-.27.831-.653,1.101-1.149.27-.507.404-1.101.404-1.781Zm4.917-7.51v11.978h-1.473v-11.978h1.473Zm1.96,7.51c0-.906.184-1.699.551-2.379.367-.691.868-1.225,1.505-1.603.647-.377,1.365-.566,2.153-.566.777,0,1.451.167,2.023.502.572.334.998.755,1.279,1.262v-1.618h1.489v8.87h-1.489v-1.651c-.292.518-.729.949-1.311,1.294-.572.335-1.241.502-2.007.502-.788,0-1.5-.194-2.137-.582-.637-.389-1.138-.934-1.505-1.635-.367-.702-.551-1.5-.551-2.396Zm7.511.016c0-.669-.135-1.251-.405-1.748-.27-.496-.637-.874-1.101-1.133-.453-.269-.955-.404-1.505-.404s-1.052.129-1.505.388-.815.637-1.085,1.133c-.269.497-.404,1.079-.404,1.748c0,.68.135,1.274.404,1.781.27.496.632.879,1.085,1.149.453.259.955.388,1.505.388s1.052-.129,1.505-.388c.464-.27.831-.653,1.101-1.149.27-.507.405-1.096.405-1.765Zm5.775-3.204v5.228c0,.431.091.739.275.922.183.173.502.259.955.259h1.084v1.247h-1.327c-.82,0-1.435-.189-1.845-.567s-.615-.998-.615-1.861v-5.228h-1.15v-1.214h1.15v-2.234h1.473v2.234h2.314v1.214h-2.314Zm7.708,0h-1.861v7.656h-1.473v-7.656h-1.149v-1.214h1.149v-.632c0-.992.254-1.715.761-2.169.518-.464,1.343-.696,2.476-.696v1.231c-.647,0-1.106.129-1.376.388-.259.248-.388.664-.388,1.246v.632h1.861v1.214Zm5.586,7.801c-.831,0-1.586-.189-2.266-.566-.669-.378-1.198-.912-1.586-1.603-.378-.701-.567-1.51-.567-2.428c0-.906.195-1.705.583-2.395.399-.701.939-1.236,1.619-1.603.679-.377,1.44-.566,2.282-.566.841,0,1.602.189,2.282.566.68.367,1.214.896,1.602,1.587.4.69.599,1.494.599,2.411c0,.918-.205,1.727-.615,2.428-.399.691-.944,1.225-1.635,1.603-.69.377-1.456.566-2.298.566Zm0-1.295c.529,0,1.025-.124,1.489-.372s.836-.62,1.117-1.117c.291-.496.437-1.1.437-1.813c0-.712-.14-1.316-.421-1.812-.28-.497-.647-.864-1.1-1.101-.454-.248-.945-.372-1.473-.372-.54,0-1.036.124-1.49.372-.442.237-.798.604-1.068,1.101-.27.496-.404,1.1-.404,1.812c0,.723.129,1.333.388,1.829.27.497.626.869,1.068,1.117.443.238.928.356,1.457.356Zm7.958-6.28c.259-.507.626-.901,1.1-1.181.486-.281,1.074-.421,1.765-.421v1.521h-.389c-1.651,0-2.476.896-2.476,2.687v4.824h-1.473v-8.87h1.473v1.44Zm15.232-1.602c.69,0,1.305.145,1.845.437.539.28.966.707,1.279,1.279.312.571.469,1.267.469,2.087v5.229h-1.457v-5.018c0-.885-.221-1.559-.663-2.023-.432-.475-1.02-.713-1.765-.713-.766,0-1.376.249-1.829.745-.453.486-.68,1.192-.68,2.12v4.889h-1.456v-5.018c0-.885-.221-1.559-.664-2.023-.432-.475-1.02-.713-1.764-.713-.766,0-1.376.249-1.829.745-.453.486-.68,1.192-.68,2.12v4.889h-1.473v-8.87h1.473v1.278c.291-.464.68-.82,1.165-1.068.497-.248,1.042-.372,1.635-.372.745,0,1.403.167,1.975.502.572.334.998.825,1.279,1.472.248-.625.658-1.111,1.23-1.456.572-.346,1.208-.518,1.91-.518Zm6.478,9.129c-.28,0-.518-.097-.712-.292-.194-.194-.291-.431-.291-.712c0-.28.097-.518.291-.712s.432-.291.712-.291c.27,0,.497.097.68.291.194.194.292.432.292.712c0,.281-.098.518-.292.712-.183.195-.41.292-.68.292Z" fill="#5a7184"/></g><clipPath id="efHZYoSbUk716"><rect width="427.13" height="193.332" rx="0" ry="0" transform="translate(258.544 194.84)" fill="#fff"/></clipPath></g><g id="efHZYoSbUk718" transform="matrix(.707057 0 0 0.707057 348.558774 54.564824)" opacity="0"><path d="M24,48c13.2548,0,24-10.7452,24-24s-10.7452-24-24-24-24,10.7452-24,24s10.7452,24,24,24Z" fill="#2bde73"/><path d="M21.3976,20.179l4.4015-6.3769C26.6312,12.6007,27.7054,12,29.0225,12c1.0744,0,2.0039.3811,2.79,1.1436.7853.7624,1.178,1.6751,1.178,2.7379c0,.7856-.2075,1.4789-.6236,2.0796l-3.9685,5.7704l4.8522,6.1517c.4853.6123.7278,1.3287.7278,2.1488c0,1.0862-.3809,2.0186-1.1436,2.7984C32.0723,35.6105,31.1476,36,30.0622,36c-1.1901,0-2.0967-.3866-2.7208-1.1609l-5.9438-7.4166v4.0898c0,1.167-.202,2.0735-.6065,2.7205C20.0518,35.4109,18.9774,36,17.5682,36c-1.2824,0-2.2763-.4332-2.9806-1.2995-.6586-.7972-.9876-1.8545-.9876-3.1708v-15.163c0-1.2477.3345-2.2755,1.0049-3.0843C15.3095,12.4277,16.2798,12,17.5159,12c1.1785,0,2.1603.4277,2.946,1.2824.4389.4734.7161.9529.8316,1.4382.0694.3006.1041.8605.1041,1.6808v3.7776" fill="#fff"/></g><g id="efHZYoSbUk721" transform="matrix(.979591 0 0 0.979591 281.53985 505.165816)" opacity="0"><path d="M0,24C0,10.7452,10.7452,0,24,0s24,10.7452,24,24-10.7452,24-24,24-24-10.7452-24-24Z" fill="#1769ff"/><path d="M30.989,19.7588c1.0188,0,1.9353.1812,2.751.542.8171.3593,1.4898.9291,2.0195,1.707.4832.686.7941,1.4824.9356,2.3867.0827.5287.1151,1.2949.1015,2.291h-8.5234c.0512,1.1568.4549,1.9689,1.2256,2.4336.4664.2894,1.0275.4355,1.6865.4356.6938,0,1.2613-.1774,1.6963-.5293.2393-.1915.4503-.4555.6309-.794h3.123c-.0828.683-.4617,1.3793-1.1328,2.086C34.4551,31.4385,32.9873,32,31.1013,32c-1.5578,0-2.9316-.4726-4.1191-1.4199-1.1936-.9459-1.7871-2.4869-1.7871-4.6192c0-2,.5373-3.5339,1.6103-4.6015c1.0762-1.0647,2.4692-1.6006,4.1836-1.6006ZM18.8445,16c1.9296.0282,3.2953.5821,4.1006,1.6631.4831.6637.7256,1.4568.7256,2.3818c0,.9518-.2424,1.7197-.7315,2.2989-.2739.3237-.6767.6204-1.208.8876.8067.2911,1.4152.75,1.8291,1.378.4094.6266.6162,1.3902.6162,2.2871c0,.9249-.2351,1.7548-.706,2.4883-.2981.4855-.6716.8959-1.1202,1.2285-.5042.3816-1.0992.6416-1.7871.7842-.6876.1409-1.4309.2089-2.2343.2089h-7.1289L11.2,16h7.6445Zm-4.4912,8.7354v4.163h3.8408c.6864,0,1.2227-.0927,1.6035-.2754.6938-.3415,1.04-.989,1.04-1.9482c0-.8135-.3341-1.3704-1.0068-1.6748-.3763-.1693-.9047-.2587-1.582-.2646h-3.8955ZM30.99,22.249c-.7827,0-1.3942.2197-1.8262.6592-.4317.4395-.7041,1.035-.8154,1.7861h5.2724c-.0556-.8018-.3297-1.4079-.8144-1.8252-.4906-.4141-1.0941-.6201-1.8164-.6201ZM14.3533,18.71v3.4433h3.8476c.6847,0,1.2435-.1293,1.6739-.3877.4271-.2584.6425-.716.6425-1.3691-.0001-.7289-.2837-1.2088-.8496-1.4434-.4905-.1617-1.1134-.2431-1.8701-.2431h-3.4443Zm19.9843-.0401h-6.7793v-1.9424h6.7793v1.9424Z" fill="#fff"/></g><g id="efHZYoSbUk724" transform="matrix(1.052797 0 0 1.052797 601.548126 495.626578)" opacity="0"><path d="M24.1531,47.592c13.0382,0,23.6077-10.5696,23.6077-23.6077c0-13.0382-10.5695-23.607713-23.6077-23.607713s-23.60769,10.569513-23.60769,23.607713c0,13.0381,10.56949,23.6077,23.60769,23.6077Z" fill="#de5833"/><g mask="url(#efHZYoSbUk736)"><g><path d="M33.8275,59.1498c-.8313-3.8239-5.6594-12.4796-7.4908-16.1396-1.83-3.6609-3.6637-8.82-2.8288-12.1486.1514-.6055-1.5858-5.2191-1.0864-5.5454c3.8843-2.5334,4.907.2765,6.4624-.8594.8003-.5875,1.8877.4833,2.1642-.4892.996-3.4925-1.3874-9.5815-4.0482-12.2428-.87-.8672-2.202-1.4123-3.7061-1.7017-.5788-.79057-1.5116-1.55072-2.833-2.2518-1.4713-.78323-4.6712-1.81754-6.3309-2.09307-1.1501-.18924-1.41.13246-1.9011.21276.4579.04062,2.6303,1.11416,3.0531,1.17647-.4228.28569-1.6648-.01293-2.4572.34246-.3992.18092-.6979.86631-.6951,1.19077c2.2662-.22893,5.8034-.00739,7.8923.92307-1.6624.18923-4.1908.40016-5.2781.97154-3.1607,1.6652-4.5568,5.5546-3.7247,10.2152.8327,4.65,4.4945,21.6231,5.6594,27.2903c1.1654,5.6603-2.496,9.318-4.8254,10.3173l2.496.1675-.8312,1.8309c2.9926.3319,6.3208-.6641,6.3208-.6641-.6637,1.83-5.1582,2.4978-5.1582,2.4978s2.1651.6637,5.6576-.6678c3.4975-1.3306,5.6598-2.1637,5.6598-2.1637l1.6634,4.326l3.1634-3.1602l1.3315,3.3282c.0065-.0005,2.5034-.8345,1.6713-4.6629Z" fill="#d5d7d8"/><path d="M34.8327,58.374c-.8285-3.8257-5.6566-12.4814-7.4898-16.1442-1.8324-3.6628-3.6623-8.8209-2.8293-12.1482.1546-.6041.1574-3.0775.6596-3.4056c3.882-2.5357,3.6055-.085,5.1632-1.2208.8031-.5866,1.446-1.2951,1.7252-2.2671.9988-3.4948-1.3874-9.5815-4.049-12.2441-.8673-.8673-2.2007-1.41327-3.703-1.70127-.5778-.79293-1.5097-1.55123-2.8292-2.25323-2.4882-1.32093-5.5726-1.84893-8.4305-1.33062.457.04154,1.5028.98677,1.9237,1.04908-.6374.432-2.3321.37615-2.3211,1.33661c2.269-.22708,4.7553.13154,6.8465,1.06016-1.6625.18923-3.21.6-4.2974,1.17367-3.1634,1.6629-3.9951,4.9902-3.1634,9.6526.834,4.6602,4.4963,21.6337,5.6567,27.289c1.1663,5.6584-2.4933,9.3175-4.8227,10.3172l2.496.1657-.8312,1.8337c2.9926.3327,6.3208-.6642,6.3208-.6642-.6637,1.8342-5.1582,2.4951-5.1582,2.4951s2.1628.6641,5.6576-.6669c3.4989-1.3306,5.6626-2.1637,5.6626-2.1637l1.6634,4.326L31.8461,59.7l1.3343,3.33c-.0074.0032,2.4868-.8294,1.6523-4.656Z" fill="#fff"/><path d="M15.7019,20.1651c0-.966.7814-1.7479,1.7488-1.7479.9646,0,1.7469.7819,1.7469,1.7479c0,.9664-.7823,1.7474-1.7469,1.7474-.9674.0004-1.7488-.781-1.7488-1.7474Z" fill="#2d4f8e"/><path d="M17.7725,19.5826c0-.2515.2035-.4537.4523-.4537.2506,0,.4541.2022.4541.4537c0,.2506-.2035.4542-.4541.4542-.2483.0004-.4523-.2036-.4523-.4542Z" fill="#fff"/><path d="M27.6309,19.1284c0-.8275.6743-1.5,1.5009-1.5.8312,0,1.5028.6725,1.5028,1.5c0,.8312-.6716,1.5037-1.5028,1.5037-.8266,0-1.5009-.6725-1.5009-1.5037Z" fill="#2d4f8e"/><path d="M29.4114,18.6291c0-.2137.1749-.3891.3867-.3891.2211,0,.3905.1754.3905.3891c0,.2164-.1694.3886-.3905.3886-.2118,0-.3867-.1722-.3867-.3886Z" fill="#fff"/><path d="M17.9472,15.1005c0,0-1.3172-.5958-2.598.2091-1.2784.804-1.2313,1.626-1.2313,1.626s-.6799-1.5152,1.1321-2.2578c1.8139-.7426,2.6972.4227,2.6972.4227Z" fill="url(#efHZYoSbUk734-fill)"/><path d="M30.0359,14.9805c0,0-.9466-.5409-1.6814-.5316-1.5097.0198-1.9209.6867-1.9209.6867s.2534-1.59,2.184-1.2711c1.0468.174,1.4183,1.116,1.4183,1.116Z" fill="url(#efHZYoSbUk735-fill)"/></g><mask id="efHZYoSbUk736" mask-type="luminance" x="-150%" y="-150%" height="400%" width="400%"><path d="M47.854,23.9188c0,13.0689-10.6315,23.7018-23.7018,23.7018-13.0675,0-23.699075-10.6334-23.699075-23.7018c0-13.0676,10.631975-23.699562,23.699075-23.699562C37.222,0.219238,47.854,10.8512,47.854,23.9188Z" transform="translate(.000001 0)" clip-rule="evenodd" fill="#fff" fill-rule="evenodd"/></mask></g><path d="M22.7998,26.9054c.1749-1.0574,2.9072-3.0577,4.842-3.1786c1.9389-.1223,2.5431-.0946,4.1585-.4814c1.62-.3867,5.7853-1.4252,6.9383-1.9578c1.1557-.5336,6.048.264,2.5989,2.1867-1.4917.835-5.5122,2.3682-8.3871,3.2248-2.8703.8589-4.6108-.8197-5.5661.5912-.7597,1.1225-.1542,2.6594,3.2764,2.9784c4.6325.4292,9.0739-2.0867,9.5626-.75.4911,1.3361-3.9807,3.0036-6.7038,3.0567-2.7199.0513-8.202-1.7981-9.0254-2.3709-.8243-.5714-1.9223-1.9062-1.6943-3.2991Z" fill="#fdd20a"/><path d="M24.8965,40.8886c0,0-6.5086-3.4712-6.6147-2.0631-.1099,1.4105,0,7.158.7583,7.5928.7597.4329,6.1828-2.8191,6.1828-2.8191l-.3264-2.7106Z" fill="#65bc46"/><path d="M27.3902,40.6699c0,0,4.447-3.3624,5.425-3.1454.9743.221,1.1916,7.1584.3235,7.4903-.8682.3184-5.9575-1.7599-5.9575-1.7599l.209-2.585Z" fill="#65bc46"/><path d="M23.3209,41.2565c0,2.2763-.3272,3.2534.6508,3.4703.9734.2183,2.8172,0,3.4698-.4329.6508-.4329.1071-3.3595-.1071-3.9069-.2201-.5419-4.0135-.1071-4.0135.8695Z" fill="#43a244"/><path d="M23.735,40.7501c0,2.2768-.3263,3.2539.6503,3.4703.972.2211,2.8172,0,3.4703-.4329.6508-.4343.1066-3.3595-.1089-3.9074-.2183-.5414-4.0117-.1048-4.0117.87Z" fill="#65bc46"/></g><g id="efHZYoSbUk743" transform="translate(616.281007 15.049508)" opacity="0"><path d="M0,24C0,10.7452,10.7452,0,24,0s24,10.7452,24,24-10.7452,24-24,24-24-10.7452-24-24Z" fill="#333"/><path d="M19.1999,38.4c2.651,0,4.8-2.149,4.8-4.8v-4.8h-4.8c-2.651,0-4.8,2.1491-4.8,4.8s2.149,4.8,4.8,4.8Z" fill="#0acf83"/><path d="M14.3999,24c0-2.651,2.149-4.8,4.8-4.8h4.8v9.6h-4.8c-2.651,0-4.8-2.1491-4.8-4.8Z" fill="#a259ff"/><path d="M14.3999,14.4c0-2.651,2.149-4.80002,4.8-4.80002h4.8v9.60002h-4.8c-2.651,0-4.8-2.1491-4.8-4.8Z" fill="#f24e1e"/><path d="M24,9.59998h4.8c2.651,0,4.8,2.14902,4.8,4.80002c0,2.6509-2.149,4.8-4.8,4.8h-4.8v-9.60002Z" fill="#ff7262"/><path d="M33.6,24c0,2.6509-2.149,4.8-4.8,4.8s-4.8-2.1491-4.8-4.8s2.149-4.8,4.8-4.8s4.8,2.149,4.8,4.8Z" fill="#1abcfe"/></g>
<script><![CDATA[
!function(t,e){"object"==typeof exports&&"undefined"!=typeof module?module.exports=e():"function"==typeof __SVGATOR_DEFINE__&&__SVGATOR_DEFINE__.amd?__SVGATOR_DEFINE__(e):((t="undefined"!=typeof globalThis?globalThis:t||self).__SVGATOR_PLAYER__=t.__SVGATOR_PLAYER__||{},t.__SVGATOR_PLAYER__["91c80d77"]=e())}(this,(function(){"use strict";const t=n(Math.pow(10,-6)),e=n(Math.pow(10,-2));function n(t,e=6){return function(t,e,n){if(Number.isInteger(t))return t;const r=Math.pow(10,e);return Math[n]((+t+Number.EPSILON)*r)/r}(t,e,"round")}function r(e,n,r=t){return Math.abs(e-n)<r}n(Math.pow(10,-4));const i=Math.PI/180;function s(t){return t*i}function o(t){return t/i}function u(t){return"number"!=typeof t&&(t=Number(t)),isNaN(t)||!isFinite(t)?0:t}let l={iD:!1};function a(t){return`${t}`.replace(/['"]/g,"")}function c(t,e="px"){return t.endsWith(e)?t:`${t}${e}`}function f(t=""){return l.iD?t:void 0}function h(t){const e=["^","\\s*","(matrix\\()","(?<a>-?[0-9]*\\.?[0-9]+)","\\s*",",?","\\s*","(?<b>-?[0-9]*\\.?[0-9]+)","\\s*",",?","\\s*","(?<c>-?[0-9]*\\.?[0-9]+)","\\s*",",?","\\s*","(?<d>-?[0-9]*\\.?[0-9]+)","\\s*",",?","\\s*","(?<e>-?[0-9]*\\.?[0-9]+)","\\s*",",?","\\s*","(?<f>-?[0-9]*\\.?[0-9]+)","\\)"].join(""),n=t.match(new RegExp(e,"i"));if(n)return[u(n.groups.a),u(n.groups.b),u(n.groups.c),u(n.groups.d),u(n.groups.e),u(n.groups.f)]}function d(t,e="inline"){return t&&t!==e?(t=a(t))===e?f(e):t:f(e)}function g(t,e="1px"){if(!t||t===e)return f(e);if(t.endsWith("px")||t.endsWith("%"))return t;const n=c(t=`${u(t)}`);return n===e?f(e):n}function p(t,e="none"){return t&&t!==e?(t=a(t))===e?f(e):t.startsWith("url(#")?t:function(t){const e=["^","\\s*","url\\(","#","(?<maskId>[a-zA-Z0-9\\-_]+)","\\)"].join(""),n=t.match(new RegExp(e,"i"));if(n)return`url(#${n.groups.maskId})`}(t):f(e)}function y(t,e="rgb(0, 0, 0)"){if(!t||t===e)return f(e);if((t=a(t))===e)return f(e);if(t.startsWith("rgb"))return t;const n=function(t){const e=["^","\\s*","#","(?<red>[0-9A-Z]{1,2})","(?<green>[0-9A-Z]{1,2})","(?<blue>[0-9A-Z]{1,2})"].join(""),n=t.match(new RegExp(e,"i"));if(!n)return t;const r=t=>parseInt(t.length>1?t:`${t}${t}`,16);return`rgb(${r(n.groups.red)}, ${r(n.groups.green)}, ${r(n.groups.blue)})`}(t);return n===e?f(e):n}function m(t,e="1"){return t&&t!==e?(t=`${n(u(t),3)}`)===e?f(e):t:f(e)}let v={};const b={fill:"none",stroke:"none",opacity:"0.01",transform:"matrix(0.001 0 0 0.001 -10000 -10000)"};function w({element:t,tagType:e="path",property:n="d",attributeValue:r}){return v[r]||(v[r]=function({element:t,tagType:e="path",property:n="d",attributeValue:r}){const i=t.ownerSVGElement,s=document.createElementNS(i.namespaceURI,e);s.setAttributeNS(null,n,r);for(const t in b)s.setAttributeNS(null,t,b[t]);i.appendChild(s);const o=getComputedStyle(s)[n];return s.remove(),o}({element:t,tagType:e,property:n,attributeValue:r})),v[r]}const x=()=>{v={}};"object"==typeof window&&(window.removeEventListener("resize",x),window.addEventListener("resize",x));const A={include:(t,e)=>["path"].includes(e),formatter:t=>function(t,e=""){return t&&t!==e?(t=a(t))===e?f(e):t.startsWith("path(")?t:`path('${t}')`:f(e)}(t)},_={include:(t,e)=>["rect","mask"].includes(e),formatter:(t,e,n)=>g(t,function(t,e){var n;return(null===(n={mask:{x:"-150%",y:"-150%",width:"400%",height:"400%"}}[e])||void 0===n?void 0:n[t])||(["x","y"].includes(t)?"0px":"100%")}(e,n))},k=Object.freeze({d:A,display:t=>d(t),height:_,fill:t=>y(t),"fill-opacity":t=>m(t),filter:t=>d(t,"none"),mask:t=>p(t),opacity:t=>m(t),stroke:t=>y(t,"none"),"stroke-opacity":t=>m(t),"stroke-width":t=>g(t),transform:t=>function(t,e="none"){if(!t||t===e)return f(e);const n=h(t);return n?`matrix(${n.join(", ")})`:t}(t),"transform-origin":t=>function(t,e="0px 0px"){if(!t||t===e)return f(e);const n=["^","\\s*","(?<x>[0-9]+)","(px)?","\\s*",",","\\s*","(?<y>[0-9]+)","(px)?"].join(""),r=t.match(new RegExp(n,"i"));if(!r)return t;let i=`${u(r.groups.x)}`;i=c(i);let s=`${u(r.groups.y)}`;s=c(s);const o=`${i} ${s}`;return o===e?f(e):o}(t),visibility:t=>d(t,"visible"),width:_,x:_,y:_}),S=Object.keys(k),E=e;function M(t,e,n,i,s=window){var o,u;const l=t.getAttribute(e),a="transform"===e?"none":"",c=s.safari&&!s.chrome&&(null===(o=i.getPropertyValue)||void 0===o?void 0:o.call(i,e))===a||"mask"===n?l:null===(u=i.getPropertyValue)||void 0===u?void 0:u.call(i,e);if(l&&c){if(l===c)return l;switch(e){case"transform":return function(t,e){const n=h(t),i=h(e);if((null==n?void 0:n.length)===(null==i?void 0:i.length)){for(let t=0,e=n.length;t<e;t++)if(n[t]!==i[t]&&(s=i[t],!r(((o=n[t])-s)/(o||1)*100,0,E)))return;var s,o;return t}}(l,c);case"d":return function(t,e,n){return w({element:t,attributeValue:e})===n?e:void 0}(t,l,c);default:return c}}}function O(t,e,n,r){var i,s,o,u;const l="transform"===e||["mask","path"].includes(n)&&["x","y","width","height","d"].includes(e);return r&&l?M(t,e,n,r):(null===(i=r.getPropertyValue)||void 0===i?void 0:i.call(r,e))??(null===(s=t.attrs)||void 0===s||null===(o=s.style)||void 0===o?void 0:o[e])??(null===(u=t.attrs)||void 0===u?void 0:u[e])}function I(t,e,n=!1){l.iD=n;const r="undefined"!=typeof window&&getComputedStyle(t),i={};for(let l=0,a=S.length;l<a;l++){var s,o,u;const a=S[l],c=t.type||t.nodeName;if(!1===(null===(s=(o=k[a]).include)||void 0===s?void 0:s.call(o,a,c)))continue;const f=k[a].formatter||k[a];if(null!=e&&null!==(u=e[t.id])&&void 0!==u&&u[a])continue;const h=O(t,a,c,r);if(null==h&&!n)continue;const d=f.call(this,h,a,c);d&&(i[a]=d)}return i}function j(t){var e,n;if(null==t||null===(e=t.wD)||void 0===e||!e.length)return;this.h=t.wD.shift();const r=null===(n=t.rootId)||void 0===n?void 0:n.slice(0,-1);this.wIs=t.wD.map((t=>`${r}${t}`))}function B(t){const e=new j(t),n=t.svg,r=e.wIs,i=t.originalAnimations[0].elements,s=e.h;function o(t,e,s){var u;if(e[t])return;const l=n.querySelector("#"+t),a=null==l||null===(u=l.parentElement)||void 0===u?void 0:u.id;if(l&&a){if(r.includes(a))return e[a]||o(a,e,s),e[a].children??=[],e[t]=I(l,i),void e[a].children.push(e[t]);e[t]=I(l,i),s.push(e[t])}}async function u(){const t=function(){let t=[],e={};for(let n=0,i=r.length;n<i;n++)o(r[n],e,t);return t}();return await async function(t){var e,n;const r=JSON.stringify(t),i=(new TextEncoder).encode(r),o=await(null===(e=window.crypto)||void 0===e||null===(n=e.subtle)||void 0===n?void 0:n.digest("SHA-256",i));return o&&Array.from(new Uint8Array(o)).map((t=>t.toString(16).padStart(2,"0"))).join("")||s}(t)}this.vH=async function(){await u()!==s&&requestAnimationFrame((()=>t.stop()))}}function N(t){let e=0,n=0;const r=new B(t);this.cF=function(i,s){return t.wD?(e++,function(t){return!(t-n<300)&&(t-n>=500||e>=3)}(i)?(e=0,n=i,window.requestAnimationFrame((()=>r.vH())),s()):s()):s()}}function T(t){return t}function P(t,e,n){const r=1-n;return 3*n*r*(t*r+e*n)+n*n*n}function F(t=0,e=0,n=1,i=1){return t<0||t>1||n<0||n>1?null:r(t,e)&&r(n,i)?T:s=>{if(s<=0)return t>0?s*e/t:0===e&&n>0?s*i/n:0;if(s>=1)return n<1?1+(s-1)*(i-1)/(n-1):1===n&&t<1?1+(s-1)*(e-1)/(t-1):1;let o,u=0,l=1;for(;u<l;){o=(u+l)/2;const e=P(t,n,o);if(r(s,e))break;e<s?u=o:l=o}return P(e,i,o)}}function R(){return 1}function V(t){return 1===t?1:0}function C(t=1,e=0){if(1===t){if(0===e)return V;if(1===e)return R}const n=1/t;return t=>t>=1?1:(t+=e*n)-t%n}Number.isInteger||(Number.isInteger=function(t){return"number"==typeof t&&isFinite(t)&&Math.floor(t)===t}),Number.EPSILON||(Number.EPSILON=2220446049250313e-31);const D=Math.sin,L=Math.cos,$=Math.acos,q=Math.asin,z=Math.tan,G=Math.atan2,W=Math.sqrt;function Y(t,e){return{a:t[0]*e[0]+t[2]*e[1],b:t[1]*e[0]+t[3]*e[1],c:t[0]*e[2]+t[2]*e[3],d:t[1]*e[2]+t[3]*e[3],tx:t[0]*e[4]+t[2]*e[5]+t[4],ty:t[1]*e[4]+t[3]*e[5]+t[5]}}function U(t,e,n){return t>=.5?n:e}function H(t,e,n){return 0===t||e===n?e:t*(n-e)+e}function Z(t,e,n){const r=H(t,e,n);return r<=0?0:r}function J(t,e,n){const r=H(t,e,n);return r<=0?0:r>=1?1:r}function Q(t,e,n){return 0===t?e:1===t?n:{x:H(t,e.x,n.x),y:H(t,e.y,n.y)}}function X(t,e,n){return 0===t?e:1===t?n:{x:Z(t,e.x,n.x),y:Z(t,e.y,n.y)}}function K(t,e,n){const r=function(t,e,n){return Math.round(H(t,e,n))}(t,e,n);return r<=0?0:r>=255?255:r}function tt(t,e,n){return 0===t?e:1===t?n:{r:K(t,e.r,n.r),g:K(t,e.g,n.g),b:K(t,e.b,n.b),a:H(t,null==e.a?1:e.a,null==n.a?1:n.a)}}function et(t,e,n){let r=e.length;if(r!==n.length)return U(t,e,n);let i=new Array(r);for(let s=0;s<r;s++)i[s]=H(t,e[s],n[s]);return i}function nt(t,e){const n=[];for(let r=0;r<t;r++)n.push(e);return n}function rt(t,e){if(--e<=0)return t;const n=(t=Object.assign([],t)).length;do{for(let e=0;e<n;e++)t.push(t[e])}while(--e>0);return t}class it{constructor(t){this.list=t,this.length=t.length}setAttribute(t,e){const n=this.list;for(let r=0;r<this.length;r++)n[r].setAttribute(t,e)}removeAttribute(t){const e=this.list;for(let n=0;n<this.length;n++)e[n].removeAttribute(t)}style(t,e){const n=this.list;for(let r=0;r<this.length;r++)n[r].style[t]=e}}const st=/-./g,ot=(t,e)=>e.toUpperCase();let ut;function lt(t){return"function"==typeof t?t:U}function at(t){return t?"function"==typeof t?t:Array.isArray(t)?function(t,e=T){if(!Array.isArray(t))return e;switch(t.length){case 1:return C(t[0])||e;case 2:return C(t[0],t[1])||e;case 4:return F(t[0],t[1],t[2],t[3])||e}return e}(t,null):function(t,e,n=T){switch(t){case"linear":return T;case"steps":return C(e.steps||1,e.jump||0)||n;case"bezier":case"cubic-bezier":return F(e.x1||0,e.y1||0,e.x2||0,e.y2||0)||n}return n}(t.type,t.value,null):null}function ct(t,e,n,r=!1){const i=e.length-1;if(t<=e[0].t)return r?[0,0,e[0].v]:e[0].v;if(t>=e[i].t)return r?[i,1,e[i].v]:e[i].v;let s,o=e[0],u=null;for(s=1;s<=i;s++){if(!(t>e[s].t)){u=e[s];break}o=e[s]}return null==u?r?[i,1,e[i].v]:e[i].v:o.t===u.t?r?[s,1,u.v]:u.v:(t=(t-o.t)/(u.t-o.t),o.e&&(t=o.e(t)),r?[s,t,n(t,o.v,u.v)]:n(t,o.v,u.v))}function ft(t,e,n=null){return t&&t.length?"function"!=typeof e?null:("function"!=typeof n&&(n=null),r=>{let i=ct(r,t,e);return null!=i&&n&&(i=n(i)),i}):null}function ht(t,e){return t.t-e.t}function dt(t,e,n,r,i){const s="@"===n[0],o="#"===n[0];let u=ut[n],l=U;var a;switch(s?(a=n.substr(1),n=a.replace(st,ot)):o&&(n=n.substr(1)),typeof u){case"function":if(l=u(r,i,ct,at,n,s,e,t),o)return l;break;case"string":l=ft(r,lt(u));break;case"object":if(l=ft(r,lt(u.i),u.f),l&&"function"==typeof u.u)return u.u(e,l,n,s,t)}return l?function(t,e,n,r=!1){if(r)return t instanceof it?r=>t.style(e,n(r)):r=>t.style[e]=n(r);if(Array.isArray(e)){const r=e.length;return i=>{const s=n(i);if(null==s)for(let n=0;n<r;n++)t[n].removeAttribute(e);else for(let n=0;n<r;n++)t[n].setAttribute(e,s)}}return r=>{const i=n(r);null==i?t.removeAttribute(e):t.setAttribute(e,i)}}(e,n,l,s):null}function gt(t,e,n,r){if(!r||"object"!=typeof r)return null;let i=null,s=null;return Array.isArray(r)?s=function(t){if(!t||!t.length)return null;for(let e=0;e<t.length;e++)t[e].e&&(t[e].e=at(t[e].e));return t.sort(ht)}(r):(s=r.keys,i=r.data||null),s?dt(t,e,n,s,i):null}function pt(t,e,n){if(!n)return null;const r=[];for(const i in n)if(n.hasOwnProperty(i)){const s=gt(t,e,i,n[i]);s&&r.push(s)}return r.length?r:null}function yt(t,e){if(!e.settings.duration||e.settings.duration<0)return null;const n=function(t,e){if(!e)return null;let n=[];if(Array.isArray(e)){const r=e.length;for(let i=0;i<r;i++){const r=e[i];if(2!==r.length)continue;let s=null;if("string"==typeof r[0])s=t.getElementById(r[0]);else if(Array.isArray(r[0])){s=[];for(let e=0;e<r[0].length;e++)if("string"==typeof r[0][e]){const n=t.getElementById(r[0][e]);n&&s.push(n)}s=s.length?1===s.length?s[0]:new it(s):null}if(!s)continue;const o=pt(t,s,r[1]);o&&(n=n.concat(o))}}else for(const r in e){if(!e.hasOwnProperty(r))continue;const i=t.getElementById(r);if(!i)continue;const s=pt(t,i,e[r]);s&&(n=n.concat(s))}return n.length?n:null}(t,e.elements);return n?function(t,e){const n=e.duration,r=t.length;let i=null;return(s,o)=>{const u=e.iterations||1/0,l=(e.alternate&&u%2==0)^e.direction>0?n:0;let a=s%n,c=1+(s-a)/n;o*=e.direction,e.alternate&&c%2==0&&(o=-o);let f=!1;if(c>u)a=l,f=!0,-1===e.fill&&(a=e.direction>0?0:n);else if(o<0&&(a=n-a),a===i)return!1;i=a;for(let e=0;e<r;e++)t[e](a);return f}}(n,e.settings):null}function mt(t,e=document,n=0){const r=function(t,e){const n=e.querySelectorAll("svg");for(let e=0;e<n.length;e++)if(n[e].id===t.root&&!n[e].svgatorAnimation)return n[e].svgatorAnimation=!0,n[e];return null}(t,e);if(r)return r;if(n>=20)return null;const i=function(t){const e=t=>t.shadowRoot;return document?Array.from(t.querySelectorAll(":not("+["a","area","audio","br","canvas","circle","datalist","embed","g","head","hr","iframe","img","input","link","object","path","polygon","rect","script","source","style","svg","title","track","video"].join()+")")).filter(e).map(e):[]}(e);for(let e=0;e<i.length;e++){const r=mt(t,i[e],n+1);if(r)return r}return null}function vt(t,e=null,n=Number,r="undefined"!=typeof BigInt&&BigInt){const i="0x"+(t.replace(/[^0-9a-fA-F]+/g,"")||27);return e&&r&&n.isSafeInteger&&!n.isSafeInteger(+i)?n(r(i))%e+e:+i}function bt(t,e=27){return!t||t%e?t%e:[0,1].includes(e)?e:bt(t/e,e)}function wt(t,e,n){if(!t||!t.length)return;const r=vt(n),i=bt(r)+5;let s=function(t,e,n){let r="";for(;t&&n&&e<=t.length;)r+=t.substring(0,e),t=t.substring(e+1),e=n;return r+t}(t,bt(r,5),i);return s=s.replace(/\x7c$/g,"==").replace(/\x2f$/g,"="),s=atob(s),s=s.replace(/[\x41-\x5A]/g,""),s=function(t,e,n){const r=+("0x"+t.substring(0,4));t=t.substring(4);const i=vt(e,r)%r+n%27,s=[];for(let e=0;e<t.length;e+=2){if("|"===t[e]){const n=+("0x"+t.substring(e+1,e+1+4))-i;e+=3,s.push(n);continue}const n=+("0x"+t[e]+t[e+1])-i;s.push(n)}return String.fromCharCode(...s)}(s,e,r),s=JSON.parse(s),s}const xt=[{key:"alternate",def:!1},{key:"fill",def:1},{key:"iterations",def:0},{key:"direction",def:1},{key:"speed",def:1},{key:"fps",def:100}];function At(t){return n(t)+""}function _t(t,e=" "){return t&&t.length?t.map(At).join(e):""}function kt(t){return At(t.x)+","+At(t.y)}function St(t){return t?null==t.a||t.a>=1?function(t){if(!t)return"transparent";const e=t=>parseInt(t).toString(16).padStart(2,"0");return function(t){const e=[];let n="#"===t[0]?e.push("#"):0;for(;n<t.length;n+=2){if(t[n]!==t[n+1])return t;e.push(t[n])}return e.join("")}("#"+e(t.r)+e(t.g)+e(t.b)+(null==t.a||t.a>=1?"":e(255*t.a)))}(t):"rgba("+t.r+","+t.g+","+t.b+","+t.a+")":"transparent"}function Et(t){return t?"url(#"+t+")":"none"}!function(){for(var t=0,e=["ms","moz","webkit","o"],n=0;n<e.length&&!window.requestAnimationFrame;++n)window.requestAnimationFrame=window[e[n]+"RequestAnimationFrame"],window.cancelAnimationFrame=window[e[n]+"CancelAnimationFrame"]||window[e[n]+"CancelRequestAnimationFrame"];window.requestAnimationFrame||(window.requestAnimationFrame=function(e){var n=Date.now(),r=Math.max(0,16-(n-t)),i=window.setTimeout((function(){e(n+r)}),r);return t=n+r,i},window.cancelAnimationFrame=window.clearTimeout)}();var Mt={f:null,i:X,u:(t,e)=>n=>{const r=e(n);t.setAttribute("rx",At(r.x)),t.setAttribute("ry",At(r.y))}},Ot={f:null,i:function(t,e,n){return 0===t?e:1===t?n:{width:Z(t,e.width,n.width),height:Z(t,e.height,n.height)}},u:(t,e)=>n=>{const r=e(n);t.setAttribute("width",At(r.width)),t.setAttribute("height",At(r.height))}};Object.freeze({M:2,L:2,Z:0,H:1,V:1,C:6,Q:4,T:2,S:4,A:7});let It={},jt=null;function Bt(t){let e=function(){if(jt)return jt;if("object"!=typeof document||!document.createElementNS)return{};let t=document.createElementNS("http://www.w3.org/2000/svg","svg");return t&&t.style?(t.style.position="absolute",t.style.opacity="0.01",t.style.zIndex="-9999",t.style.left="-9999px",t.style.width="1px",t.style.height="1px",jt={svg:t},jt):{}}().svg;if(!e)return function(t){return null};let n=document.createElementNS(e.namespaceURI,"path");n.setAttributeNS(null,"d",t),n.setAttributeNS(null,"fill","none"),n.setAttributeNS(null,"stroke","none"),e.appendChild(n);let r=n.getTotalLength();return function(t){let e=n.getPointAtLength(r*t);return{x:e.x,y:e.y}}}function Nt(t,e,n,r,i=1){let s=function(t){return It[t]?It[t]:It[t]=Bt(t)}(function(t,e,n,r){if(!t||!r)return!1;let i=["M",t.x,t.y];if(e&&n&&(i.push("C"),i.push(e.x),i.push(e.y),i.push(n.x),i.push(n.y)),e?!n:n){let t=e||n;i.push("Q"),i.push(t.x),i.push(t.y)}return e||n||i.push("L"),i.push(r.x),i.push(r.y),i.join(" ")}(t,e,n,r));try{return s(i)}catch(t){return null}}function Tt(t,e,n){return t+(e-t)*n}function Pt(t,e,n,r=!1){const i={x:Tt(t.x,e.x,n),y:Tt(t.y,e.y,n)};return r&&(i.a=function(t,e){return Math.atan2(e.y-t.y,e.x-t.x)}(t,e)),i}function Ft(t,e,n,r){const i=1-r;return i*i*t+2*i*r*e+r*r*n}function Rt(t,e,n,r){return 2*(1-r)*(e-t)+2*r*(n-e)}function Vt(t,e,n,r,i=!1){let s=Nt(t,e,null,n,r);return s||(s={x:Ft(t.x,e.x,n.x,r),y:Ft(t.y,e.y,n.y,r)}),i&&(s.a=function(t,e,n,r){return Math.atan2(Rt(t.y,e.y,n.y,r),Rt(t.x,e.x,n.x,r))}(t,e,n,r)),s}function Ct(t,e,n,r,i){const s=i*i;return i*s*(r-t+3*(e-n))+3*s*(t+n-2*e)+3*i*(e-t)+t}function Dt(t,e,n,r,i){const s=1-i;return 3*(s*s*(e-t)+2*s*i*(n-e)+i*i*(r-n))}function Lt(t,e,n,r,i,s=!1){let o=Nt(t,e,n,r,i);return o||(o={x:Ct(t.x,e.x,n.x,r.x,i),y:Ct(t.y,e.y,n.y,r.y,i)}),s&&(o.a=function(t,e,n,r,i){return Math.atan2(Dt(t.y,e.y,n.y,r.y,i),Dt(t.x,e.x,n.x,r.x,i))}(t,e,n,r,i)),o}function $t(t,e,n,r=!1){if(zt(e)){if(Gt(n))return Vt(e,n.start,n,t,r)}else if(zt(n)){if(Wt(e))return Vt(e,e.end,n,t,r)}else{if(Wt(e))return Gt(n)?Lt(e,e.end,n.start,n,t,r):Vt(e,e.end,n,t,r);if(Gt(n))return Vt(e,n.start,n,t,r)}return Pt(e,n,t,r)}function qt(t,e,n){const r=$t(t,e,n,!0);return r.a=o(function(t,e=!1){return e?t+Math.PI:t}(r.a)),r}function zt(t){return!t.type||"corner"===t.type}function Gt(t){return null!=t.start&&!zt(t)}function Wt(t){return null!=t.end&&!zt(t)}const Yt=new class{constructor(t=1,e=0,n=0,r=1,i=0,s=0){this.m=[t,e,n,r,i,s],this.i=null,this.w=null,this.s=null}get determinant(){const t=this.m;return t[0]*t[3]-t[1]*t[2]}get isIdentity(){if(null===this.i){const t=this.m;this.i=1===t[0]&&0===t[1]&&0===t[2]&&1===t[3]&&0===t[4]&&0===t[5]}return this.i}point(t,e){const n=this.m;return{x:n[0]*t+n[2]*e+n[4],y:n[1]*t+n[3]*e+n[5]}}translateSelf(t=0,e=0){if(!t&&!e)return this;const n=this.m;return n[4]+=n[0]*t+n[2]*e,n[5]+=n[1]*t+n[3]*e,this.w=this.s=this.i=null,this}rotateSelf(t=0){if(t%=360){t=s(t);const e=D(t),n=L(t),r=this.m,i=r[0],o=r[1];r[0]=i*n+r[2]*e,r[1]=o*n+r[3]*e,r[2]=r[2]*n-i*e,r[3]=r[3]*n-o*e,this.w=this.s=this.i=null}return this}scaleSelf(t=1,e=1){if(1!==t||1!==e){const n=this.m;n[0]*=t,n[1]*=t,n[2]*=e,n[3]*=e,this.w=this.s=this.i=null}return this}skewSelf(t,e){if(e%=360,(t%=360)||e){const n=this.m,r=n[0],i=n[1],o=n[2],u=n[3];t&&(t=z(s(t)),n[2]+=r*t,n[3]+=i*t),e&&(e=z(s(e)),n[0]+=o*e,n[1]+=u*e),this.w=this.s=this.i=null}return this}resetSelf(t=1,e=0,n=0,r=1,i=0,s=0){const o=this.m;return o[0]=t,o[1]=e,o[2]=n,o[3]=r,o[4]=i,o[5]=s,this.w=this.s=this.i=null,this}recomposeSelf(t=null,e=null,n=null,r=null,i=null){return this.isIdentity||this.resetSelf(),t&&(t.x||t.y)&&this.translateSelf(t.x,t.y),e&&this.rotateSelf(e),n&&(n.x&&this.skewSelf(n.x,0),n.y&&this.skewSelf(0,n.y)),!r||1===r.x&&1===r.y||this.scaleSelf(r.x,r.y),i&&(i.x||i.y)&&this.translateSelf(i.x,i.y),this}decompose(t=0,e=0){const r=this.m,i=r[0]*r[0]+r[1]*r[1],s=[[r[0],r[1]],[r[2],r[3]]];let u=W(i);if(0===u)return{origin:{x:n(r[4]),y:n(r[5])},translate:{x:n(t),y:n(e)},scale:{x:0,y:0},skew:{x:0,y:0},rotate:0};s[0][0]/=u,s[0][1]/=u;const l=r[0]*r[3]-r[1]*r[2]<0;l&&(u=-u);let a=s[0][0]*s[1][0]+s[0][1]*s[1][1];s[1][0]-=s[0][0]*a,s[1][1]-=s[0][1]*a;let c,f=W(s[1][0]*s[1][0]+s[1][1]*s[1][1]);return 0===f?{origin:{x:n(r[4]),y:n(r[5])},translate:{x:n(t),y:n(e)},scale:{x:n(u),y:0},skew:{x:0,y:0},rotate:0}:(s[1][0]/=f,s[1][1]/=f,a/=f,s[1][1]<0?(c=o($(s[1][1])),s[0][1]<0&&(c=360-c)):c=o(q(s[0][1])),l&&(c=-c),a=o(G(a,W(s[0][0]*s[0][0]+s[0][1]*s[0][1]))),l&&(a=-a),{origin:{x:n(r[4]),y:n(r[5])},translate:{x:n(t),y:n(e)},scale:{x:n(u),y:n(f)},skew:{x:n(a),y:0},rotate:n(c)})}multiply(t){return this.clone().multiplySelf(t)}preMultiply(t){return t.multiply(this)}multiplySelf(t){const{a:e,b:n,c:r,d:i,tx:s,ty:o}=Y(this.m,t.m);return this.resetSelf(e,n,r,i,s,o),this}preMultiplySelf(t){const{a:e,b:n,c:r,d:i,tx:s,ty:o}=Y(t.m,this.m);return this.resetSelf(e,n,r,i,s,o),this}clone(){const t=this.m;return new this.constructor(t[0],t[1],t[2],t[3],t[4],t[5])}static create(t){return t?Array.isArray(t)?new this(...t):t instanceof this?t.clone():(new this).recomposeSelf(t.origin,t.rotate,t.skew,t.scale,t.translate):new this}toString(t=" ",e=!1){if(null===this.s){let r=this.m.map((t=>n(t)));e||1!==r[0]||0!==r[1]||0!==r[2]||1!==r[3]?this.s="matrix("+r.join(t)+")":this.s="translate("+r[4]+t+r[5]+")"}return this.s}};var Ut={f:function(t){return t?t.join(" "):""},i:function(t,e,n){if(0===t)return e;if(1===t)return n;let r=e.length;if(r!==n.length)return U(t,e,n);let i,s=new Array(r);for(let o=0;o<r;o++){if(i=typeof e[o],i!==typeof n[o])return U(t,e,n);if("number"===i)s[o]=H(t,e[o],n[o]);else{if(e[o]!==n[o])return U(t,e,n);s[o]=e[o]}}return s}},Ht={f:null,i:et,u:(t,e)=>n=>{const r=e(n);t.setAttribute("x1",At(r[0])),t.setAttribute("y1",At(r[1])),t.setAttribute("x2",At(r[2])),t.setAttribute("y2",At(r[3]))}},Zt={f:At,i:H},Jt={f:At,i:J},Qt={f:function(t,e=" "){return t&&t.length>0&&(t=t.map((t=>n(t,4)))),_t(t,e)},i:function(t,e,r){let i=e.length,s=r.length;if(i!==s)if(0===i)i=s,e=nt(i,0);else if(0===s)s=i,r=nt(i,0);else{const t=function(t,e){const n=t*e/function(t,e){let n;for(;e;)n=e,e=t%e,t=n;return t||1}(t,e);return n<0?-n:n}(i,s);e=rt(e,Math.floor(t/i)),r=rt(r,Math.floor(t/s)),i=s=t}let o=[];for(let s=0;s<i;s++)o.push(n(Z(t,e[s],r[s])));return o}};function Xt(t,e,r){return t.map((t=>function(t,e,r){let i=t.v;if(!i||"g"!==i.t||i.s||!i.v||!i.r)return t;const s=r.getElementById(i.r),o=s&&s.querySelectorAll("stop")||[];return i.s=i.v.map(((t,e)=>{let r=o[e]&&o[e].getAttribute("offset");return r=n(parseInt(r)/100),{c:t,o:r}})),delete i.v,t}(t,0,r)))}const Kt={gt:"gradientTransform",c:{x:"cx",y:"cy"},rd:"r",f:{x:"x1",y:"y1"},to:{x:"x2",y:"y2"}};function te(t,e,n,r,i,s,o,u){return Xt(t,0,u),e=function(t,e,n){let r,i,s;const o=t.length-1,u={};for(let l=0;l<=o;l++)r=t[l],r.e&&(r.e=e(r.e)),r.v&&(i=r.v,"g"===i.t&&i.r&&(s=n.getElementById(i.r),s&&(u[i.r]={e:s,s:s.querySelectorAll("stop")})));return u}(t,r,u),r=>{const i=n(r,t,ee);if(!i)return"none";if("c"===i.t)return St(i.v);if("g"===i.t){if(!e[i.r])return Et(i.r);const t=e[i.r];return function(t,e){let n=t.s;for(let r=n.length;r<e.length;r++){const e=n[n.length-1].cloneNode();e.id=ie(e.id),t.e.appendChild(e),n=t.s=t.e.querySelectorAll("stop")}for(let t=0,r=n.length,i=e.length-1;t<r;t++)n[t].setAttribute("stop-color",St(e[Math.min(t,i)].c)),n[t].setAttribute("offset",e[Math.min(t,i)].o)}(t,i.s),Object.keys(Kt).forEach((e=>{if(void 0===i[e])return;if("object"==typeof Kt[e])return void Object.keys(Kt[e]).forEach((n=>{if(void 0===i[e][n])return;const r=i[e][n],s=Kt[e][n];t.e.setAttribute(s,r)}));const n="gt"===e?(r=i[e],Array.isArray(r)?"matrix("+r.join(" ")+")":""):i[e];var r;const s=Kt[e];t.e.setAttribute(s,n)})),Et(i.r)}return"none"}}function ee(t,e,n){if(0===t)return e;if(1===t)return n;if(e&&n){const r=e.t;if(r===n.t)switch(e.t){case"c":return{t:r,v:tt(t,e.v,n.v)};case"g":if(e.r===n.r){const i={t:r,s:ne(t,e.s,n.s),r:e.r};return e.gt&&n.gt&&(i.gt=et(t,e.gt,n.gt)),e.c?(i.c=Q(t,e.c,n.c),i.rd=Z(t,e.rd,n.rd)):e.f&&(i.f=Q(t,e.f,n.f),i.to=Q(t,e.to,n.to)),i}}if("c"===e.t&&"g"===n.t||"c"===n.t&&"g"===e.t){const r="c"===e.t?e:n,i="g"===e.t?{...e}:{...n},s=i.s.map((t=>({c:r.v,o:t.o})));return i.s="c"===e.t?ne(t,s,i.s):ne(t,i.s,s),i}}return U(t,e,n)}function ne(t,e,n){if(e.length===n.length)return e.map(((e,r)=>re(t,e,n[r])));const r=Math.max(e.length,n.length),i=[];for(let s=0;s<r;s++){const r=re(t,e[Math.min(s,e.length-1)],n[Math.min(s,n.length-1)]);i.push(r)}return i}function re(t,e,n){return{o:J(t,e.o,n.o||0),c:tt(t,e.c,n.c||{})}}function ie(t){return t.replace(/-fill-([0-9]+)$/,((t,e)=>"-fill-"+(+e+1)))}function se(t,e,n){return 0===t?e:1===t?n:{blur:X(t,e.blur,n.blur),offset:Q(t,e.offset,n.offset),color:tt(t,e.color,n.color)}}const oe={blur:X,brightness:Z,contrast:Z,"drop-shadow":se,"inner-shadow":se,grayscale:Z,"hue-rotate":H,invert:Z,opacity:Z,saturate:Z,sepia:Z};function ue(t,e,n){if(0===t)return e;if(1===t)return n;const r=e.length;if(r!==n.length)return U(t,e,n);const i=[];let s;for(let o=0;o<r;o++){if(e[o].type!==n[o].type)return e;if(s=oe[e[o].type],!s)return U(t,e,n);i.push({type:e.type,value:s(t,e[o].value,n[o].value)})}return i}const le={blur:t=>t?e=>{t.setAttribute("stdDeviation",kt(e))}:null,brightness:(t,e,n)=>(t=ce(n,e))?e=>{e=At(e),t.map((t=>t.setAttribute("slope",e)))}:null,contrast:(t,e,n)=>(t=ce(n,e))?e=>{const n=At((1-e)/2);e=At(e),t.map((t=>{t.setAttribute("slope",e),t.setAttribute("intercept",n)}))}:null,"drop-shadow"(t,e,n){const r=n.getElementById(e+"-blur");if(!r)return null;const i=n.getElementById(e+"-offset");if(!i)return null;const s=n.getElementById(e+"-flood");return s?t=>{r.setAttribute("stdDeviation",kt(t.blur)),i.setAttribute("dx",At(t.offset.x)),i.setAttribute("dy",At(t.offset.y)),s.setAttribute("flood-color",St(t.color))}:null},"inner-shadow"(t,e,n){const r=n.getElementById(e+"-blur");if(!r)return null;const i=n.getElementById(e+"-offset");if(!i)return null;const s=n.getElementById(e+"-color-matrix");return s?t=>{r.setAttribute("stdDeviation",kt(t.blur)),i.setAttribute("dx",At(t.offset.x)),i.setAttribute("dy",At(t.offset.y));const e=[0,0,0,0,t.color.r/255,0,0,0,0,t.color.g/255,0,0,0,0,t.color.b/255,0,0,0,t.color.a,0];s.setAttribute("values",_t(e))}:null},grayscale:t=>t?e=>{t.setAttribute("values",_t(function(t){return[.2126+.7874*(t=1-t),.7152-.7152*t,.0722-.0722*t,0,0,.2126-.2126*t,.7152+.2848*t,.0722-.0722*t,0,0,.2126-.2126*t,.7152-.7152*t,.0722+.9278*t,0,0,0,0,0,1,0]}(e)))}:null,"hue-rotate":t=>t?e=>t.setAttribute("values",At(e)):null,invert:(t,e,n)=>(t=ce(n,e))?e=>{e=At(e)+" "+At(1-e),t.map((t=>t.setAttribute("tableValues",e)))}:null,opacity:(t,e,n)=>(t=n.getElementById(e+"-A"))?e=>t.setAttribute("tableValues","0 "+At(e)):null,saturate:t=>t?e=>t.setAttribute("values",At(e)):null,sepia:t=>t?e=>t.setAttribute("values",_t(function(t){return[.393+.607*(t=1-t),.769-.769*t,.189-.189*t,0,0,.349-.349*t,.686+.314*t,.168-.168*t,0,0,.272-.272*t,.534-.534*t,.131+.869*t,0,0,0,0,0,1,0]}(e))):null};const ae=["R","G","B"];function ce(t,e){const n=ae.map((n=>t.getElementById(e+"-"+n)||null));return-1!==n.indexOf(null)?null:n}var fe={fill:te,"fill-opacity":Jt,stroke:te,"stroke-opacity":Jt,"stroke-width":Zt,"stroke-dashoffset":{f:At,i:H},"stroke-dasharray":Qt,opacity:Jt,transform:function(t,e,n,r){if(!(t=function(t,e){if(!t||"object"!=typeof t)return null;let n=!1;for(const r in t)t.hasOwnProperty(r)&&(t[r]&&t[r].length?(t[r].forEach((t=>{t.e&&(t.e=e(t.e))})),n=!0):delete t[r]);return n?t:null}(t,r)))return null;const i=(r,i,s,o=null)=>t[r]?n(i,t[r],s):e&&e[r]?e[r]:o;return e&&e.a&&t.o?e=>{const r=n(e,t.o,qt);return Yt.recomposeSelf(r,i("r",e,H,0)+r.a,i("k",e,Q),i("s",e,Q),i("t",e,Q)).toString()}:t=>Yt.recomposeSelf(i("o",t,$t,null),i("r",t,H,0),i("k",t,Q),i("s",t,Q),i("t",t,Q)).toString()},"#filter":function(t,e,n,r,i,s,o,u){if(!e.items||!t||!t.length)return null;const l=function(t,e){const n=(t=t.map((t=>t&&le[t[0]]?(e.getElementById(t[1]),le[t[0]](e.getElementById(t[1]),t[1],e)):null))).length;return e=>{for(let r=0;r<n;r++)t[r]&&t[r](e[r].value)}}(e.items,u);return l?(t=function(t,e){return t.map((t=>(t.e=e(t.e),t)))}(t,r),e=>{l(n(e,t,ue))}):null},"#line":Ht,points:{f:_t,i:et},d:Ut,r:Zt,"#size":Ot,"#radius":Mt,_(t,e){if(Array.isArray(t))for(let n=0;n<t.length;n++)this[t[n]]=e;else this[t]=e}};const he={currentTime:"offset",duration:"duration",hasEnded:function(){return this.reachedToEnd()},isAlternate:"alternate",isPlaying:"_running",isRollingBack:"_rollingBack",state:function(t,e){return e.isPlaying?e.isRollingBack?"rollback":"playing":e.hasEnded?"ended":"paused"},totalTime:"maxFiniteDuration",iterations:"iterations",direction:"direction",fill:"fill",isReversed:function(t,e){return-1===e.direction},isBackwards:function(t,e){return-1===e.fill},isInfinite:function(t,e){return 0===e.iterations},speed:"speed",fps:"fps"},de={destruct:"destruct",pause:"pause",play:function(t,e){return ge(t,e.hasEnded?"restart":"play",e)},restart:"restart",reverse:function(t,e){return ge(t,"reverse",e,[!0])},seek:"seek",seekBy:"seekBy",seekTo:"seekTo",stop:"stop",toggle:"toggle",togglePlay:"toggle",set:"set"};function ge(t,e,n,r=[]){return function(){const i=[...arguments];return i.unshift(...r),t[e].call(t,...i),n}}class pe{constructor(t){const e={},n=["on","off"],r={get:function(t,r,i){return he[r]?"function"==typeof he[r]?he[r].call(t,t,i):t[he[r]]:de[r]?"function"==typeof de[r]?de[r].call(t,t,i):ge(t,de[r],i):-1!==n.indexOf(r)?e[r]:"ready"===r?t=>(t&&t.call(i,i),i):void 0},set:function(t,r,i){return-1!==n.indexOf(r)&&(e[r]=i)},ownKeys:function(t){return Object.keys(he)},has:function(t,e){return void 0!==he[e]}};if("function"==typeof Proxy)return new Proxy(t,r);const i=Object.keys(he).concat(Object.keys(de)).concat(n),s={};return i.forEach((e=>{const i={enumerable:!1,configurable:!1,get:()=>r.get(t,e,s)};-1!==n.indexOf(e)&&(i.set=n=>r.set(t,e,n)),Object.defineProperty(s,e,i)})),s}}function ye(t){t||(t=this);let e={};this.on=function(t,n,r=!1){return"function"==typeof n&&(t.split(/[, ]+/g).forEach((t=>(e[t]=e[t]||[],r?e[t].unshift(n):e[t].push(n)))),!0)},this.off=function(t,n){for(let r in e)if(e.hasOwnProperty(r)&&r.substr(0,t.length)===t)if(n)for(let t=0;t<e[r].length;t++)e[r][t]===n&&(e[r][t]=null);else e[r]=null},this.trigger=function(){let n,[r,...i]=[...arguments];t:for(let s in e)if(e.hasOwnProperty(s)&&e[s]&&(s===r||s.substr(0,r.length+1)===r+"."))for(let r=0;r<(e[s]||[]).length;r++)if(e[s][r]&&(n=e[s][r].apply(t,i),!1===n))break t;return n}}let me=function(t,e,n=n){let r=!1,i=null;return function(s){r&&clearTimeout(r),r=setTimeout((()=>function(){let s=0,o=n.innerHeight,u=0,l=n.innerWidth,a=t.parentNode;for(;a instanceof Element;){let t=n.getComputedStyle(a);if("visible"!==t.overflowY||"visible"!==t.overflowX){let e=a.getBoundingClientRect();"visible"!==t.overflowY&&(s=Math.max(s,e.top),o=Math.min(o,e.bottom)),"visible"!==t.overflowX&&(u=Math.max(u,e.left),l=Math.min(l,e.right))}if(a===a.parentNode)break;a=a.parentNode}r=!1;let c=t.getBoundingClientRect(),f=Math.min(c.height,Math.max(0,s-c.top)),h=Math.min(c.height,Math.max(0,c.bottom-o)),d=Math.min(c.width,Math.max(0,u-c.left)),g=Math.min(c.width,Math.max(0,c.right-l)),p=(c.height-f-h)/c.height,y=(c.width-d-g)/c.width,m=Math.round(p*y*100);null!==i&&i===m||(i=m,e(m))}()),100)}};class ve{constructor(t,e,n){const r=function(t){var e,n;const r=t&&1===(null===(e=t.ownerDocument)||void 0===e||null===(n=e.childNodes)||void 0===n?void 0:n.length)&&window.parent!==window,i={el:t,window:window};if(!r)return i;let s;try{s=window.parent.document}catch(t){return i}return i.window=window.parent,i.el=Array.from(s.querySelectorAll("iframe,object")).filter((t=>t.contentWindow===window))[0]||i.el,i}(t);e=Math.max(1,e||1),e=Math.min(e,100),this.el=r.el,this._handlers=[],this.onThresholdChange=n&&n.call?n:()=>{},this.thresholdPercent=e||1,this.currentVisibility=null,this.visibilityCalculator=me(this.el,this.onVisibilityUpdate.bind(this),r.window),this.bindScrollWatchers(),this.visibilityCalculator()}bindScrollWatchers(){let t=this.el.parentNode;for(;t&&(this._handlers.push({element:t,event:"scroll",handler:this.visibilityCalculator}),t.addEventListener("scroll",this.visibilityCalculator),t!==t.parentNode&&t!==document);)t=t.parentNode}onVisibilityUpdate(t){let e=this.currentVisibility>=this.thresholdPercent,n=t>=this.thresholdPercent;if(null===this.currentVisibility||e!==n)return this.currentVisibility=t,void this.onThresholdChange(n);this.currentVisibility=t}destruct(){this._handlers.forEach((t=>{t.element.removeEventListener(t.event,t.handler)}))}}class be{static adjustLink(t){var e,n;const r=t&&1===(null===(e=t.ownerDocument)||void 0===e||null===(n=e.childNodes)||void 0===n?void 0:n.length)&&window.parent!==window,i=null==t?void 0:t.firstElementChild;r&&i&&"a"===i.tagName&&!i.getAttribute("target")&&i.setAttributeNS(null,"target","_parent")}static autoPlay(t,e,n,r=[]){if("click"===n.start){const i=()=>{switch(n.click){case"freeze":return!t._running&&t.reachedToEnd()?t.restart():t.toggle();case"restart":return t.offset>0?t.restart():t.play();case"reverse":return t._running?t.reverse():t.reachedToEnd()?1===t.fill?t.reverse(!0):t.restart():t.play();case"none":default:if(t._running)return;return t.reachedToEnd()?t.restart():t.play()}};return r.push({element:e,event:"click",handler:i}),void e.addEventListener("click",i)}if("hover"===n.start){const i=()=>t.reachedToEnd()?t.restart():t._rollingBack?t.reverse():t.play();r.push({element:e,event:"mouseenter",handler:i}),e.addEventListener("mouseenter",i);const s=()=>{switch(n.hover){case"freeze":return t.pause();case"reset":return t.stop();case"reverse":if(t.reverse(),t._running)return;return t.play();case"none":default:return}};return r.push({element:e,event:"mouseleave",handler:s}),void e.addEventListener("mouseleave",s)}if("scroll"!==n.start)"programmatic"!==n.start&&t.play();else{const i=new ve(e,n.scroll||25,(function(e){e?t.reachedToEnd()?t.restart():t.play():t.pause()}));r.push({callback:()=>i.destruct()})}}}const we=!0,xe=["iterations","speed","fps","direction","fill","alternate"];class Ae extends class{_svg;_rootId;constructor(t){this._id=0,this._running=!1,this._rollingBack=!1,this._animations=t.animations,this._settings=t.animationSettings,t.version<"2022-05-02"&&delete this._settings.speed,xt.forEach((t=>{this._settings[t.key]=this._settings[t.key]||t.def})),this.duration=t.animationSettings.duration,this.offset=t.animationSettings.offset||0,this.rollbackStartOffset=0,this._rootId=t.root,this._svg=t.svg,this._originalAnimations=t.originalAnimations,this._fTC=new N(this)}get svg(){return this._svg}get rootId(){return this._rootId}get alternate(){return this._settings.alternate}get fill(){return this._settings.fill}get iterations(){return this._settings.iterations}get direction(){return this._settings.direction}get speed(){return this._settings.speed}get fps(){return this._settings.fps}get wD(){return this._settings.w}get originalAnimations(){return this._originalAnimations}get maxFiniteDuration(){return this.iterations>0?this.iterations*this.duration:this.duration}static build(t,e){if(delete t.animationSettings,t.options=wt(t.options,t.root,"91c80d77"),t.animations.map((e=>{e.settings=wt(e.s,t.root,"91c80d77"),delete e.s,t.animationSettings||(t.animationSettings=e.settings)})),Object.assign(t,{originalAnimations:t.animations},function(t,e){if(ut=e,!t||!t.root||!Array.isArray(t.animations))return null;const n=mt(t);if(!n)return null;const r=t.animations.map((t=>yt(n,t))).filter((t=>!!t));return r.length?{svg:n,animations:r}:null}(t,e)),!t)return null;const n=t.options||{},r=new this(t);return{el:t.svg,options:n,player:r}}static push(t){return this.build(t)}static init(){const t=window.__SVGATOR_PLAYER__&&window.__SVGATOR_PLAYER__["91c80d77"];Array.isArray(t)&&t.splice(0).forEach((t=>this.build(t)))}_apply(t,e={}){const n=this._animations,r=n.length;let i=0;for(let s=0;s<r;s++)e[s]?i++:(e[s]=n[s](t,1),e[s]&&i++);return i}_rollback(t){let e=1/0,n=null;this.rollbackStartOffset=t,this._rollingBack=!0,this._running=!0;const r=i=>{if(!this._rollingBack)return;null==n&&(n=i);let s=Math.round(t-(i-n)*this.speed);if(s>this.duration&&e!==1/0){const t=!!this.alternate&&s/this.duration%2>1;let e=s%this.duration;e+=t?this.duration:0,s=e||this.duration}const o=(this.fps?1e3/this.fps:0)*this.speed,u=Math.max(0,s);u<=e-o&&(this.offset=u,e=u,this._apply(u));const l=this.iterations>0&&-1===this.fill&&s>=this.maxFiniteDuration;(s<=0||this.offset<s||l)&&this.stop(),this._id=window.requestAnimationFrame(r)};this._id=window.requestAnimationFrame(r)}_start(t=0){let e,n=-1/0;const r={};this._running=!0;const i=s=>{e??=s;const o=Math.round((s-e)*this.speed+t),u=(this.fps?1e3/this.fps:0)*this.speed;o>=n+u&&!this._rollingBack&&this._fTC.cF(s,(()=>{this.offset=o,n=o;if(this._apply(o,r)===this._animations.length)return this.pause(!0),!0}))||(this._id=window.requestAnimationFrame(i))};this._id=window.requestAnimationFrame(i)}_pause(){this._id&&window.cancelAnimationFrame(this._id),this._running=!1}play(){if(!this._running)return this._rollingBack?this._rollback(this.offset):this._start(this.offset)}stop(){this._pause(),this.offset=0,this.rollbackStartOffset=0,this._rollingBack=!1,this._apply(0)}reachedToEnd(){return this.iterations>0&&this.offset>=this.iterations*this.duration}restart(t=!1){this.stop(t),this.play(t)}pause(){this._pause()}toggle(){return this._running?this.pause():this.reachedToEnd()?this.restart():this.play()}trigger(t,e){}_adjustOffset(t=!1){const e=this.alternate?2*this.duration:this.duration;if(t){if(!this._rollingBack&&0===this.offset)return void(this.offset=e);this._rollingBack&&(this.offset,this.maxFiniteDuration)}!this._rollingBack||this.rollbackStartOffset<=this.duration?0!==this.iterations&&(this.offset=Math.min(this.offset,this.maxFiniteDuration)):(this.offset=this.rollbackStartOffset-(this.rollbackStartOffset-this.offset)%e,this.rollbackStartOffset=0)}reverse(t=!1){if(!this._running)return this._adjustOffset(t),this._rollingBack=!this._rollingBack,t&&this.play(!1),void this.trigger("reverse",this.offset);this.pause(!1,!1),this._adjustOffset(),this._rollingBack=!this._rollingBack,this.play(!1),this.trigger("reverse",this.offset)}}{constructor(t){super(t),this._handlers=[]}static build(t){let e=super.build(t,fe);if(!e)return null;let{el:n,options:r,player:i}=e;const s=new pe(i),o=new ye(s);s.on=o.on,s.off=o.off,i.trigger=o.trigger;const u=n.svgatorPlayer&&n.svgatorPlayer.ready&&n.svgatorPlayer.ready.call&&n.svgatorPlayer.ready.call();n.svgatorPlayer=s,be.adjustLink(n),be.autoPlay(i,n,r,i._handlers),function(t,e,n){let r;"function"==typeof Event?r=new Event("ready"):(r=document.createEvent("Event"),r.initEvent("ready",!0,!0));if(t.dispatchEvent(r),!n||!n.length)return;n.forEach((t=>e.ready(t)))}(n,n.svgatorPlayer,u)}play(t=true){const e=super.play();return t===we&&this.trigger("play",this.offset),e}pause(t=!1,e=true){const n=super.pause();return e===we&&this.trigger(t?"end":"pause",this.offset),n}restart(){const t=super.restart(!1);return this.trigger("restart",this.offset),t}stop(t=true){const e=super.stop();return t===we&&this.trigger("stop",this.offset),e}_apply(t,e={},n=true){const r=super._apply(t);if(n===we){const e=()=>this.trigger("keyframe",t);window.requestAnimationFrame(e)}return r}seekTo(t){const e=this._running;var n,r,i;e&&this.pause(!1,!1),this.offset=this.iterations>0?(n=t,r=0,i=this.maxFiniteDuration,n<r?r:n>i?i:n):Math.max(t,0),this._apply(this.offset),e&&this.play(!1)}seek(t){return this.seekTo(Math.round(t/100*this.maxFiniteDuration))}seekBy(t){return this.seekTo(this.offset+t)}set(t,e){if(!xe.includes(t))return;const n=this._running;n&&this.pause(!1,!1),this._settings[t]=e,n?this.play(!1):this._apply(this.offset,{},!1)}destruct(){this.stop(),this._handlers.forEach((t=>{t.element?t.element.removeEventListener(t.event,t.handler):t.callback&&t.callback.call&&t.callback.call()}));const t=()=>{},e=Object.getOwnPropertyNames(Object.getPrototypeOf(this));e.push(...Object.getOwnPropertyNames(this)),e.forEach((e=>{"function"==typeof this[e]?this[e]=t:delete this[e]}))}}return Ae.init(),Ae}));
(function(s,i,o,w,d,a,b){(a=Array.from(d.querySelectorAll('svg#' + i.root)).filter(n=> !n.svgatorPlayer)[0]||{}).svgatorPlayer={ready:(function(a){b=[];return function(c){return c?(b.push(c),a.svgatorPlayer):b}})(a)};w[o]=w[o]||{};w[o][s]=w[o][s]||[];w[o][s].push(i);})('91c80d77',{"root":"efHZYoSbUk71","version":"2025-04-07","animations":[{"elements":{"efHZYoSbUk718":{"transform":{"data":{"t":{"x":-24,"y":-24}},"keys":{"o":[{"t":0,"v":{"x":365.528142,"y":71.534192,"type":"cusp","end":{"x":260.571131,"y":82.428983}}},{"t":2000,"v":{"x":171.55845,"y":293.5,"type":"cusp","start":{"x":171.55845,"y":176.849},"end":{"x":171.55845,"y":407.650821}}},{"t":4000,"v":{"x":365.948508,"y":510.680616,"type":"cusp","start":{"x":271.034912,"y":496.131813}}}],"s":[{"t":0,"v":{"x":0.707057,"y":0.707057}},{"t":500,"v":{"x":1.126143,"y":1.126143}},{"t":2000,"v":{"x":1.53969,"y":1.53969}},{"t":3500,"v":{"x":1.138151,"y":1.138151}},{"t":4000,"v":{"x":0.847476,"y":0.847476}}]}},"opacity":[{"t":0,"v":0},{"t":500,"v":1},{"t":3500,"v":1},{"t":4000,"v":0}]},"efHZYoSbUk721":{"transform":{"data":{"t":{"x":-24,"y":-24}},"keys":{"o":[{"t":0,"v":{"x":305.050034,"y":528.676,"type":"cusp","end":{"x":265.490652,"y":519.142769}}},{"t":1000,"v":{"x":179.25211,"y":444.558979,"type":"cusp","start":{"x":201.95207,"y":478.189056},"end":{"x":135.932842,"y":399.064545}}},{"t":2000,"v":{"x":119.68025,"y":293.5,"type":"cusp","start":{"x":121.97588,"y":338.385985},"end":{"x":122.517895,"y":228.035521}}},{"t":3000,"v":{"x":182.991008,"y":135.079816,"type":"cusp","start":{"x":143.300817,"y":175.308959},"end":{"x":235.983757,"y":83.62097}}},{"t":4000,"v":{"x":333.624574,"y":44.150193,"type":"cusp","start":{"x":285.608825,"y":52.81752}}}],"s":[{"t":0,"v":{"x":0.979591,"y":0.979591}},{"t":1000,"v":{"x":1.429097,"y":1.429097}},{"t":2000,"v":{"x":1.212998,"y":1.212998}},{"t":3000,"v":{"x":1.740383,"y":1.740383}},{"t":4000,"v":{"x":0.979591,"y":0.979591}}]}},"opacity":[{"t":10,"v":0},{"t":1000,"v":1},{"t":3000,"v":1},{"t":4000,"v":0}]},"efHZYoSbUk724":{"transform":{"data":{"t":{"x":-24.153104,"y":-32.094642}},"keys":{"o":[{"t":0,"v":{"x":626.976441,"y":529.415721,"type":"cusp","end":{"x":863.33545,"y":433.737016}}},{"t":4000,"v":{"x":631.132441,"y":77.857641,"type":"cusp","start":{"x":884.297619,"y":165.956093}}}],"s":[{"t":0,"v":{"x":1.052797,"y":1.052797}},{"t":2000,"v":{"x":1.654926,"y":1.654926}},{"t":4000,"v":{"x":1.048467,"y":1.048467}}]}},"opacity":[{"t":0,"v":0},{"t":500,"v":1},{"t":3500,"v":1},{"t":4000,"v":0}]},"efHZYoSbUk743":{"transform":{"data":{"t":{"x":-24,"y":-24}},"keys":{"o":[{"t":0,"v":{"x":640.281007,"y":39.049508,"type":"cusp","end":{"x":936.174007,"y":137.658123}}},{"t":4000,"v":{"x":640.281007,"y":541.40983,"type":"cusp","start":{"x":936.174007,"y":452.811243}}}],"s":[{"t":0,"v":{"x":1,"y":1}},{"t":1000,"v":{"x":1.348541,"y":1.348541}},{"t":3000,"v":{"x":1.356534,"y":1.356534}},{"t":4000,"v":{"x":1.108727,"y":1.108727}}]}},"opacity":[{"t":0,"v":0},{"t":500,"v":1},{"t":3500,"v":1},{"t":4000,"v":0}]}},"s":"MDJA1ZGM5NzBiMYmMzYzBhZmMyHYjdiZGJjNzAT4ODgyN2U3ZTLdlN2FFNzBiMTlNiN2MwRWIzPYjFjMmI3YmRLiYzcwODg3ZjTdhNzBiN2MyYSjNjMGFmYzJiPN0piZGJjYzEC3MDg4N2U3YTLcwRmI0YjdiYHWJhNzA4ODdmKN2E3MGFmS2JThYzJiM2MwYmJNhZmMyYjM3MGDg4YjRhZmJhQWWMxYjM3YTcEwUmMxYmViM2KIzYjJBNzA4OYDdmSzdhNzBiYNE5iZWMxNzAI4ODdmN2U3ZWENi"}],"options":"MDIAxMDgyMjk3YBTdiUzY4Nzk3MYjI5NDEyOTcMzNzY2ODZiMjElWODQ/"},'__SVGATOR_PLAYER__',window,document)
]]></script>
</svg>
